# This file uses centimeters as units for non-parametric coordinates.

mtllib Sunmao_009.mtl
g default
v 0.010871 -0.215887 0.211265
v 0.697228 -0.215887 0.211265
v 0.010871 0.206643 0.211265
v 0.697228 0.206643 0.211265
v 0.010871 0.206643 -0.211265
v 0.697228 0.206643 -0.211265
v 0.010871 -0.215887 -0.211265
v 0.697228 -0.215887 -0.211265
v 0.010871 -0.057438 0.211265
v 0.697228 -0.057438 0.211265
v 0.697228 -0.057438 -0.211265
v 0.010871 -0.057438 -0.211265
v 0.010871 0.048195 0.211265
v 0.697228 0.048195 0.211265
v 0.697228 0.048195 -0.211265
v 0.010871 0.048195 -0.211265
v -0.303055 -0.057438 -0.211265
v -0.303055 -0.057438 0.211265
v -0.303055 0.048195 0.211265
v -0.303055 0.048195 -0.211265
v -0.190360 0.206643 0.000001
v -0.190360 0.048195 0.000001
v -0.303055 0.048195 0.000001
v -0.303055 -0.057438 0.000001
v 0.010871 -0.057438 0.000001
v 0.010871 -0.215887 0.000001
v 0.697228 -0.215887 0.000001
v 0.697228 -0.057438 0.000001
v 0.697228 0.048195 0.000001
v 0.697228 0.206643 0.000001
vt 0.635816 0.470325
vt 0.635816 0.655889
vt 0.592978 0.655889
vt 0.592978 0.470325
vt 0.692934 0.470325
vt 0.692934 0.710294
vt 0.750052 0.655889
vt 0.750052 0.470325
vt 0.792890 0.470325
vt 0.792890 0.655889
vt 0.921405 0.655889
vt 0.921405 0.470325
vt 0.978523 0.470325
vt 0.978523 0.655889
vt 0.592978 0.413207
vt 0.635816 0.413207
vt 0.635816 0.710294
vt 0.592978 0.710294
vt 0.564419 0.470325
vt 0.564419 0.655889
vt 0.521581 0.655889
vt 0.521581 0.470325
vt 0.521581 0.413207
vt 0.564419 0.413207
vt 0.864287 0.655889
vt 0.821449 0.655889
vt 0.821449 0.470325
vt 0.864287 0.470325
vt 0.978522 0.698728
vt 0.921405 0.698727
vt 0.978522 0.783602
vt 0.978521 0.812161
vt 0.921403 0.812160
vt 0.921404 0.783601
vt 0.564419 0.740762
vt 0.592978 0.740762
vt 0.978519 0.897034
vt 0.921403 0.842628
vt 0.821449 0.740762
vt 0.792890 0.740762
vt 0.750052 0.710294
vt 0.792890 0.710294
vt 0.864284 0.897032
vt 0.864286 0.812159
vt 0.864286 0.783600
vt 0.864287 0.698727
vt 0.521581 0.356089
vt 0.564419 0.356089
vt 0.592978 0.356089
vt 0.635817 0.356090
vn 0.000000 0.000000 1.000000
vn 0.000000 0.000000 1.000000
vn 0.000000 0.000000 1.000000
vn 0.000000 0.000000 1.000000
vn 0.000000 1.000000 0.000000
vn 0.000000 1.000000 0.000000
vn 0.000000 1.000000 0.000000
vn 0.000000 1.000000 0.000000
vn 0.000000 0.000000 -1.000000
vn 0.000000 0.000000 -1.000000
vn 0.000000 0.000000 -1.000000
vn 0.000000 0.000000 -1.000000
vn 0.000000 -1.000000 0.000000
vn 0.000000 -1.000000 0.000000
vn 0.000000 -1.000000 0.000000
vn 0.000000 -1.000000 0.000000
vn 1.000000 0.000000 0.000000
vn 1.000000 0.000000 0.000000
vn 1.000000 0.000000 0.000000
vn 1.000000 0.000000 0.000000
vn -0.724093 0.000000 0.689702
vn -0.724093 0.000000 0.689702
vn -0.724093 0.000000 0.689702
vn -0.724093 0.000000 0.689702
vn 0.000000 0.000000 1.000000
vn 0.000000 0.000000 1.000000
vn 0.000000 0.000000 1.000000
vn 0.000000 0.000000 1.000000
vn 1.000000 0.000000 0.000000
vn 1.000000 0.000000 0.000000
vn 1.000000 0.000000 0.000000
vn 1.000000 0.000000 0.000000
vn 0.000000 0.000000 -1.000000
vn 0.000000 0.000000 -1.000000
vn 0.000000 0.000000 -1.000000
vn 0.000000 0.000000 -1.000000
vn -1.000000 0.000000 0.000000
vn -1.000000 0.000000 0.000000
vn -1.000000 0.000000 0.000000
vn -1.000000 0.000000 0.000000
vn 0.000000 0.000000 1.000000
vn 0.000000 0.000000 1.000000
vn 0.000000 0.000000 1.000000
vn 0.000000 0.000000 1.000000
vn 1.000000 0.000000 0.000000
vn 1.000000 0.000000 0.000000
vn 1.000000 0.000000 0.000000
vn 1.000000 0.000000 0.000000
vn 0.000000 0.000000 -1.000000
vn 0.000000 0.000000 -1.000000
vn 0.000000 0.000000 -1.000000
vn 0.000000 0.000000 -1.000000
vn -1.000000 0.000000 0.000000
vn -1.000000 0.000000 0.000000
vn -1.000000 0.000000 0.000000
vn -1.000000 0.000000 0.000000
vn 0.000000 -1.000000 0.000000
vn 0.000000 -1.000000 0.000000
vn 0.000000 -1.000000 0.000000
vn 0.000000 -1.000000 0.000000
vn 0.000000 0.000000 1.000000
vn 0.000000 0.000000 1.000000
vn 0.000000 0.000000 1.000000
vn 0.000000 0.000000 1.000000
vn 0.000000 1.000000 0.000000
vn 0.000000 1.000000 0.000000
vn 0.000000 1.000000 0.000000
vn 0.000000 1.000000 0.000000
vn 0.000000 0.000000 -1.000000
vn 0.000000 0.000000 -1.000000
vn 0.000000 0.000000 -1.000000
vn 0.000000 0.000000 -1.000000
vn -0.724093 0.000000 -0.689702
vn -0.724093 0.000000 -0.689702
vn -0.724093 0.000000 -0.689702
vn -0.724093 0.000000 -0.689702
vn 0.000000 1.000000 0.000000
vn 0.000000 1.000000 0.000000
vn 0.000000 1.000000 0.000000
vn 0.000000 1.000000 0.000000
vn -1.000000 0.000000 0.000000
vn -1.000000 0.000000 0.000000
vn -1.000000 0.000000 0.000000
vn -1.000000 0.000000 0.000000
vn 0.000000 -1.000000 0.000000
vn 0.000000 -1.000000 0.000000
vn 0.000000 -1.000000 0.000000
vn 0.000000 -1.000000 0.000000
vn -1.000000 0.000000 0.000000
vn -1.000000 0.000000 0.000000
vn -1.000000 0.000000 0.000000
vn -1.000000 0.000000 0.000000
vn 0.000000 -1.000000 0.000000
vn 0.000000 -1.000000 0.000000
vn 0.000000 -1.000000 0.000000
vn 0.000000 -1.000000 0.000000
vn 1.000000 0.000000 0.000000
vn 1.000000 0.000000 0.000000
vn 1.000000 0.000000 0.000000
vn 1.000000 0.000000 0.000000
vn 1.000000 0.000000 0.000000
vn 1.000000 0.000000 0.000000
vn 1.000000 0.000000 0.000000
vn 1.000000 0.000000 0.000000
vn 1.000000 0.000000 0.000000
vn 1.000000 0.000000 0.000000
vn 1.000000 0.000000 0.000000
vn 1.000000 0.000000 0.000000
vn 0.000000 1.000000 0.000000
vn 0.000000 1.000000 0.000000
vn 0.000000 1.000000 0.000000
vn 0.000000 1.000000 0.000000
s off
g initialShadingGroup Sunmao_009_A
f 4/1/1 3/2/2 13/3/3 14/4/4
f 3/2/5 4/1/6 30/5/7 21/6/8
f 5/7/9 6/8/10 15/9/11 16/10/12
f 26/11/13 27/12/14 2/13/15 1/14/16
f 29/15/17 30/16/18 4/1/19 14/4/20
f 13/3/21 3/2/22 21/17/23 22/18/24
f 10/19/25 9/20/26 1/21/27 2/22/28
f 27/23/29 28/24/30 10/19/31 2/22/32
f 7/25/33 12/26/34 11/27/35 8/28/36
f 1/14/37 9/29/38 25/30/39 26/11/40
f 14/4/41 13/3/42 9/20/43 10/19/44
f 28/24/45 29/15/46 14/4/47 10/19/48
f 16/10/49 15/9/50 11/27/51 12/26/52
f 18/31/53 19/32/54 23/33/55 24/34/56
f 25/30/57 9/29/58 18/31/59 24/34/60
f 18/35/61 9/20/62 13/3/63 19/36/64
f 13/37/65 22/38/66 23/33/67 19/32/68
f 17/39/69 20/40/70 16/10/71 12/26/72
f 21/41/73 5/7/74 16/10/75 22/42/76
f 23/33/77 22/38/78 16/43/79 20/44/80
f 23/33/81 20/44/82 17/45/83 24/34/84
f 12/46/85 25/30/86 24/34/87 17/45/88
f 25/30/89 12/46/90 7/25/91 26/11/92
f 7/25/93 8/28/94 27/12/95 26/11/96
f 8/47/97 11/48/98 28/24/99 27/23/100
f 11/48/101 15/49/102 29/15/103 28/24/104
f 15/49/105 6/50/106 30/16/107 29/15/108
f 21/6/109 30/5/110 6/8/111 5/7/112
g default
v -0.303055 -0.057438 0.211265
v -0.303055 0.048195 0.211265
v 0.010871 0.048195 0.211265
v 0.010871 -0.057438 0.211265
v 0.010871 0.215887 0.211265
v -0.190360 0.048195 0.000001
v -0.190360 0.215887 0.000001
v -0.697228 -0.206644 0.631601
v 0.010871 -0.206644 0.631601
v 0.010871 0.215887 0.631601
v -0.697228 0.215887 0.631601
v 0.010871 -0.206644 0.211265
v -0.303055 0.048195 0.000001
v 0.010871 0.215887 -0.211265
v 0.010871 0.215887 -0.631601
v -0.697228 0.215887 -0.631601
v 0.010871 0.048195 -0.211265
v 0.010871 -0.057438 0.000001
v -0.303055 -0.057438 0.000001
v -0.303055 0.048195 -0.211265
v 0.010871 -0.057438 -0.211265
v 0.010871 -0.206644 -0.211265
v -0.303055 -0.057438 -0.211265
v -0.697228 -0.206644 -0.631601
v 0.010871 -0.206644 -0.631601
v -0.697228 -0.206644 0.000001
v -0.697228 0.215887 0.000001
v -0.697228 0.215887 0.211265
v -0.697227 -0.206644 0.211265
v -0.697228 0.215887 -0.211265
v -0.697228 -0.206644 -0.211265
v 0.010871 0.048195 0.631601
v -0.697228 0.048195 0.631601
v -0.697228 0.048195 0.211265
v -0.697228 0.048195 0.000001
v -0.697228 0.048195 -0.211265
v -0.697228 0.048195 -0.631601
v 0.010871 0.048195 -0.631601
v 0.010871 -0.057438 0.631601
v -0.697228 -0.057438 0.631601
v -0.697227 -0.057438 0.211265
v -0.697227 -0.057438 0.000001
v -0.697228 -0.057438 -0.211265
v -0.697228 -0.057438 -0.631601
v 0.010871 -0.057438 -0.631601
v 0.010871 -0.206644 0.000001
vt 0.739112 0.254791
vt 0.739112 0.226451
vt 0.823333 0.226451
vt 0.823333 0.254791
vt 0.264963 0.121101
vt 0.264964 0.082342
vt 0.322412 0.082343
vt 0.322411 0.148463
vt 0.076339 0.117677
vt 0.076335 0.310228
vt 0.035762 0.310227
vt 0.035766 0.117676
vt 0.150663 0.119389
vt 0.150664 0.082339
vt 0.739112 0.169773
vt 0.769346 0.169773
vt 0.322406 0.381137
vt 0.379854 0.381138
vt 0.379853 0.421711
vt 0.322405 0.421710
vt 0.379861 0.082344
vt 0.379860 0.121104
vt 0.823333 0.311469
vt 0.739112 0.311469
vt 0.710773 0.226452
vt 0.710772 0.169773
vt 0.739111 0.113094
vt 0.823333 0.113094
vt 0.823333 0.368149
vt 0.739112 0.368148
vt 0.823333 0.396488
vt 0.739112 0.396488
vt 0.710772 0.113094
vt 0.494161 0.082347
vt 0.379862 0.053620
vt 0.494162 0.053622
vt 0.568480 0.310238
vt 0.568484 0.117688
vt 0.609057 0.117689
vt 0.609053 0.310239
vt 0.150658 0.381133
vt 0.264958 0.381136
vt 0.264957 0.421709
vt 0.150657 0.421706
vt 0.150659 0.308519
vt 0.264959 0.306812
vt 0.322408 0.306813
vt 0.494155 0.381141
vt 0.494154 0.421714
vt 0.379856 0.306814
vt 0.494160 0.119396
vt 0.494156 0.308527
vt 0.105059 0.310228
vt 0.105064 0.117678
vt 0.264958 0.352412
vt 0.150658 0.352409
vt 0.322407 0.352413
vt 0.379855 0.352414
vt 0.494155 0.352417
vt 0.539760 0.117687
vt 0.539756 0.310238
vt 0.150665 0.053615
vt 0.264965 0.053617
vt 0.150666 0.013042
vt 0.264966 0.013044
vt 0.379862 0.013047
vt 0.494163 0.013049
vt 0.150652 0.614257
vt 0.264953 0.614259
vt 0.379849 0.614262
vt 0.494150 0.614264
vt 0.322413 0.053619
vt 0.322414 0.013046
vt 0.322401 0.614260
vn 0.000000 0.000000 -1.000000
vn 0.000000 0.000000 -1.000000
vn 0.000000 0.000000 -1.000000
vn 0.000000 0.000000 -1.000000
vn 0.724092 0.000000 -0.689704
vn 0.724092 0.000000 -0.689704
vn 0.724092 0.000000 -0.689704
vn 0.724092 0.000000 -0.689704
vn 0.000000 0.000000 1.000000
vn 0.000000 0.000000 1.000000
vn 0.000000 0.000000 1.000000
vn 0.000000 0.000000 1.000000
vn 1.000000 0.000000 0.000000
vn 1.000000 0.000000 0.000000
vn 1.000000 0.000000 0.000000
vn 1.000000 0.000000 0.000000
vn 0.000000 -1.000000 0.000000
vn 0.000000 -1.000000 0.000000
vn 0.000000 -1.000000 0.000000
vn 0.000000 -1.000000 0.000000
vn -1.000000 0.000001 0.000001
vn -1.000000 0.000001 0.000001
vn -1.000000 0.000001 0.000001
vn -1.000000 0.000001 0.000001
vn 0.724094 0.000000 0.689701
vn 0.724094 0.000000 0.689701
vn 0.724094 0.000000 0.689701
vn 0.724094 0.000000 0.689701
vn 0.000000 1.000000 0.000000
vn 0.000000 1.000000 0.000000
vn 0.000000 1.000000 0.000000
vn 0.000000 1.000000 0.000000
vn 1.000000 0.000000 0.000000
vn 1.000000 0.000000 0.000000
vn 1.000000 0.000000 0.000000
vn 1.000000 0.000000 0.000000
vn 0.000000 -1.000000 0.000000
vn 0.000000 -1.000000 0.000000
vn 0.000000 -1.000000 0.000000
vn 0.000000 -1.000000 0.000000
vn 0.000000 1.000000 0.000000
vn 0.000000 1.000000 0.000000
vn 0.000000 1.000000 0.000000
vn 0.000000 1.000000 0.000000
vn 0.000000 0.000000 1.000000
vn 0.000000 0.000000 1.000000
vn 0.000000 0.000000 1.000000
vn 0.000000 0.000000 1.000000
vn 1.000000 0.000000 0.000000
vn 1.000000 0.000000 0.000000
vn 1.000000 0.000000 0.000000
vn 1.000000 0.000000 0.000000
vn 1.000000 0.000000 0.000000
vn 1.000000 0.000000 0.000000
vn 1.000000 0.000000 0.000000
vn 1.000000 0.000000 0.000000
vn 0.000000 0.000000 -1.000000
vn 0.000000 0.000000 -1.000000
vn 0.000000 0.000000 -1.000000
vn 0.000000 0.000000 -1.000000
vn -1.000000 0.000000 -0.000001
vn -1.000000 0.000000 -0.000001
vn -1.000000 0.000000 -0.000001
vn -1.000000 0.000000 -0.000001
vn 0.000000 1.000000 0.000000
vn 0.000000 1.000000 0.000000
vn 0.000000 1.000000 0.000000
vn 0.000000 1.000000 0.000000
vn 0.000000 1.000000 0.000000
vn 0.000000 1.000000 0.000000
vn 0.000000 1.000000 0.000000
vn 0.000000 1.000000 0.000000
vn -1.000000 0.000001 0.000001
vn -1.000000 0.000001 0.000001
vn -1.000000 0.000001 0.000001
vn -1.000000 0.000001 0.000001
vn -1.000000 0.000000 0.000000
vn -1.000000 0.000000 0.000000
vn -1.000000 0.000000 0.000000
vn -1.000000 0.000000 0.000000
vn 0.000000 1.000000 0.000000
vn 0.000000 1.000000 0.000000
vn 0.000000 1.000000 0.000000
vn 0.000000 1.000000 0.000000
vn 0.000000 1.000000 0.000000
vn 0.000000 1.000000 0.000000
vn 0.000000 1.000000 0.000000
vn 0.000000 1.000000 0.000000
vn 0.000000 0.000000 1.000000
vn 0.000000 0.000000 1.000000
vn 0.000000 0.000000 1.000000
vn 0.000000 0.000000 1.000000
vn -1.000000 0.000000 0.000000
vn -1.000000 0.000000 0.000000
vn -1.000000 0.000000 0.000000
vn -1.000000 0.000000 0.000000
vn -1.000000 0.000000 0.000000
vn -1.000000 0.000000 0.000000
vn -1.000000 0.000000 0.000000
vn -1.000000 0.000000 0.000000
vn -1.000000 0.000000 0.000000
vn -1.000000 0.000000 0.000000
vn -1.000000 0.000000 0.000000
vn -1.000000 0.000000 0.000000
vn -1.000000 0.000000 0.000000
vn -1.000000 0.000000 0.000000
vn -1.000000 0.000000 0.000000
vn -1.000000 0.000000 0.000000
vn 0.000000 0.000000 -1.000000
vn 0.000000 0.000000 -1.000000
vn 0.000000 0.000000 -1.000000
vn 0.000000 0.000000 -1.000000
vn 0.000000 0.000000 1.000000
vn 0.000000 0.000000 1.000000
vn 0.000000 0.000000 1.000000
vn 0.000000 0.000000 1.000000
vn -1.000000 -0.000001 0.000000
vn -1.000000 -0.000001 0.000000
vn -1.000000 -0.000001 0.000000
vn -1.000000 -0.000001 0.000000
vn -1.000000 -0.000002 0.000000
vn -1.000000 -0.000002 0.000000
vn -1.000000 -0.000002 0.000000
vn -1.000000 -0.000002 0.000000
vn -1.000000 -0.000001 0.000001
vn -1.000000 -0.000001 0.000001
vn -1.000000 -0.000001 0.000001
vn -1.000000 -0.000001 0.000001
vn -1.000000 0.000000 0.000000
vn -1.000000 0.000000 0.000000
vn -1.000000 0.000000 0.000000
vn -1.000000 0.000000 0.000000
vn 0.000000 0.000000 -1.000000
vn 0.000000 0.000000 -1.000000
vn 0.000000 0.000000 -1.000000
vn 0.000000 0.000000 -1.000000
vn 1.000000 0.000000 0.000000
vn 1.000000 0.000000 0.000000
vn 1.000000 0.000000 0.000000
vn 1.000000 0.000000 0.000000
vn 1.000000 0.000000 0.000000
vn 1.000000 0.000000 0.000000
vn 1.000000 0.000000 0.000000
vn 1.000000 0.000000 0.000000
vn 1.000000 0.000000 0.000000
vn 1.000000 0.000000 0.000000
vn 1.000000 0.000000 0.000000
vn 1.000000 0.000000 0.000000
vn 1.000000 0.000000 0.000000
vn 1.000000 0.000000 0.000000
vn 1.000000 0.000000 0.000000
vn 1.000000 0.000000 0.000000
vn 0.000000 -1.000000 0.000000
vn 0.000000 -1.000000 0.000000
vn 0.000000 -1.000000 0.000000
vn 0.000000 -1.000000 0.000000
vn 0.000000 -1.000000 0.000000
vn 0.000000 -1.000000 0.000000
vn 0.000000 -1.000000 0.000000
vn 0.000000 -1.000000 0.000000
vn 1.000000 0.000000 0.000000
vn 1.000000 0.000000 0.000000
vn 1.000000 0.000000 0.000000
vn 1.000000 0.000000 0.000000
vn 1.000000 0.000000 0.000000
vn 1.000000 0.000000 0.000000
vn 1.000000 0.000000 0.000000
vn 1.000000 0.000000 0.000000
vn 0.000000 -1.000000 0.000000
vn 0.000000 -1.000000 0.000000
vn 0.000000 -1.000000 0.000000
vn 0.000000 -1.000000 0.000000
vn 0.000000 -1.000000 0.000000
vn 0.000000 -1.000000 0.000000
vn 0.000000 -1.000000 0.000000
vn 0.000000 -1.000000 0.000000
s off
g initialShadingGroup Sunmao_009_B
f 31/51/113 32/52/114 33/53/115 34/54/116
f 35/55/117 33/56/118 36/57/119 37/58/120
f 69/59/121 70/60/122 38/61/123 39/62/124
f 40/63/125 62/64/126 33/56/127 35/55/128
f 33/53/129 32/52/130 43/65/131 36/66/132
f 72/67/133 73/68/134 61/69/135 56/70/136
f 37/58/137 36/57/138 47/71/139 44/72/140
f 48/73/141 49/74/142 31/51/143 34/54/144
f 31/75/145 49/76/146 43/65/147 32/52/148
f 43/65/149 50/77/150 47/78/151 36/66/152
f 51/79/153 53/80/154 49/74/155 48/73/156
f 53/80/157 51/79/158 47/81/159 50/82/160
f 43/65/161 49/76/162 53/83/163 50/77/164
f 68/84/165 47/71/166 51/85/167 75/86/168
f 74/87/169 75/88/170 55/89/171 54/90/172
f 70/91/173 71/92/174 59/93/175 38/94/176
f 41/95/177 40/63/178 35/55/179 58/96/180
f 58/96/181 35/55/182 37/58/183 57/97/184
f 71/92/185 72/67/186 56/70/187 59/93/188
f 73/68/189 74/98/190 54/99/191 61/69/192
f 57/97/193 37/58/194 44/72/195 60/100/196
f 60/100/197 44/72/198 45/101/199 46/102/200
f 40/63/201 41/95/202 63/103/203 62/104/204
f 41/95/205 58/96/206 64/105/207 63/106/208
f 58/96/209 57/97/210 65/107/211 64/105/212
f 57/97/213 60/100/214 66/108/215 65/107/216
f 60/100/217 46/102/218 67/109/219 66/108/220
f 46/102/221 45/101/222 68/110/223 67/111/224
f 62/104/225 63/103/226 70/60/227 69/59/228
f 63/106/229 64/105/230 71/92/231 70/91/232
f 64/105/233 65/107/234 72/67/235 71/92/236
f 65/107/237 66/108/238 73/68/239 72/67/240
f 66/108/241 67/109/242 74/98/243 73/68/244
f 67/111/245 68/110/246 75/88/247 74/87/248
f 33/56/249 62/64/250 69/112/251 34/113/252
f 34/113/253 69/112/254 39/114/255 42/115/256
f 75/86/257 51/85/258 52/116/259 55/117/260
f 45/101/261 44/72/262 47/71/263 68/84/264
f 39/118/265 38/94/266 59/93/267 42/119/268
f 52/120/269 61/69/270 54/99/271 55/121/272
f 48/122/273 34/113/274 42/115/275 76/123/276
f 51/85/277 48/122/278 76/123/279 52/116/280
f 76/124/281 42/119/282 59/93/283 56/70/284
f 52/120/285 76/124/286 56/70/287 61/69/288
