# This file uses centimeters as units for non-parametric coordinates.

mtllib Sunmao_003.mtl
g default
v -0.497275 0.004624 0.496952
v -0.153160 0.004624 0.153625
v -0.153160 0.004624 0.496952
v -0.497275 0.004624 0.153625
v -0.497880 0.561005 0.149664
v -0.151042 0.558746 0.151344
v 0.153403 0.004046 -0.152306
v 0.151598 0.558746 -0.150841
v 0.149872 0.561005 -0.497412
v 0.153892 0.004624 -0.496672
v -0.151042 0.558746 -0.150841
v -0.149513 0.561005 -0.497412
v -0.497880 0.561005 -0.149549
v 0.497106 0.004624 -0.152637
v 0.497749 0.561005 -0.149549
v -0.149513 0.561005 0.497629
v 0.151598 0.558746 0.151344
v 0.497106 0.004624 0.153625
v 0.497106 0.004624 0.496952
v 0.153892 0.004624 0.496952
v 0.153892 0.004624 0.153625
v 0.497106 1.388211 -0.496672
v 0.497106 0.004624 -0.496672
v -0.497275 1.388211 0.496952
v -0.497275 1.388211 -0.496672
v 0.497749 0.561005 0.149664
v 0.149872 0.561005 0.497629
v 0.497106 1.388211 0.496952
v -0.497275 0.004624 -0.496672
v -0.497275 0.004624 -0.152637
v -0.153160 0.004624 -0.496672
v -0.152763 0.004046 -0.152306
v -0.497880 0.561977 0.497629
v -0.497880 0.561977 -0.497412
v 0.497749 0.561977 0.497629
v 0.497749 0.561977 -0.497412
v -0.150512 1.389328 0.497629
v -0.150512 1.389328 -0.497412
v 0.497749 1.389328 0.150919
v -0.150512 1.393241 0.150919
v -0.497880 1.389328 0.150919
v 0.151335 1.389328 0.497629
v 0.151335 1.393241 0.150919
v 0.151335 1.389328 -0.497412
v -0.497880 1.389328 -0.150363
v -0.150512 1.393240 -0.150363
v 0.151335 1.393240 -0.150363
v 0.497749 1.389328 -0.150363
v 0.497749 0.977057 -0.497412
v 0.151335 0.977057 -0.500000
v -0.150512 0.977058 -0.500000
v -0.497880 0.977058 -0.497412
v -0.500000 0.977057 -0.150363
v -0.500000 0.977058 0.150919
v -0.497880 0.977058 0.497629
v -0.150512 0.977058 0.500000
v 0.151335 0.977058 0.500000
v 0.497749 0.977058 0.497629
v 0.500000 0.977057 0.150919
v 0.500000 0.977057 -0.150363
vt 0.293056 0.668033
vt 0.342701 0.667966
vt 0.342948 0.710850
vt 0.293306 0.711383
vt 0.340752 0.247886
vt 0.399762 0.247886
vt 0.399762 0.291124
vt 0.340752 0.291124
vt 0.198306 0.291124
vt 0.198341 0.341149
vt 0.139295 0.340882
vt 0.139294 0.291124
vt 0.139294 0.247887
vt 0.198306 0.247886
vt 0.399762 0.340882
vt 0.340756 0.340795
vt 0.079837 0.340882
vt 0.000000 0.340796
vt 0.000000 0.291504
vt 0.079698 0.290981
vt 0.170799 0.748334
vt 0.091426 0.748732
vt 0.090989 0.699442
vt 0.170683 0.698651
vt 0.243375 0.668462
vt 0.243292 0.588765
vt 0.292641 0.588577
vt 0.341968 0.588272
vt 0.539056 0.340795
vt 0.459219 0.340882
vt 0.459359 0.290981
vt 0.539056 0.291503
vt 0.343178 0.790547
vt 0.293851 0.790839
vt 0.042859 0.828864
vt 0.042249 0.749168
vt 0.092456 0.828100
vt 0.092932 0.871449
vt 0.043329 0.871746
vt 0.093597 0.950821
vt 0.044422 0.951436
vt 0.198264 0.079837
vt 0.198361 0.000000
vt 0.247540 0.000000
vt 0.248108 0.079698
vt 0.247927 0.198307
vt 0.198318 0.198273
vt 0.198264 0.139294
vt 0.247928 0.139294
vt 0.247927 0.247886
vt 0.247927 0.291124
vt 0.247950 0.340989
vt 0.248266 0.400151
vt 0.198603 0.400398
vt 0.199393 0.539690
vt 0.198899 0.459855
vt 0.248742 0.459746
vt 0.248572 0.539445
vt 0.041812 0.699878
vt 0.341721 0.538981
vt 0.292441 0.539227
vt 0.341430 0.459145
vt 0.291602 0.459532
vt 0.291422 0.399936
vt 0.291106 0.340882
vt 0.341134 0.399689
vt 0.291084 0.291124
vt 0.291084 0.247886
vt 0.291084 0.198307
vt 0.291084 0.139294
vt 0.340797 0.139294
vt 0.340735 0.198273
vt 0.340691 0.000000
vt 0.340797 0.079837
vt 0.290968 0.079698
vt 0.291410 0.000000
vt 0.142513 0.870915
vt 0.142760 0.950612
vt 0.093807 1.000000
vt 0.142970 0.999790
vt 0.000000 0.198358
vt 0.079837 0.198265
vt 0.079698 0.248096
vt 0.000000 0.247521
vt 0.139294 0.198265
vt 0.399762 0.198265
vt 0.459220 0.198265
vt 0.539056 0.198358
vt 0.539056 0.247521
vt 0.459359 0.248096
vt 0.214396 0.791373
vt 0.294260 0.840070
vt 0.214567 0.840957
vt 0.343539 0.839709
vt 0.171708 0.841265
vt 0.171111 0.791684
vt 0.214084 0.748023
vt 0.213543 0.698344
vn 0.000000 -0.999979 -0.006518
vn 0.000000 -0.999979 -0.006518
vn 0.000000 -0.999979 -0.006518
vn 0.000000 -0.999979 -0.006518
vn 0.000000 0.006278 -0.999980
vn 0.000000 0.006278 -0.999980
vn 0.000000 0.006278 -0.999980
vn 0.000000 0.006278 -0.999980
vn -0.004398 0.003705 0.999984
vn -0.004398 0.003705 0.999984
vn -0.004398 0.003705 0.999983
vn -0.004398 0.003705 0.999984
vn 0.000000 0.005751 0.999984
vn 0.000000 0.005751 0.999983
vn 0.000000 0.005751 0.999983
vn 0.000000 0.005751 0.999984
vn -0.004800 0.004046 -0.999980
vn -0.004800 0.004046 -0.999980
vn -0.004800 0.004046 -0.999980
vn -0.004800 0.004046 -0.999980
vn -0.000002 -0.001216 0.999999
vn -0.000002 -0.001216 0.999999
vn -0.000002 -0.001216 0.999999
vn -0.000002 -0.001216 0.999999
vn 0.002413 -0.005625 -0.999981
vn 0.002413 -0.005625 -0.999981
vn 0.002413 -0.005625 -0.999981
vn 0.002413 -0.005625 -0.999981
vn 0.001372 -0.004099 0.999991
vn 0.001372 -0.004099 0.999991
vn 0.001372 -0.004099 0.999991
vn 0.001372 -0.004099 0.999991
vn 0.999987 -0.004832 0.001619
vn 0.999987 -0.004832 0.001619
vn 0.999987 -0.004832 0.001619
vn 0.999987 -0.004832 0.001619
vn -0.000002 -0.001329 -0.999999
vn -0.000002 -0.001329 -0.999999
vn -0.000002 -0.001329 -0.999999
vn -0.000002 -0.001329 -0.999999
vn -0.999985 -0.005243 0.001769
vn -0.999985 -0.005243 0.001769
vn -0.999985 -0.005243 0.001769
vn -0.999985 -0.005243 0.001769
vn 0.999984 -0.005194 -0.002201
vn 0.999984 -0.005194 -0.002201
vn 0.999984 -0.005194 -0.002201
vn 0.999984 -0.005194 -0.002201
vn 0.000000 -0.999979 0.006523
vn 0.000000 -0.999979 0.006523
vn 0.000000 -0.999979 0.006523
vn 0.000000 -0.999979 0.006523
vn -0.999981 -0.005688 -0.002484
vn -0.999981 -0.005688 -0.002484
vn -0.999981 -0.005688 -0.002484
vn -0.999981 -0.005688 -0.002484
vn 0.999999 -0.001155 0.000002
vn 0.999999 -0.001155 0.000002
vn 0.999999 -0.001155 0.000002
vn 0.999999 -0.001155 0.000002
vn 0.999985 0.003518 0.004183
vn 0.999985 0.003518 0.004183
vn 0.999985 0.003518 0.004183
vn 0.999985 0.003518 0.004183
vn 0.000000 0.999936 0.011284
vn 0.000000 0.999936 0.011284
vn 0.000000 0.999936 0.011284
vn 0.000000 0.999936 0.011284
vn -0.007253 0.999947 0.007266
vn -0.007253 0.999947 0.007266
vn -0.007253 0.999947 0.007266
vn -0.007253 0.999947 0.007266
vn -0.999987 0.003313 0.003939
vn -0.999987 0.003313 0.003939
vn -0.999987 0.003313 0.003939
vn -0.999987 0.003313 0.003939
vn -0.999999 -0.001087 0.000002
vn -0.999999 -0.001087 0.000002
vn -0.999999 -0.001087 0.000002
vn -0.999999 -0.001087 0.000002
vn 0.000000 -1.000000 -0.000001
vn 0.000000 -1.000000 -0.000001
vn 0.000000 -1.000000 -0.000001
vn 0.000000 -1.000000 -0.000001
vn -0.000839 -0.999999 -0.000839
vn -0.000839 -0.999999 -0.000839
vn -0.000839 -0.999999 -0.000839
vn -0.000839 -0.999999 -0.000839
vn -0.999999 -0.001087 -0.000001
vn -0.999999 -0.001087 -0.000001
vn -0.999999 -0.001087 -0.000001
vn -0.999999 -0.001087 -0.000001
vn -0.999987 0.003313 -0.003936
vn -0.999987 0.003313 -0.003936
vn -0.999987 0.003313 -0.003936
vn -0.999987 0.003313 -0.003936
vn -0.007254 0.999947 -0.007259
vn -0.007254 0.999947 -0.007259
vn -0.007254 0.999947 -0.007259
vn -0.007254 0.999947 -0.007259
vn 0.000000 0.999937 -0.011271
vn 0.000000 0.999937 -0.011271
vn 0.000000 0.999937 -0.011271
vn 0.000000 0.999937 -0.011271
vn 0.999985 0.003518 -0.004179
vn 0.999985 0.003518 -0.004179
vn 0.999985 0.003518 -0.004179
vn 0.999985 0.003518 -0.004179
vn 0.999999 -0.001155 -0.000002
vn 0.999999 -0.001155 -0.000002
vn 0.999999 -0.001155 -0.000002
vn 0.999999 -0.001155 -0.000002
vn -0.002421 -0.005625 -0.999981
vn -0.002421 -0.005625 -0.999981
vn -0.002421 -0.005625 -0.999981
vn -0.002421 -0.005625 -0.999981
vn 0.000000 -1.000000 0.000000
vn 0.000000 -1.000000 0.000000
vn 0.000000 -1.000000 0.000000
vn 0.000000 -1.000000 0.000000
vn 0.000002 -0.001216 0.999999
vn 0.000002 -0.001216 0.999999
vn 0.000002 -0.001216 0.999999
vn 0.000002 -0.001216 0.999999
vn 0.004411 0.003705 0.999983
vn 0.004411 0.003705 0.999983
vn 0.004411 0.003705 0.999983
vn 0.004411 0.003705 0.999983
vn 0.007273 0.999947 0.007266
vn 0.007273 0.999947 0.007266
vn 0.007273 0.999947 0.007266
vn 0.007273 0.999947 0.007266
vn 0.007274 0.999947 -0.007261
vn 0.007274 0.999947 -0.007261
vn 0.007274 0.999947 -0.007261
vn 0.007274 0.999947 -0.007261
vn 0.004814 0.004046 -0.999980
vn 0.004814 0.004046 -0.999980
vn 0.004814 0.004046 -0.999980
vn 0.004814 0.004046 -0.999980
vn 0.000001 -0.001329 -0.999999
vn 0.000001 -0.001329 -0.999999
vn 0.000001 -0.001329 -0.999999
vn 0.000001 -0.001329 -0.999999
vn -0.001375 -0.004099 0.999991
vn -0.001375 -0.004099 0.999991
vn -0.001375 -0.004099 0.999991
vn -0.001375 -0.004099 0.999991
vn 0.000841 -0.999999 -0.000839
vn 0.000841 -0.999999 -0.000839
vn 0.000841 -0.999999 -0.000839
vn 0.000841 -0.999999 -0.000839
vn -0.999987 0.005141 -0.000000
vn -0.999987 0.005141 -0.000000
vn -0.999987 0.005141 -0.000000
vn -0.999987 0.005141 -0.000000
vn -0.011262 0.999937 -0.000001
vn -0.011262 0.999937 -0.000001
vn -0.011262 0.999937 -0.000001
vn -0.011262 0.999937 -0.000001
vn 0.000000 1.000000 -0.000001
vn 0.000000 1.000000 -0.000001
vn 0.000000 1.000000 -0.000001
vn 0.000000 1.000000 -0.000001
vn 0.011293 0.999936 0.000001
vn 0.011293 0.999936 0.000001
vn 0.011293 0.999936 0.000001
vn 0.011293 0.999936 0.000001
vn 0.999985 0.005460 0.000000
vn 0.999985 0.005460 0.000000
vn 0.999985 0.005460 0.000000
vn 0.999985 0.005460 0.000000
vn 0.006525 -0.999979 0.000000
vn 0.006525 -0.999979 0.000000
vn 0.006525 -0.999979 0.000000
vn 0.006525 -0.999979 0.000000
vn 0.000000 -1.000000 0.000000
vn 0.000000 -1.000000 0.000000
vn 0.000000 -1.000000 0.000000
vn 0.000000 -1.000000 0.000000
vn -0.006512 -0.999979 -0.000001
vn -0.006512 -0.999979 -0.000001
vn -0.006512 -0.999979 -0.000001
vn -0.006512 -0.999979 -0.000001
vn 0.003732 -0.003121 -0.999988
vn 0.003732 -0.003121 -0.999988
vn 0.003732 -0.003121 -0.999988
vn 0.003732 -0.003121 -0.999988
vn 0.000000 -0.006221 -0.999981
vn 0.000000 -0.006221 -0.999981
vn 0.000000 -0.006221 -0.999981
vn 0.000000 -0.006221 -0.999981
vn -0.003725 -0.003119 -0.999988
vn -0.003725 -0.003119 -0.999988
vn -0.003725 -0.003119 -0.999988
vn -0.003725 -0.003119 -0.999988
vn -0.999992 -0.002553 -0.003054
vn -0.999992 -0.002553 -0.003054
vn -0.999992 -0.002553 -0.003054
vn -0.999992 -0.002553 -0.003054
vn -0.999987 -0.005095 0.000000
vn -0.999987 -0.005095 0.000000
vn -0.999987 -0.005095 0.000000
vn -0.999987 -0.005095 0.000000
vn -0.999992 -0.002555 0.003055
vn -0.999992 -0.002555 0.003055
vn -0.999992 -0.002555 0.003055
vn -0.999992 -0.002555 0.003055
vn -0.003411 -0.002857 0.999990
vn -0.003411 -0.002857 0.999990
vn -0.003411 -0.002857 0.999990
vn -0.003411 -0.002857 0.999990
vn 0.000000 -0.005698 0.999984
vn 0.000000 -0.005698 0.999984
vn 0.000000 -0.005698 0.999984
vn 0.000000 -0.005698 0.999984
vn 0.003418 -0.002859 0.999990
vn 0.003418 -0.002859 0.999990
vn 0.003418 -0.002859 0.999990
vn 0.003418 -0.002859 0.999990
vn 0.999991 -0.002713 0.003244
vn 0.999991 -0.002713 0.003244
vn 0.999991 -0.002713 0.003244
vn 0.999991 -0.002713 0.003244
vn 0.999985 -0.005410 0.000000
vn 0.999985 -0.005410 0.000000
vn 0.999985 -0.005410 0.000000
vn 0.999985 -0.005410 0.000000
vn 0.999991 -0.002711 -0.003243
vn 0.999991 -0.002711 -0.003243
vn 0.999991 -0.002711 -0.003243
vn 0.999991 -0.002711 -0.003243
s off
g initialShadingGroup Sunmao_003_B
f 11/1/1 12/2/2 9/3/3 8/4/4
f 44/5/5 50/6/6 51/7/7 38/8/8
f 37/9/9 24/10/10 55/11/11 56/12/12
f 37/9/13 56/12/14 57/13/15 42/14/16
f 52/15/17 25/16/18 38/8/19 51/7/20
f 33/17/21 1/18/22 3/19/23 16/20/24
f 6/21/25 2/22/26 4/23/27 5/24/28
f 13/25/29 30/26/30 32/27/31 11/1/32
f 11/1/33 32/27/34 31/28/35 12/2/36
f 29/29/37 34/30/38 12/31/39 31/32/40
f 9/3/41 10/33/42 7/34/43 8/4/44
f 16/35/45 3/36/46 2/22/47 6/37/48
f 16/35/49 6/37/50 17/38/51 27/39/52
f 17/38/53 21/40/54 20/41/55 27/39/56
f 35/42/57 19/43/58 18/44/59 26/45/60
f 39/46/61 28/47/62 58/48/63 59/49/64
f 42/14/65 43/50/66 40/51/67 37/9/68
f 40/51/69 41/52/70 24/10/71 37/9/72
f 24/10/73 41/52/74 54/53/75 55/54/76
f 1/55/77 33/56/78 5/57/79 4/58/80
f 4/23/81 2/22/82 3/36/83 1/59/84
f 29/60/85 31/28/86 32/27/87 30/61/88
f 34/62/89 29/60/90 30/61/91 13/63/92
f 53/64/93 45/65/94 25/16/95 52/66/96
f 38/8/97 25/16/98 45/65/99 46/67/100
f 47/68/101 44/5/102 38/8/103 46/67/104
f 48/69/105 60/70/106 49/71/107 22/72/108
f 23/73/109 36/74/110 15/75/111 14/76/112
f 26/77/113 18/78/114 21/40/115 17/38/116
f 20/79/117 21/40/118 18/78/119 19/80/120
f 19/81/121 35/82/122 27/83/123 20/84/124
f 58/85/125 28/47/126 42/14/127 57/13/128
f 28/47/129 39/46/130 43/50/131 42/14/132
f 47/68/133 48/69/134 22/72/135 44/5/136
f 22/72/137 49/86/138 50/6/139 44/5/140
f 36/87/141 23/88/142 10/89/143 9/90/144
f 8/91/145 7/34/146 14/92/147 15/93/148
f 14/92/149 7/34/150 10/33/151 23/94/152
f 45/65/153 53/64/154 54/53/155 41/52/156
f 41/52/157 40/51/158 46/67/159 45/65/160
f 43/50/161 47/68/162 46/67/163 40/51/164
f 43/50/165 39/46/166 48/69/167 47/68/168
f 39/46/169 59/49/170 60/70/171 48/69/172
f 8/91/173 15/93/174 26/95/175 17/96/176
f 6/21/177 11/97/178 8/91/179 17/96/180
f 6/21/181 5/24/182 13/98/183 11/97/184
f 50/6/185 49/86/186 36/87/187 9/90/188
f 51/7/189 50/6/190 9/90/191 12/31/192
f 34/30/193 52/15/194 51/7/195 12/31/196
f 13/63/197 53/64/198 52/66/199 34/62/200
f 54/53/201 53/64/202 13/63/203 5/57/204
f 55/54/205 54/53/206 5/57/207 33/56/208
f 56/12/209 55/11/210 33/17/211 16/20/212
f 57/13/213 56/12/214 16/20/215 27/83/216
f 35/82/217 58/85/218 57/13/219 27/83/220
f 59/49/221 58/48/222 35/42/223 26/45/224
f 60/70/225 59/49/226 26/45/227 15/75/228
f 49/71/229 60/70/230 15/75/231 36/74/232
g default
v -0.495706 -1.388947 0.495706
v -0.495706 -0.004294 0.495706
v 0.495706 -1.388947 0.495706
v 0.495706 -0.004294 0.495706
v 0.495706 -1.388947 -0.495706
v 0.495706 -0.004294 -0.495706
v -0.495706 -1.388947 -0.495706
v -0.495706 -0.004294 -0.495706
v 0.149985 0.000000 -0.496769
v -0.496768 0.000000 -0.149985
v -0.149985 0.000000 0.496769
v 0.496768 0.000000 0.149985
v 0.496768 0.000000 -0.149985
v -0.496768 0.000000 0.149985
v -0.149985 0.000000 -0.496769
v 0.149985 0.000000 0.496769
v 0.496768 -1.390010 -0.000008
v -0.000023 -1.390010 0.496769
v -0.496768 -1.390010 0.000001
v 0.000068 -1.390010 -0.496769
v 0.154279 0.004294 0.154280
v -0.154279 0.004294 0.154280
v -0.154279 0.004294 -0.154279
v 0.154279 0.004294 -0.154279
v 0.145691 0.558154 0.495706
v -0.145691 0.558154 0.495706
v -0.145691 0.558154 -0.495706
v 0.145691 0.558154 -0.495706
v -0.149985 0.559216 -0.149985
v 0.149985 0.559216 -0.149985
v 0.149985 0.559216 0.149985
v -0.149985 0.559216 0.149985
v 0.495706 0.558154 -0.145691
v 0.495706 0.558154 0.145691
v -0.495706 0.558154 0.145691
v -0.495706 0.558154 -0.145691
v 0.000000 -1.393241 0.000000
v -0.500000 -0.696621 0.000000
v -0.496768 -0.696621 -0.496769
v -0.496768 -0.696621 0.496769
v 0.496768 -0.696621 0.496769
v 0.500000 -0.696621 0.000000
v 0.496768 -0.696621 -0.496769
v 0.000000 -0.696621 0.500000
v 0.000000 -0.696621 -0.500000
v 0.000000 0.562448 -0.149985
v 0.000000 0.559216 -0.496769
v 0.000000 0.000000 -0.500000
v -0.149985 0.562448 0.000000
v -0.496768 0.559216 0.000000
v -0.500000 0.000000 0.000000
v 0.500000 0.000000 0.000000
v 0.496768 0.559216 0.000000
v 0.149985 0.562448 0.000000
v 0.000000 0.562448 0.149985
v 0.000000 0.559216 0.496769
v 0.000000 0.000000 0.500000
v 0.000000 0.562448 0.000000
vt 0.511623 0.543424
vt 0.511463 0.564929
vt 0.490143 0.543248
vt 0.511816 0.521919
vt 0.983649 0.189748
vt 0.983945 0.260774
vt 0.912799 0.260906
vt 0.912657 0.189734
vt 0.561222 0.543832
vt 0.641269 0.544489
vt 0.641089 0.565980
vt 0.561072 0.564675
vt 0.841683 0.260997
vt 0.841683 0.332243
vt 0.742260 0.331963
vt 0.742384 0.260880
vt 0.841481 0.403569
vt 0.741954 0.403072
vt 0.742454 0.118721
vt 0.742449 0.189826
vt 0.643390 0.189754
vt 0.642713 0.140264
vt 0.742434 0.047563
vt 0.642667 0.097292
vt 0.643242 0.047772
vt 0.741540 0.474162
vt 0.840772 0.474786
vt 0.642686 0.239223
vt 0.724590 0.817653
vt 0.723200 0.768139
vt 0.772269 0.767523
vt 0.774111 0.816561
vt 0.919869 0.827868
vt 0.870346 0.826776
vt 0.872191 0.777738
vt 0.921261 0.778353
vt 0.418976 0.542664
vt 0.419298 0.521793
vt 0.468830 0.521581
vt 0.468656 0.543072
vt 0.597535 0.688022
vt 0.599690 0.737509
vt 0.550636 0.738883
vt 0.548037 0.689879
vt 0.708959 0.688022
vt 0.710350 0.737537
vt 0.661281 0.738153
vt 0.659438 0.689115
vt 0.489560 0.614416
vt 0.489968 0.564739
vt 0.510433 0.614437
vt 0.511599 0.472402
vt 0.490321 0.521757
vt 0.490729 0.472080
vt 0.562527 0.260534
vt 0.642653 0.260703
vt 0.642613 0.282179
vt 0.562638 0.281407
vt 0.822409 0.688938
vt 0.821323 0.768895
vt 0.772884 0.688022
vt 0.790488 0.822620
vt 0.792821 0.773142
vt 0.600776 0.817468
vt 0.551251 0.818384
vt 0.611141 0.816737
vt 0.612228 0.736780
vt 0.660666 0.817654
vt 0.921112 0.698387
vt 0.871579 0.698237
vt 0.710200 0.817503
vt 0.562704 0.097987
vt 0.642691 0.118778
vt 0.562574 0.118859
vt 0.501718 0.818234
vt 0.501568 0.738270
vt 0.723351 0.688172
vt 0.562084 0.402155
vt 0.642207 0.402570
vt 0.642094 0.424045
vt 0.562130 0.423028
vt 0.912895 0.332101
vt 0.983928 0.331794
vt 0.841621 0.189954
vt 0.642312 0.381094
vt 0.643171 0.331645
vt 0.641443 0.522998
vt 0.642467 0.473522
vt 0.741043 0.545268
vt 0.840433 0.545948
vt 0.841613 0.047701
vt 0.841834 0.118771
vt 0.839695 0.617009
vt 0.740506 0.616426
vt 0.641313 0.615501
vt 0.418956 0.563537
vt 0.468477 0.564562
vt 0.562723 0.239662
vt 0.469856 0.472060
vt 0.562344 0.381284
vt 0.562747 0.139731
vt 0.468690 0.614094
vt 0.561414 0.522988
vn 0.000000 1.000000 0.000000
vn 0.000000 1.000000 0.000000
vn 0.000000 1.000000 0.000000
vn 0.000000 1.000000 0.000000
vn 0.004331 -0.999981 0.004331
vn 0.004331 -0.999981 0.004331
vn 0.004331 -0.999981 0.004331
vn 0.004331 -0.999981 0.004331
vn 0.014535 0.003899 0.999887
vn 0.014535 0.003899 0.999887
vn 0.014535 0.003899 0.999887
vn 0.014535 0.003899 0.999887
vn -0.004331 -0.003103 -0.999986
vn -0.004331 -0.003103 -0.999986
vn -0.004331 -0.003103 -0.999986
vn -0.004331 -0.003103 -0.999986
vn -0.999986 -0.003102 -0.004330
vn -0.999986 -0.003102 -0.004330
vn -0.999986 -0.003102 -0.004330
vn -0.999986 -0.003102 -0.004330
vn 0.999984 0.002544 -0.005110
vn 0.999984 0.002544 -0.005110
vn 0.999984 0.002544 -0.005110
vn 0.999984 0.002544 -0.005110
vn 0.999984 0.002544 0.005110
vn 0.999984 0.002544 0.005110
vn 0.999984 0.002544 0.005110
vn 0.999984 0.002544 0.005110
vn -0.999986 -0.003102 0.004330
vn -0.999986 -0.003102 0.004330
vn -0.999986 -0.003102 0.004330
vn -0.999986 -0.003102 0.004330
vn 0.005112 0.002544 -0.999984
vn 0.005112 0.002544 -0.999984
vn 0.005112 0.002544 -0.999984
vn 0.005112 0.002544 -0.999984
vn -0.012575 0.999842 -0.012575
vn -0.012575 0.999842 -0.012575
vn -0.012575 0.999842 -0.012575
vn -0.012575 0.999842 -0.012575
vn 0.012575 0.999842 -0.012575
vn 0.012575 0.999842 -0.012575
vn 0.012575 0.999842 -0.012575
vn 0.012575 0.999842 -0.012575
vn -0.014543 0.999874 -0.006290
vn -0.014543 0.999874 -0.006290
vn -0.014543 0.999874 -0.006290
vn -0.014543 0.999874 -0.006290
vn -0.012575 0.999842 0.012575
vn -0.012575 0.999842 0.012575
vn -0.012575 0.999842 0.012575
vn -0.012575 0.999842 0.012575
vn 0.014543 0.999874 0.006290
vn 0.014543 0.999874 0.006290
vn 0.014543 0.999874 0.006290
vn 0.014543 0.999874 0.006290
vn 0.012575 0.999842 0.012575
vn 0.012575 0.999842 0.012575
vn 0.012575 0.999842 0.012575
vn 0.012575 0.999842 0.012575
vn 0.006290 0.999875 0.014543
vn 0.006290 0.999874 0.014543
vn 0.006290 0.999874 0.014543
vn 0.006290 0.999874 0.014543
vn -0.006290 0.999874 0.014543
vn -0.006290 0.999874 0.014543
vn -0.006290 0.999874 0.014543
vn -0.006290 0.999875 0.014543
vn -0.014540 0.003899 -0.999887
vn -0.014540 0.003899 -0.999887
vn -0.014540 0.003899 -0.999887
vn -0.014540 0.003899 -0.999887
vn -0.999891 0.007775 -0.012538
vn -0.999891 0.007775 -0.012538
vn -0.999891 0.007775 -0.012538
vn -0.999891 0.007775 -0.012538
vn 0.999891 0.007775 -0.012538
vn 0.999891 0.007775 -0.012538
vn 0.999891 0.007775 -0.012538
vn 0.999891 0.007775 -0.012538
vn -0.999891 0.007775 0.012538
vn -0.999891 0.007775 0.012538
vn -0.999891 0.007775 0.012538
vn -0.999891 0.007775 0.012538
vn 0.999891 0.007775 0.012538
vn 0.999891 0.007775 0.012538
vn 0.999891 0.007775 0.012538
vn 0.999891 0.007775 0.012538
vn 0.012536 0.007775 -0.999891
vn 0.012536 0.007775 -0.999891
vn 0.012536 0.007775 -0.999891
vn 0.012536 0.007775 -0.999891
vn 0.012536 0.007776 0.999891
vn 0.012536 0.007776 0.999891
vn 0.012536 0.007776 0.999891
vn 0.012536 0.007776 0.999891
vn 0.999887 0.003898 0.014535
vn 0.999887 0.003898 0.014535
vn 0.999887 0.003898 0.014535
vn 0.999887 0.003898 0.014535
vn -0.012536 0.007776 0.999891
vn -0.012536 0.007776 0.999891
vn -0.012536 0.007776 0.999891
vn -0.012536 0.007776 0.999891
vn -0.012536 0.007775 -0.999891
vn -0.012536 0.007775 -0.999891
vn -0.012536 0.007775 -0.999891
vn -0.012536 0.007775 -0.999891
vn -0.999887 0.003898 0.014535
vn -0.999887 0.003898 0.014535
vn -0.999887 0.003898 0.014535
vn -0.999887 0.003898 0.014535
vn 1.000000 0.000000 0.000000
vn 1.000000 0.000000 0.000000
vn 1.000000 0.000000 0.000000
vn 1.000000 0.000000 0.000000
vn -0.004331 -0.999981 0.004331
vn -0.004331 -0.999981 0.004331
vn -0.004331 -0.999981 0.004331
vn -0.004331 -0.999981 0.004331
vn -0.004331 -0.999981 -0.004332
vn -0.004331 -0.999981 -0.004332
vn -0.004331 -0.999981 -0.004332
vn -0.004331 -0.999981 -0.004332
vn 0.004332 -0.999981 -0.004331
vn 0.004332 -0.999981 -0.004331
vn 0.004332 -0.999981 -0.004331
vn 0.004332 -0.999981 -0.004331
vn -0.999984 0.002544 -0.005110
vn -0.999984 0.002544 -0.005110
vn -0.999984 0.002544 -0.005110
vn -0.999984 0.002544 -0.005110
vn -0.005112 0.002544 -0.999984
vn -0.005112 0.002544 -0.999984
vn -0.005112 0.002544 -0.999984
vn -0.005112 0.002544 -0.999984
vn -0.005112 0.002544 0.999984
vn -0.005112 0.002544 0.999984
vn -0.005112 0.002544 0.999984
vn -0.005112 0.002544 0.999984
vn -0.999984 0.002544 0.005110
vn -0.999984 0.002544 0.005110
vn -0.999984 0.002544 0.005110
vn -0.999984 0.002544 0.005110
vn -0.004331 -0.003102 0.999986
vn -0.004331 -0.003102 0.999986
vn -0.004331 -0.003102 0.999986
vn -0.004331 -0.003102 0.999986
vn 0.999986 -0.003102 0.004330
vn 0.999986 -0.003102 0.004330
vn 0.999986 -0.003102 0.004330
vn 0.999986 -0.003102 0.004330
vn 0.999986 -0.003102 -0.004330
vn 0.999986 -0.003102 -0.004330
vn 0.999986 -0.003102 -0.004330
vn 0.999986 -0.003102 -0.004330
vn 0.004331 -0.003102 0.999986
vn 0.004331 -0.003102 0.999986
vn 0.004331 -0.003102 0.999986
vn 0.004331 -0.003102 0.999986
vn 0.000000 0.000000 1.000000
vn 0.000000 0.000000 1.000000
vn 0.000000 0.000000 1.000000
vn 0.000000 0.000000 1.000000
vn 0.005111 0.002544 0.999984
vn 0.005111 0.002544 0.999984
vn 0.005111 0.002544 0.999984
vn 0.005111 0.002544 0.999984
vn 0.000000 0.000000 -1.000000
vn 0.000000 0.000000 -1.000000
vn 0.000000 0.000000 -1.000000
vn 0.000000 0.000000 -1.000000
vn 0.004332 -0.003102 -0.999986
vn 0.004332 -0.003102 -0.999986
vn 0.004332 -0.003102 -0.999986
vn 0.004332 -0.003102 -0.999986
vn -1.000000 0.000000 0.000000
vn -1.000000 0.000000 0.000000
vn -1.000000 0.000000 0.000000
vn -1.000000 0.000000 0.000000
vn 0.014543 0.999875 -0.006290
vn 0.014543 0.999875 -0.006290
vn 0.014543 0.999875 -0.006290
vn 0.014543 0.999875 -0.006290
vn 0.014540 0.003899 -0.999887
vn 0.014540 0.003899 -0.999887
vn 0.014540 0.003899 -0.999887
vn 0.014540 0.003899 -0.999887
vn -0.006290 0.999875 -0.014543
vn -0.006290 0.999874 -0.014543
vn -0.006290 0.999874 -0.014543
vn -0.006290 0.999874 -0.014543
vn -0.999887 0.003899 -0.014535
vn -0.999887 0.003899 -0.014535
vn -0.999887 0.003899 -0.014535
vn -0.999887 0.003899 -0.014535
vn 0.999887 0.003899 -0.014535
vn 0.999887 0.003899 -0.014535
vn 0.999887 0.003899 -0.014535
vn 0.999887 0.003899 -0.014535
vn 0.006290 0.999874 -0.014543
vn 0.006290 0.999874 -0.014543
vn 0.006290 0.999874 -0.014543
vn 0.006290 0.999875 -0.014543
vn -0.014543 0.999875 0.006290
vn -0.014543 0.999875 0.006290
vn -0.014543 0.999875 0.006290
vn -0.014543 0.999875 0.006290
vn -0.014535 0.003899 0.999887
vn -0.014535 0.003899 0.999887
vn -0.014535 0.003899 0.999887
vn -0.014535 0.003899 0.999887
vn 0.000000 1.000000 0.000000
vn 0.000000 1.000000 0.000000
vn 0.000000 1.000000 0.000000
vn 0.000000 1.000000 0.000000
vn 0.000000 1.000000 0.000000
vn 0.000000 1.000000 0.000000
vn 0.000000 1.000000 0.000000
vn 0.000000 1.000000 0.000000
vn 0.000000 1.000000 0.000000
vn 0.000000 1.000000 0.000000
vn 0.000000 1.000000 0.000000
vn 0.000000 1.000000 0.000000
s off
g initialShadingGroup Sunmao_003_A
f 115/99/233 91/100/234 118/101/235 92/102/236
f 63/103/237 78/104/238 97/105/239 77/106/240
f 116/107/241 117/108/242 76/109/243 85/110/244
f 80/111/245 67/112/246 99/113/247 105/114/248
f 67/112/249 79/115/250 98/116/251 99/113/252
f 102/117/253 103/118/254 66/119/255 73/120/256
f 101/121/257 102/117/258 72/122/259 64/123/260
f 100/124/261 98/116/262 79/115/263 61/125/264
f 69/126/265 66/119/266 103/118/267 105/114/268
f 68/127/269 70/128/270 83/129/271 75/130/272
f 66/131/273 69/132/274 84/133/275 73/134/276
f 107/135/277 87/136/278 89/137/279 106/138/280
f 62/139/281 71/140/282 82/141/283 74/142/284
f 85/110/285 91/100/286 115/99/287 116/107/288
f 64/143/289 72/144/290 81/145/291 76/146/292
f 113/147/293 114/148/294 91/100/295 94/149/296
f 95/150/297 92/102/298 109/151/299 110/152/300
f 107/153/301 108/154/302 75/155/303 87/156/304
f 87/157/305 75/158/306 83/129/307 89/159/308
f 84/133/309 69/132/310 88/160/311 90/161/312
f 82/141/313 71/140/314 86/162/315 92/163/316
f 85/164/317 76/165/318 81/145/319 91/166/320
f 93/167/321 73/134/322 84/133/323 90/168/324
f 81/145/325 72/144/326 94/169/327 91/166/328
f 94/170/329 72/122/330 112/171/331 113/172/332
f 95/173/333 74/174/334 82/141/335 92/163/336
f 83/129/337 70/128/338 96/175/339 89/159/340
f 110/176/341 111/177/342 74/178/343 95/179/344
f 102/117/345 73/120/346 112/171/347 72/122/348
f 79/180/349 97/105/350 78/104/351 61/181/352
f 80/111/353 97/105/354 79/180/355 67/112/356
f 77/106/357 97/105/358 80/111/359 65/182/360
f 99/113/361 98/116/362 70/183/363 68/184/364
f 99/113/365 68/184/366 75/155/367 105/114/368
f 71/185/369 62/186/370 100/124/371 104/187/372
f 62/186/373 74/178/374 98/116/375 100/124/376
f 78/188/377 104/187/378 100/124/379 61/125/380
f 63/189/381 77/190/382 102/117/383 101/121/384
f 77/190/385 65/182/386 103/118/387 102/117/388
f 78/188/389 63/191/390 101/192/391 104/187/392
f 71/185/393 104/187/394 76/109/395 117/108/396
f 76/109/397 104/187/398 101/192/399 64/193/400
f 105/114/401 75/155/402 108/154/403 69/126/404
f 80/111/405 105/114/406 103/118/407 65/182/408
f 98/116/409 74/178/410 111/177/411 70/183/412
f 88/194/413 107/135/414 106/138/415 90/195/416
f 88/196/417 69/126/418 108/154/419 107/153/420
f 110/152/421 109/151/422 89/137/423 96/197/424
f 96/198/425 70/183/426 111/177/427 110/176/428
f 113/172/429 112/171/430 73/120/431 93/199/432
f 93/200/433 90/195/434 114/148/435 113/147/436
f 116/107/437 115/99/438 92/102/439 86/201/440
f 86/201/441 71/185/442 117/108/443 116/107/444
f 118/101/445 90/195/446 106/138/447 89/137/448
f 109/151/449 92/102/450 118/101/451 89/137/452
f 118/101/453 91/100/454 114/148/455 90/195/456
