# This file uses centimeters as units for non-parametric coordinates.

mtllib Sunmao_005.mtl
g default
v 0.135514 0.129619 1.374117
v 0.135513 -0.129618 1.374117
v 0.135514 0.129619 -1.374116
v 0.135513 -0.129618 -1.374116
v -0.132551 0.129619 -1.374117
v -0.132551 -0.129618 -1.374117
v -0.132551 0.129619 1.374116
v -0.132551 -0.129618 1.374116
v 0.174399 0.167225 0.169582
v 0.174399 0.167225 -0.169582
v 0.174400 -0.167223 -0.169582
v 0.174400 -0.167223 0.169582
v -0.171437 -0.167223 -0.169582
v -0.171437 -0.167223 0.169582
v -0.171437 0.167225 -0.169582
v -0.171437 0.167225 0.169582
v 0.001481 -0.167223 -0.169582
v 0.001481 -0.167223 0.169582
v 0.001481 -0.129618 1.374117
v 0.001482 0.129619 1.374117
v 0.001481 0.167225 0.169582
v 0.001481 0.167225 -0.169582
v 0.001482 0.129619 -1.374117
v 0.001481 -0.129618 -1.374117
v 0.174400 -0.167223 -0.343581
v 0.174399 0.167225 -0.343581
v 0.001481 0.167225 -0.343581
v -0.171437 0.167225 -0.343581
v -0.171437 -0.167223 -0.343581
v 0.001481 -0.167223 -0.343581
v 0.174400 -0.167223 0.398241
v 0.174399 0.167225 0.398241
v 0.001481 0.167225 0.398241
v -0.171437 0.167225 0.398241
v -0.171437 -0.167223 0.398241
v 0.001481 -0.167223 0.398241
vt 0.647539 0.963078
vt 0.576128 0.963078
vt 0.576128 0.926157
vt 0.647539 0.926157
vt 0.647539 0.073843
vt 0.576128 0.073843
vt 0.576127 0.036922
vt 0.647539 0.036921
vt 0.470292 0.331830
vt 0.470292 0.425264
vt 0.378157 0.425264
vt 0.378157 0.331830
vt 0.378157 0.283896
vt 0.470292 0.283896
vt 0.657898 0.642279
vt 0.565769 0.642279
vt 0.565769 0.594348
vt 0.657898 0.594347
vt 0.282884 0.283896
vt 0.330520 0.283896
vt 0.330520 0.331830
vt 0.282884 0.331830
vt 0.565564 0.331830
vt 0.517928 0.331830
vt 0.517928 0.283896
vt 0.565564 0.283896
vt 0.459933 0.757094
vt 0.388517 0.757094
vt 0.378157 0.488256
vt 0.470292 0.488256
vt 0.330520 0.757094
vt 0.293597 0.757094
vt 0.282884 0.488256
vt 0.330520 0.488256
vt 0.657898 0.342665
vt 0.565769 0.342665
vt 0.554853 0.757094
vt 0.517929 0.757094
vt 0.517928 0.488256
vt 0.565565 0.488256
vt 0.330520 0.425264
vt 0.367444 0.757094
vt 0.378157 0.488256
vt 0.576127 0.000001
vt 0.647538 0.000000
vt 0.470292 0.488256
vt 0.481005 0.757094
vt 0.517928 0.425264
vt 0.470291 0.283896
vt 0.647539 1.000000
vt 0.576128 1.000000
vt 0.378157 0.283896
vt 0.565768 0.546714
vt 0.565768 0.453286
vt 0.657898 0.453286
vt 0.657898 0.546714
vt 0.565769 0.405652
vt 0.657898 0.405653
vt 0.388516 0.000000
vt 0.459932 0.000000
vt 0.517927 0.000000
vt 0.481003 0.000000
vt 0.554851 0.000000
vt 0.330520 0.000000
vt 0.293597 0.000000
vt 0.367444 0.000000
vt 0.565564 0.425264
vt 0.282884 0.425264
vn 0.000000 0.000000 -1.000000
vn 0.000000 0.000000 -1.000000
vn 0.000000 0.000000 -1.000000
vn 0.000000 0.000000 -1.000000
vn -0.000003 0.000000 1.000000
vn -0.000003 0.000000 1.000000
vn -0.000002 0.000000 1.000000
vn -0.000002 0.000000 1.000000
vn 1.000000 0.000002 0.000000
vn 1.000000 0.000003 0.000000
vn 1.000000 0.000003 0.000000
vn 1.000000 0.000002 0.000000
vn 1.000000 0.000002 0.000000
vn 1.000000 0.000002 0.000000
vn 0.999502 0.000000 -0.031567
vn 0.999502 0.000000 -0.031567
vn -0.999502 0.000000 -0.031567
vn -0.999502 0.000000 -0.031567
vn -1.000000 0.000000 0.000000
vn -1.000000 0.000000 0.000000
vn 0.000000 -0.999534 -0.030524
vn 0.000000 -0.999530 -0.030644
vn 0.000000 -1.000000 0.000000
vn 0.000000 -1.000000 0.000000
vn 0.000000 1.000000 0.000000
vn 0.000000 1.000000 0.000000
vn 0.000000 0.999530 -0.030644
vn 0.000000 0.999534 -0.030524
vn 0.999207 -0.000000 0.039816
vn 0.999207 -0.000000 0.039816
vn 0.999509 0.000000 0.031345
vn 0.999509 0.000000 0.031345
vn 0.000000 -0.999258 0.038506
vn 0.000000 -0.999258 0.038506
vn 0.000000 -0.999541 0.030308
vn 0.000000 -0.999536 0.030472
vn -0.999509 0.000000 0.031345
vn -0.999509 0.000000 0.031345
vn -0.999207 0.000000 0.039816
vn -0.999207 0.000000 0.039816
vn 0.000000 0.999258 0.038506
vn 0.000000 0.999258 0.038506
vn 0.000000 0.999536 0.030472
vn 0.000000 0.999541 0.030308
vn 0.000000 -1.000000 0.000000
vn 0.000000 -1.000000 0.000000
vn 0.000000 -1.000000 0.000000
vn 0.000000 -1.000000 0.000000
vn 0.000000 -0.999258 0.038506
vn 0.000000 -0.999258 0.038506
vn 0.000000 -0.999536 0.030472
vn 0.000000 -0.999541 0.030308
vn -0.000002 0.000000 1.000000
vn -0.000002 0.000000 1.000000
vn 0.000000 0.000000 1.000000
vn 0.000000 0.000000 1.000000
vn 0.000000 0.999541 0.030308
vn 0.000000 0.999536 0.030472
vn 0.000000 0.999258 0.038506
vn 0.000000 0.999258 0.038506
vn 0.000000 1.000000 0.000000
vn 0.000000 1.000000 0.000000
vn 0.000000 1.000000 0.000000
vn 0.000000 1.000000 0.000000
vn 0.000000 0.999534 -0.030524
vn 0.000000 0.999530 -0.030644
vn 0.000000 1.000000 0.000000
vn 0.000000 1.000000 0.000000
vn 0.000003 0.000000 -1.000000
vn 0.000003 0.000000 -1.000000
vn 0.000002 0.000000 -1.000000
vn 0.000002 0.000000 -1.000000
vn 0.000000 -1.000000 0.000000
vn 0.000000 -1.000000 0.000000
vn 0.000000 -0.999530 -0.030644
vn 0.000000 -0.999534 -0.030524
vn -1.000000 0.000000 0.000000
vn -1.000000 0.000000 0.000000
vn -1.000000 0.000000 0.000000
vn -1.000000 0.000000 0.000000
vn 0.000000 0.000000 1.000000
vn 0.000000 0.000000 1.000000
vn 0.000000 0.000000 1.000000
vn 0.000000 0.000000 1.000000
vn 0.000000 0.000000 -1.000000
vn 0.000000 0.000000 -1.000000
vn 0.000000 0.000000 -1.000000
vn 0.000000 0.000000 -1.000000
vn 0.999502 0.000000 -0.031567
vn 0.999502 0.000000 -0.031567
vn 0.999289 0.000000 -0.037707
vn 0.999289 0.000000 -0.037707
vn 0.000000 0.999335 -0.036466
vn 0.000000 0.999530 -0.030644
vn 0.000000 0.999534 -0.030524
vn 0.000000 0.999335 -0.036466
vn 0.000000 0.999534 -0.030524
vn 0.000000 0.999530 -0.030644
vn 0.000000 0.999335 -0.036466
vn 0.000000 0.999335 -0.036467
vn -0.999289 0.000000 -0.037707
vn -0.999289 0.000000 -0.037707
vn -0.999502 0.000000 -0.031567
vn -0.999502 0.000000 -0.031567
vn 0.000000 -0.999335 -0.036467
vn 0.000000 -0.999530 -0.030644
vn 0.000000 -0.999534 -0.030524
vn 0.000000 -0.999335 -0.036467
vn 0.000000 -0.999534 -0.030524
vn 0.000000 -0.999530 -0.030644
vn 0.000000 -0.999335 -0.036467
vn 0.000000 -0.999335 -0.036467
vn 0.999509 0.000000 0.031345
vn 0.999509 0.000000 0.031345
vn 1.000000 0.000003 0.000000
vn 1.000000 0.000003 0.000000
vn 0.000000 1.000000 0.000000
vn 0.000000 0.999536 0.030472
vn 0.000000 0.999541 0.030308
vn 0.000000 1.000000 0.000000
vn 0.000000 0.999541 0.030308
vn 0.000000 0.999536 0.030472
vn 0.000000 1.000000 0.000000
vn 0.000000 1.000000 -0.000001
vn -1.000000 0.000000 -0.000000
vn -1.000000 0.000000 -0.000000
vn -0.999509 0.000000 0.031345
vn -0.999509 0.000000 0.031345
vn 0.000000 -0.999536 0.030472
vn 0.000000 -0.999541 0.030308
vn 0.000000 -1.000000 0.000000
vn 0.000000 -1.000000 0.000000
vn 0.000000 -0.999541 0.030308
vn 0.000000 -0.999536 0.030472
vn 0.000000 -1.000000 0.000000
vn 0.000000 -1.000000 0.000000
s off
g initialShadingGroup Sunmao_005_B
f 23/1/1 24/2/2 6/3/3 5/4/4
f 7/5/5 8/6/6 19/7/7 20/8/8
f 10/9/9 9/10/10 12/11/11 11/12/12
f 10/9/13 11/12/14 25/13/15 26/14/16
f 28/15/17 29/16/18 13/17/19 15/18/20
f 29/19/21 30/20/22 17/21/23 13/22/24
f 15/23/25 22/24/26 27/25/27 28/26/28
f 1/27/29 2/28/30 31/29/31 32/30/32
f 19/31/33 8/32/34 35/33/35 36/34/36
f 34/35/37 35/36/38 8/6/39 7/5/40
f 7/37/41 20/38/42 33/39/43 34/40/44
f 11/12/45 12/11/46 18/41/47 17/21/48
f 2/42/49 19/31/50 36/34/51 31/43/52
f 20/8/53 19/7/54 2/44/55 1/45/56
f 32/46/57 33/39/58 20/38/59 1/47/60
f 9/10/61 10/9/62 22/24/63 21/48/64
f 26/49/65 27/25/66 22/24/67 10/9/68
f 3/50/69 4/51/70 24/2/71 23/1/72
f 11/12/73 17/21/74 30/20/75 25/52/76
f 17/53/77 18/54/78 21/55/79 22/56/80
f 17/53/81 22/56/82 15/18/83 13/17/84
f 21/55/85 18/54/86 14/57/87 16/58/88
f 26/14/89 25/13/90 4/59/91 3/60/92
f 23/61/93 27/25/94 26/49/95 3/62/96
f 28/26/97 27/25/98 23/61/99 5/63/100
f 5/4/101 6/3/102 29/16/103 28/15/104
f 24/64/105 30/20/106 29/19/107 6/65/108
f 25/52/109 30/20/110 24/64/111 4/66/112
f 32/30/113 31/29/114 12/11/115 9/10/116
f 21/48/117 33/39/118 32/46/119 9/10/120
f 34/40/121 33/39/122 21/48/123 16/67/124
f 16/58/125 14/57/126 35/36/127 34/35/128
f 36/34/129 35/33/130 14/68/131 18/41/132
f 31/43/133 36/34/134 18/41/135 12/11/136
g default
v -0.135514 1.374116 0.129619
v -0.135515 1.374116 -0.129618
v -0.135514 -1.374116 0.129619
v -0.135515 -1.374116 -0.129618
v 0.132550 -1.374116 0.129618
v 0.132550 -1.374116 -0.129619
v 0.132550 1.374116 0.129618
v 0.132550 1.374116 -0.129619
v -0.174400 0.169583 0.167224
v -0.174400 -0.169581 0.167224
v -0.174400 -0.169581 -0.167224
v -0.174400 0.169583 -0.167224
v 0.171436 -0.169581 -0.167224
v 0.171436 0.169583 -0.167224
v 0.171436 -0.169581 0.167224
v 0.171436 0.169583 0.167224
v -0.001482 -0.169581 -0.167224
v -0.001482 0.169583 -0.167224
v -0.001483 1.374116 -0.129618
v -0.001482 1.374116 0.129619
v -0.001482 0.169583 0.167224
v -0.001482 -0.169581 0.167224
v -0.001482 -1.374116 0.129619
v -0.001483 -1.374116 -0.129618
v -0.174400 -0.343580 -0.167224
v -0.174400 -0.343582 0.167224
v -0.001482 -0.343580 0.167224
v 0.171436 -0.343580 0.167224
v 0.171436 -0.343582 -0.167224
v -0.001482 -0.343582 -0.167224
v -0.174400 0.398242 -0.167224
v -0.174400 0.398242 0.167224
v -0.001482 0.398242 0.167224
v 0.171436 0.398242 0.167224
v 0.171436 0.398242 -0.167224
v -0.001482 0.398242 -0.167224
vt 0.105632 0.794013
vt 0.177048 0.794011
vt 0.177048 0.830935
vt 0.105633 0.830936
vt 0.669352 0.852325
vt 0.740765 0.852325
vt 0.740765 0.889248
vt 0.669352 0.889247
vt 0.095272 0.425261
vt 0.095272 0.331828
vt 0.187406 0.331828
vt 0.187406 0.425261
vt 0.187406 0.473195
vt 0.095272 0.473195
vt 0.658991 0.283883
vt 0.751122 0.283882
vt 0.751123 0.331814
vt 0.658992 0.331815
vt 0.282678 0.473195
vt 0.235042 0.473195
vt 0.235042 0.425261
vt 0.282678 0.425261
vt 0.000000 0.425261
vt 0.047636 0.425261
vt 0.047636 0.473195
vt 0.000000 0.473195
vt 0.105632 0.000000
vt 0.177047 0.000000
vt 0.187406 0.268836
vt 0.095272 0.268836
vt 0.235042 0.000000
vt 0.271966 0.000000
vt 0.282678 0.268836
vt 0.235042 0.268836
vt 0.658993 0.583501
vt 0.751124 0.583501
vt 0.010714 0.000000
vt 0.047637 0.000000
vt 0.047636 0.268836
vt 0.000001 0.268836
vt 0.235042 0.331828
vt 0.198119 0.000000
vt 0.187406 0.268836
vt 0.740765 0.926170
vt 0.669352 0.926170
vt 0.095272 0.268836
vt 0.084561 0.000000
vt 0.047636 0.331828
vt 0.095272 0.473195
vt 0.105632 0.757089
vt 0.177047 0.757088
vt 0.187406 0.473195
vt 0.751123 0.379448
vt 0.751124 0.472878
vt 0.658993 0.472878
vt 0.658993 0.379448
vt 0.751124 0.520512
vt 0.658993 0.520512
vt 0.047635 0.757088
vt 0.084558 0.757089
vt 0.010711 0.757088
vt 0.669346 0.000001
vt 0.740759 0.000000
vt 0.235042 0.757089
vt 0.271966 0.757089
vt 0.198119 0.757089
vt 0.000000 0.331827
vt 0.282678 0.331828
vn 0.000000 -1.000000 0.000000
vn 0.000000 -1.000000 0.000000
vn 0.000000 -1.000000 0.000000
vn 0.000000 -1.000000 0.000000
vn 0.000000 1.000000 0.000000
vn 0.000000 1.000000 0.000000
vn 0.000000 1.000000 0.000000
vn 0.000000 1.000000 0.000000
vn -1.000000 0.000000 0.000000
vn -1.000000 0.000000 0.000000
vn -1.000000 0.000000 0.000000
vn -1.000000 0.000000 0.000000
vn -1.000000 0.000000 0.000000
vn -1.000000 0.000000 0.000000
vn -0.999502 -0.031567 0.000002
vn -0.999502 -0.031567 0.000002
vn 0.999502 -0.031567 0.000000
vn 0.999502 -0.031567 0.000000
vn 1.000000 0.000000 0.000000
vn 1.000000 0.000000 0.000000
vn 0.000000 -0.030524 -0.999534
vn 0.000001 -0.030644 -0.999530
vn 0.000000 0.000000 -1.000000
vn 0.000000 0.000000 -1.000000
vn 0.000000 0.000000 1.000000
vn 0.000003 0.000000 1.000000
vn 0.000004 -0.030644 0.999530
vn 0.000003 -0.030524 0.999534
vn -0.999207 0.039815 0.000002
vn -0.999207 0.039815 0.000002
vn -0.999509 0.031345 0.000002
vn -0.999509 0.031345 0.000002
vn 0.000000 0.038506 -0.999258
vn 0.000000 0.038506 -0.999258
vn 0.000000 0.030308 -0.999541
vn 0.000000 0.030472 -0.999536
vn 0.999509 0.031345 0.000000
vn 0.999509 0.031345 0.000000
vn 0.999207 0.039816 0.000000
vn 0.999207 0.039816 0.000000
vn 0.000003 0.038506 0.999258
vn 0.000002 0.038506 0.999258
vn 0.000002 0.030472 0.999536
vn 0.000003 0.030308 0.999541
vn 0.000000 0.000000 -1.000000
vn 0.000000 0.000000 -1.000000
vn 0.000000 0.000000 -1.000000
vn 0.000000 0.000000 -1.000000
vn 0.000000 0.038506 -0.999258
vn 0.000000 0.038506 -0.999258
vn 0.000000 0.030472 -0.999536
vn 0.000000 0.030308 -0.999541
vn 0.000000 1.000000 0.000000
vn 0.000000 1.000000 0.000000
vn 0.000000 1.000000 0.000000
vn 0.000000 1.000000 0.000000
vn 0.000001 0.030308 0.999541
vn 0.000002 0.030472 0.999536
vn 0.000002 0.038506 0.999258
vn 0.000000 0.038506 0.999258
vn 0.000004 0.000000 1.000000
vn 0.000004 0.000000 1.000000
vn 0.000003 0.000000 1.000000
vn 0.000003 0.000000 1.000000
vn 0.000006 -0.030524 0.999534
vn 0.000004 -0.030644 0.999530
vn 0.000003 0.000000 1.000000
vn 0.000004 0.000000 1.000000
vn 0.000000 -1.000000 0.000000
vn 0.000000 -1.000000 0.000000
vn 0.000000 -1.000000 0.000000
vn 0.000000 -1.000000 0.000000
vn 0.000000 0.000000 -1.000000
vn 0.000000 0.000000 -1.000000
vn 0.000001 -0.030644 -0.999530
vn 0.000003 -0.030524 -0.999534
vn 1.000000 0.000000 0.000000
vn 1.000000 0.000000 0.000000
vn 1.000000 0.000000 0.000000
vn 1.000000 0.000000 0.000000
vn 0.000000 1.000000 0.000000
vn 0.000000 1.000000 0.000000
vn 0.000000 1.000000 0.000000
vn 0.000000 1.000000 0.000000
vn 0.000000 -1.000000 0.000000
vn 0.000000 -1.000000 0.000000
vn 0.000000 -1.000000 0.000000
vn 0.000000 -1.000000 0.000000
vn -0.999502 -0.031567 0.000002
vn -0.999502 -0.031567 0.000002
vn -0.999289 -0.037706 0.000002
vn -0.999289 -0.037706 0.000002
vn 0.000005 -0.036467 0.999335
vn 0.000004 -0.030644 0.999530
vn 0.000006 -0.030524 0.999534
vn 0.000006 -0.036466 0.999335
vn 0.000003 -0.030524 0.999534
vn 0.000004 -0.030644 0.999530
vn 0.000005 -0.036467 0.999335
vn 0.000003 -0.036467 0.999335
vn 0.999289 -0.037707 0.000000
vn 0.999289 -0.037707 0.000000
vn 0.999502 -0.031567 0.000000
vn 0.999502 -0.031567 0.000000
vn 0.000002 -0.036467 -0.999335
vn 0.000001 -0.030644 -0.999530
vn 0.000000 -0.030524 -0.999534
vn 0.000000 -0.036466 -0.999335
vn 0.000003 -0.030524 -0.999534
vn 0.000001 -0.030644 -0.999530
vn 0.000002 -0.036467 -0.999335
vn 0.000003 -0.036467 -0.999335
vn -0.999509 0.031345 0.000002
vn -0.999509 0.031345 0.000002
vn -1.000000 0.000000 0.000000
vn -1.000000 0.000000 0.000000
vn 0.000003 0.000000 1.000000
vn 0.000002 0.030472 0.999536
vn 0.000001 0.030308 0.999541
vn 0.000004 0.000000 1.000000
vn 0.000003 0.030308 0.999541
vn 0.000002 0.030472 0.999536
vn 0.000003 0.000000 1.000000
vn 0.000000 0.000000 1.000000
vn 1.000000 0.000000 0.000000
vn 1.000000 0.000000 0.000000
vn 0.999509 0.031345 0.000000
vn 0.999509 0.031345 0.000000
vn 0.000000 0.030472 -0.999536
vn 0.000000 0.030308 -0.999541
vn 0.000000 0.000000 -1.000000
vn 0.000000 0.000000 -1.000000
vn 0.000000 0.030308 -0.999541
vn 0.000000 0.030472 -0.999536
vn 0.000000 0.000000 -1.000000
vn 0.000000 0.000000 -1.000000
s off
g initialShadingGroup Sunmao_005_A
f 59/69/137 60/70/138 42/71/139 41/72/140
f 43/73/141 44/74/142 55/75/143 56/76/144
f 46/77/145 45/78/146 48/79/147 47/80/148
f 46/77/149 47/80/150 61/81/151 62/82/152
f 64/83/153 65/84/154 49/85/155 51/86/156
f 65/87/157 66/88/158 53/89/159 49/90/160
f 51/91/161 58/92/162 63/93/163 64/94/164
f 37/95/165 38/96/166 67/97/167 68/98/168
f 55/99/169 44/100/170 71/101/171 72/102/172
f 70/103/173 71/104/174 44/74/175 43/73/176
f 43/105/177 56/106/178 69/107/179 70/108/180
f 47/80/181 48/79/182 54/109/183 53/89/184
f 38/110/185 55/99/186 72/102/187 67/111/188
f 56/76/189 55/75/190 38/112/191 37/113/192
f 68/114/193 69/107/194 56/106/195 37/115/196
f 45/78/197 46/77/198 58/92/199 57/116/200
f 62/117/201 63/93/202 58/92/203 46/77/204
f 39/118/205 40/119/206 60/70/207 59/69/208
f 47/80/209 53/89/210 66/88/211 61/120/212
f 53/121/213 54/122/214 57/123/215 58/124/216
f 53/121/217 58/124/218 51/86/219 49/85/220
f 57/123/221 54/122/222 50/125/223 52/126/224
f 62/82/225 61/81/226 40/119/227 39/118/228
f 59/127/229 63/93/230 62/117/231 39/128/232
f 64/94/233 63/93/234 59/127/235 41/129/236
f 41/130/237 42/131/238 65/84/239 64/83/240
f 60/132/241 66/88/242 65/87/243 42/133/244
f 61/120/245 66/88/246 60/132/247 40/134/248
f 68/98/249 67/97/250 48/79/251 45/78/252
f 57/116/253 69/107/254 68/114/255 45/78/256
f 70/108/257 69/107/258 57/116/259 52/135/260
f 52/126/261 50/125/262 71/104/263 70/103/264
f 72/102/265 71/101/266 50/136/267 54/109/268
f 67/111/269 72/102/270 54/109/271 48/79/272
