# This file uses centimeters as units for non-parametric coordinates.

mtllib Sunmao_010.mtl
g default
v 0.142803 0.164185 -0.154906
v 0.429763 0.164185 -0.441867
v -0.066928 0.164185 -0.364636
v 0.220033 0.164185 -0.651598
v -0.066928 -0.164185 -0.364636
v 0.220033 -0.164185 -0.651598
v 0.142803 -0.164185 -0.154906
v 0.429763 -0.164185 -0.441867
v 0.109633 0.164185 -0.188076
v 0.396594 0.164185 -0.475037
v 0.396594 -0.164185 -0.475037
v 0.109633 -0.164185 -0.188076
v 0.032583 0.164185 -0.265126
v 0.319544 0.164185 -0.552087
v 0.319544 -0.164185 -0.552087
v 0.032583 -0.164185 -0.265126
v -0.000587 0.164185 -0.298296
v 0.286373 0.164185 -0.585257
v 0.286373 -0.164185 -0.585257
v -0.000587 -0.164185 -0.298296
v -0.033757 0.164185 -0.331466
v 0.253204 0.164185 -0.618428
v 0.253204 -0.164185 -0.618428
v -0.033757 -0.164185 -0.331466
v -0.066928 0.000001 -0.364636
v -0.000587 0.000001 -0.298296
v 0.032583 0.000001 -0.265126
v 0.109633 0.000001 -0.188076
v 0.142803 0.000001 -0.154906
v 0.429763 0.000001 -0.441867
v 0.396594 0.000001 -0.475037
v 0.319544 0.000001 -0.552087
v 0.286373 0.000001 -0.585257
v 0.253204 0.000001 -0.618428
v 0.220033 0.000001 -0.651598
v -0.050167 0.000001 -0.028275
v -0.050167 0.164185 -0.028275
v -0.207049 0.164185 -0.025493
v -0.207049 0.000001 -0.025493
v -0.207049 -0.164185 -0.025493
v -0.050167 -0.164185 -0.028275
v -0.132441 0.000001 -0.232783
v -0.165611 0.000001 -0.265954
v -0.099271 0.000001 -0.199613
vt 0.555225 0.755950
vt 0.647166 0.819793
vt 0.639786 0.830421
vt 0.547845 0.766578
vt 0.575944 0.922361
vt 0.676983 0.856249
vt 0.613140 0.948190
vt 0.806120 0.945921
vt 0.714179 0.882078
vt 0.721559 0.871451
vt 0.813500 0.935293
vt 0.787486 0.697112
vt 0.723643 0.789053
vt 0.686447 0.763224
vt 0.750289 0.671283
vt 0.684363 0.845622
vt 0.594506 0.699382
vt 0.679067 0.773852
vt 0.587126 0.710009
vt 0.716264 0.799680
vt 0.845401 0.889352
vt 0.753460 0.825509
vt 0.760840 0.814882
vt 0.852781 0.878724
vt 0.757669 0.660656
vt 0.794865 0.686484
vt 0.661925 0.798538
vt 0.569985 0.734695
vt 0.699122 0.824367
vt 0.828259 0.914038
vt 0.736318 0.850195
vt 0.793221 0.609457
vt 0.817905 0.573909
vt 0.855101 0.599738
vt 0.830418 0.635285
vt 0.654546 0.809165
vt 0.562605 0.745323
vt 0.691742 0.834994
vt 0.820879 0.924666
vt 0.728939 0.860823
vt 0.908414 0.522961
vt 0.871218 0.497132
vt 0.878598 0.486504
vt 0.915794 0.512333
vt 0.945611 0.548790
vt 0.952991 0.538162
vt 0.892298 0.625566
vt 0.867614 0.661114
vt 0.824682 0.722941
vt 0.832062 0.712313
vt 0.650337 0.974019
vt 0.535927 0.674457
vt 0.493208 0.681382
vt 0.905036 0.967351
vt 0.896600 0.924904
vt 0.499027 0.732679
vt 0.506407 0.722052
vt 0.591185 0.979808
vt 0.937749 0.480715
vt 0.513786 0.711424
vt 0.862318 0.969192
vt 0.854939 0.979820
vt 0.869698 0.958565
vn 0.000000 1.000000 0.000000
vn 0.000000 1.000000 0.000000
vn 0.000000 1.000000 0.000000
vn 0.000000 1.000000 0.000000
vn -0.707107 0.000000 -0.707106
vn -0.707107 0.000000 -0.707106
vn -0.707107 0.000000 -0.707106
vn -0.707107 0.000000 -0.707106
vn 0.000000 -1.000000 0.000000
vn 0.000000 -1.000000 0.000000
vn 0.000000 -1.000000 0.000000
vn 0.000000 -1.000000 0.000000
vn 0.707107 0.000000 0.707106
vn 0.707107 0.000000 0.707106
vn 0.707107 0.000000 0.707106
vn 0.707107 0.000000 0.707106
vn 0.707109 0.000000 -0.707104
vn 0.707111 0.000000 -0.707102
vn 0.707104 0.000000 -0.707109
vn 0.707097 0.000000 -0.707117
vn 0.000001 1.000000 0.000001
vn 0.000001 1.000000 0.000001
vn 0.000000 1.000000 0.000000
vn 0.000000 1.000000 0.000000
vn 0.707104 0.000000 -0.707109
vn 0.707110 0.000000 -0.707104
vn 0.707107 0.000000 -0.707106
vn 0.707107 0.000000 -0.707107
vn 0.000000 -1.000000 0.000000
vn 0.000000 -1.000000 0.000000
vn 0.000000 -1.000000 0.000000
vn 0.000000 -1.000000 0.000000
vn -0.707109 0.000000 0.707105
vn -0.707106 0.000000 0.707108
vn -0.707106 0.000000 0.707108
vn -0.707109 0.000000 0.707105
vn 0.000000 1.000000 0.000000
vn 0.000000 1.000000 0.000000
vn 0.000000 1.000000 0.000000
vn 0.000000 1.000000 0.000000
vn 0.707107 0.000000 -0.707106
vn 0.707103 0.000000 -0.707110
vn 0.707105 0.000000 -0.707109
vn 0.707107 0.000000 -0.707107
vn 0.000000 -1.000000 0.000000
vn 0.000000 -1.000000 0.000000
vn 0.000000 -1.000000 0.000000
vn 0.000000 -1.000000 0.000000
vn 0.017737 0.000000 0.999843
vn 0.017737 0.000000 0.999843
vn 0.017737 0.000000 0.999843
vn 0.017737 0.000000 0.999843
vn 0.000000 1.000000 0.000000
vn 0.000000 1.000000 0.000000
vn 0.000000 1.000000 0.000000
vn 0.000000 1.000000 0.000000
vn 0.707105 0.000000 -0.707109
vn 0.707103 0.000000 -0.707110
vn 0.707108 0.000000 -0.707106
vn 0.707109 0.000000 -0.707104
vn 0.000000 -1.000000 0.000000
vn 0.000000 -1.000000 0.000000
vn 0.000000 -1.000000 0.000000
vn 0.000000 -1.000000 0.000000
vn -0.707104 0.000000 0.707109
vn -0.707104 0.000000 0.707109
vn -0.707104 0.000000 0.707109
vn -0.707104 0.000000 0.707109
vn 0.000000 1.000000 0.000000
vn 0.000000 1.000000 0.000000
vn 0.000000 1.000000 0.000000
vn 0.000000 1.000000 0.000000
vn 0.707109 0.000000 -0.707104
vn 0.707108 0.000000 -0.707106
vn 0.707111 0.000000 -0.707102
vn 0.707109 0.000000 -0.707104
vn 0.000000 -1.000000 0.000000
vn 0.000000 -1.000000 0.000000
vn 0.000000 -1.000000 0.000000
vn 0.000000 -1.000000 0.000000
vn -0.707105 0.000000 0.707109
vn -0.707104 0.000000 0.707109
vn -0.707104 0.000000 0.707109
vn -0.707105 0.000000 0.707109
vn 0.017737 0.000000 0.999843
vn 0.017737 0.000000 0.999843
vn 0.017737 0.000000 0.999843
vn 0.017737 0.000000 0.999843
vn -0.707112 0.000000 0.707101
vn -0.707109 0.000000 0.707105
vn -0.707109 0.000000 0.707105
vn -0.707112 0.000000 0.707101
vn 0.707107 0.000000 0.707106
vn 0.707107 0.000000 0.707106
vn 0.707107 0.000000 0.707106
vn 0.707107 0.000000 0.707106
vn 0.707107 0.000000 -0.707106
vn 0.707110 0.000000 -0.707104
vn 0.707115 0.000000 -0.707099
vn 0.707108 0.000000 -0.707106
vn 0.707108 0.000000 -0.707106
vn 0.707102 0.000000 -0.707111
vn 0.707103 0.000000 -0.707110
vn 0.707107 0.000000 -0.707106
vn 0.707108 0.000000 -0.707106
vn 0.707103 0.000000 -0.707110
vn 0.707102 0.000000 -0.707111
vn 0.707106 0.000000 -0.707108
vn 0.707111 0.000000 -0.707102
vn 0.707108 0.000000 -0.707106
vn 0.707106 0.000000 -0.707108
vn 0.707113 0.000000 -0.707100
vn 0.707104 0.000000 -0.707109
vn 0.707111 0.000000 -0.707102
vn 0.707113 0.000000 -0.707100
vn 0.707112 0.000000 -0.707101
vn -0.707107 0.000000 -0.707106
vn -0.707107 0.000000 -0.707106
vn -0.707107 0.000000 -0.707106
vn -0.707107 0.000000 -0.707106
vn 0.707107 0.000000 0.707106
vn 0.707107 0.000000 0.707106
vn 0.707107 0.000000 0.707106
vn 0.707107 0.000000 0.707106
vn 0.000000 1.000000 0.000000
vn 0.000000 1.000000 0.000000
vn 0.000000 1.000000 0.000000
vn 0.000000 1.000000 0.000000
vn -0.707107 0.000000 -0.707107
vn -0.707107 0.000000 -0.707107
vn -0.707107 0.000000 -0.707107
vn -0.707107 0.000000 -0.707107
vn -0.707107 0.000000 -0.707107
vn -0.707107 0.000000 -0.707107
vn -0.707107 0.000000 -0.707107
vn -0.707107 0.000000 -0.707107
vn 0.000000 -1.000000 0.000000
vn 0.000000 -1.000000 0.000000
vn 0.000000 -1.000000 0.000000
vn 0.000000 -1.000000 0.000000
vn 0.707109 0.000000 0.707105
vn 0.707109 0.000000 0.707105
vn 0.707109 0.000000 0.707105
vn 0.707109 0.000000 0.707105
vn -0.538765 0.647657 0.538769
vn -0.538766 0.647657 0.538769
vn -0.707108 0.000002 0.707105
vn -0.707108 0.000001 0.707105
vn -0.707110 0.000000 -0.707104
vn -0.707110 0.000000 -0.707104
vn -0.707110 0.000000 -0.707104
vn 0.707103 0.000000 0.707110
vn 0.707103 0.000000 0.707110
vn 0.707103 0.000000 0.707110
vn -0.538760 0.647660 0.538772
vn -0.538760 0.647660 0.538772
vn -0.707095 -0.000002 0.707119
vn -0.707095 -0.000001 0.707119
vn -0.707110 0.000000 -0.707104
vn -0.707110 0.000000 -0.707104
vn -0.707110 0.000000 -0.707104
vn -0.538774 -0.647653 0.538765
vn -0.538774 -0.647653 0.538765
vn -0.707108 0.000001 0.707105
vn -0.707108 0.000002 0.707105
vn 0.707100 0.000000 0.707114
vn 0.707100 0.000000 0.707114
vn 0.707100 0.000000 0.707114
vn -0.538751 -0.647664 0.538776
vn -0.538751 -0.647664 0.538776
vn -0.707095 -0.000001 0.707119
vn -0.707095 -0.000002 0.707119
s off
g initialShadingGroup Sunmao_010_C
f 21/1/1 22/2/2 4/3/3 3/4/4
f 3/5/5 4/3/6 35/6/7 25/7/8
f 5/8/9 6/9/10 23/10/11 24/11/12
f 29/12/13 30/13/14 2/14/15 1/15/16
f 22/2/17 34/16/18 35/6/19 4/3/20
f 1/17/21 2/14/22 10/18/23 9/19/24
f 2/14/25 30/13/26 31/20/27 10/18/28
f 12/21/29 11/22/30 8/23/31 7/24/32
f 29/12/33 1/15/34 9/25/35 28/26/36
f 14/27/37 13/28/38 9/19/39 10/18/40
f 31/20/41 32/29/42 14/27/43 10/18/44
f 16/30/45 15/31/46 11/22/47 12/21/48
f 37/32/49 38/33/50 39/34/51 36/35/52
f 13/28/53 14/27/54 18/36/55 17/37/56
f 14/27/57 32/29/58 33/38/59 18/36/60
f 20/39/61 19/40/62 15/31/63 16/30/64
f 27/41/65 13/42/66 17/43/67 26/44/68
f 17/37/69 18/36/70 22/2/71 21/1/72
f 18/36/73 33/38/74 34/16/75 22/2/76
f 24/11/77 23/10/78 19/40/79 20/39/80
f 16/45/81 27/41/82 26/44/83 20/46/84
f 36/35/85 39/34/86 40/47/87 41/48/88
f 7/49/89 29/12/90 28/26/91 12/50/92
f 7/49/93 8/23/94 30/13/95 29/12/96
f 31/20/97 30/13/98 8/23/99 11/22/100
f 11/22/101 15/31/102 32/29/103 31/20/104
f 33/38/105 32/29/106 15/31/107 19/40/108
f 34/16/109 33/38/110 19/40/111 23/10/112
f 35/6/113 34/16/114 23/10/115 6/9/116
f 25/7/117 35/6/118 6/9/119 5/51/120
f 28/26/121 9/25/122 37/32/123 36/35/124
f 37/52/125 9/19/126 13/28/127 38/53/128
f 13/42/129 27/41/130 39/34/131 38/33/132
f 27/41/133 16/45/134 40/47/135 39/34/136
f 40/54/137 16/30/138 12/21/139 41/55/140
f 12/50/141 28/26/142 36/35/143 41/48/144
f 21/1/145 3/4/146 43/56/147 42/57/148
f 3/5/149 25/7/150 43/58/151
f 26/44/152 17/43/153 44/59/154
f 17/37/155 21/1/156 42/57/157 44/60/158
f 25/7/159 5/51/160 43/58/161
f 5/8/162 24/11/163 42/61/164 43/62/165
f 20/46/166 26/44/167 44/59/168
f 24/11/169 20/39/170 44/63/171 42/61/172
g default
v 0.144004 -0.164185 0.154906
v 0.430964 -0.164185 0.441866
v -0.065727 -0.164185 0.364636
v 0.221234 -0.164185 0.651598
v -0.065727 0.164185 0.364636
v 0.221234 0.164185 0.651598
v 0.144004 0.164185 0.154906
v 0.430964 0.164185 0.441866
v 0.110833 -0.164185 0.188076
v 0.397795 -0.164185 0.475037
v 0.397795 0.164185 0.475037
v 0.110833 0.164185 0.188076
v 0.033784 -0.164185 0.265126
v 0.320745 -0.164185 0.552086
v 0.320745 0.164185 0.552086
v 0.033784 0.164185 0.265126
v 0.000613 -0.164185 0.298296
v 0.287574 -0.164185 0.585257
v 0.287574 0.164185 0.585257
v 0.000613 0.164185 0.298296
v -0.065727 0.000001 0.364636
v 0.000613 0.000001 0.298296
v 0.033784 0.000001 0.265126
v 0.110833 0.000001 0.188076
v 0.144004 0.000001 0.154906
v 0.430964 0.000001 0.441866
v 0.397795 0.000001 0.475037
v 0.320745 0.000001 0.552086
v 0.287574 0.000001 0.585257
v 0.221234 0.000001 0.651598
v -0.048966 0.000001 0.028276
v -0.048966 -0.164185 0.028276
v -0.205849 -0.164185 0.025493
v -0.205849 0.000001 0.025493
v -0.205849 0.164185 0.025493
v -0.048966 0.164185 0.028276
v -0.164412 0.000001 0.265953
v -0.098070 0.000001 0.199612
vt 0.260055 0.732644
vt 0.196186 0.640722
vt 0.217436 0.625956
vt 0.281306 0.717878
vt 0.168133 0.796513
vt 0.285895 0.769832
vt 0.193973 0.833702
vt 0.375605 0.898943
vt 0.311735 0.807021
vt 0.332985 0.792256
vt 0.396855 0.884178
vt 0.445000 0.659283
vt 0.353078 0.723152
vt 0.327238 0.685963
vt 0.419160 0.622094
vt 0.307146 0.755067
vt 0.263369 0.594042
vt 0.316613 0.693346
vt 0.252743 0.601424
vt 0.342452 0.730535
vt 0.432162 0.859646
vt 0.368292 0.767724
vt 0.378917 0.760341
vt 0.442787 0.852263
vt 0.429785 0.614711
vt 0.455625 0.651900
vt 0.291931 0.710495
vt 0.228062 0.618573
vt 0.317771 0.747684
vt 0.407481 0.876795
vt 0.343611 0.784873
vt 0.480974 0.579144
vt 0.516514 0.554450
vt 0.542354 0.591638
vt 0.506813 0.616333
vt 0.619115 0.538303
vt 0.593275 0.501114
vt 0.603901 0.493731
vt 0.629740 0.530920
vt 0.644955 0.575492
vt 0.655580 0.568109
vt 0.568194 0.628827
vt 0.532653 0.653522
vt 0.470839 0.696471
vt 0.481465 0.689089
vt 0.219813 0.870891
vt 0.217176 0.550236
vt 0.174726 0.541812
vt 0.460816 0.953556
vt 0.467729 0.910834
vt 0.162362 0.855666
vt 0.661352 0.508956
vt 0.183523 0.577147
vt 0.162272 0.591913
vt 0.430769 0.932986
vt 0.409518 0.947752
vn 0.000000 -1.000000 -0.000000
vn 0.000000 -1.000000 -0.000000
vn 0.000000 -1.000000 -0.000000
vn 0.000000 -1.000000 -0.000000
vn -0.707107 0.000000 0.707106
vn -0.707107 0.000000 0.707106
vn -0.707107 0.000000 0.707106
vn -0.707107 0.000000 0.707106
vn 0.000000 1.000000 0.000000
vn 0.000000 1.000000 0.000000
vn 0.000000 1.000000 0.000000
vn 0.000000 1.000000 0.000000
vn 0.707106 0.000000 -0.707107
vn 0.707106 0.000000 -0.707107
vn 0.707106 0.000000 -0.707107
vn 0.707106 0.000000 -0.707107
vn 0.707105 0.000000 0.707108
vn 0.707105 0.000000 0.707108
vn 0.707105 0.000000 0.707108
vn 0.707105 0.000000 0.707108
vn 0.000000 -1.000000 0.000000
vn 0.000000 -1.000000 0.000000
vn 0.000000 -1.000000 0.000000
vn 0.000000 -1.000000 0.000000
vn 0.707114 0.000000 0.707099
vn 0.707114 0.000000 0.707099
vn 0.707114 0.000000 0.707099
vn 0.707114 0.000000 0.707099
vn -0.000001 1.000000 0.000002
vn -0.000001 1.000000 0.000002
vn -0.000001 1.000000 0.000002
vn -0.000001 1.000000 0.000002
vn -0.707097 0.000000 -0.707117
vn -0.707097 0.000000 -0.707117
vn -0.707097 0.000000 -0.707117
vn -0.707097 0.000000 -0.707117
vn 0.000000 -1.000000 0.000000
vn 0.000000 -1.000000 0.000000
vn 0.000000 -1.000000 0.000000
vn 0.000000 -1.000000 0.000000
vn 0.707101 0.000000 0.707112
vn 0.707101 0.000000 0.707112
vn 0.707101 0.000000 0.707112
vn 0.707101 0.000000 0.707112
vn 0.000000 1.000000 0.000000
vn 0.000000 1.000000 0.000000
vn 0.000000 1.000000 0.000000
vn 0.000000 1.000000 0.000000
vn 0.017732 0.000000 -0.999843
vn 0.017732 0.000000 -0.999843
vn 0.017732 0.000000 -0.999843
vn 0.017732 0.000000 -0.999843
vn 0.000000 -1.000000 0.000000
vn 0.000000 -1.000000 0.000000
vn 0.000000 -1.000000 0.000000
vn 0.000000 -1.000000 0.000000
vn 0.707112 0.000000 0.707102
vn 0.707112 0.000000 0.707101
vn 0.707112 0.000000 0.707101
vn 0.707112 0.000000 0.707102
vn 0.000000 1.000000 -0.000001
vn 0.000000 1.000000 -0.000001
vn 0.000000 1.000000 -0.000001
vn 0.000000 1.000000 -0.000001
vn -0.707096 0.000000 -0.707117
vn -0.707096 0.000000 -0.707117
vn -0.707096 0.000000 -0.707117
vn -0.707096 0.000000 -0.707117
vn -0.707097 0.000000 -0.707117
vn -0.707097 0.000000 -0.707117
vn -0.707097 0.000000 -0.707117
vn -0.707097 0.000000 -0.707117
vn 0.017737 0.000000 -0.999843
vn 0.017737 0.000000 -0.999843
vn 0.017737 0.000000 -0.999843
vn 0.017737 0.000000 -0.999843
vn -0.707097 0.000000 -0.707117
vn -0.707097 0.000000 -0.707117
vn -0.707097 0.000000 -0.707117
vn -0.707097 0.000000 -0.707117
vn 0.707106 0.000000 -0.707107
vn 0.707106 0.000000 -0.707107
vn 0.707106 0.000000 -0.707107
vn 0.707106 0.000000 -0.707107
vn 0.707115 0.000000 0.707099
vn 0.707115 0.000000 0.707099
vn 0.707115 0.000000 0.707099
vn 0.707115 0.000000 0.707099
vn 0.707105 0.000000 0.707109
vn 0.707105 0.000000 0.707109
vn 0.707105 0.000000 0.707109
vn 0.707105 0.000000 0.707109
vn 0.707104 0.000000 0.707109
vn 0.707104 0.000000 0.707109
vn 0.707104 0.000000 0.707109
vn 0.707104 0.000000 0.707109
vn 0.707106 0.000000 0.707108
vn 0.707106 0.000000 0.707108
vn 0.707106 0.000000 0.707108
vn 0.707106 0.000000 0.707108
vn -0.707107 0.000000 0.707106
vn -0.707107 0.000000 0.707106
vn -0.707107 0.000000 0.707106
vn -0.707107 0.000000 0.707106
vn 0.707107 0.000000 -0.707106
vn 0.707107 0.000000 -0.707106
vn 0.707107 0.000000 -0.707106
vn 0.707107 0.000000 -0.707106
vn 0.000000 -1.000000 0.000000
vn 0.000000 -1.000000 0.000000
vn 0.000000 -1.000000 0.000000
vn 0.000000 -1.000000 0.000000
vn -0.707107 0.000000 0.707107
vn -0.707107 0.000000 0.707107
vn -0.707107 0.000000 0.707107
vn -0.707107 0.000000 0.707107
vn -0.707108 0.000000 0.707106
vn -0.707108 0.000000 0.707106
vn -0.707108 0.000000 0.707106
vn -0.707108 0.000000 0.707106
vn 0.000000 1.000000 0.000000
vn 0.000000 1.000000 0.000000
vn 0.000000 1.000000 0.000000
vn 0.000000 1.000000 0.000000
vn 0.707107 0.000000 -0.707106
vn 0.707107 0.000000 -0.707106
vn 0.707107 0.000000 -0.707106
vn 0.707107 0.000000 -0.707106
vn -0.707110 0.000000 0.707104
vn -0.707110 0.000000 0.707104
vn -0.707110 0.000000 0.707104
vn 0.707105 0.000000 -0.707109
vn 0.707105 0.000000 -0.707109
vn 0.707105 0.000000 -0.707109
vn -0.538763 -0.647658 -0.538770
vn -0.538763 -0.647658 -0.538771
vn -0.538763 -0.647658 -0.538770
vn -0.538763 -0.647658 -0.538771
vn -0.707110 0.000000 0.707104
vn -0.707110 0.000000 0.707104
vn -0.707110 0.000000 0.707104
vn -0.538763 0.647658 -0.538770
vn -0.538763 0.647658 -0.538770
vn -0.538763 0.647658 -0.538770
vn -0.538763 0.647658 -0.538770
vn 0.707105 0.000000 -0.707109
vn 0.707105 0.000000 -0.707109
vn 0.707105 0.000000 -0.707109
s off
g initialShadingGroup Sunmao_010_B
f 48/64/173 47/65/174 61/66/175 62/67/176
f 47/68/177 48/64/178 74/69/179 65/70/180
f 49/71/181 50/72/182 63/73/183 64/74/184
f 69/75/185 70/76/186 46/77/187 45/78/188
f 73/79/189 74/69/190 48/64/191 62/67/192
f 45/80/193 46/77/194 54/81/195 53/82/196
f 46/77/197 70/76/198 71/83/199 54/81/200
f 56/84/201 55/85/202 52/86/203 51/87/204
f 69/75/205 45/78/206 53/88/207 68/89/208
f 58/90/209 57/91/210 53/82/211 54/81/212
f 71/83/213 72/92/214 58/90/215 54/81/216
f 60/93/217 59/94/218 55/85/219 56/84/220
f 76/95/221 77/96/222 78/97/223 75/98/224
f 57/91/225 58/90/226 62/67/227 61/66/228
f 58/90/229 72/92/230 73/79/231 62/67/232
f 64/74/233 63/73/234 59/94/235 60/93/236
f 67/99/237 57/100/238 61/101/239 66/102/240
f 60/103/241 67/99/242 66/102/243 64/104/244
f 75/98/245 78/97/246 79/105/247 80/106/248
f 51/107/249 69/75/250 68/89/251 56/108/252
f 51/107/253 52/86/254 70/76/255 69/75/256
f 71/83/257 70/76/258 52/86/259 55/85/260
f 55/85/261 59/94/262 72/92/263 71/83/264
f 73/79/265 72/92/266 59/94/267 63/73/268
f 63/73/269 50/72/270 74/69/271 73/79/272
f 65/70/273 74/69/274 50/72/275 49/109/276
f 68/89/277 53/88/278 76/95/279 75/98/280
f 76/110/281 53/82/282 57/91/283 77/111/284
f 57/100/285 67/99/286 78/97/287 77/96/288
f 67/99/289 60/103/290 79/105/291 78/97/292
f 79/112/293 60/93/294 56/84/295 80/113/296
f 56/108/297 68/89/298 75/98/299 80/106/300
f 47/68/301 65/70/302 81/114/303
f 66/102/304 61/101/305 82/115/306
f 82/116/307 61/66/308 47/65/309 81/117/310
f 65/70/311 49/109/312 81/114/313
f 82/118/314 81/119/315 49/71/316 64/74/317
f 64/104/318 66/102/319 82/115/320
g default
v 0.289594 0.164185 -0.000600
v -0.070685 0.164185 -0.360880
v -0.070685 0.596906 -0.360879
v 0.289594 0.596906 -0.000600
v -0.070685 0.596906 0.359679
v -0.430964 0.596906 -0.000601
v -0.004344 0.164185 0.293338
v -0.103028 0.000001 0.194655
v -0.004344 0.000001 0.293338
v 0.105876 0.000001 0.183118
v 0.289594 0.000001 -0.000600
v 0.105876 0.164185 0.183118
v -0.004344 -0.164185 0.293338
v 0.139046 0.000001 -0.151149
v 0.105876 0.000001 -0.184319
v 0.105876 0.164185 -0.184319
v 0.139046 0.164185 -0.151149
v -0.053924 0.164185 0.023318
v -0.053924 0.000001 0.023318
v 0.028826 0.164185 0.260168
v -0.210806 0.164185 0.020536
v -0.053925 0.164185 -0.024518
v -0.210807 0.164185 -0.021737
v 0.028826 0.164185 -0.261368
v -0.004344 0.164185 -0.294539
v 0.028826 0.000001 -0.261368
v -0.004344 0.000001 -0.294539
v -0.430964 0.164185 -0.000601
v -0.070685 0.164185 0.359678
v 0.139046 -0.164185 -0.151149
v 0.105876 -0.164185 -0.184319
v -0.103028 0.000001 -0.195856
v -0.169368 0.000001 0.260995
v -0.053924 -0.164185 0.023318
v 0.105876 -0.164185 0.183118
v 0.028826 0.000001 0.260168
v -0.210806 0.000001 0.020536
v -0.053925 0.000001 -0.024518
v -0.210807 0.000001 -0.021737
v -0.004344 -0.164185 -0.294539
v 0.028826 -0.164185 -0.261368
v 0.289594 -0.164185 -0.000600
v -0.210806 -0.164185 0.020536
v 0.028826 -0.164185 0.260168
v -0.210807 -0.164185 -0.021737
v -0.053925 -0.164185 -0.024518
v -0.070685 -0.596906 0.359679
v 0.289594 -0.596906 -0.000600
v -0.070685 -0.164185 0.359679
v -0.169368 0.000001 -0.262196
v -0.430964 -0.596906 -0.000601
v -0.070685 -0.596906 -0.360879
v -0.430964 -0.164185 -0.000601
v -0.070685 -0.164185 -0.360879
v -0.430964 0.000001 -0.000601
v -0.004344 0.596906 0.293338
v -0.364623 0.596906 -0.066942
v -0.364623 0.164185 -0.066942
v 0.028826 0.596906 0.260168
v -0.331454 0.596906 -0.100111
v -0.331454 0.164185 -0.100111
v 0.105876 0.596906 0.183117
v -0.254404 0.596906 -0.177162
v -0.254404 0.164185 -0.177162
v 0.105876 -0.596906 0.183118
v -0.254404 -0.596906 -0.177162
v 0.028826 -0.596906 0.260168
v -0.331454 -0.596906 -0.100111
v -0.004344 -0.596906 0.293338
v -0.364623 -0.596906 -0.066942
v -0.254404 0.000001 -0.177162
v -0.254404 -0.164185 -0.177162
v -0.331454 0.000001 -0.100111
v -0.331454 -0.164185 -0.100111
v -0.364623 0.000001 -0.066942
v -0.364623 -0.164185 -0.066942
v 0.139046 0.596906 -0.151149
v -0.044672 0.596906 0.032569
v -0.121722 0.596906 0.109619
v -0.154892 0.596906 0.142789
v -0.221233 0.596906 0.209130
v -0.221233 0.164185 0.209130
v 0.105876 0.596906 -0.184319
v -0.077843 0.596906 -0.000600
v -0.154892 0.596906 0.076449
v -0.188063 0.596906 0.109620
v -0.254404 0.596906 0.175961
v -0.254404 0.164185 0.175961
v 0.028826 0.596906 -0.261368
v -0.154892 0.596906 -0.077651
v -0.231942 0.596906 -0.000600
v -0.265112 0.596906 0.032569
v -0.331454 0.596906 0.098910
v -0.331454 0.164185 0.098910
v -0.004344 0.596906 -0.294539
v -0.188063 0.596906 -0.110821
v -0.265112 0.596906 -0.033771
v -0.298283 0.596906 -0.000601
v -0.364623 0.596906 0.065739
v -0.364623 0.164185 0.065739
v 0.139046 -0.596906 -0.151149
v -0.044672 -0.596906 0.032569
v -0.121722 -0.596906 0.109619
v -0.154893 -0.596906 0.142789
v -0.221233 -0.596906 0.209130
v -0.221233 -0.164185 0.209130
v 0.105876 -0.596906 -0.184319
v -0.077843 -0.596906 -0.000600
v -0.154892 -0.596906 0.076449
v -0.188063 -0.596906 0.109620
v -0.254404 -0.596906 0.175961
v -0.254404 -0.164185 0.175961
v 0.028826 -0.596906 -0.261368
v -0.154892 -0.596906 -0.077651
v -0.231942 -0.596906 -0.000600
v -0.265112 -0.596906 0.032569
v -0.331454 -0.596906 0.098911
v -0.331454 -0.164185 0.098911
v -0.004344 -0.596906 -0.294539
v -0.188063 -0.596906 -0.110821
v -0.265112 -0.596906 -0.033771
v -0.298283 -0.596906 -0.000601
v -0.364623 -0.596906 0.065739
v -0.364623 -0.164185 0.065739
v -0.364623 0.000001 0.065740
v -0.331454 0.000001 0.098911
v -0.254404 0.000001 0.175961
v -0.221233 0.000001 0.209130
vt 0.164424 0.496635
vt 0.163727 0.522417
vt 0.104800 0.520636
vt 0.105495 0.494678
vt 0.190407 0.375244
vt 0.161272 0.328824
vt 0.194589 0.329441
vt 0.192220 0.283284
vt 0.367049 0.333733
vt 0.380110 0.334082
vt 0.379171 0.379760
vt 0.366109 0.379266
vt 0.746997 0.029520
vt 0.809329 0.029511
vt 0.809335 0.074796
vt 0.747003 0.074804
vt 0.747025 0.240713
vt 0.840497 0.240700
vt 0.809361 0.270759
vt 0.747029 0.270767
vt 0.670641 0.270763
vt 0.639508 0.240701
vt 0.732980 0.240722
vt 0.732973 0.270776
vt 0.422950 0.381395
vt 0.409545 0.380975
vt 0.409162 0.334599
vt 0.420934 0.335071
vt 0.108880 0.374580
vt 0.165376 0.379931
vt 0.584806 0.505237
vt 0.558849 0.505129
vt 0.559406 0.384481
vt 0.585313 0.384865
vt 0.454402 0.335765
vt 0.135471 0.328397
vt 0.809341 0.120081
vt 0.747009 0.120089
vt 0.747019 0.195428
vt 0.840491 0.195416
vt 0.852606 0.029506
vt 0.852613 0.074790
vt 0.670694 0.029515
vt 0.670684 0.074800
vt 0.627407 0.074790
vt 0.627417 0.029506
vt 0.425220 0.289195
vt 0.203010 0.496076
vt 0.203712 0.375491
vt 0.234578 0.375949
vt 0.232758 0.495941
vt 0.308670 0.286756
vt 0.367987 0.288045
vt 0.307731 0.332163
vt 0.840485 0.150131
vt 0.747013 0.150143
vt 0.639528 0.150132
vt 0.670674 0.120085
vt 0.733006 0.120098
vt 0.732999 0.150153
vt 0.236108 0.284619
vt 0.240296 0.165101
vt 0.311617 0.167056
vt 0.852619 0.120075
vt 0.627397 0.120075
vt 0.733016 0.074814
vt 0.733026 0.029529
vt 0.639518 0.195417
vt 0.732990 0.195437
vt 0.447530 0.387443
vt 0.479224 0.337017
vt 0.054861 0.020364
vt 0.054969 0.092259
vt 0.028992 0.092337
vt 0.028885 0.020427
vt 0.029022 0.161567
vt 0.054976 0.161424
vt 0.055302 0.281914
vt 0.029370 0.281895
vt 0.167555 0.277508
vt 0.450393 0.284640
vt 0.559664 0.339398
vt 0.585818 0.340212
vt 0.381006 0.288249
vt 0.562254 0.294278
vt 0.588123 0.295519
vt 0.068252 0.281936
vt 0.068552 0.327387
vt 0.055364 0.327214
vt 0.411883 0.288880
vt 0.568405 0.174449
vt 0.594343 0.175859
vt 0.053412 0.372649
vt 0.066319 0.373005
vt 0.383076 0.167912
vt 0.370127 0.167789
vt 0.104454 0.533611
vt 0.163372 0.535335
vt 0.545891 0.505108
vt 0.546475 0.384257
vt 0.103641 0.563746
vt 0.162552 0.565401
vt 0.515802 0.505173
vt 0.516587 0.383830
vt 0.101688 0.635611
vt 0.160600 0.637237
vt 0.442686 0.503783
vt 0.205672 0.283573
vt 0.210317 0.163636
vt 0.054976 0.122419
vt 0.029003 0.122524
vt 0.197394 0.162846
vt 0.054976 0.135412
vt 0.029005 0.135529
vt 0.170849 0.161450
vt 0.515316 0.337936
vt 0.519526 0.292226
vt 0.452917 0.167620
vt 0.525267 0.172039
vt 0.546468 0.339001
vt 0.549351 0.293674
vt 0.555432 0.173737
vt 0.306785 0.377596
vt 0.303415 0.496644
vt 0.088708 0.635249
vt 0.090663 0.563374
vt 0.091478 0.533224
vt 0.091828 0.520237
vt 0.092532 0.494246
vt 0.096170 0.373998
vt 0.058561 0.634408
vt 0.060520 0.562511
vt 0.061348 0.532330
vt 0.061710 0.519329
vt 0.062450 0.493310
vt 0.045582 0.634048
vt 0.047544 0.562144
vt 0.048377 0.531953
vt 0.048741 0.518946
vt 0.049492 0.492918
vt 0.021592 0.561421
vt 0.019628 0.633333
vt 0.022430 0.531219
vt 0.022799 0.518205
vt 0.023555 0.492155
vt 0.027520 0.371968
vt 0.170238 0.092129
vt 0.111184 0.092140
vt 0.111047 0.020256
vt 0.170043 0.020180
vt 0.170404 0.122346
vt 0.111204 0.122256
vt 0.170512 0.135368
vt 0.111185 0.135205
vt 0.111030 0.161030
vt 0.111009 0.281691
vt 0.098174 0.092157
vt 0.098048 0.020276
vt 0.098180 0.122274
vt 0.098159 0.135232
vt 0.098060 0.161148
vt 0.098204 0.281849
vt 0.067967 0.092224
vt 0.067855 0.020335
vt 0.067972 0.122371
vt 0.067965 0.135353
vt 0.067941 0.161347
vt 0.426172 0.167763
vt 0.413186 0.167894
vt 0.029214 0.326885
vt 0.113333 0.328143
vt 0.099614 0.327920
vt 0.416370 0.502157
vt 0.361211 0.498987
vt 0.373968 0.499608
vt 0.403605 0.501268
vt 0.190154 0.496255
vt 0.206311 0.329865
vt 0.235338 0.330224
vn 0.000000 1.000000 -0.000001
vn 0.000000 1.000000 -0.000001
vn 0.000000 1.000000 -0.000001
vn 0.000000 1.000000 -0.000001
vn -0.707105 0.000000 0.707108
vn -0.707106 0.000000 0.707108
vn -0.707106 0.000000 0.707108
vn -0.707106 0.000000 0.707108
vn -0.707106 0.000000 0.707108
vn -0.707105 0.000000 0.707108
vn 0.707107 0.000000 -0.707106
vn 0.707102 0.000000 -0.707112
vn 0.707102 0.000000 -0.707112
vn 0.707102 0.000000 -0.707112
vn -0.707107 0.000000 0.707106
vn -0.707107 0.000000 0.707106
vn -0.707107 0.000000 0.707106
vn -0.707107 0.000000 0.707106
vn 0.000000 -1.000000 0.000000
vn 0.000000 -1.000000 0.000000
vn 0.000000 -1.000000 0.000000
vn 0.000000 -1.000000 0.000000
vn 0.000000 -1.000000 0.000000
vn 0.000000 -1.000000 0.000000
vn 0.000000 -1.000000 0.000000
vn 0.000000 -1.000000 0.000000
vn 0.707117 0.000000 -0.707096
vn 0.707117 0.000000 -0.707096
vn 0.707117 0.000000 -0.707096
vn 0.707117 0.000000 -0.707096
vn -0.707107 -0.000001 0.707106
vn -0.707107 0.000000 0.707106
vn -0.707107 0.000000 0.707106
vn -0.707107 -0.000001 0.707106
vn -0.707106 0.000000 -0.707107
vn -0.707102 0.000000 -0.707112
vn -0.707102 0.000000 -0.707111
vn -0.707105 0.000000 -0.707108
vn -0.707110 0.000000 -0.707103
vn -0.707110 0.000000 -0.707103
vn -0.707110 0.000000 -0.707103
vn 0.538763 -0.647656 0.538773
vn 0.538763 -0.647656 0.538773
vn 0.538763 -0.647656 0.538773
vn 0.538763 -0.647656 0.538773
vn -0.707107 0.000000 0.707106
vn -0.707107 0.000000 0.707106
vn -0.707107 0.000000 0.707106
vn -0.707107 0.000000 0.707106
vn 0.707106 0.000000 -0.707107
vn 0.707106 0.000000 -0.707107
vn 0.707106 0.000000 -0.707107
vn 0.707106 0.000000 -0.707107
vn -0.017732 0.000000 0.999843
vn -0.017732 0.000000 0.999843
vn -0.017732 0.000000 0.999843
vn -0.017732 0.000000 0.999843
vn -0.017732 0.000000 -0.999843
vn -0.017730 0.000000 -0.999843
vn -0.017730 0.000000 -0.999843
vn -0.017732 0.000000 -0.999843
vn -0.707111 0.000000 -0.707103
vn -0.707111 0.000000 -0.707103
vn -0.707111 0.000000 -0.707103
vn 0.707105 0.000001 0.707109
vn 0.707105 0.000001 0.707109
vn 0.707107 0.000001 0.707107
vn 0.707107 0.000001 0.707107
vn 0.707109 0.000000 -0.707105
vn 0.707108 0.000000 -0.707106
vn 0.707107 0.000000 -0.707106
vn 0.707110 0.000000 -0.707104
vn 0.000000 1.000000 0.000000
vn 0.000000 1.000000 0.000000
vn 0.000000 1.000000 0.000000
vn 0.000000 1.000000 0.000000
vn 0.000000 1.000000 0.000000
vn 0.000000 1.000000 0.000000
vn 0.000000 1.000000 0.000000
vn 0.000000 1.000000 0.000000
vn 0.707107 0.000000 -0.707107
vn 0.707107 0.000000 -0.707107
vn 0.707106 0.000000 -0.707107
vn 0.707106 0.000000 -0.707107
vn 0.707107 -0.000000 0.707107
vn 0.707107 -0.000000 0.707107
vn 0.707107 0.000000 0.707106
vn 0.707107 0.000000 0.707106
vn -0.017732 0.000000 0.999843
vn -0.017732 0.000000 0.999843
vn -0.017732 0.000000 0.999843
vn -0.017732 0.000000 0.999843
vn -0.017730 0.000000 -0.999843
vn -0.017728 0.000000 -0.999843
vn -0.017728 0.000000 -0.999843
vn -0.017730 0.000000 -0.999843
vn -0.707106 0.000000 -0.707107
vn -0.707106 0.000000 -0.707107
vn -0.707106 0.000000 -0.707107
vn -0.707106 0.000000 -0.707107
vn 0.707106 0.000000 0.707108
vn 0.707106 0.000000 0.707108
vn 0.707106 0.000000 0.707108
vn 0.707106 0.000000 0.707108
vn -0.707110 0.000000 -0.707104
vn -0.707110 0.000000 -0.707104
vn -0.707110 0.000000 -0.707104
vn -0.707110 0.000000 -0.707104
vn 0.538766 -0.647658 -0.538768
vn 0.538766 -0.647658 -0.538768
vn 0.538766 -0.647658 -0.538768
vn 0.538766 -0.647658 -0.538768
vn 0.000000 -1.000000 0.000000
vn 0.000000 -1.000000 0.000000
vn 0.000000 -1.000000 0.000000
vn 0.000000 -1.000000 0.000000
vn -0.707106 0.000000 0.707107
vn -0.707111 0.000000 0.707102
vn -0.707112 0.000000 0.707102
vn -0.707108 0.000000 0.707106
vn 0.707106 0.000000 0.707108
vn 0.707106 0.000000 0.707108
vn 0.707106 0.000000 0.707108
vn 0.707106 0.000000 0.707108
vn 0.538762 0.647658 0.538772
vn 0.538762 0.647658 0.538772
vn 0.538762 0.647658 0.538772
vn 0.538762 0.647658 0.538772
vn 0.538763 0.647657 -0.538771
vn 0.538763 0.647657 -0.538771
vn 0.538763 0.647657 -0.538771
vn 0.538763 0.647657 -0.538771
vn -0.707102 0.000000 -0.707111
vn -0.707104 0.000000 -0.707110
vn -0.707103 0.000000 -0.707110
vn -0.707105 0.000000 -0.707108
vn 0.707108 0.000000 -0.707106
vn 0.707104 0.000000 -0.707110
vn 0.707102 0.000000 -0.707112
vn 0.707107 0.000000 -0.707106
vn -0.707103 0.000000 -0.707110
vn -0.707104 0.000000 -0.707110
vn -0.707105 0.000000 -0.707109
vn -0.707105 0.000000 -0.707109
vn -0.707106 0.000000 0.707107
vn -0.707105 0.000001 0.707108
vn -0.707111 0.000001 0.707102
vn -0.707112 0.000000 0.707102
vn 0.707108 0.000000 -0.707105
vn 0.707107 0.000000 -0.707107
vn 0.707117 0.000000 -0.707096
vn 0.707117 0.000000 -0.707096
vn -0.707105 0.000000 -0.707109
vn -0.707105 0.000000 -0.707108
vn -0.707106 0.000000 -0.707108
vn -0.707105 0.000000 -0.707109
vn -0.707106 0.000001 0.707108
vn -0.707111 0.000001 0.707102
vn -0.707105 0.000001 0.707108
vn -0.707107 0.000001 0.707107
vn 0.707104 0.000000 -0.707110
vn 0.707104 0.000000 -0.707110
vn 0.707108 0.000000 -0.707106
vn 0.707107 0.000000 -0.707106
vn -0.000000 1.000000 -0.000000
vn 0.000000 1.000000 -0.000001
vn 0.000000 1.000000 -0.000001
vn -0.000000 1.000000 -0.000000
vn -0.707102 0.000000 -0.707111
vn -0.707102 0.000000 -0.707112
vn -0.707103 0.000000 -0.707111
vn -0.707104 0.000000 -0.707109
vn -0.000000 1.000000 -0.000000
vn -0.000000 1.000000 -0.000000
vn -0.000000 1.000000 -0.000000
vn -0.000000 1.000000 -0.000000
vn -0.707104 0.000000 -0.707109
vn -0.707103 0.000000 -0.707111
vn -0.707108 0.000001 -0.707106
vn -0.707108 0.000000 -0.707106
vn -0.000000 1.000000 -0.000000
vn -0.000000 1.000000 -0.000000
vn -0.000000 1.000000 -0.000000
vn -0.000000 1.000000 -0.000000
vn -0.707108 0.000000 -0.707106
vn -0.707108 0.000001 -0.707106
vn -0.707108 0.000001 -0.707105
vn -0.707108 0.000000 -0.707106
vn 0.707108 -0.000000 0.707105
vn 0.707108 -0.000000 0.707105
vn 0.707107 -0.000000 0.707107
vn 0.707107 -0.000000 0.707107
vn 0.000000 -1.000000 0.000000
vn 0.000000 -1.000000 0.000000
vn 0.000000 -1.000000 0.000000
vn 0.000000 -1.000000 0.000000
vn 0.707109 0.000000 0.707104
vn 0.707109 0.000000 0.707104
vn 0.707108 -0.000000 0.707105
vn 0.707108 -0.000000 0.707105
vn 0.000000 -1.000000 0.000000
vn 0.000000 -1.000000 0.000000
vn 0.000000 -1.000000 0.000000
vn 0.000000 -1.000000 0.000000
vn 0.707106 0.000000 0.707107
vn 0.707109 0.000000 0.707104
vn 0.707109 0.000000 0.707104
vn 0.707106 0.000000 0.707107
vn 0.000000 -1.000000 0.000000
vn 0.000000 -1.000000 0.000000
vn 0.000000 -1.000000 0.000000
vn 0.000000 -1.000000 0.000000
vn -0.707105 -0.000001 -0.707109
vn -0.707106 0.000000 -0.707108
vn -0.707108 0.000000 -0.707106
vn -0.707108 0.000000 -0.707106
vn -0.707106 0.000000 -0.707108
vn -0.707106 0.000000 -0.707108
vn -0.707105 -0.000001 -0.707109
vn -0.707105 0.000000 -0.707109
vn -0.707105 0.000000 -0.707109
vn -0.707105 0.000000 -0.707109
vn -0.707106 0.000000 -0.707108
vn -0.707106 0.000000 -0.707108
vn -0.707108 0.000000 -0.707106
vn -0.707106 0.000000 -0.707108
vn -0.707107 0.000000 -0.707106
vn -0.707104 0.000000 -0.707109
vn -0.707107 0.000000 -0.707106
vn -0.707107 0.000000 -0.707106
vn -0.707106 0.000000 -0.707108
vn -0.707106 0.000000 -0.707108
vn -0.707106 0.000000 -0.707108
vn -0.707106 0.000000 -0.707108
vn -0.707107 0.000000 -0.707107
vn -0.707107 0.000000 -0.707106
vn -0.707104 0.000000 -0.707109
vn -0.707107 0.000000 -0.707106
vn -0.707104 0.000000 -0.707110
vn -0.707102 0.000000 -0.707111
vn -0.707105 0.000000 -0.707109
vn -0.707104 0.000000 -0.707110
vn -0.707107 0.000000 -0.707106
vn -0.707107 0.000000 -0.707106
vn -0.707107 0.000000 -0.707106
vn -0.707107 0.000000 -0.707107
vn -0.707105 0.000000 -0.707108
vn -0.707105 0.000000 -0.707109
vn 0.707107 0.000001 0.707107
vn 0.707107 0.000001 0.707107
vn 0.707107 0.000001 0.707106
vn 0.707107 0.000001 0.707106
vn 0.000001 1.000000 0.000000
vn 0.000001 1.000000 0.000000
vn -0.000000 1.000000 -0.000000
vn -0.000000 1.000000 -0.000000
vn 0.000001 1.000000 0.000000
vn 0.000001 1.000000 0.000001
vn -0.000000 1.000000 -0.000000
vn -0.000000 1.000000 -0.000000
vn 0.000001 1.000000 0.000001
vn 0.000000 1.000000 0.000002
vn 0.000000 1.000000 -0.000001
vn -0.000000 1.000000 -0.000000
vn 0.000000 1.000000 -0.000001
vn 0.000000 1.000000 -0.000001
vn 0.000000 1.000000 0.000002
vn -0.000001 1.000000 0.000002
vn -0.707109 0.000000 0.707104
vn -0.707107 0.000001 0.707106
vn -0.707107 0.000000 0.707106
vn -0.707107 -0.000001 0.707106
vn 0.000001 1.000000 0.000000
vn 0.000001 1.000000 0.000000
vn 0.000001 1.000000 0.000000
vn 0.000001 1.000000 0.000000
vn 0.000001 1.000000 0.000000
vn 0.000001 1.000000 0.000001
vn 0.000001 1.000000 0.000001
vn 0.000001 1.000000 0.000000
vn 0.000001 1.000000 0.000001
vn -0.000001 1.000000 0.000002
vn 0.000000 1.000000 0.000002
vn 0.000001 1.000000 0.000001
vn -0.000001 1.000000 0.000002
vn 0.000000 1.000000 0.000002
vn -0.000001 1.000000 0.000002
vn -0.000001 1.000000 0.000002
vn -0.707107 0.000000 0.707106
vn -0.707107 0.000001 0.707107
vn -0.707107 0.000001 0.707106
vn -0.707109 0.000000 0.707104
vn 0.000001 1.000000 0.000000
vn 0.000001 1.000000 0.000000
vn 0.000001 1.000000 0.000000
vn 0.000001 1.000000 0.000000
vn 0.000001 1.000000 0.000000
vn 0.000000 1.000000 0.000000
vn 0.000001 1.000000 0.000001
vn 0.000001 1.000000 0.000000
vn 0.000000 1.000000 0.000000
vn -0.000001 1.000000 0.000002
vn -0.000001 1.000000 0.000002
vn 0.000001 1.000000 0.000001
vn -0.000001 1.000000 0.000002
vn -0.000001 1.000000 0.000002
vn -0.000001 1.000000 0.000002
vn -0.000001 1.000000 0.000002
vn -0.707104 0.000000 0.707110
vn -0.707106 0.000001 0.707108
vn -0.707107 0.000001 0.707107
vn -0.707107 0.000000 0.707106
vn 0.000001 1.000000 0.000000
vn 0.000001 1.000000 0.000000
vn 0.000001 1.000000 0.000000
vn 0.000001 1.000000 0.000000
vn 0.000000 1.000000 0.000001
vn 0.000000 1.000000 0.000000
vn 0.000001 1.000000 0.000000
vn 0.000001 1.000000 0.000000
vn -0.000001 1.000000 0.000002
vn -0.000001 1.000000 0.000002
vn 0.000000 1.000000 0.000000
vn 0.000000 1.000000 0.000001
vn -0.000001 1.000000 0.000002
vn -0.000001 1.000000 0.000002
vn -0.000001 1.000000 0.000002
vn -0.000001 1.000000 0.000003
vn -0.707107 0.000001 0.707107
vn -0.707106 0.000001 0.707108
vn -0.707104 0.000000 0.707110
vn -0.707105 0.000000 0.707108
vn 0.000000 -1.000000 0.000000
vn 0.000000 -1.000000 0.000000
vn 0.000000 -1.000000 0.000000
vn 0.000000 -1.000000 0.000000
vn 0.000000 -1.000000 0.000000
vn 0.000000 -1.000000 0.000000
vn 0.000000 -1.000000 0.000000
vn 0.000000 -1.000000 0.000000
vn 0.000000 -1.000000 0.000000
vn 0.000000 -1.000000 0.000000
vn 0.000000 -1.000000 0.000000
vn 0.000000 -1.000000 0.000000
vn 0.000000 -1.000000 0.000000
vn 0.000000 -1.000000 0.000000
vn 0.000000 -1.000000 0.000000
vn 0.000000 -1.000000 0.000000
vn -0.707108 0.000000 0.707105
vn -0.707109 0.000000 0.707105
vn -0.707110 0.000000 0.707103
vn -0.707110 0.000000 0.707104
vn 0.000000 -1.000000 0.000000
vn 0.000000 -1.000000 0.000000
vn 0.000000 -1.000000 0.000000
vn 0.000000 -1.000000 0.000000
vn 0.000000 -1.000000 0.000000
vn 0.000000 -1.000000 0.000000
vn 0.000000 -1.000000 0.000000
vn 0.000000 -1.000000 0.000000
vn 0.000000 -1.000000 0.000000
vn 0.000000 -1.000000 0.000000
vn 0.000000 -1.000000 0.000000
vn 0.000000 -1.000000 0.000000
vn 0.000000 -1.000000 0.000000
vn 0.000000 -1.000000 0.000000
vn 0.000000 -1.000000 0.000000
vn 0.000000 -1.000000 0.000000
vn -0.707101 0.000000 0.707113
vn -0.707101 0.000000 0.707113
vn -0.707109 0.000000 0.707105
vn -0.707108 0.000000 0.707105
vn 0.000000 -1.000000 0.000000
vn 0.000000 -1.000000 0.000000
vn 0.000000 -1.000000 0.000000
vn 0.000000 -1.000000 0.000000
vn 0.000000 -1.000000 0.000000
vn 0.000000 -1.000000 0.000000
vn 0.000000 -1.000000 0.000000
vn 0.000000 -1.000000 0.000000
vn 0.000000 -1.000000 0.000000
vn 0.000000 -1.000000 0.000000
vn 0.000000 -1.000000 0.000000
vn 0.000000 -1.000000 0.000000
vn 0.000000 -1.000000 0.000000
vn 0.000000 -1.000000 0.000000
vn 0.000000 -1.000000 0.000000
vn 0.000000 -1.000000 0.000000
vn -0.707106 0.000000 0.707107
vn -0.707107 0.000000 0.707107
vn -0.707101 0.000000 0.707113
vn -0.707101 0.000000 0.707113
vn 0.000000 -1.000000 0.000000
vn 0.000000 -1.000000 0.000000
vn 0.000000 -1.000000 0.000000
vn 0.000000 -1.000000 0.000000
vn 0.000000 -1.000000 0.000000
vn 0.000000 -1.000000 0.000000
vn 0.000000 -1.000000 0.000000
vn 0.000000 -1.000000 0.000000
vn 0.000000 -1.000000 0.000000
vn 0.000000 -1.000000 0.000000
vn 0.000000 -1.000000 0.000000
vn 0.000000 -1.000000 0.000000
vn 0.000000 -1.000000 0.000000
vn 0.000000 -1.000000 0.000000
vn 0.000000 -1.000000 0.000000
vn 0.000000 -1.000000 0.000000
vn -0.707112 0.000000 0.707102
vn -0.707111 0.000000 0.707102
vn -0.707107 0.000000 0.707107
vn -0.707106 0.000000 0.707107
vn 0.707107 0.000000 -0.707106
vn 0.707108 0.000000 -0.707106
vn 0.707109 0.000000 -0.707105
vn 0.707109 0.000000 -0.707105
vn 0.707105 0.000000 -0.707108
vn 0.707107 0.000000 -0.707107
vn 0.707108 0.000000 -0.707105
vn 0.707107 0.000000 -0.707106
vn 0.707107 0.000000 -0.707106
vn 0.707108 0.000000 -0.707105
vn 0.707104 0.000000 -0.707110
vn 0.707104 0.000000 -0.707110
vn 0.707101 0.000000 -0.707112
vn 0.707101 0.000000 -0.707112
vn 0.707107 0.000000 -0.707107
vn 0.707105 0.000000 -0.707108
vn -0.707111 0.000000 0.707103
vn -0.707111 0.000001 0.707102
vn -0.707106 0.000001 0.707108
vn -0.707107 0.000001 0.707107
vn -0.707112 0.000000 0.707102
vn -0.707111 0.000001 0.707102
vn -0.707111 0.000000 0.707103
vn -0.707108 0.000000 0.707106
vn -0.707108 0.000000 0.707105
vn -0.707107 0.000000 0.707107
vn -0.707102 0.000001 0.707112
vn -0.707101 0.000000 0.707113
vn -0.707107 0.000001 0.707106
vn -0.707102 0.000001 0.707112
vn -0.707107 0.000000 0.707107
vn -0.707107 0.000000 0.707106
vn -0.707107 0.000001 0.707107
vn -0.707105 0.000001 0.707108
vn -0.707102 0.000001 0.707112
vn -0.707107 0.000001 0.707106
vn -0.707101 0.000000 0.707113
vn -0.707102 0.000001 0.707112
vn -0.707105 0.000001 0.707108
vn -0.707106 0.000000 0.707107
vn -0.707109 0.000000 0.707105
vn -0.707107 0.000000 0.707107
vn -0.707108 0.000000 0.707105
vn -0.707110 0.000000 0.707104
vn -0.707107 0.000000 0.707106
vn -0.707107 0.000000 0.707107
vn -0.707109 0.000000 0.707105
vn -0.707107 0.000000 0.707106
vn 0.707108 0.000001 -0.707106
vn 0.707108 0.000001 -0.707106
vn 0.707108 0.000001 -0.707106
vn 0.707108 0.000001 -0.707106
vn 0.707109 0.000000 -0.707105
vn 0.707109 0.000000 -0.707105
vn 0.707109 0.000000 -0.707105
vn 0.707109 0.000000 -0.707105
vn 0.707102 0.000000 -0.707112
vn 0.707102 0.000000 -0.707112
vn 0.707102 0.000000 -0.707112
vn 0.707102 0.000000 -0.707112
vn 0.707105 0.000000 -0.707109
vn 0.707105 0.000000 -0.707109
vn 0.707105 0.000000 -0.707109
vn 0.707105 0.000000 -0.707109
vn 0.707113 0.000000 -0.707100
vn 0.707113 0.000000 -0.707100
vn 0.707113 0.000000 -0.707100
vn 0.707113 0.000000 -0.707100
vn 0.707108 0.000000 -0.707106
vn 0.707108 0.000000 -0.707106
vn 0.707108 0.000000 -0.707106
vn 0.707108 0.000000 -0.707106
vn 0.707100 -0.000001 0.707113
vn 0.707100 -0.000001 0.707113
vn 0.707100 -0.000001 0.707113
vn 0.707100 -0.000001 0.707113
vn 0.707116 0.000000 0.707098
vn 0.707116 0.000000 0.707098
vn 0.707116 0.000000 0.707098
vn 0.707116 0.000000 0.707098
vn 0.707112 0.000000 0.707101
vn 0.707112 0.000000 0.707101
vn 0.707112 0.000000 0.707101
vn 0.707112 0.000000 0.707101
vn 0.707106 0.000000 0.707108
vn 0.707106 0.000000 0.707108
vn 0.707106 0.000000 0.707108
vn 0.707106 0.000000 0.707108
vn 0.707112 0.000000 0.707102
vn 0.707112 0.000000 0.707102
vn 0.707112 0.000000 0.707102
vn 0.707112 0.000000 0.707102
vn 0.707106 0.000000 0.707108
vn 0.707106 0.000000 0.707108
vn 0.707106 0.000000 0.707108
vn 0.707106 0.000000 0.707108
s off
g initialShadingGroup Sunmao_010_A
f 87/120/321 138/121/322 162/122/323 163/123/324
f 89/124/325 90/125/326 91/126/327
f 91/126/328 90/125/329 95/127/330
f 96/128/331 97/129/332 98/130/333 99/131/334
f 94/132/335 100/133/336 101/134/337 92/135/338
f 102/136/339 103/137/340 100/138/341 94/139/342
f 104/140/343 105/141/344 106/142/345 98/143/346
f 107/144/347 106/145/348 108/146/349 109/147/350
f 163/123/351 164/148/352 111/149/353 87/120/354
f 88/150/355 139/151/356 140/152/357 110/153/358
f 109/147/359 114/154/360 107/144/361
f 90/125/362 89/124/363 111/149/364 115/155/365
f 92/135/366 101/134/367 116/156/368 117/157/369
f 118/158/370 119/159/371 103/137/372 102/136/373
f 101/134/374 100/133/375 103/160/376 119/161/377
f 104/162/378 120/163/379 121/164/380 105/165/381
f 122/166/382 114/154/383 109/147/384
f 141/167/385 102/168/386 94/169/387 144/170/388
f 124/171/389 112/172/390 96/128/391 93/173/392
f 117/157/393 116/156/394 125/174/395 126/175/396
f 127/176/397 128/177/398 113/178/399 123/179/400
f 126/175/401 125/174/402 119/159/403 118/158/404
f 117/180/405 147/181/406 130/182/407 124/171/408
f 116/156/409 101/134/410 119/161/411 125/183/412
f 120/163/413 128/177/414 127/184/415 121/164/416
f 97/185/417 120/163/418 104/162/419 98/186/420
f 106/142/421 105/141/422 121/187/423 108/188/424
f 113/178/425 128/177/426 120/163/427 97/185/428
f 84/189/429 107/144/430 114/154/431 132/190/432
f 201/191/433 202/192/434 148/193/435 134/194/436
f 133/195/437 205/196/438 206/197/439 135/198/440
f 108/188/441 121/187/442 127/176/443 123/179/444
f 90/125/445 115/155/446 131/199/447 95/127/448
f 132/190/449 114/154/450 122/166/451 136/200/452
f 140/152/453 157/201/454 137/202/455 110/153/456
f 112/172/457 113/203/458 97/129/459 96/128/460
f 137/202/461 157/201/462 158/204/463 135/205/464
f 200/206/465 208/207/466 207/208/467 206/197/468
f 123/209/469 122/166/470 109/147/471 108/146/472
f 158/204/473 152/210/474 133/211/475 135/205/476
f 182/212/477 207/208/478 208/207/479 176/213/480
f 189/214/481 113/203/482 112/172/483 183/215/484
f 161/216/485 162/122/486 138/121/487 141/217/488
f 140/152/489 139/151/490 142/218/491 143/219/492
f 160/220/493 161/216/494 141/217/495 144/221/496
f 143/219/497 142/218/498 145/222/499 146/223/500
f 159/224/501 160/220/502 144/221/503 86/225/504
f 146/223/505 145/222/506 85/226/507 84/189/508
f 126/227/509 149/228/510 147/181/511 117/180/512
f 202/192/513 203/229/514 150/230/515 148/193/516
f 95/127/517 151/231/518 149/228/519 126/227/520
f 203/229/521 204/232/522 152/233/523 150/230/524
f 129/234/525 151/231/526 95/127/527 131/199/528
f 133/195/529 152/233/530 204/232/531 205/196/532
f 132/190/533 153/235/534 146/223/535 84/189/536
f 154/236/537 153/235/538 132/190/539 136/200/540
f 136/200/541 134/237/542 148/238/543 154/236/544
f 146/223/545 153/235/546 155/239/547 143/219/548
f 156/240/549 155/239/550 153/235/551 154/236/552
f 154/236/553 148/238/554 150/241/555 156/240/556
f 143/219/557 155/239/558 157/201/559 140/152/560
f 158/204/561 157/201/562 155/239/563 156/240/564
f 156/240/565 150/241/566 152/210/567 158/204/568
f 144/170/569 94/169/570 83/242/571 86/243/572
f 165/244/573 166/245/574 160/220/575 159/224/576
f 166/245/577 167/246/578 161/216/579 160/220/580
f 167/246/581 168/247/582 162/122/583 161/216/584
f 163/123/585 162/122/586 168/247/587 169/248/588
f 169/248/589 170/249/590 164/148/591 163/123/592
f 171/250/593 172/251/594 166/245/595 165/244/596
f 172/251/597 173/252/598 167/246/599 166/245/600
f 173/252/601 174/253/602 168/247/603 167/246/604
f 169/248/605 168/247/606 174/253/607 175/254/608
f 175/254/609 176/213/610 170/249/611 169/248/612
f 177/255/613 178/256/614 172/251/615 171/250/616
f 178/256/617 179/257/618 173/252/619 172/251/620
f 179/257/621 180/258/622 174/253/623 173/252/624
f 175/254/625 174/253/626 180/258/627 181/259/628
f 181/259/629 182/212/630 176/213/631 175/254/632
f 145/260/633 178/256/634 177/255/635 85/261/636
f 142/262/637 179/257/638 178/256/639 145/260/640
f 139/263/641 180/258/642 179/257/643 142/262/644
f 181/259/645 180/258/646 139/263/647 88/264/648
f 110/265/649 182/212/650 181/259/651 88/264/652
f 147/266/653 184/267/654 183/268/655 130/269/656
f 149/270/657 185/271/658 184/267/659 147/266/660
f 151/272/661 186/273/662 185/271/663 149/270/664
f 187/274/665 186/273/666 151/272/667 129/234/668
f 188/275/669 187/274/670 129/234/671 131/199/672
f 183/268/673 184/267/674 190/276/675 189/277/676
f 184/267/677 185/271/678 191/278/679 190/276/680
f 185/271/681 186/273/682 192/279/683 191/278/684
f 193/280/685 192/279/686 186/273/687 187/274/688
f 194/281/689 193/280/690 187/274/691 188/275/692
f 189/277/693 190/276/694 196/282/695 195/283/696
f 190/276/697 191/278/698 197/284/699 196/282/700
f 191/278/701 192/279/702 198/285/703 197/284/704
f 199/286/705 198/285/706 192/279/707 193/280/708
f 200/206/709 199/286/710 193/280/711 194/281/712
f 195/283/713 196/282/714 202/192/715 201/191/716
f 196/282/717 197/284/718 203/229/719 202/192/720
f 197/284/721 198/285/722 204/232/723 203/229/724
f 205/196/725 204/232/726 198/285/727 199/286/728
f 206/197/729 205/196/730 199/286/731 200/206/732
f 183/215/733 112/172/734 124/171/735 130/182/736
f 201/287/737 122/166/738 123/209/739 195/288/740
f 195/288/741 123/209/742 113/203/743 189/214/744
f 134/237/745 136/200/746 122/166/747 201/287/748
f 137/289/749 207/208/750 182/212/751 110/265/752
f 206/197/753 207/208/754 137/289/755 135/198/756
f 188/275/757 210/290/758 209/291/759 194/281/760
f 170/249/761 209/291/762 210/290/763 164/148/764
f 176/213/765 208/207/766 209/291/767 170/249/768
f 194/281/769 209/291/770 208/207/771 200/206/772
f 115/155/773 210/290/774 188/275/775 131/199/776
f 164/148/777 210/290/778 115/155/779 111/149/780
f 85/226/781 177/292/782 107/144/783 84/189/784
f 159/293/785 86/243/786 83/242/787 99/131/788
f 165/294/789 159/293/790 99/131/791 98/130/792
f 171/295/793 165/294/794 98/130/795 106/145/796
f 177/292/797 171/295/798 106/145/799 107/144/800
f 99/131/801 83/242/802 93/173/803 96/128/804
f 138/296/805 87/120/806 111/149/807 89/124/808
f 141/167/809 138/296/810 89/124/811 102/168/812
f 102/168/813 89/124/814 91/126/815 118/297/816
f 83/242/817 94/169/818 92/298/819 93/173/820
f 118/297/821 91/126/822 95/127/823 126/227/824
f 93/173/825 92/298/826 117/180/827 124/171/828
