# This file uses centimeters as units for non-parametric coordinates.

mtllib Sunmao_002.mtl
g default
v -0.151931 1.391805 0.151930
v 0.148039 1.391805 -0.148040
v 0.156628 0.008588 -0.489467
v 0.489466 0.008588 -0.489467
v 0.489466 0.008588 -0.156628
v 0.156628 0.008588 -0.156628
v -0.491788 0.007973 0.491800
v -0.493357 0.008588 -0.489467
v -0.160518 0.008588 -0.489467
v -0.152076 0.006365 0.152042
v 0.489466 0.008588 0.160518
v 0.489466 0.008588 0.493357
v -0.493357 1.383217 -0.489467
v -0.151930 1.385342 -0.491592
v 0.489466 1.383217 -0.489467
v 0.491591 0.829023 -0.491592
v 0.148040 0.829023 -0.491592
v -0.151930 0.829023 -0.491592
v -0.495482 0.829023 -0.491592
v 0.148563 0.822214 -0.148709
v -0.143342 0.820435 0.143342
v 0.491591 0.829023 -0.148040
v 0.491591 0.829023 0.151930
v 0.489466 1.383217 0.493357
v 0.491591 1.385342 0.151930
v -0.493357 1.383217 0.493357
v 0.491591 0.829023 0.495483
v 0.491591 1.385342 -0.148040
v -0.495482 0.829023 0.495483
v 0.148040 1.385342 -0.491592
vt 0.244930 0.786114
vt 0.245376 0.829457
vt 0.202040 0.829882
vt 0.201614 0.786554
vt 0.235342 0.318462
vt 0.341305 0.315824
vt 0.345416 0.398400
vt 0.238532 0.401931
vt 0.418494 0.441857
vt 0.346350 0.443141
vt 0.418236 0.397142
vt 0.234433 0.234941
vt 0.341237 0.233147
vt 0.425385 0.912370
vt 0.352555 0.912472
vt 0.352521 0.873342
vt 0.425380 0.872920
vt 0.352202 0.828596
vt 0.424774 0.827899
vt 0.423709 0.744087
vt 0.507515 0.742451
vt 0.469159 0.782408
vt 0.424280 0.783104
vt 0.350993 0.700119
vt 0.348827 0.571465
vt 0.421011 0.570078
vt 0.423273 0.699061
vt 0.196629 0.529822
vt 0.241816 0.573354
vt 0.113610 0.575741
vt 0.112895 0.532259
vt 0.196068 0.446227
vt 0.239459 0.445346
vt 0.245611 0.872832
vt 0.351773 0.783867
vt 0.351374 0.744832
vt 0.244569 0.744828
vt 0.244021 0.701520
vt 0.551053 0.696956
vt 0.553948 0.825202
vt 0.509336 0.826545
vt 0.469916 0.827477
vt 0.095233 0.831203
vt 0.095684 0.786536
vt 0.095240 0.741889
vt 0.202047 0.743225
vt 0.380287 0.233642
vt 0.379789 0.278288
vt 0.424452 0.278945
vt 0.423953 0.317995
vn 0.000000 -1.000000 0.000000
vn 0.000000 -1.000000 0.000000
vn 0.000000 -1.000000 0.000000
vn 0.000000 -1.000000 0.000000
vn 0.013456 -0.010665 -0.999853
vn 0.013456 -0.010665 -0.999853
vn 0.013456 -0.010665 -0.999853
vn 0.013456 -0.010665 -0.999853
vn 0.999993 0.001920 0.003108
vn 0.999993 0.001920 0.003108
vn 0.999993 0.001920 0.003108
vn 0.999993 0.001920 0.003108
vn 0.999853 -0.010685 -0.013431
vn 0.999853 -0.010685 -0.013431
vn 0.999853 -0.010685 -0.013431
vn 0.999853 -0.010685 -0.013431
vn 1.000000 -0.000000 0.000000
vn 1.000000 -0.000000 0.000000
vn 1.000000 -0.000000 0.000000
vn 1.000000 -0.000000 0.000000
vn 0.999993 0.001920 -0.003108
vn 0.999993 0.001920 -0.003108
vn 0.999993 0.001920 -0.003108
vn 0.999993 0.001920 -0.003108
vn -0.006547 0.999893 -0.013095
vn -0.006547 0.999893 -0.013095
vn -0.006547 0.999893 -0.013095
vn -0.006547 0.999893 -0.013095
vn -0.999993 0.003834 0.000000
vn -0.999993 0.003834 0.000000
vn -0.999993 0.003834 0.000000
vn -0.999993 0.003834 0.000000
vn -0.003266 -0.999993 -0.001729
vn -0.003266 -0.999993 -0.001729
vn -0.003266 -0.999993 -0.001729
vn -0.003266 -0.999993 -0.001729
vn 0.001729 -0.999993 0.003265
vn 0.001729 -0.999993 0.003265
vn 0.001729 -0.999993 0.003265
vn 0.001729 -0.999993 0.003265
vn 0.000000 0.003834 0.999993
vn 0.000000 0.003834 0.999993
vn 0.000000 0.003834 0.999993
vn 0.000000 0.003834 0.999993
vn 0.999997 -0.002590 0.000000
vn 0.999997 -0.002590 0.000000
vn 0.999997 -0.002590 0.000000
vn 0.999997 -0.002590 0.000000
vn 0.000000 -0.002590 -0.999997
vn 0.000000 -0.002590 -0.999997
vn 0.000000 -0.002590 -0.999997
vn 0.000000 -0.002590 -0.999997
vn 0.000000 -0.002590 -0.999997
vn 0.000000 -0.002590 -0.999997
vn 0.000000 -0.002590 -0.999997
vn 0.000000 -0.002590 -0.999997
vn -0.999993 -0.003546 0.000796
vn -0.999993 -0.003546 0.000796
vn -0.999993 -0.003546 0.000796
vn -0.999993 -0.003546 0.000796
vn -0.000790 -0.003538 0.999994
vn -0.000790 -0.003538 0.999994
vn -0.000790 -0.003538 0.999994
vn -0.000790 -0.003538 0.999994
vn 0.999997 -0.002590 0.000000
vn 0.999997 -0.002590 0.000000
vn 0.999997 -0.002590 0.000000
vn 0.999997 -0.002590 0.000000
vn -0.003107 0.001919 -0.999993
vn -0.003107 0.001919 -0.999993
vn -0.003107 0.001919 -0.999993
vn -0.003107 0.001919 -0.999993
vn 0.000000 0.000000 -1.000000
vn 0.000000 0.000000 -1.000000
vn 0.000000 0.000000 -1.000000
vn 0.000000 0.000000 -1.000000
vn 0.003973 0.999836 0.017685
vn 0.003973 0.999836 0.017685
vn 0.003973 0.999836 0.017685
vn 0.003973 0.999836 0.017685
vn 0.013094 0.999893 0.006547
vn 0.013094 0.999893 0.006547
vn 0.013094 0.999893 0.006547
vn 0.013094 0.999893 0.006547
vn 0.012575 0.999842 -0.012575
vn 0.012575 0.999842 -0.012575
vn 0.012575 0.999842 -0.012575
vn 0.012575 0.999842 -0.012575
vn -0.017685 0.999836 -0.003973
vn -0.017685 0.999836 -0.003973
vn -0.017685 0.999836 -0.003973
vn -0.017685 0.999836 -0.003973
vn 0.003108 0.001919 -0.999993
vn 0.003108 0.001919 -0.999993
vn 0.003108 0.001919 -0.999993
vn 0.003108 0.001919 -0.999993
vn -0.000888 -0.010105 0.999949
vn -0.000888 -0.010105 0.999949
vn -0.000888 -0.010105 0.999949
vn -0.000888 -0.010105 0.999949
vn -0.999948 -0.010193 0.000672
vn -0.999948 -0.010193 0.000672
vn -0.999948 -0.010193 0.000672
vn -0.999948 -0.010193 0.000672
vn -0.004740 -0.999866 -0.015700
vn -0.004740 -0.999866 -0.015700
vn -0.004740 -0.999866 -0.015700
vn -0.004740 -0.999866 -0.015700
vn 0.015696 -0.999866 0.004733
vn 0.015696 -0.999866 0.004733
vn 0.015696 -0.999866 0.004733
vn 0.015696 -0.999866 0.004733
s off
g initialShadingGroup Sunmao_002_B group1
f 3/1/1 4/2/2 5/3/3 6/4/4
f 10/5/5 21/6/6 23/7/7 11/8/8
f 24/9/9 27/10/10 23/7/11 25/11/12
f 9/12/13 18/13/14 21/6/15 10/5/16
f 25/14/17 23/15/18 22/16/19 28/17/20
f 22/16/21 16/18/22 15/19/23 28/17/24
f 14/20/25 1/21/26 2/22/27 30/23/28
f 19/24/29 29/25/30 26/26/31 13/27/32
f 10/28/33 7/29/34 8/30/35 9/31/36
f 7/29/37 10/28/38 11/32/39 12/33/40
f 26/26/41 29/25/42 27/10/43 24/9/44
f 16/18/45 22/16/46 5/34/47 4/2/48
f 3/1/49 17/35/50 16/18/51 4/2/52
f 19/24/53 18/36/54 9/37/55 8/38/56
f 8/38/57 7/29/58 29/25/59 19/24/60
f 27/10/61 29/25/62 7/29/63 12/33/64
f 12/33/65 11/8/66 23/7/67 27/10/68
f 13/27/69 14/20/70 18/36/71 19/24/72
f 17/35/73 18/36/74 14/20/75 30/23/76
f 1/21/77 26/39/78 24/40/79 25/41/80
f 2/22/81 1/21/82 25/41/83 28/42/84
f 30/23/85 2/22/86 28/42/87 15/19/88
f 26/39/89 1/21/90 14/20/91 13/27/92
f 17/35/93 30/23/94 15/19/95 16/18/96
f 5/3/97 22/43/98 20/44/99 6/4/100
f 6/4/101 20/44/102 17/45/103 3/46/104
f 21/6/105 18/13/106 17/47/107 20/48/108
f 21/6/109 20/48/110 22/49/111 23/50/112
g default
v -0.492130 -1.386018 0.493365
v 0.494119 -1.386018 0.496945
v -0.496944 -1.386018 -0.495121
v 0.494119 -1.386018 -0.495121
v 0.494119 -0.003227 0.496945
v -0.488586 -0.002510 0.490021
v -0.496944 -0.003227 -0.495121
v 0.494119 -0.003227 -0.495121
v 0.494994 0.001341 0.153271
v 0.494994 0.001341 -0.148908
v -0.149470 0.003014 0.150382
v 0.152244 0.003876 -0.151670
v 0.149355 0.001341 -0.495773
v -0.153272 0.001341 -0.495773
v 0.494119 0.826501 0.147335
v 0.494119 0.826501 -0.144269
v 0.148406 0.827062 -0.147954
v -0.142242 0.827062 0.143142
v 0.144269 0.826501 -0.495121
v -0.147335 0.826501 -0.495121
v 0.494994 -1.387304 -0.147876
v 0.148546 -1.391805 -0.147876
v 0.148547 -1.387304 -0.495773
v -0.152155 -1.391805 0.152154
v 0.494994 -1.387304 0.152154
v -0.152155 -1.387304 -0.495773
v 0.498055 -0.761454 -0.147876
v 0.498055 -0.761454 0.152154
v 0.494994 -0.761454 0.498055
v -0.492439 -0.761454 0.493880
v -0.498056 -0.761454 -0.495773
v -0.152155 -0.761454 -0.498055
v 0.148546 -0.761454 -0.498055
v 0.494994 -0.761454 -0.495773
vt 0.941868 0.334187
vt 0.941887 0.288809
vt 0.986955 0.288916
vt 0.987050 0.334205
vt 0.676455 0.205249
vt 0.631585 0.204366
vt 0.631721 0.159663
vt 0.676869 0.160266
vt 0.902638 0.373307
vt 0.987034 0.373336
vt 0.986899 0.418301
vt 0.858279 0.417817
vt 0.549085 0.375776
vt 0.633119 0.374392
vt 0.677874 0.418184
vt 0.549739 0.420592
vt 0.857706 0.288826
vt 0.902671 0.288781
vt 0.677433 0.289607
vt 0.632614 0.290071
vt 0.776761 0.546721
vt 0.776854 0.418048
vt 0.858302 0.546569
vt 0.775357 0.075331
vt 0.775159 0.030227
vt 0.856630 0.030051
vt 0.856982 0.075020
vt 0.857144 0.114158
vt 0.857151 0.159468
vt 0.775722 0.159790
vt 0.775526 0.114444
vt 0.857531 0.204566
vt 0.775921 0.204938
vt 0.857704 0.243812
vt 0.776283 0.289181
vt 0.776091 0.244120
vt 0.440967 0.206908
vt 0.440719 0.123670
vt 0.479036 0.161214
vt 0.478993 0.206491
vt 0.523695 0.122214
vt 0.524112 0.160239
vt 0.631289 0.120259
vt 0.524235 0.205327
vt 0.524916 0.250599
vt 0.632518 0.249233
vt 0.357527 0.126435
vt 0.319532 0.128038
vt 0.314336 0.020552
vt 0.353766 0.018890
vt 0.437991 0.016233
vt 0.522021 0.014615
vt 0.676054 0.115097
vt 0.675867 0.075676
vt 0.676254 0.030849
vt 0.677837 0.546408
vt 0.676624 0.244746
vn 0.008370 -0.999930 -0.008335
vn 0.008370 -0.999930 -0.008335
vn 0.008370 -0.999930 -0.008335
vn 0.008370 -0.999930 -0.008335
vn 0.010381 0.999893 -0.010344
vn 0.010381 0.999893 -0.010344
vn 0.010381 0.999893 -0.010344
vn 0.010381 0.999893 -0.010344
vn 0.002730 -0.999928 0.011666
vn 0.002730 -0.999928 0.011666
vn 0.002730 -0.999928 0.011666
vn 0.002730 -0.999928 0.011666
vn 0.001375 0.999880 0.015452
vn 0.001375 0.999880 0.015452
vn 0.001375 0.999880 0.015452
vn 0.001375 0.999880 0.015452
vn -0.011685 -0.999928 -0.002716
vn -0.011685 -0.999928 -0.002716
vn -0.011685 -0.999928 -0.002716
vn -0.011685 -0.999928 -0.002716
vn -0.015452 0.999880 -0.001350
vn -0.015452 0.999880 -0.001350
vn -0.015452 0.999880 -0.001350
vn -0.015452 0.999880 -0.001350
vn -0.003929 -0.001300 0.999991
vn -0.003929 -0.001300 0.999991
vn -0.003929 -0.001300 0.999992
vn -0.003929 -0.001300 0.999992
vn 0.999979 -0.003152 0.005704
vn 0.999979 -0.003152 0.005704
vn 0.999979 -0.003152 0.005704
vn 0.999979 -0.003152 0.005704
vn 0.999979 -0.003150 -0.005667
vn 0.999979 -0.003150 -0.005667
vn 0.999979 -0.003150 -0.005667
vn 0.999979 -0.003150 -0.005667
vn 0.004243 -0.002349 -0.999988
vn 0.004243 -0.002349 -0.999988
vn 0.004243 -0.002349 -0.999988
vn 0.004243 -0.002349 -0.999988
vn -0.004249 -0.002350 -0.999988
vn -0.004249 -0.002350 -0.999988
vn -0.004249 -0.002350 -0.999988
vn -0.004249 -0.002350 -0.999988
vn -0.999985 -0.001136 0.005274
vn -0.999986 -0.001136 0.005274
vn -0.999985 -0.001136 0.005274
vn -0.999986 -0.001136 0.005274
vn 0.999988 -0.004891 0.000000
vn 0.999988 -0.004891 0.000000
vn 0.999988 -0.004891 0.000000
vn 0.999988 -0.004891 0.000000
vn 0.009060 -0.999949 0.004540
vn 0.009060 -0.999949 0.004540
vn 0.009060 -0.999949 0.004540
vn 0.009060 -0.999949 0.004540
vn -0.004510 -0.999949 -0.009039
vn -0.004510 -0.999949 -0.009039
vn -0.004510 -0.999949 -0.009039
vn -0.004510 -0.999949 -0.009039
vn -0.000003 -0.003646 -0.999993
vn -0.000003 -0.003646 -0.999993
vn -0.000003 -0.003646 -0.999993
vn -0.000003 -0.003646 -0.999993
vn -0.000566 0.999999 -0.001132
vn -0.000566 0.999999 -0.001132
vn -0.000566 0.999999 -0.001132
vn -0.000566 0.999999 -0.001132
vn 0.001136 0.999999 0.000566
vn 0.001136 0.999999 0.000566
vn 0.001136 0.999999 0.000566
vn 0.001136 0.999999 0.000566
vn 0.999999 0.001060 0.000000
vn 0.999999 0.001060 0.000000
vn 0.999999 0.001060 0.000000
vn 0.999999 0.001060 0.000000
vn 0.009385 0.005095 -0.999943
vn 0.009385 0.005095 -0.999943
vn 0.009385 0.005095 -0.999943
vn 0.009385 0.005095 -0.999943
vn 0.999933 0.005441 -0.010187
vn 0.999933 0.005441 -0.010187
vn 0.999933 0.005441 -0.010187
vn 0.999933 0.005441 -0.010187
vn 0.000000 0.000789 -1.000000
vn 0.000000 0.000789 -1.000000
vn 0.000000 0.000789 -1.000000
vn 0.000000 0.000789 -1.000000
vn -0.999944 0.008010 0.006910
vn -0.999944 0.008010 0.006910
vn -0.999944 0.008010 0.006910
vn -0.999944 0.008010 0.006910
vn -0.005515 0.008010 0.999953
vn -0.005515 0.008010 0.999953
vn -0.005515 0.008010 0.999953
vn -0.005515 0.008010 0.999953
vn 0.999992 0.004013 0.000000
vn 0.999992 0.004013 0.000000
vn 0.999992 0.004013 0.000000
vn 0.999992 0.004013 0.000000
vn 0.999980 0.002587 0.005724
vn 0.999980 0.002587 0.005724
vn 0.999980 0.002587 0.005724
vn 0.999980 0.002587 0.005724
vn -0.005633 0.003287 0.999979
vn -0.005633 0.003287 0.999979
vn -0.005633 0.003287 0.999979
vn -0.005633 0.003287 0.999979
vn -0.999970 0.003287 0.007076
vn -0.999970 0.003287 0.007076
vn -0.999970 0.003287 0.007076
vn -0.999970 0.003287 0.007076
vn -0.004266 0.001929 -0.999989
vn -0.004266 0.001929 -0.999989
vn -0.004266 0.001929 -0.999989
vn -0.004266 0.001929 -0.999989
vn 0.000001 0.002992 -0.999996
vn 0.000001 0.002992 -0.999996
vn 0.000001 0.002992 -0.999996
vn 0.000001 0.002992 -0.999996
vn 0.004256 0.001929 -0.999989
vn 0.004256 0.001929 -0.999989
vn 0.004256 0.001929 -0.999989
vn 0.004256 0.001929 -0.999989
vn 0.999981 0.002586 -0.005686
vn 0.999981 0.002586 -0.005686
vn 0.999981 0.002586 -0.005686
vn 0.999981 0.002586 -0.005686
s off
g initialShadingGroup group1 Sunmao_002_A
f 52/51/113 53/52/114 34/53/115 51/54/116
f 43/55/117 42/56/118 40/57/119 38/58/120
f 54/59/121 55/60/122 32/61/123 31/62/124
f 39/63/125 41/64/126 36/65/127 35/66/128
f 31/62/129 33/67/130 56/68/131 54/59/132
f 37/69/133 36/65/134 41/64/135 44/70/136
f 59/71/137 60/72/138 31/62/139 32/73/140
f 58/74/141 59/75/142 32/76/143 55/77/144
f 51/78/145 34/79/146 64/80/147 57/81/148
f 34/79/149 53/82/150 63/83/151 64/80/152
f 56/84/153 33/67/154 61/85/155 62/86/156
f 60/72/157 61/85/158 33/67/159 31/62/160
f 55/77/161 51/78/162 57/81/163 58/74/164
f 54/59/165 52/51/166 51/54/167 55/60/168
f 54/59/169 56/68/170 53/52/171 52/51/172
f 62/86/173 63/83/174 53/82/175 56/84/176
f 50/87/177 48/88/178 47/89/179 49/90/180
f 47/89/181 48/88/182 45/91/183 46/92/184
f 46/92/185 45/91/186 39/93/187 40/57/188
f 47/94/189 46/92/190 40/57/191 42/56/192
f 49/95/193 47/94/194 42/56/195 43/96/196
f 50/97/197 49/98/198 43/99/199 44/100/200
f 48/88/201 50/97/202 44/100/203 41/101/204
f 45/91/205 48/88/206 41/101/207 39/102/208
f 58/74/209 57/81/210 40/103/211 39/104/212
f 35/105/213 59/75/214 58/74/215 39/104/216
f 36/65/217 60/72/218 59/71/219 35/106/220
f 37/69/221 61/85/222 60/72/223 36/65/224
f 62/86/225 61/85/226 37/69/227 44/107/228
f 43/55/229 63/83/230 62/86/231 44/107/232
f 64/80/233 63/83/234 43/55/235 38/58/236
f 57/81/237 64/80/238 38/58/239 40/103/240
