# This file uses centimeters as units for non-parametric coordinates.

mtllib Sunmao_007.mtl
g default
v -0.091935 -0.592274 0.193518
v 0.275805 -0.592274 0.193518
v -0.091935 -0.274017 0.193518
v 0.275805 -0.274017 0.193518
v -0.091935 -0.274017 -0.193517
v 0.275805 -0.274017 -0.193517
v -0.091935 -0.592274 -0.193517
v 0.275805 -0.592274 -0.193517
v 0.275805 -0.385360 -0.000000
v -0.091935 -0.385360 -0.000000
v -0.091935 -0.480930 -0.000000
v 0.275805 -0.480930 -0.000000
vt 0.823982 0.533720
vt 0.873389 0.533720
vt 0.873389 0.576478
vt 0.823982 0.576478
vt 0.873389 0.602478
vt 0.823982 0.602478
vt 0.771983 0.576478
vt 0.722577 0.576478
vt 0.722577 0.533720
vt 0.771983 0.533720
vt 0.823982 0.507720
vt 0.873389 0.507720
vt 0.899389 0.548679
vt 0.899388 0.561519
vt 0.797983 0.548679
vt 0.797983 0.561519
vt 0.873389 0.628477
vt 0.823982 0.628477
vt 0.823982 0.481721
vt 0.873389 0.481721
vt 0.925388 0.533720
vt 0.925388 0.576478
vn 0.000000 0.000000 1.000000
vn 0.000000 0.000000 1.000000
vn 0.000000 0.000000 1.000000
vn 0.000000 0.000000 1.000000
vn 0.000000 0.866769 -0.498710
vn 0.000000 0.866769 -0.498710
vn 0.000000 1.000000 0.000000
vn 0.000000 1.000000 0.000000
vn 0.000000 0.000000 -1.000000
vn 0.000000 0.000000 -1.000000
vn 0.000000 0.000000 -1.000000
vn 0.000000 0.000000 -1.000000
vn 0.000000 -1.000000 0.000000
vn 0.000000 -1.000000 0.000000
vn 0.000000 -0.866769 -0.498710
vn 0.000000 -0.866769 -0.498710
vn 1.000000 0.000000 0.000000
vn 1.000000 0.000000 0.000000
vn 1.000000 0.000000 0.000000
vn 1.000000 0.000000 0.000000
vn -1.000000 0.000000 0.000000
vn -1.000000 0.000000 0.000000
vn -1.000000 0.000000 0.000000
vn -1.000000 0.000000 0.000000
vn 0.000000 1.000000 0.000000
vn 0.000000 1.000000 0.000000
vn 0.000000 0.866769 0.498711
vn 0.000000 0.866769 0.498711
vn -1.000000 0.000000 0.000000
vn -1.000000 0.000000 0.000000
vn -1.000000 0.000000 0.000000
vn -1.000000 0.000000 0.000000
vn 0.000000 -0.866769 0.498711
vn 0.000000 -0.866769 0.498711
vn 0.000000 -1.000000 0.000000
vn 0.000000 -1.000000 0.000000
vn 1.000000 0.000000 0.000000
vn 1.000000 0.000000 0.000000
vn 1.000000 0.000000 0.000000
vn 1.000000 0.000000 0.000000
s off
g initialShadingGroup Sunmao_007_D
f 1/1/1 2/2/2 4/3/3 3/4/4
f 3/4/5 4/3/6 9/5/7 10/6/8
f 5/7/9 6/8/10 8/9/11 7/10/12
f 11/11/13 12/12/14 2/2/15 1/1/16
f 2/2/17 12/13/18 9/14/19 4/3/20
f 11/15/21 1/1/22 3/4/23 10/16/24
f 10/6/25 9/5/26 6/17/27 5/18/28
f 7/10/29 11/15/30 10/16/31 5/7/32
f 7/19/33 8/20/34 12/12/35 11/11/36
f 9/14/37 12/13/38 8/21/39 6/22/40
g default
v -0.091935 0.293312 0.192439
v 0.275805 0.293312 0.192439
v -0.091935 0.609795 0.192439
v 0.275805 0.609795 0.192439
v -0.091935 0.609795 -0.192438
v 0.275805 0.609795 -0.192438
v -0.091935 0.293312 -0.192438
v 0.275805 0.293312 -0.192438
v 0.275805 0.499072 -0.000000
v -0.091935 0.499072 -0.000000
v -0.091935 0.404035 -0.000000
v 0.275805 0.404035 -0.000000
vt 0.821588 0.170860
vt 0.870996 0.170860
vt 0.870996 0.213382
vt 0.821588 0.213382
vt 0.870996 0.239237
vt 0.821588 0.239237
vt 0.769877 0.213382
vt 0.720468 0.213382
vt 0.720468 0.170860
vt 0.769877 0.170860
vt 0.821588 0.145004
vt 0.870996 0.145004
vt 0.896852 0.185736
vt 0.896852 0.198505
vt 0.795732 0.185736
vt 0.795732 0.198505
vt 0.870996 0.265093
vt 0.821588 0.265093
vt 0.821588 0.119149
vt 0.870996 0.119149
vt 0.922708 0.170860
vt 0.922708 0.213382
vn 0.000000 0.000000 1.000000
vn 0.000000 0.000000 1.000000
vn 0.000000 0.000000 1.000000
vn 0.000000 0.000000 1.000000
vn 0.000000 0.866769 -0.498710
vn 0.000000 0.866769 -0.498710
vn 0.000000 1.000000 0.000000
vn 0.000000 1.000000 0.000000
vn 0.000000 0.000000 -1.000000
vn 0.000000 0.000000 -1.000000
vn 0.000000 0.000000 -1.000000
vn 0.000000 0.000000 -1.000000
vn 0.000000 -1.000000 0.000000
vn 0.000000 -1.000000 0.000000
vn 0.000000 -0.866769 -0.498710
vn 0.000000 -0.866769 -0.498710
vn 1.000000 0.000000 0.000000
vn 1.000000 0.000000 0.000000
vn 1.000000 0.000000 0.000000
vn 1.000000 0.000000 0.000000
vn -1.000000 0.000000 0.000000
vn -1.000000 0.000000 0.000000
vn -1.000000 0.000000 0.000000
vn -1.000000 0.000000 0.000000
vn 0.000000 1.000000 0.000000
vn 0.000000 1.000000 0.000000
vn 0.000000 0.866769 0.498711
vn 0.000000 0.866769 0.498711
vn -1.000000 0.000000 0.000000
vn -1.000000 0.000000 0.000000
vn -1.000000 0.000000 0.000000
vn -1.000000 0.000000 0.000000
vn 0.000000 -0.866769 0.498711
vn 0.000000 -0.866769 0.498711
vn 0.000000 -1.000000 0.000000
vn 0.000000 -1.000000 0.000000
vn 1.000000 0.000000 0.000000
vn 1.000000 0.000000 0.000000
vn 1.000000 0.000000 0.000000
vn 1.000000 0.000000 0.000000
s off
g initialShadingGroup Sunmao_007_C
f 13/23/41 14/24/42 16/25/43 15/26/44
f 15/26/45 16/25/46 21/27/47 22/28/48
f 17/29/49 18/30/50 20/31/51 19/32/52
f 23/33/53 24/34/54 14/24/55 13/23/56
f 14/24/57 24/35/58 21/36/59 16/25/60
f 23/37/61 13/23/62 15/26/63 22/38/64
f 22/28/65 21/27/66 18/39/67 17/40/68
f 19/32/69 23/37/70 22/38/71 17/29/72
f 19/41/73 20/42/74 24/34/75 23/33/76
f 21/36/77 24/35/78 20/43/79 18/44/80
g default
v -0.275805 0.457632 -0.426830
v -0.275805 1.323918 -0.426830
v -0.091935 0.289108 -0.197551
v -0.091935 0.613999 -0.193021
v 0.275804 0.289108 -0.197551
v 0.275804 1.323918 -0.426830
v 0.275804 0.457632 -0.426830
v -0.091935 1.323918 -0.426830
v 0.275804 0.613999 -0.202082
v 0.275804 0.457632 -0.197551
v 0.091935 1.323918 -0.426830
v 0.275804 -0.270699 -0.197551
v 0.275804 -0.433145 -0.197551
v 0.275804 -0.433145 -0.426830
v 0.091935 1.323919 -1.707323
v 0.275804 1.323919 -1.707323
v -0.091935 1.323919 -1.707323
v -0.275805 1.323919 -1.707323
v -0.091935 -0.270699 -0.197551
v -0.275805 -0.433145 -0.426830
v 0.275804 0.457632 -1.707323
v 0.275804 -0.595591 -0.202082
v -0.091935 -0.595591 -0.193021
v 0.091935 0.457632 -1.707323
v -0.275805 0.457632 -1.707323
v -0.091935 0.457632 -1.707323
v -0.275805 -1.323921 -0.426830
v 0.275804 -0.433145 -1.707323
v 0.275804 -1.323921 -0.426830
v 0.091935 -1.323921 -0.426830
v -0.091935 -1.323921 -0.426830
v 0.091935 -0.433145 -1.707323
v -0.275805 -0.433145 -1.707323
v -0.091935 -0.433145 -1.707323
v 0.275804 -1.323921 -1.707323
v 0.091935 -1.323921 -1.707323
v -0.275805 -1.323921 -1.707323
v -0.091935 -1.323921 -1.707323
v -0.091935 0.500335 -0.000000
v -0.091935 0.402772 -0.000000
v 0.275804 0.402772 -0.000000
v -0.275805 0.457632 -0.000000
v -0.275805 1.323919 -0.000000
v 0.275804 0.500335 -0.000000
v -0.091935 1.323919 -0.000000
v 0.091935 1.323919 -0.000000
v 0.275804 1.323919 -0.000000
v 0.275804 -0.384364 -0.000000
v -0.091935 -0.384364 -0.000000
v -0.275805 -0.433145 -0.000000
v -0.091935 -0.481926 -0.000000
v 0.275804 -0.481926 -0.000000
v -0.275805 -1.323921 -0.000000
v 0.275804 -1.323921 -0.000000
v 0.091935 -1.323921 -0.000000
v -0.091935 -1.323921 -0.000000
v 0.091935 -0.481926 -0.000000
v 0.091935 -0.595591 -0.193021
v 0.091935 -0.270699 -0.197551
v 0.073548 -0.384364 -0.000000
v 0.091935 0.402772 -0.000000
v 0.091935 0.289108 -0.197551
v 0.091935 0.613999 -0.193021
v 0.091935 0.500335 -0.000000
v 0.091935 0.451553 -0.197551
v -0.091935 0.451553 -0.197551
v -0.091935 0.451553 -0.000000
v 0.091935 -0.433145 -0.197551
v -0.091935 -0.433145 -0.197551
v -0.091935 -0.433145 -0.000000
v 0.275804 -1.323921 -0.206612
v 0.091935 -1.323921 -0.206612
v -0.091935 -1.323921 -0.206612
v -0.275805 -1.323921 -0.206612
v -0.275805 -0.433145 -0.206612
v -0.275805 0.457632 -0.206612
v -0.275805 1.323918 -0.206613
v -0.091935 1.323918 -0.206613
v 0.091935 1.323918 -0.206613
v 0.275804 1.323919 -0.206612
vt 0.176482 0.682957
vt 0.176482 0.570148
vt 0.343229 0.570148
vt 0.343229 0.682957
vt 0.581808 0.498317
vt 0.581808 0.522260
vt 0.415060 0.522260
vt 0.415061 0.498316
vt 0.581808 0.546204
vt 0.415060 0.546204
vt 0.581808 0.570148
vt 0.415060 0.570148
vt 0.726374 0.439994
vt 0.748298 0.439870
vt 0.748668 0.466454
vt 0.742085 0.466545
vt 0.699712 0.415150
vt 0.726374 0.415140
vt 0.699712 0.439966
vt 0.581808 0.682957
vt 0.415060 0.682957
vt 0.147805 0.682957
vt 0.147805 0.570148
vt 0.770376 0.415144
vt 0.796573 0.415797
vt 0.795963 0.440606
vt 0.770072 0.439994
vt 0.748299 0.415131
vt 0.610485 0.498317
vt 0.610485 0.522260
vt 0.610485 0.546204
vt 0.610485 0.570148
vt 0.611075 0.662595
vt 0.611665 0.777801
vt 0.611665 0.704903
vt 0.637391 0.690101
vt 0.637391 0.792603
vt 0.877259 0.327713
vt 0.903907 0.330233
vt 0.903906 0.352556
vt 0.877257 0.352669
vt 0.176482 0.798955
vt 0.147805 0.798955
vt 0.581808 0.798955
vt 0.415060 0.798955
vt 0.807097 0.328322
vt 0.833280 0.327679
vt 0.833584 0.352478
vt 0.807707 0.353118
vt 0.855348 0.352478
vt 0.854607 0.379117
vt 0.848029 0.378933
vt 0.391117 0.682957
vt 0.391117 0.570148
vt 0.367173 0.682957
vt 0.367173 0.570148
vt 0.343229 0.798955
vt 0.855346 0.327675
vt 0.176482 0.914954
vt 0.147805 0.914954
vt 0.581808 0.914954
vt 0.415060 0.914954
vt 0.610485 0.914954
vt 0.610485 0.938897
vt 0.581808 0.938897
vt 0.610485 0.962841
vt 0.581808 0.962841
vt 0.391117 0.798955
vt 0.581808 0.986785
vt 0.610485 0.986785
vt 0.367173 0.798955
vt 0.343229 0.914954
vt 0.611075 0.820109
vt 0.415060 0.938897
vt 0.415060 0.962841
vt 0.415060 0.986785
vt 0.391117 0.914954
vt 0.367173 0.914954
vt 0.096955 0.570148
vt 0.096955 0.677396
vt 0.073012 0.677396
vt 0.073012 0.570148
vt 0.096955 0.690101
vt 0.096956 0.792603
vt 0.075406 0.792603
vt 0.073012 0.690101
vt 0.120899 0.682957
vt 0.096955 0.683749
vt 0.096956 0.805308
vt 0.096956 0.914954
vt 0.073012 0.914954
vt 0.073012 0.805308
vt 0.049068 0.914954
vt 0.049068 0.805308
vt 0.806488 0.303527
vt 0.833586 0.302864
vt 0.855346 0.302872
vt 0.877260 0.302910
vt 0.903909 0.302950
vt 0.049068 0.792603
vt 0.049068 0.690101
vt 0.699711 0.390334
vt 0.726374 0.390324
vt 0.749119 0.390315
vt 0.770070 0.390317
vt 0.797182 0.390989
vt 0.049068 0.677396
vt 0.049068 0.570148
vt 0.755251 0.466362
vt 0.120899 0.570148
vt 0.120899 0.798955
vt 0.096956 0.798955
vt 0.120899 0.914954
vt 0.861185 0.379300
vt 0.611665 0.682957
vt 0.611665 0.798955
vt 0.637391 0.805308
vt 0.637391 0.914954
vt 0.637391 0.938897
vt 0.637391 0.962841
vt 0.637391 0.986785
vt 0.637391 0.498317
vt 0.637391 0.522260
vt 0.637391 0.546204
vt 0.637391 0.570148
vt 0.637391 0.677396
vn -1.000000 0.000000 0.000000
vn -1.000000 0.000000 0.000000
vn -1.000000 0.000000 0.000000
vn -1.000000 0.000000 0.000000
vn 0.000000 1.000000 0.000000
vn 0.000000 1.000000 0.000000
vn 0.000000 1.000000 0.000001
vn 0.000000 1.000000 0.000001
vn 0.000000 1.000000 0.000000
vn 0.000000 1.000000 0.000000
vn 0.000000 1.000000 0.000001
vn 0.000000 1.000000 0.000001
vn 0.000000 1.000000 0.000000
vn 0.000000 1.000000 0.000000
vn 0.000000 1.000000 0.000001
vn 0.000000 1.000000 0.000001
vn 1.000000 0.000000 0.000000
vn 1.000000 -0.000000 0.000000
vn 1.000000 -0.000000 0.000000
vn 1.000000 0.000000 0.000000
vn 0.000000 0.866769 -0.498711
vn 0.000000 0.866769 -0.498711
vn 0.000000 0.866769 -0.498711
vn 0.000000 0.866769 -0.498711
vn 1.000000 -0.000000 0.000000
vn 1.000000 -0.000000 0.000000
vn 1.000000 0.000000 0.000000
vn 1.000000 0.000000 0.000000
vn -1.000000 0.000000 0.000000
vn -1.000000 0.000000 0.000000
vn -1.000000 0.000000 0.000000
vn -1.000000 0.000000 0.000000
vn -0.006279 -0.864281 -0.502970
vn -0.006197 -0.864248 -0.503028
vn 0.000000 -0.861694 -0.507428
vn 0.000000 -0.861694 -0.507428
vn 0.005916 -0.006971 0.999958
vn 0.000000 -0.013943 0.999903
vn 0.000000 0.000000 1.000000
vn 0.000000 0.000000 1.000000
vn 0.000000 1.000000 -0.000004
vn -0.000000 1.000000 -0.000004
vn 0.000000 1.000000 0.000000
vn 0.000000 1.000000 0.000000
vn 0.000000 1.000000 0.000000
vn -0.000000 1.000000 -0.000004
vn -0.000001 1.000000 -0.000004
vn 0.000000 1.000000 0.000000
vn 0.000000 1.000000 0.000000
vn -0.000001 1.000000 -0.000004
vn -0.000001 1.000000 -0.000004
vn 0.000000 1.000000 0.000000
vn 1.000000 -0.000000 0.000000
vn 1.000000 -0.000000 0.000000
vn 1.000000 -0.000000 0.000000
vn 1.000000 -0.000000 0.000000
vn 1.000000 -0.000000 0.000000
vn 1.000000 0.000000 0.000000
vn 1.000000 0.000000 0.000000
vn 1.000000 0.000000 0.000000
vn 0.000000 -0.866769 -0.498711
vn 0.000000 -0.866769 -0.498711
vn 0.000000 -0.866769 -0.498711
vn 0.000000 -0.866769 -0.498711
vn -1.000000 0.000000 0.000000
vn -1.000000 0.000000 0.000000
vn -1.000000 0.000000 0.000000
vn -1.000000 0.000000 0.000000
vn 1.000000 0.000000 0.000000
vn 1.000000 -0.000000 0.000000
vn 1.000000 -0.000000 0.000000
vn 1.000000 0.000000 0.000000
vn -0.006197 0.864248 -0.503029
vn -0.006279 0.864281 -0.502970
vn 0.000000 0.861694 -0.507428
vn 0.000000 0.861694 -0.507428
vn 1.000000 0.000000 0.000000
vn 1.000000 0.000000 0.000000
vn 1.000000 0.000000 0.000000
vn 1.000000 0.000000 0.000000
vn 0.000000 0.000000 -1.000000
vn 0.000000 0.000000 -1.000000
vn 0.000000 0.000000 -1.000000
vn 0.000000 0.000000 -1.000000
vn 0.000000 0.000000 -1.000000
vn 0.000000 0.000000 -1.000000
vn 0.000000 0.000000 -1.000000
vn 0.000000 0.000000 -1.000000
vn -1.000000 0.000000 0.000000
vn -1.000000 0.000000 0.000000
vn -1.000000 0.000000 0.000000
vn -1.000000 0.000000 0.000000
vn 0.006159 0.006972 0.999957
vn 0.000000 0.013943 0.999903
vn 0.000000 0.027878 0.999611
vn 0.012312 0.013948 0.999827
vn 0.000000 0.000000 -1.000000
vn 0.000000 0.000000 -1.000000
vn 0.000000 0.000000 -1.000000
vn 0.000000 0.000000 -1.000000
vn -1.000000 0.000000 0.000000
vn -1.000000 0.000000 0.000000
vn -1.000000 0.000000 0.000000
vn -1.000000 0.000000 0.000000
vn 1.000000 0.000000 0.000000
vn 1.000000 -0.000000 0.000000
vn 1.000000 0.000000 0.000000
vn 1.000000 0.000000 0.000000
vn 0.000000 -1.000000 0.000000
vn 0.000000 -1.000000 0.000000
vn 0.000000 -1.000000 0.000000
vn 0.000000 -1.000000 0.000000
vn 0.000000 -1.000000 0.000000
vn 0.000000 -1.000000 0.000000
vn 0.000000 -1.000000 0.000000
vn 0.000000 -1.000000 0.000000
vn 0.000000 0.000000 -1.000000
vn 0.000000 0.000000 -1.000000
vn 0.000000 0.000000 -1.000000
vn 0.000000 0.000000 -1.000000
vn 0.000000 -1.000000 0.000000
vn 0.000000 -1.000000 0.000000
vn 0.000000 -1.000000 0.000000
vn 0.000000 -1.000000 0.000000
vn 0.000000 0.000000 -1.000000
vn 0.000000 0.000000 -1.000000
vn 0.000000 0.000000 -1.000000
vn 0.000000 0.000000 -1.000000
vn -1.000000 0.000000 0.000000
vn -1.000000 0.000000 0.000000
vn -1.000000 0.000000 0.000000
vn -1.000000 0.000000 0.000000
vn 1.000000 -0.000000 0.000000
vn 1.000000 0.000000 0.000000
vn 1.000000 0.000000 0.000000
vn 1.000000 0.000000 0.000000
vn 0.000000 0.000000 -1.000000
vn 0.000000 0.000000 -1.000000
vn 0.000000 0.000000 -1.000000
vn 0.000000 0.000000 -1.000000
vn 0.000000 -1.000000 0.000000
vn 0.000000 -1.000000 0.000000
vn 0.000000 -1.000000 0.000000
vn 0.000000 -1.000000 0.000000
vn 0.000000 -1.000000 0.000000
vn 0.000000 -1.000000 0.000000
vn 0.000000 -1.000000 0.000000
vn 0.000000 -1.000000 0.000000
vn 0.000000 -1.000000 0.000000
vn 0.000000 -1.000000 0.000000
vn 0.000000 -1.000000 0.000000
vn 0.000000 -1.000000 0.000000
vn 0.000000 0.000000 -1.000000
vn 0.000000 0.000000 -1.000000
vn 0.000000 0.000000 -1.000000
vn 0.000000 0.000000 -1.000000
vn 0.000000 0.000000 -1.000000
vn 0.000000 0.000000 -1.000000
vn 0.000000 0.000000 -1.000000
vn 0.000000 0.000000 -1.000000
vn 0.000000 0.000000 -1.000000
vn 0.000000 0.000000 -1.000000
vn 0.000000 0.000000 -1.000000
vn 0.000000 0.000000 -1.000000
vn 0.000000 0.000000 1.000000
vn 0.000000 0.000000 1.000000
vn 0.000000 0.000000 1.000000
vn 0.000000 0.000000 1.000000
vn 0.000000 0.000000 1.000000
vn 0.000000 0.000000 1.000000
vn 0.000000 0.000000 1.000000
vn 0.000000 0.000000 1.000000
vn 0.000000 0.000000 1.000000
vn 0.000000 0.000000 1.000000
vn 0.000000 0.000000 1.000000
vn 0.000000 0.000000 1.000000
vn 0.000000 0.000000 1.000000
vn 0.000000 0.000000 1.000000
vn 0.000000 0.000000 1.000000
vn 0.000000 0.000000 1.000000
vn 0.000000 0.000000 1.000000
vn 0.000000 0.000000 1.000000
vn 0.000000 0.000000 1.000000
vn 0.000000 0.000000 1.000000
vn -0.012287 0.866703 -0.498673
vn -0.012287 0.866703 -0.498673
vn -0.006279 0.864281 -0.502970
vn -0.006197 0.864248 -0.503029
vn 0.012319 -0.000000 0.999924
vn 0.006159 0.006972 0.999957
vn 0.012312 0.013948 0.999827
vn 0.024632 -0.000000 0.999697
vn 0.000000 -0.866769 -0.498710
vn 0.000000 -0.866769 -0.498710
vn 0.000000 -0.866769 -0.498711
vn 0.000000 -0.866769 -0.498711
vn 0.000000 0.000000 1.000000
vn 0.000000 0.000000 1.000000
vn 0.000000 0.000000 1.000000
vn 0.000000 0.000000 1.000000
vn 0.000000 0.866769 -0.498711
vn 0.000000 0.866769 -0.498711
vn 0.000000 0.866769 -0.498711
vn 0.000000 0.866769 -0.498711
vn 0.012347 0.000000 0.999924
vn 0.005916 -0.006971 0.999958
vn 0.000000 0.000000 1.000000
vn 0.000000 0.000000 1.000000
vn -0.012287 -0.866703 -0.498673
vn -0.012287 -0.866703 -0.498673
vn -0.006197 -0.864248 -0.503028
vn -0.006279 -0.864281 -0.502970
vn 0.000000 0.000000 1.000000
vn 0.000000 0.000000 1.000000
vn 0.000000 0.000000 1.000000
vn 0.000000 0.000000 1.000000
vn 0.012196 -0.014080 0.999826
vn 0.005916 -0.006971 0.999958
vn 0.012347 0.000000 0.999924
vn 0.024632 0.000000 0.999697
vn 0.000000 -0.027878 0.999611
vn 0.000000 -0.013943 0.999903
vn 0.005916 -0.006971 0.999958
vn 0.012196 -0.014080 0.999826
vn 1.000000 -0.000000 0.000000
vn 1.000000 -0.000000 0.000000
vn 1.000000 -0.000000 0.000000
vn 1.000000 -0.000000 0.000000
vn 0.000000 0.000000 1.000000
vn 0.000000 0.000000 1.000000
vn 0.000000 0.000000 1.000000
vn 0.000000 0.000000 1.000000
vn 0.000000 0.000000 1.000000
vn 0.000000 0.000000 1.000000
vn 0.000000 0.000000 1.000000
vn 0.000000 0.000000 1.000000
vn 0.000000 0.000000 1.000000
vn 0.000000 0.000000 1.000000
vn 0.000000 0.000000 1.000000
vn 0.000000 0.000000 1.000000
vn 0.000000 0.000000 1.000000
vn 0.000000 0.000000 1.000000
vn 0.000000 0.000000 1.000000
vn 0.000000 0.000000 1.000000
vn 0.000000 0.000000 1.000000
vn 0.006159 0.006972 0.999957
vn 0.012319 -0.000000 0.999924
vn 0.000000 0.000000 1.000000
vn 0.000000 0.000000 1.000000
vn 0.000000 0.013943 0.999903
vn 0.006159 0.006972 0.999957
vn 0.000000 0.000000 1.000000
vn 1.000000 0.000000 0.000000
vn 1.000000 0.000000 0.000000
vn 1.000000 0.000000 0.000000
vn 1.000000 0.000000 0.000000
vn 1.000000 -0.000000 0.000000
vn 1.000000 -0.000000 0.000000
vn 1.000000 0.000000 0.000000
vn 1.000000 0.000000 0.000000
vn 1.000000 -0.000000 0.000000
vn 1.000000 -0.000000 0.000000
vn 1.000000 -0.000000 0.000000
vn 1.000000 0.000000 0.000000
vn 1.000000 -0.000000 0.000000
vn 1.000000 0.000000 0.000000
vn 1.000000 -0.000000 0.000000
vn 1.000000 -0.000000 0.000000
vn 1.000000 0.000000 0.000000
vn 1.000000 0.000000 0.000000
vn 1.000000 0.000000 0.000000
vn 1.000000 0.000000 0.000000
vn 0.000000 -1.000000 0.000000
vn 0.000000 -1.000000 0.000000
vn 0.000000 -1.000000 0.000000
vn 0.000000 -1.000000 0.000000
vn 0.000000 -1.000000 0.000000
vn 0.000000 -1.000000 0.000000
vn 0.000000 -1.000000 0.000000
vn 0.000000 -1.000000 0.000000
vn 0.000000 -1.000000 0.000000
vn 0.000000 -1.000000 0.000000
vn 0.000000 -1.000000 0.000000
vn 0.000000 -1.000000 0.000000
vn -1.000000 0.000000 0.000000
vn -1.000000 0.000000 0.000000
vn -1.000000 0.000000 0.000000
vn -1.000000 0.000000 0.000000
vn -1.000000 0.000000 0.000000
vn -1.000000 0.000000 0.000000
vn -1.000000 0.000000 0.000000
vn -1.000000 0.000000 0.000000
vn -1.000000 0.000000 0.000000
vn -1.000000 0.000000 0.000000
vn -1.000000 0.000000 0.000000
vn -1.000000 0.000000 0.000000
vn 0.000000 1.000000 -0.000005
vn -0.000000 1.000000 -0.000005
vn -0.000000 1.000000 -0.000004
vn 0.000000 1.000000 -0.000004
vn -0.000001 1.000000 -0.000004
vn -0.000000 1.000000 -0.000004
vn -0.000000 1.000000 -0.000005
vn -0.000001 1.000000 -0.000004
vn -0.000001 1.000000 -0.000004
vn -0.000001 1.000000 -0.000004
vn -0.000001 1.000000 -0.000004
vn -0.000001 1.000000 -0.000003
vn 1.000000 0.000000 0.000000
vn 1.000000 0.000000 0.000000
vn 1.000000 -0.000000 0.000000
vn 1.000000 -0.000000 0.000000
s off
g initialShadingGroup Sunmao_007_B
f 25/45/81 26/46/82 42/47/83 49/48/84
f 26/49/85 32/50/86 41/51/87 42/52/88
f 32/50/89 35/53/90 39/54/91 41/51/92
f 35/53/93 30/55/94 40/56/95 39/54/96
f 27/57/97 90/58/98 91/59/99 64/60/100
f 85/61/101 86/62/102 27/57/103 64/63/104
f 30/55/105 31/64/106 45/65/107 40/56/108
f 25/45/109 100/66/110 101/67/111 26/46/112
f 87/68/113 88/69/114 63/70/115 28/71/116
f 89/72/117 90/58/118 27/57/119 86/62/120
f 101/73/121 102/74/122 32/50/123 26/49/124
f 32/50/125 102/74/126 103/75/127 35/53/128
f 35/53/129 103/75/130 104/76/131 30/55/132
f 104/76/133 33/77/134 31/64/135 30/55/136
f 36/78/137 29/79/138 65/80/139 72/81/140
f 83/82/141 84/83/142 73/84/143 43/85/144
f 44/86/145 99/87/146 100/66/147 25/45/148
f 45/65/149 31/64/150 38/88/151 52/89/152
f 81/90/153 82/91/154 47/92/155 75/93/156
f 47/92/157 93/94/158 94/95/159 75/96/160
f 45/65/161 48/97/162 39/98/163 40/56/164
f 48/97/165 50/99/166 41/100/167 39/98/168
f 44/86/169 25/45/170 49/48/171 57/101/172
f 92/102/173 93/94/174 47/92/175 82/91/176
f 42/47/177 41/100/178 50/99/179 49/48/180
f 51/103/181 98/104/182 99/87/183 44/86/184
f 52/89/185 38/88/186 53/105/187 59/106/188
f 95/107/189 96/108/190 54/109/191 53/105/192
f 96/108/193 97/110/194 55/111/195 54/109/196
f 52/89/197 56/112/198 48/97/199 45/65/200
f 51/113/201 55/111/202 97/110/203 98/114/204
f 56/112/205 58/115/206 50/99/207 48/97/208
f 51/103/209 44/86/210 57/101/211 61/116/212
f 38/88/213 46/117/214 95/107/215 53/105/216
f 49/48/217 50/99/218 58/115/219 57/101/220
f 59/106/221 53/105/222 54/109/223 60/118/224
f 54/109/225 55/111/226 62/119/227 60/118/228
f 55/111/229 51/113/230 61/120/231 62/119/232
f 60/121/233 56/112/234 52/89/235 59/106/236
f 62/122/237 58/115/238 56/112/239 60/121/240
f 57/101/241 58/115/242 62/122/243 61/116/244
f 69/123/245 63/124/246 88/125/247 70/126/248
f 64/127/249 73/128/250 84/129/251 85/130/252
f 66/131/253 64/127/254 91/132/255 63/124/256
f 75/133/257 80/134/258 79/135/259 81/136/260
f 81/136/261 79/135/262 78/137/263 76/138/264
f 76/139/265 46/140/266 82/91/267 81/90/268
f 37/141/269 92/102/270 82/91/271 46/140/272
f 36/142/273 72/143/274 84/83/275 83/82/276
f 85/130/277 84/129/278 72/144/279 65/145/280
f 65/146/281 29/147/282 86/62/283 85/61/284
f 34/148/285 89/72/286 86/62/287 29/147/288
f 33/149/289 68/150/290 88/69/291 87/68/292
f 70/126/293 88/125/294 68/151/295 71/152/296
f 87/68/297 89/72/298 34/148/299 33/149/300
f 28/71/301 90/58/302 89/72/303 87/68/304
f 91/59/305 90/58/306 28/71/307 63/153/308
f 66/131/309 63/124/310 69/123/311 67/154/312
f 73/128/313 74/155/314 75/133/315 94/156/316
f 64/127/317 66/131/318 74/155/319 73/128/320
f 75/133/321 74/155/322 77/157/323 80/134/324
f 83/82/325 92/102/326 37/141/327 36/142/328
f 43/85/329 93/94/330 92/102/331 83/82/332
f 94/95/333 93/94/334 43/85/335 73/158/336
f 31/64/337 33/77/338 34/159/339 29/79/340
f 38/88/341 36/78/342 37/160/343 46/117/344
f 31/64/345 29/79/346 36/78/347 38/88/348
f 95/107/349 46/117/350 76/161/351 78/162/352
f 78/162/353 79/163/354 96/108/355 95/107/356
f 79/163/357 80/164/358 97/110/359 96/108/360
f 98/114/361 97/110/362 80/164/363 77/165/364
f 99/87/365 98/104/366 77/157/367 74/155/368
f 100/66/369 99/87/370 74/155/371 66/131/372
f 101/67/373 100/66/374 66/131/375 67/154/376
f 67/166/377 69/167/378 102/74/379 101/73/380
f 103/75/381 102/74/382 69/167/383 70/168/384
f 104/76/385 103/75/386 70/168/387 71/169/388
f 71/169/389 68/170/390 33/77/391 104/76/392
g default
v -0.275805 -0.433145 -0.000000
v -0.275805 -0.433145 0.426831
v -0.275805 0.454593 0.426831
v -0.275805 0.454593 -0.000000
v -0.091935 -1.323921 1.707323
v -0.275805 -1.323921 1.707323
v 0.091935 -1.323921 1.707323
v 0.275804 -1.323921 1.707323
v -0.091935 0.500335 -0.000000
v -0.091935 0.402772 -0.000000
v 0.275804 0.402772 -0.000000
v -0.275805 -0.433145 1.707323
v -0.091935 0.613999 0.197552
v -0.091935 0.289108 0.197552
v -0.275805 1.323918 -0.000000
v 0.275804 0.289108 0.197552
v 0.275804 0.500335 -0.000000
v -0.091935 -0.433145 1.707323
v 0.275804 0.613999 0.201518
v 0.275804 -0.433145 1.707323
v 0.091935 -0.433145 1.707323
v 0.275804 -0.433145 0.426831
v 0.275804 0.454593 0.426831
v -0.091935 1.323918 -0.000000
v -0.275805 1.323921 0.426831
v 0.091935 1.323918 -0.000000
v 0.275804 0.454593 0.197552
v 0.275804 1.323918 -0.000000
v -0.275805 0.454593 1.707323
v -0.091935 0.454593 1.707323
v 0.275804 -0.433145 0.197552
v 0.275804 -0.270699 0.197552
v 0.275804 -0.384364 -0.000000
v -0.091935 1.323921 0.426831
v 0.275804 0.454593 1.707323
v 0.091935 0.454593 1.707323
v 0.091935 1.323921 0.426831
v 0.275804 1.323921 0.426831
v -0.275805 1.323920 1.707323
v -0.091935 1.323920 1.707323
v 0.091935 1.323920 1.707323
v 0.275804 1.323920 1.707323
v 0.275804 -1.323921 0.426831
v -0.091935 -0.270699 0.197552
v -0.091935 -0.384364 -0.000000
v -0.091935 -0.595591 0.193586
v 0.275804 -0.595591 0.201518
v 0.275804 -0.481926 -0.000000
v -0.091935 -0.481926 -0.000000
v -0.275805 -1.323921 0.426831
v 0.091935 -1.323921 0.426831
v -0.091935 -1.323921 0.426831
v 0.275804 -1.323921 -0.000000
v -0.275805 -1.323921 -0.000000
v 0.091935 -1.323921 -0.000000
v -0.091935 -1.323921 -0.000000
v 0.091935 -0.481926 -0.000000
v 0.091935 -0.595591 0.193586
v 0.091935 -0.270699 0.197552
v 0.091935 -0.384364 -0.000000
v 0.091935 0.402772 -0.000000
v 0.091935 0.289108 0.197552
v 0.091935 0.613999 0.193586
v 0.091935 0.500335 -0.000000
v 0.091935 0.454593 0.197552
v -0.091935 0.454593 0.197552
v -0.091935 0.454593 -0.000000
v 0.091935 -0.433145 0.197552
v -0.091935 -0.433145 0.197552
v -0.091935 -0.433145 -0.000000
v 0.275804 1.323920 0.205484
v 0.091935 1.323920 0.205484
v -0.091935 1.323920 0.205484
v -0.275805 1.323920 0.205484
v -0.275805 0.454593 0.205484
v -0.275805 -0.433145 0.205484
v -0.275805 -1.323921 0.205484
v -0.091935 -1.323921 0.205484
v 0.091935 -1.323921 0.205484
v 0.275804 -1.323921 0.205484
vt 0.343229 0.426485
vt 0.343229 0.310487
vt 0.509977 0.310487
vt 0.509977 0.426485
vt 0.538801 0.194884
vt 0.538801 0.310487
vt 0.509977 0.194884
vt 0.343229 0.450429
vt 0.509977 0.450429
vt 0.343229 0.474372
vt 0.509977 0.474373
vt 0.509977 0.498316
vt 0.343229 0.498316
vt 0.271398 0.310487
vt 0.271398 0.426485
vt 0.104650 0.426485
vt 0.104651 0.310487
vt 0.343230 0.194884
vt 0.743820 0.352590
vt 0.743222 0.379160
vt 0.736550 0.378136
vt 0.722528 0.352831
vt 0.766237 0.303022
vt 0.792926 0.303022
vt 0.792926 0.327863
vt 0.766237 0.327863
vt 0.319286 0.426485
vt 0.319286 0.310487
vt 0.697805 0.301404
vt 0.723660 0.303068
vt 0.722346 0.327851
vt 0.696244 0.326196
vt 0.295342 0.310487
vt 0.295342 0.426485
vt 0.104651 0.194884
vt 0.271398 0.194884
vt 0.538801 0.081679
vt 0.509977 0.081679
vt 0.743881 0.303022
vt 0.743881 0.327863
vt 0.343230 0.081679
vt 0.319286 0.194884
vt 0.074794 0.216434
vt 0.074794 0.194884
vt 0.075310 0.174126
vt 0.509977 0.057735
vt 0.538801 0.057735
vt 0.295342 0.194884
vt 0.538801 0.033792
vt 0.509977 0.033792
vt 0.538801 0.009848
vt 0.509977 0.009848
vt 0.104651 0.081679
vt 0.271398 0.081679
vt 0.343230 0.057735
vt 0.343230 0.033792
vt 0.319286 0.081679
vt 0.343230 0.009848
vt 0.295342 0.081679
vt 0.806149 0.388900
vt 0.832236 0.389422
vt 0.832265 0.414177
vt 0.805668 0.413656
vt 0.853595 0.388951
vt 0.854136 0.413705
vt 0.875202 0.388479
vt 0.902069 0.387907
vt 0.902595 0.412662
vt 0.876269 0.413222
vt 0.854636 0.438171
vt 0.855513 0.464469
vt 0.848407 0.463828
vt 0.833038 0.439225
vt 0.538801 0.426485
vt 0.538801 0.474373
vt 0.538801 0.498317
vt 0.538801 0.450429
vt 0.589503 0.188928
vt 0.565560 0.194884
vt 0.565560 0.081679
vt 0.589503 0.081680
vt 0.613447 0.188928
vt 0.613447 0.081680
vt 0.637391 0.081680
vt 0.637391 0.188928
vt 0.613447 0.304135
vt 0.613447 0.201632
vt 0.637391 0.201632
vt 0.637391 0.304135
vt 0.613447 0.426485
vt 0.613447 0.316839
vt 0.637391 0.316839
vt 0.637391 0.426485
vt 0.589503 0.426485
vt 0.589503 0.316839
vt 0.904162 0.437394
vt 0.876132 0.438282
vt 0.804165 0.438392
vt 0.589503 0.304135
vt 0.589503 0.201632
vt 0.792927 0.352703
vt 0.766175 0.352815
vt 0.693661 0.350923
vt 0.750221 0.379301
vt 0.565559 0.310487
vt 0.862573 0.463328
vt 0.565559 0.426485
vt 0.589503 0.194884
vt 0.589503 0.310487
vt 0.075827 0.081679
vt 0.074794 0.310487
vt 0.074794 0.289333
vt 0.075310 0.331641
vt 0.075826 0.426485
vt 0.049068 0.304134
vt 0.049068 0.201632
vt 0.049068 0.188927
vt 0.049068 0.081679
vt 0.565560 0.033792
vt 0.565560 0.009848
vt 0.565560 0.057735
vt 0.565559 0.450429
vt 0.565559 0.474373
vt 0.565559 0.498317
vt 0.049068 0.426485
vt 0.049068 0.316839
vn -1.000000 0.000000 0.000000
vn -1.000000 0.000000 0.000000
vn -1.000000 0.000000 0.000000
vn -1.000000 0.000000 0.000000
vn -1.000000 0.000000 0.000000
vn -1.000000 0.000000 0.000000
vn -1.000000 0.000000 0.000000
vn -1.000000 0.000000 0.000000
vn 0.000000 -1.000000 0.000000
vn 0.000000 -1.000000 0.000000
vn 0.000000 -1.000000 0.000000
vn 0.000000 -1.000000 0.000000
vn 0.000000 -1.000000 0.000000
vn 0.000000 -1.000000 0.000000
vn 0.000000 -1.000000 0.000000
vn 0.000000 -1.000000 0.000000
vn 0.000000 -1.000000 0.000000
vn 0.000000 -1.000000 0.000000
vn 0.000000 -1.000000 0.000000
vn 0.000000 -1.000000 0.000000
vn 1.000000 0.000000 0.000000
vn 1.000000 0.000000 0.000000
vn 1.000000 -0.000000 0.000000
vn 1.000000 0.000000 0.000000
vn -1.000000 0.000000 0.000000
vn -1.000000 0.000000 0.000000
vn -1.000000 0.000000 0.000000
vn -1.000000 0.000000 0.000000
vn 1.000000 0.000000 0.000000
vn 1.000000 0.000000 0.000000
vn 1.000000 0.000000 0.000000
vn 1.000000 0.000000 0.000000
vn 0.000000 0.866769 0.498710
vn 0.000000 0.866769 0.498710
vn 0.000000 0.866769 0.498710
vn 0.000000 0.866769 0.498710
vn 0.000000 0.000000 1.000000
vn 0.000000 0.000000 1.000000
vn 0.000000 0.000000 1.000000
vn 0.000000 0.000000 1.000000
vn -0.010756 -0.866718 0.498682
vn -0.010756 -0.866718 0.498682
vn -0.002746 -0.865684 0.500584
vn -0.002699 -0.865677 0.500595
vn 0.000000 0.000000 1.000000
vn 0.000000 0.000000 1.000000
vn 0.000000 0.000000 1.000000
vn 0.000000 0.000000 1.000000
vn 1.000000 0.000000 0.000000
vn 1.000000 0.000000 0.000000
vn 1.000000 -0.000000 0.000000
vn 1.000000 0.000000 0.000000
vn 0.000000 0.000000 1.000000
vn 0.000000 0.000000 1.000000
vn 0.000000 0.000000 1.000000
vn 0.000000 0.000000 1.000000
vn -1.000000 0.000000 0.000000
vn -1.000000 0.000000 0.000000
vn -1.000000 0.000000 0.000000
vn -1.000000 0.000000 0.000000
vn 0.010582 0.000000 -0.999944
vn 0.002646 -0.003052 -0.999992
vn 0.005389 -0.006221 -0.999966
vn 0.021564 0.000000 -0.999768
vn -1.000000 0.000000 0.000000
vn -1.000000 0.000000 0.000000
vn -1.000000 0.000000 0.000000
vn -1.000000 0.000000 0.000000
vn 0.000000 0.000000 1.000000
vn 0.000000 0.000000 1.000000
vn 0.000000 0.000000 1.000000
vn 0.000000 0.000000 1.000000
vn 1.000000 -0.000000 0.000000
vn 1.000000 -0.000000 0.000000
vn 1.000000 -0.000000 0.000000
vn 1.000000 0.000000 0.000000
vn 0.000000 1.000000 0.000000
vn 0.000000 1.000000 0.000000
vn 0.000000 1.000000 -0.000006
vn 0.000000 1.000000 -0.000006
vn 0.000000 0.000000 1.000000
vn 0.000000 0.000000 1.000000
vn 0.000000 0.000000 1.000000
vn 0.000000 0.000000 1.000000
vn 0.000000 1.000000 -0.000006
vn 0.000000 1.000000 -0.000006
vn 0.000000 1.000000 0.000000
vn 0.000000 1.000000 0.000000
vn 0.000000 0.000000 1.000000
vn 0.000000 0.000000 1.000000
vn 0.000000 0.000000 1.000000
vn 0.000000 0.000000 1.000000
vn 0.000000 1.000000 -0.000006
vn 0.000000 1.000000 -0.000006
vn 0.000000 1.000000 0.000000
vn 0.000000 1.000000 0.000000
vn 1.000000 0.000000 0.000000
vn 1.000000 -0.000000 0.000000
vn 1.000000 0.000000 0.000000
vn 1.000000 0.000000 0.000000
vn 0.000000 1.000000 0.000000
vn 0.000000 1.000000 0.000000
vn 0.000000 1.000000 0.000001
vn 0.000000 1.000000 0.000001
vn 0.000000 1.000000 0.000000
vn 0.000000 1.000000 0.000000
vn 0.000000 1.000000 0.000001
vn 0.000000 1.000000 0.000001
vn 0.000000 0.000000 1.000000
vn 0.000000 0.000000 1.000000
vn 0.000000 0.000000 1.000000
vn 0.000000 0.000000 1.000000
vn 0.000000 1.000000 0.000001
vn 0.000000 1.000000 0.000000
vn 0.000000 1.000000 0.000000
vn 0.000000 1.000000 0.000001
vn 0.000000 0.000000 1.000000
vn 0.000000 0.000000 1.000000
vn 0.000000 0.000000 1.000000
vn 0.000000 0.000000 1.000000
vn 0.000000 0.000000 1.000000
vn 0.000000 0.000000 1.000000
vn 0.000000 0.000000 1.000000
vn 0.000000 0.000000 1.000000
vn 0.000000 -0.866769 0.498710
vn 0.000000 -0.866769 0.498710
vn 0.000000 -0.866769 0.498710
vn 0.000000 -0.866769 0.498710
vn 0.010784 0.000000 -0.999942
vn 0.005392 0.006103 -0.999967
vn 0.000000 0.000000 -1.000000
vn 0.000000 0.000000 -1.000000
vn -0.010756 0.866718 0.498682
vn -0.010756 0.866718 0.498682
vn -0.005419 0.864567 0.502488
vn -0.005482 0.864593 0.502443
vn 1.000000 0.000000 0.000000
vn 1.000000 0.000000 0.000000
vn 1.000000 0.000000 0.000000
vn 1.000000 0.000000 0.000000
vn -1.000000 0.000000 0.000000
vn -1.000000 0.000000 0.000000
vn -1.000000 0.000000 0.000000
vn -1.000000 0.000000 0.000000
vn 0.000000 -1.000000 0.000000
vn 0.000000 -1.000000 0.000000
vn 0.000000 -1.000000 0.000000
vn 0.000000 -1.000000 0.000000
vn 0.000000 -1.000000 0.000000
vn 0.000000 -1.000000 0.000000
vn 0.000000 -1.000000 0.000000
vn 0.000000 -1.000000 0.000000
vn 0.000000 -1.000000 0.000000
vn 0.000000 -1.000000 0.000000
vn 0.000000 -1.000000 0.000000
vn 0.000000 -1.000000 0.000000
vn 0.000000 0.000000 -1.000000
vn -0.000000 0.000000 -1.000000
vn 0.000000 0.000000 -1.000000
vn 0.000000 0.000000 -1.000000
vn 0.000000 0.000000 -1.000000
vn 0.000000 0.000000 -1.000000
vn 0.000000 0.000000 -1.000000
vn 0.000000 0.000000 -1.000000
vn 0.000000 0.000000 -1.000000
vn 0.000000 0.000000 -1.000000
vn 0.000000 0.000000 -1.000000
vn 0.000000 0.000000 -1.000000
vn 0.000000 0.000000 -1.000000
vn 0.000000 0.000000 -1.000000
vn 0.000000 0.000000 -1.000000
vn 0.000000 0.000000 -1.000000
vn 0.000000 0.000000 -1.000000
vn 0.000000 0.000000 -1.000000
vn 0.000000 0.000000 -1.000000
vn 0.000000 0.000000 -1.000000
vn -0.005482 0.864593 0.502443
vn -0.005419 0.864567 0.502488
vn 0.000000 0.862341 0.506328
vn 0.000000 0.862341 0.506328
vn 0.005392 0.006103 -0.999967
vn 0.000000 0.012206 -0.999925
vn 0.000000 0.000000 -1.000000
vn 0.000000 0.000000 -1.000000
vn 0.000000 -0.866769 0.498710
vn 0.000000 -0.866769 0.498710
vn 0.000000 -0.866769 0.498710
vn 0.000000 -0.866769 0.498710
vn -0.000000 0.000000 -1.000000
vn -0.000000 0.000000 -1.000000
vn 0.000000 0.000000 -1.000000
vn 0.000000 0.000000 -1.000000
vn 0.000000 0.866769 0.498710
vn 0.000000 0.866769 0.498710
vn 0.000000 0.866769 0.498710
vn 0.000000 0.866769 0.498710
vn 0.002646 -0.003052 -0.999992
vn -0.005291 -0.006103 -0.999967
vn -0.010783 -0.012438 -0.999865
vn 0.005389 -0.006221 -0.999966
vn -0.002699 -0.865677 0.500595
vn -0.002746 -0.865684 0.500584
vn 0.005419 -0.864567 0.502488
vn 0.005419 -0.864567 0.502488
vn 0.000000 0.000000 -1.000000
vn 0.000000 0.000000 -1.000000
vn 0.000000 0.000000 -1.000000
vn 0.000000 0.000000 -1.000000
vn 0.000000 0.000000 -1.000000
vn 0.002646 -0.003052 -0.999992
vn 0.010582 0.000000 -0.999944
vn 0.000000 0.000000 -1.000000
vn 0.000000 0.000000 -1.000000
vn -0.005291 -0.006103 -0.999967
vn 0.002646 -0.003052 -0.999992
vn 0.000000 0.000000 -1.000000
vn 1.000000 0.000000 0.000000
vn 1.000000 0.000000 0.000000
vn 1.000000 0.000000 0.000000
vn 1.000000 0.000000 0.000000
vn -0.000000 0.000000 -1.000000
vn -0.000000 0.000000 -1.000000
vn -0.000000 0.000000 -1.000000
vn -0.000000 0.000000 -1.000000
vn 0.010779 0.012209 -0.999867
vn 0.005392 0.006103 -0.999967
vn 0.010784 0.000000 -0.999942
vn 0.021564 0.000000 -0.999767
vn 0.000000 0.024406 -0.999702
vn 0.000000 0.012206 -0.999925
vn 0.005392 0.006103 -0.999967
vn 0.010779 0.012209 -0.999867
vn 1.000000 0.000000 0.000000
vn 1.000000 0.000000 0.000000
vn 1.000000 0.000000 0.000000
vn 1.000000 0.000000 0.000000
vn -0.000000 0.000000 -1.000000
vn 0.000000 0.000000 -1.000000
vn 0.000000 0.000000 -1.000000
vn 0.000000 0.000000 -1.000000
vn -0.000000 0.000000 -1.000000
vn 0.000000 0.000000 -1.000000
vn 0.000000 0.000000 -1.000000
vn -0.000000 0.000000 -1.000000
vn -0.000000 0.000000 -1.000000
vn -0.000000 0.000000 -1.000000
vn 0.000000 0.000000 -1.000000
vn 0.000000 0.000000 -1.000000
vn 1.000000 0.000000 0.000000
vn 1.000000 -0.000000 0.000000
vn 1.000000 0.000000 0.000000
vn 1.000000 0.000000 0.000000
vn 1.000000 0.000000 0.000000
vn 1.000000 0.000000 0.000000
vn 1.000000 0.000000 0.000000
vn 1.000000 -0.000000 0.000000
vn 1.000000 -0.000000 0.000000
vn 1.000000 0.000000 0.000000
vn 1.000000 0.000000 0.000000
vn 1.000000 -0.000000 0.000000
vn 1.000000 0.000000 0.000000
vn 1.000000 -0.000000 0.000000
vn 1.000000 -0.000000 0.000000
vn 1.000000 -0.000000 0.000000
vn 1.000000 -0.000000 0.000000
vn 1.000000 0.000000 0.000000
vn 1.000000 0.000000 0.000000
vn 1.000000 0.000000 0.000000
vn 1.000000 0.000000 0.000000
vn 1.000000 0.000000 0.000000
vn 1.000000 0.000000 0.000000
vn 1.000000 0.000000 0.000000
vn 0.000000 1.000000 -0.000006
vn 0.000000 1.000000 -0.000006
vn 0.000000 1.000000 -0.000006
vn 0.000000 1.000000 -0.000006
vn 0.000000 1.000000 -0.000007
vn 0.000000 1.000000 -0.000006
vn 0.000000 1.000000 -0.000006
vn 0.000000 1.000000 -0.000006
vn 0.000000 1.000000 -0.000006
vn 0.000000 1.000000 -0.000006
vn 0.000000 1.000000 -0.000007
vn 0.000000 1.000000 -0.000007
vn -1.000000 0.000000 0.000000
vn -1.000000 0.000000 0.000000
vn -1.000000 0.000000 0.000000
vn -1.000000 0.000000 0.000000
vn -1.000000 0.000000 0.000000
vn -1.000000 0.000000 0.000000
vn -1.000000 0.000000 0.000000
vn -1.000000 0.000000 0.000000
vn -1.000000 0.000000 0.000000
vn -1.000000 0.000000 0.000000
vn -1.000000 0.000000 0.000000
vn -1.000000 0.000000 0.000000
vn 0.000000 -1.000000 0.000000
vn 0.000000 -1.000000 0.000000
vn 0.000000 -1.000000 0.000000
vn 0.000000 -1.000000 0.000000
vn 0.000000 -1.000000 0.000000
vn 0.000000 -1.000000 0.000000
vn 0.000000 -1.000000 0.000000
vn 0.000000 -1.000000 0.000000
vn 0.000000 -1.000000 0.000000
vn 0.000000 -1.000000 0.000000
vn 0.000000 -1.000000 0.000000
vn 0.000000 -1.000000 0.000000
vn 1.000000 -0.000000 0.000000
vn 1.000000 -0.000000 0.000000
vn 1.000000 0.000000 0.000000
vn 1.000000 0.000000 0.000000
s off
g initialShadingGroup Sunmao_007_A
f 110/171/393 116/172/394 106/173/395 154/174/396
f 179/175/397 180/176/398 106/173/399 107/177/400
f 109/178/401 110/171/402 154/174/403 156/179/404
f 111/180/405 109/178/406 156/179/407 155/181/408
f 147/182/409 112/183/410 111/180/411 155/181/412
f 124/184/413 112/185/414 147/186/415 126/187/416
f 107/177/417 106/173/418 116/172/419 133/188/420
f 170/189/421 171/190/422 113/191/423 117/192/424
f 120/193/425 115/194/426 165/195/427 166/196/428
f 110/171/429 109/197/430 122/198/431 116/172/432
f 121/199/433 123/200/434 167/201/435 168/202/436
f 125/203/437 122/198/438 109/197/439 111/204/440
f 124/184/441 126/187/442 127/205/443 139/206/444
f 124/184/445 125/203/446 111/204/447 112/185/448
f 178/207/449 179/175/450 107/177/451 129/208/452
f 131/209/453 169/210/454 167/201/455 123/200/456
f 129/208/457 107/177/458 133/188/459 143/211/460
f 116/172/461 122/198/462 134/212/463 133/188/464
f 127/205/465 120/213/466 131/214/467 123/215/468
f 129/208/469 138/216/470 177/217/471 178/207/472
f 140/218/473 134/212/474 122/198/475 125/203/476
f 176/219/477 177/217/478 138/216/479 141/220/480
f 139/206/481 140/218/482 125/203/483 124/184/484
f 175/221/485 176/219/486 141/220/487 142/222/488
f 139/206/489 127/205/490 142/223/491 146/224/492
f 138/216/493 129/208/494 143/211/495 144/225/496
f 141/220/497 138/216/498 144/225/499 145/226/500
f 133/188/501 134/212/502 144/227/503 143/211/504
f 146/228/505 142/222/506 141/220/507 145/226/508
f 144/227/509 134/212/510 140/218/511 145/229/512
f 145/229/513 140/218/514 139/206/515 146/224/516
f 137/230/517 136/231/518 163/232/519 164/233/520
f 135/234/521 172/235/522 163/232/523 136/231/524
f 151/236/525 152/237/526 161/238/527 162/239/528
f 173/240/529 174/241/530 149/242/531 148/243/532
f 180/176/533 181/244/534 154/174/535 106/173/536
f 147/182/537 155/181/538 183/245/539 184/246/540
f 155/181/541 156/179/542 182/247/543 183/245/544
f 181/244/545 182/247/546 156/179/547 154/174/548
f 113/248/549 108/249/550 119/250/551 128/251/552
f 168/252/553 130/253/554 132/254/555 121/255/556
f 164/256/557 165/257/558 115/258/559 137/259/560
f 159/260/561 161/261/562 152/262/563 157/263/564
f 160/264/565 153/265/566 161/261/567 159/260/568
f 162/239/569 161/238/570 153/266/571 150/267/572
f 172/235/573 173/240/574 148/243/575 163/232/576
f 164/233/577 163/232/578 148/243/579 149/268/580
f 149/269/581 114/270/582 165/257/583 164/256/584
f 166/196/585 165/195/586 114/271/587 118/272/588
f 169/210/589 170/189/590 117/192/591 167/201/592
f 168/202/593 167/201/594 117/192/595 113/273/596
f 113/248/597 128/251/598 130/253/599 168/252/600
f 166/196/601 169/210/602 131/209/603 120/193/604
f 118/272/605 170/189/606 169/210/607 166/196/608
f 114/274/609 171/190/610 170/189/611 118/272/612
f 105/275/613 108/249/614 114/270/615 149/269/616
f 162/239/617 172/235/618 135/234/619 151/236/620
f 150/267/621 173/240/622 172/235/623 162/239/624
f 153/276/625 174/241/626 173/240/627 150/267/628
f 105/275/629 153/265/630 160/264/631 158/277/632
f 108/249/633 113/248/634 171/278/635 114/270/636
f 105/275/637 149/269/638 174/279/639 153/265/640
f 142/223/641 127/205/642 123/215/643 175/280/644
f 135/281/645 136/282/646 126/187/647 151/283/648
f 127/205/649 126/187/650 136/282/651 120/213/652
f 126/187/653 147/186/654 184/284/655 151/283/656
f 120/213/657 136/282/658 137/285/659 115/286/660
f 175/280/661 123/215/662 121/287/663 132/288/664
f 130/289/665 176/219/666 175/221/667 132/290/668
f 128/291/669 177/217/670 176/219/671 130/289/672
f 178/207/673 177/217/674 128/291/675 119/250/676
f 108/249/677 179/175/678 178/207/679 119/250/680
f 105/275/681 180/176/682 179/175/683 108/249/684
f 158/277/685 181/244/686 180/176/687 105/275/688
f 158/277/689 160/292/690 182/247/691 181/244/692
f 183/245/693 182/247/694 160/292/695 159/293/696
f 184/246/697 183/245/698 159/293/699 157/294/700
f 151/283/701 184/284/702 157/295/703 152/296/704
