# This file uses centimeters as units for non-parametric coordinates.

mtllib Sunmao_011.mtl
g default
v -0.135291 0.182524 0.772085
v 0.135303 0.182524 0.772085
v 0.135303 0.548107 0.772085
v -0.135291 0.548107 0.772085
v -0.135291 0.426257 -0.056185
v -0.135291 0.182524 -0.056185
v -0.135291 0.548107 -0.168502
v 0.101471 0.426257 -0.056185
v 0.101471 0.182524 -0.056185
v 0.101471 0.304375 0.056469
v 0.135303 0.304376 0.056288
v 0.135303 0.182524 0.169153
v 0.101471 0.182524 0.169153
v 0.135303 0.426257 -0.052737
v 0.135303 0.548107 -0.169236
v 0.101471 0.548107 -0.168502
v -0.067628 0.548107 -0.168502
v -0.101459 0.548107 -0.168502
v 0.067640 0.548107 0.056469
v 0.067640 0.182524 0.056469
v 0.101471 0.182524 0.056469
v 0.101471 0.548107 0.056469
v 0.101471 0.548107 0.169153
v 0.067640 0.182524 0.169153
v 0.067640 0.548107 0.169153
v -0.101459 0.548107 0.056469
v -0.101459 0.182524 0.056469
v -0.067628 0.182524 0.056469
v -0.067628 0.548107 0.056469
v -0.067628 0.182524 0.169153
v -0.067628 0.548107 0.169153
v -0.101459 0.182524 0.169153
v -0.101459 0.548107 0.169153
v -0.067628 0.182524 -0.056185
v -0.067628 0.426257 -0.056185
v -0.135291 0.182524 0.056469
v -0.135291 0.426257 0.056469
v -0.135291 0.548107 0.056469
v -0.135291 0.182524 0.170346
v -0.135291 0.426257 0.170346
v -0.135291 0.548107 0.170346
v -0.101459 0.182524 -0.056185
v -0.104023 0.426257 -0.056185
v -0.135291 0.426257 0.772085
v 0.135303 0.426257 0.772085
v 0.067640 0.548107 -0.168502
v 0.067640 0.426257 -0.056185
v -0.067628 0.182524 0.772085
v -0.101459 0.182524 0.772085
v 0.067640 0.548107 0.772085
v -0.101459 0.548107 0.772086
v -0.067628 0.548107 0.772086
v 0.101471 0.548107 0.772086
v 0.099756 0.426257 0.772085
v 0.100288 0.182524 0.772085
v 0.067640 0.182524 0.772085
v 0.067640 0.426257 0.772086
v 0.068055 0.182524 -0.056185
v 0.135303 0.426257 0.169328
v 0.135303 0.548107 0.169416
v 0.135303 0.426257 0.055734
v 0.135303 0.548107 0.054999
v -0.101459 0.426257 0.772085
v -0.067628 0.426257 0.772085
v 0.101471 0.304375 -0.056185
v 0.067851 0.304375 -0.056185
v -0.067628 0.304375 -0.056185
v -0.102724 0.304375 -0.056185
v -0.135291 0.304375 -0.056185
v -0.135291 0.304375 0.056469
v -0.135291 0.304375 0.170346
v -0.135291 0.304375 0.772085
v -0.101459 0.304375 0.772085
v -0.067628 0.304375 0.772085
v 0.067640 0.304375 0.772085
v 0.100026 0.304375 0.772085
v 0.135303 0.304375 0.772085
v 0.135303 0.304375 0.169240
v 0.067640 0.304373 0.056469
v 0.067640 0.304373 0.169153
v 0.101471 0.304373 0.169153
vt 0.349832 0.103910
vt 0.394518 0.103282
vt 0.394518 0.116317
vt 0.349832 0.116317
vt 0.205913 0.420063
vt 0.161216 0.420063
vt 0.161216 0.378751
vt 0.205913 0.378751
vt 0.250599 0.378751
vt 0.250599 0.461234
vt 0.337281 0.502705
vt 0.337126 0.547402
vt 0.324797 0.547359
vt 0.324875 0.502662
vt 0.029704 0.378751
vt 0.017297 0.378817
vt 0.017297 0.337426
vt 0.029704 0.337426
vt 0.349832 0.461406
vt 0.349684 0.504013
vt 0.337425 0.461384
vt 0.325018 0.461363
vt 0.275269 0.502490
vt 0.275412 0.461277
vt 0.135680 0.880161
vt 0.123360 0.880161
vt 0.123360 0.835788
vt 0.135680 0.835788
vt 0.082325 0.835788
vt 0.082325 0.880161
vt 0.070005 0.880161
vt 0.070005 0.835788
vt 0.145192 0.827556
vt 0.145192 0.694426
vt 0.157512 0.694426
vt 0.157512 0.827556
vt 0.198546 0.694426
vt 0.198546 0.827556
vt 0.210866 0.694426
vt 0.210866 0.827556
vt 0.394518 0.337362
vt 0.349832 0.337330
vt 0.104123 0.337426
vt 0.104123 0.116317
vt 0.116530 0.116317
vt 0.116530 0.336989
vt 0.104123 0.378751
vt 0.104123 0.420063
vt 0.091717 0.420063
vt 0.091717 0.378751
vt 0.042111 0.378751
vt 0.041958 0.420063
vt 0.029704 0.420063
vt 0.029704 0.378751
vt 0.378439 0.547545
vt 0.275114 0.547187
vt 0.262244 0.547142
vt 0.261922 0.502444
vt 0.263006 0.461255
vt 0.116530 0.378751
vt 0.161216 0.336989
vt 0.205913 0.336989
vt 0.205913 0.116317
vt 0.250599 0.116317
vt 0.250599 0.336989
vt 0.116530 0.420063
vt 0.250301 0.547101
vt 0.250456 0.502404
vt 0.161216 0.116317
vt 0.439215 0.103381
vt 0.439214 0.116318
vt 0.439214 0.337395
vt 0.017297 0.418799
vt 0.029704 0.420063
vt 0.042111 0.337426
vt 0.042111 0.116317
vt 0.091717 0.116317
vt 0.091717 0.337426
vt 0.349832 0.029491
vt 0.394518 0.029491
vt 0.394518 0.041898
vt 0.349832 0.041898
vt 0.439215 0.029492
vt 0.439215 0.041898
vt 0.394518 0.091504
vt 0.439215 0.091504
vt 0.349832 0.091504
vt 0.017297 0.116317
vt 0.030138 0.116317
vt 0.439214 0.378817
vt 0.394518 0.379020
vt 0.394518 0.418799
vt 0.349832 0.379289
vt 0.394518 0.017085
vt 0.349832 0.017084
vt 0.439215 0.017085
vt 0.325018 0.337426
vt 0.325018 0.378751
vt 0.275412 0.378751
vt 0.275412 0.337426
vt 0.263006 0.337426
vt 0.263006 0.116317
vt 0.275412 0.116317
vt 0.028970 0.880162
vt 0.337425 0.337426
vt 0.325018 0.116317
vt 0.337425 0.116317
vt 0.337425 0.378751
vt 0.263006 0.378751
vt 0.378284 0.592231
vt 0.336971 0.592088
vt 0.324717 0.592045
vt 0.274959 0.591872
vt 0.262552 0.591829
vt 0.250146 0.591786
vt 0.116530 0.420063
vt 0.116530 0.378751
vt 0.483901 0.017085
vt 0.483901 0.029492
vt 0.483901 0.041899
vt 0.483901 0.091504
vt 0.483900 0.103477
vt 0.483900 0.116318
vt 0.483900 0.337427
vt 0.123360 0.968918
vt 0.135680 0.968918
vt 0.082325 0.968918
vt 0.070006 0.968919
vt 0.028971 0.968919
vt 0.251901 0.694426
vt 0.251901 0.827556
vn 0.000028 -0.000004 1.000000
vn 0.000028 -0.000004 1.000000
vn 0.000028 -0.000004 1.000000
vn 0.000028 -0.000004 1.000000
vn -1.000000 0.000000 0.000000
vn -1.000000 0.000000 0.000000
vn -1.000000 0.000000 0.000000
vn -1.000000 0.000000 0.000000
vn -1.000000 0.000000 0.000000
vn -1.000000 0.000000 0.000000
vn -1.000000 0.000000 0.000000
vn -1.000000 0.000000 0.000000
vn 0.000000 0.000000 -1.000000
vn 0.000000 0.000000 -1.000000
vn 0.000000 0.000000 -1.000000
vn 0.000000 0.000000 -1.000000
vn -0.001952 -0.679240 -0.733913
vn -0.001952 -0.679240 -0.733913
vn -0.001952 -0.679240 -0.733913
vn -0.001952 -0.679240 -0.733913
vn 0.029248 -0.684196 -0.728712
vn 0.029248 -0.684196 -0.728712
vn 0.029248 -0.684196 -0.728712
vn 0.029248 -0.684196 -0.728712
vn 0.000000 -0.677754 -0.735289
vn 0.000000 -0.677754 -0.735289
vn 0.000000 -0.677754 -0.735289
vn 0.000000 -0.677754 -0.735289
vn 0.000000 0.000000 1.000000
vn 0.000000 0.000000 1.000000
vn 0.000000 0.000000 1.000000
vn 0.000000 0.000000 1.000000
vn 0.000000 0.000000 -1.000000
vn 0.000000 0.000000 -1.000000
vn 0.000000 0.000000 -1.000000
vn 0.000000 0.000000 -1.000000
vn 1.000000 0.000000 0.000000
vn 1.000000 0.000000 0.000000
vn 1.000000 0.000000 0.000000
vn 1.000000 0.000000 0.000000
vn 0.000000 0.000000 1.000000
vn 0.000000 0.000000 1.000000
vn 0.000000 0.000000 1.000000
vn 0.000000 0.000000 1.000000
vn -1.000000 0.000000 0.000000
vn -1.000000 0.000000 0.000000
vn -1.000000 0.000000 0.000000
vn -1.000000 0.000000 0.000000
vn 0.000000 0.000000 -1.000000
vn 0.000000 0.000000 -1.000000
vn 0.000000 0.000000 -1.000000
vn 0.000000 0.000000 -1.000000
vn 1.000000 0.000000 0.000000
vn 1.000000 0.000000 0.000000
vn 1.000000 0.000000 0.000000
vn 1.000000 0.000000 0.000000
vn 0.000000 -1.000000 0.000000
vn 0.000000 -1.000000 0.000000
vn 0.000000 -1.000000 0.000000
vn 0.000000 -1.000000 0.000000
vn 0.000000 -1.000000 0.000000
vn 0.000000 -1.000000 0.000000
vn 0.000000 -1.000000 0.000000
vn 0.000000 -1.000000 0.000000
vn 0.000000 -1.000000 0.000000
vn 0.000000 -1.000000 0.000000
vn 0.000000 -1.000000 0.000000
vn 0.000000 -1.000000 0.000000
vn 1.000000 0.000000 0.000000
vn 1.000000 0.000000 0.000000
vn 1.000000 0.000000 0.000000
vn 0.000000 0.000000 -1.000000
vn 0.000000 0.000000 -1.000000
vn 0.000000 0.000000 -1.000000
vn 0.000000 0.000000 -1.000000
vn 0.000000 -0.677753 -0.735289
vn 0.000000 -0.677753 -0.735289
vn 0.000000 -0.677753 -0.735289
vn 0.000000 -0.677753 -0.735289
vn 0.000000 -1.000000 0.000000
vn 0.000000 -1.000000 0.000000
vn 0.000000 -1.000000 0.000000
vn 0.000000 -1.000000 0.000000
vn -1.000000 0.000000 0.000000
vn -1.000000 0.000000 0.000000
vn -1.000000 0.000000 0.000000
vn -1.000000 0.000000 0.000000
vn -1.000000 0.000000 0.000000
vn -1.000000 0.000000 0.000000
vn -1.000000 0.000000 0.000000
vn -1.000000 0.000000 0.000000
vn 0.000000 -1.000000 0.000000
vn 0.000000 -1.000000 0.000000
vn 0.000000 -1.000000 0.000000
vn 0.000000 -1.000000 0.000000
vn 0.000000 0.000000 -1.000000
vn 0.000000 0.000000 -1.000000
vn 0.000000 0.000000 -1.000000
vn 0.000000 0.000000 -1.000000
vn 0.000000 -0.677754 -0.735289
vn 0.000000 -0.677754 -0.735289
vn 0.000000 -0.677754 -0.735289
vn 0.000000 -0.677754 -0.735289
vn -1.000000 0.000000 0.000000
vn -1.000000 0.000000 0.000000
vn -1.000000 0.000000 0.000000
vn -1.000000 0.000000 0.000000
vn 0.000000 0.000000 1.000000
vn 0.000000 0.000000 1.000000
vn 0.000000 0.000000 1.000000
vn 0.000000 0.000000 1.000000
vn 1.000000 -0.000000 0.000000
vn 1.000000 -0.000000 0.000000
vn 1.000000 -0.000000 0.000000
vn 1.000000 -0.000000 0.000000
vn 0.035739 -0.672370 -0.739352
vn 0.035739 -0.672370 -0.739352
vn 0.035739 -0.672370 -0.739352
vn 0.035739 -0.672370 -0.739352
vn 0.000000 -0.677754 -0.735289
vn 0.000000 -0.677754 -0.735289
vn 0.000000 -0.677754 -0.735289
vn 0.000000 -0.677754 -0.735289
vn 0.000000 -1.000000 0.000000
vn 0.000000 -1.000000 0.000000
vn 0.000000 -1.000000 0.000000
vn 0.000000 -1.000000 0.000000
vn 0.000000 -1.000000 0.000000
vn 0.000000 -1.000000 0.000000
vn 0.000000 -1.000000 0.000000
vn 0.000000 -1.000000 0.000000
vn -0.000014 -0.000006 1.000000
vn -0.000014 -0.000006 1.000000
vn 0.000000 -0.000002 1.000000
vn 0.000000 -0.000002 1.000000
vn 0.000000 0.000000 1.000000
vn 0.000000 0.000000 1.000000
vn -0.000003 -0.000002 1.000000
vn -0.000006 -0.000003 1.000000
vn 0.000030 -0.000004 1.000000
vn 0.000015 -0.000002 1.000000
vn 0.000015 -0.000002 1.000000
vn 0.000030 -0.000004 1.000000
vn 0.000000 0.000000 1.000000
vn 0.000000 0.000000 1.000000
vn 0.000000 0.000000 1.000000
vn 0.000000 0.000000 1.000000
vn 0.000000 -1.000000 0.000000
vn 0.000000 -1.000000 0.000000
vn 0.000000 -1.000000 0.000000
vn 0.000000 -1.000000 0.000000
vn 0.000000 -1.000000 0.000000
vn 0.000000 -1.000000 0.000000
vn 0.000000 -1.000000 0.000000
vn 0.000000 -1.000000 0.000000
vn 0.000000 -1.000000 0.000000
vn 0.000000 -1.000000 0.000000
vn 0.000000 -1.000000 0.000000
vn 0.000000 -1.000000 0.000000
vn 0.000000 -1.000000 0.000000
vn 0.000000 -1.000000 0.000000
vn 0.000000 -1.000000 0.000000
vn 0.000000 -1.000000 0.000000
vn 0.000000 0.000000 -1.000000
vn 0.000000 0.000000 -1.000000
vn 0.000000 0.000000 -1.000000
vn 0.000000 0.000000 -1.000000
vn 1.000000 0.000000 0.000000
vn 1.000000 0.000000 0.000000
vn 1.000000 0.000000 0.000000
vn 1.000000 0.000000 0.000000
vn 1.000000 -0.000000 0.000000
vn 1.000000 -0.000000 0.000000
vn 1.000000 -0.000000 0.000000
vn 1.000000 0.000000 0.000000
vn 1.000000 0.000000 0.000000
vn 1.000000 0.000000 0.000000
vn 1.000000 0.000000 0.000000
vn -0.000029 -0.000004 1.000000
vn -0.000014 -0.000006 1.000000
vn -0.000014 -0.000006 1.000000
vn -0.000029 -0.000004 1.000000
vn 0.000000 0.000000 1.000000
vn 0.000000 0.000000 1.000000
vn 0.000000 0.000000 1.000000
vn 0.000000 0.000000 1.000000
vn -0.000006 -0.000003 1.000000
vn -0.000003 -0.000002 1.000000
vn -0.000004 -0.000002 1.000000
vn -0.000007 -0.000004 1.000000
vn 0.000000 -0.000002 1.000000
vn 0.000000 -0.000002 1.000000
vn 0.000000 0.000000 1.000000
vn 0.000000 0.000000 1.000000
vn 0.000000 1.000000 0.000000
vn 0.000000 1.000000 0.000000
vn 0.000000 1.000000 0.000000
vn 0.000000 1.000000 0.000000
vn 0.000000 1.000000 0.000000
vn 0.000000 1.000000 0.000000
vn 0.000000 1.000000 0.000000
vn 0.000000 1.000000 0.000000
vn -1.000000 0.000000 0.000000
vn -1.000000 0.000000 0.000000
vn -1.000000 0.000000 0.000000
vn 0.000000 1.000000 0.000000
vn 0.000000 1.000000 0.000000
vn 0.000000 1.000000 0.000000
vn 0.000000 1.000000 0.000000
vn 0.000000 1.000000 0.000000
vn 0.000000 1.000000 0.000000
vn 0.000000 1.000000 0.000000
vn 0.000000 1.000000 0.000000
vn 0.000000 1.000000 0.000000
vn 0.000000 1.000000 0.000000
vn 0.000000 1.000000 0.000000
vn 0.000000 1.000000 0.000000
vn 0.000000 1.000000 0.000000
vn 0.000000 1.000000 0.000000
vn 0.000000 1.000000 0.000000
vn 0.000000 1.000000 0.000000
vn 0.000000 1.000000 0.000000
vn 0.000000 1.000000 0.000000
vn 0.000000 1.000000 0.000000
vn 0.000000 1.000000 0.000000
vn 0.000000 1.000000 0.000000
vn 0.000000 1.000000 0.000000
vn 0.000000 1.000000 0.000000
vn 0.000000 1.000000 0.000000
vn 0.000000 1.000000 0.000000
vn 0.000000 1.000000 0.000000
vn 0.000000 1.000000 0.000000
vn 0.000000 1.000000 0.000000
vn 0.000000 1.000000 0.000000
vn 0.000000 1.000000 0.000000
vn 0.000000 1.000000 0.000000
vn 0.000000 1.000000 0.000000
vn 0.000000 1.000000 0.000000
vn 0.000000 1.000000 0.000000
vn 0.000000 1.000000 0.000000
vn 0.000000 1.000000 0.000000
vn 0.000000 1.000000 0.000000
vn 0.000000 1.000000 0.000000
vn 0.000000 1.000000 0.000000
vn 0.000000 1.000000 0.000000
vn 0.000000 1.000000 0.000000
vn 0.000000 1.000000 0.000000
vn 0.000000 1.000000 0.000000
vn 0.000000 1.000000 0.000000
vn 1.000000 0.000000 0.000000
vn 1.000000 0.000000 0.000000
vn 1.000000 0.000000 0.000000
vn 1.000000 0.000000 0.000000
vn 0.000000 0.000000 -1.000000
vn 0.000000 0.000000 -1.000000
vn 0.000000 0.000000 -1.000000
vn 0.000000 0.000000 -1.000000
vn 0.000000 0.000000 -1.000000
vn 0.000000 0.000000 -1.000000
vn 0.000000 0.000000 -1.000000
vn 0.000000 0.000000 -1.000000
vn 0.000000 0.000000 -1.000000
vn 0.000000 0.000000 -1.000000
vn 0.000000 0.000000 -1.000000
vn 0.000000 0.000000 -1.000000
vn 0.000000 0.000000 -1.000000
vn 0.000000 0.000000 -1.000000
vn 0.000000 0.000000 -1.000000
vn 0.000000 0.000000 -1.000000
vn -1.000000 0.000000 0.000000
vn -1.000000 0.000000 0.000000
vn -1.000000 0.000000 0.000000
vn -1.000000 0.000000 0.000000
vn -1.000000 0.000000 0.000000
vn -1.000000 0.000000 0.000000
vn -1.000000 0.000000 0.000000
vn -1.000000 0.000000 0.000000
vn -1.000000 0.000000 0.000000
vn -1.000000 0.000000 0.000000
vn -1.000000 0.000000 0.000000
vn -1.000000 0.000000 0.000000
vn 0.000000 0.000000 1.000000
vn 0.000000 0.000000 1.000000
vn 0.000000 0.000000 1.000000
vn 0.000000 0.000000 1.000000
vn -0.000003 -0.000002 1.000000
vn 0.000000 0.000000 1.000000
vn 0.000000 0.000000 1.000000
vn 0.000000 0.000000 1.000000
vn -0.000004 -0.000002 1.000000
vn -0.000003 -0.000002 1.000000
vn 0.000000 0.000000 1.000000
vn 0.000000 0.000000 1.000000
vn 0.000015 -0.000002 1.000000
vn 0.000015 -0.000002 1.000000
vn 0.000000 0.000000 1.000000
vn 0.000000 0.000000 1.000000
vn 0.000000 0.000000 1.000000
vn 0.000000 0.000000 1.000000
vn 0.000000 0.000000 1.000000
vn 0.000000 0.000000 1.000000
vn 1.000000 -0.000000 0.000000
vn 1.000000 -0.000000 0.000000
vn 1.000000 0.000000 0.000000
vn 1.000000 0.000000 0.000000
vn 1.000000 0.000000 0.000000
vn 1.000000 0.000000 0.000000
vn 1.000000 -0.000000 0.000000
vn 0.000000 0.000000 1.000000
vn 0.000000 0.000000 1.000000
vn 0.000000 0.000000 1.000000
vn 0.000000 0.000000 1.000000
vn 1.000000 0.000000 0.000000
vn 1.000000 0.000000 0.000000
vn 1.000000 0.000000 0.000000
vn 1.000000 0.000000 0.000000
vn 0.000000 0.000000 -1.000000
vn 0.000000 0.000000 -1.000000
vn 0.000000 0.000000 -1.000000
vn 0.000000 0.000000 -1.000000
vn 1.000000 -0.000000 0.000000
vn 1.000000 -0.000000 0.000000
vn 1.000000 -0.000000 0.000000
vn 1.000000 -0.000000 0.000000
vn -1.000000 0.000000 0.000000
vn -1.000000 0.000000 0.000000
vn -1.000000 0.000000 0.000000
vn -1.000000 0.000000 0.000000
vn -1.000000 0.000000 0.000000
vn -1.000000 0.000000 0.000000
vn -1.000000 0.000000 0.000000
vn -1.000000 0.000000 0.000000
vn 1.000000 0.000000 0.000000
vn 1.000000 0.000000 0.000000
vn 1.000000 0.000000 0.000000
vn 1.000000 0.000000 0.000000
s off
g initialShadingGroup Sunmao_011_A
f 53/1/1 54/2/2 45/3/3 3/4/4
f 5/5/5 69/6/6 70/7/7 37/8/8
f 5/5/9 37/8/10 38/9/11 7/10/12
f 8/11/13 65/12/14 66/13/15 47/14/16
f 10/15/17 11/16/18 12/17/19 13/18/20
f 15/19/21 14/20/22 8/11/23 16/21/24
f 46/22/25 47/14/26 35/23/27 17/24/28
f 10/25/29 79/26/30 20/27/31 21/28/32
f 24/29/33 80/30/34 81/31/35 13/32/36
f 20/27/37 79/26/38 80/30/39 24/29/40
f 26/33/41 27/34/42 28/35/43 29/36/44
f 30/37/45 31/38/46 29/36/47 28/35/48
f 32/39/49 33/40/50 31/38/51 30/37/52
f 3/4/53 45/3/54 59/41/55 60/42/56
f 32/43/57 49/44/58 1/45/59 39/46/60
f 27/47/61 42/48/62 34/49/63 28/50/64
f 20/51/65 58/52/66 9/53/67 21/54/68
f 8/11/69 10/55/70 65/12/71
f 35/23/72 67/56/73 68/57/74 43/58/75
f 17/24/76 35/23/77 43/58/78 18/59/79
f 27/47/80 32/43/81 39/46/82 36/60/83
f 37/8/84 70/7/85 71/61/86 40/62/87
f 40/62/88 44/63/89 4/64/90 41/65/91
f 27/47/92 36/60/93 6/66/94 42/48/95
f 43/58/96 68/57/97 69/67/98 5/68/99
f 18/59/100 43/58/101 5/68/102 7/10/103
f 40/62/104 71/61/105 72/69/106 44/63/107
f 54/2/108 76/70/109 77/71/110 45/3/111
f 45/3/112 77/71/113 78/72/114 59/41/115
f 14/73/116 11/16/117 10/15/118 8/74/119
f 16/21/120 8/11/121 47/14/122 46/22/123
f 24/75/124 56/76/125 48/77/126 30/78/127
f 32/43/128 30/78/129 48/77/130 49/44/131
f 51/79/132 63/80/133 64/81/134 52/82/135
f 63/80/136 73/83/137 74/84/138 64/81/139
f 57/85/140 75/86/141 76/70/142 54/2/143
f 50/87/144 57/85/145 54/2/146 53/1/147
f 2/88/148 55/89/149 13/18/150 12/17/151
f 13/18/152 55/89/153 56/76/154 24/75/155
f 20/51/156 24/75/157 30/78/158 28/50/159
f 20/51/160 28/50/161 34/49/162 58/52/163
f 47/14/164 66/13/165 67/56/166 35/23/167
f 59/41/168 78/72/169 11/90/170 61/91/171
f 61/91/172 11/90/173 14/92/174
f 62/93/175 61/91/176 14/92/177 15/19/178
f 44/94/179 63/80/180 51/79/181 4/95/182
f 72/96/183 73/83/184 63/80/185 44/94/186
f 64/81/187 74/84/188 75/86/189 57/85/190
f 52/82/191 64/81/192 57/85/193 50/87/194
f 25/97/195 19/98/196 29/99/197 31/100/198
f 31/100/199 33/101/200 51/102/201 52/103/202
f 81/31/203 10/104/204 13/32/205
f 23/105/206 25/97/207 50/106/208 53/107/209
f 31/100/210 52/103/211 50/106/212 25/97/213
f 19/98/214 22/108/215 16/21/216 46/22/217
f 26/109/218 29/99/219 17/24/220 18/59/221
f 29/99/222 19/98/223 46/22/224 17/24/225
f 38/9/226 26/109/227 18/59/228 7/10/229
f 22/108/230 62/93/231 15/19/232 16/21/233
f 41/65/234 4/64/235 51/102/236 33/101/237
f 53/107/238 3/4/239 60/42/240 23/105/241
f 26/109/242 38/9/243 41/65/244 33/101/245
f 23/105/246 60/42/247 62/93/248 22/108/249
f 65/12/250 10/55/251 21/110/252 9/111/253
f 66/13/254 65/12/255 9/111/256 58/112/257
f 67/56/258 66/13/259 58/112/260 34/113/261
f 68/57/262 67/56/263 34/113/264 42/114/265
f 69/67/266 68/57/267 42/114/268 6/115/269
f 70/7/270 69/6/271 6/116/272 36/117/273
f 71/61/274 70/7/275 36/117/276 39/46/277
f 72/69/278 71/61/279 39/46/280 1/45/281
f 1/118/282 49/119/283 73/83/284 72/96/285
f 74/84/286 73/83/287 49/119/288 48/120/289
f 75/86/290 74/84/291 48/120/292 56/121/293
f 76/70/294 75/86/295 56/121/296 55/122/297
f 77/71/298 76/70/299 55/122/300 2/123/301
f 78/72/302 77/71/303 2/123/304 12/124/305
f 11/90/306 78/72/307 12/124/308
f 19/125/309 79/26/310 10/25/311 22/126/312
f 80/30/313 79/26/314 19/125/315 25/127/316
f 81/31/317 80/30/318 25/127/319 23/128/320
f 59/41/321 61/91/322 62/93/323 60/42/324
f 37/8/325 40/62/326 41/65/327 38/9/328
f 22/129/329 10/104/330 81/31/331 23/128/332
f 27/130/333 26/131/334 33/40/335 32/39/336
g default
v 0.135289 -0.182522 -0.772086
v -0.135303 -0.182522 -0.772086
v -0.135303 -0.548107 -0.772086
v 0.135289 -0.548107 -0.772086
v 0.135289 -0.426255 0.056185
v 0.135289 -0.182522 0.056185
v 0.135289 -0.548107 0.168501
v -0.101473 -0.426255 0.056185
v -0.101473 -0.182522 0.056185
v -0.101473 -0.304374 -0.056469
v -0.135303 -0.304374 -0.056287
v -0.135303 -0.182522 -0.169154
v -0.101473 -0.182522 -0.169154
v -0.135303 -0.426255 0.052738
v -0.135303 -0.548107 0.169236
v -0.101473 -0.548107 0.168501
v 0.067626 -0.548107 0.168501
v 0.101457 -0.548107 0.168501
v -0.067642 -0.548107 -0.056469
v -0.067642 -0.182522 -0.056469
v -0.101473 -0.182522 -0.056469
v -0.101473 -0.548107 -0.056469
v -0.101473 -0.548107 -0.169154
v -0.067642 -0.182522 -0.169154
v -0.067642 -0.548107 -0.169154
v 0.101457 -0.548107 -0.056469
v 0.101457 -0.182522 -0.056469
v 0.067626 -0.182522 -0.056469
v 0.067626 -0.548107 -0.056469
v 0.067626 -0.182522 -0.169154
v 0.067626 -0.548107 -0.169154
v 0.101457 -0.182522 -0.169154
v 0.101457 -0.548107 -0.169154
v 0.067626 -0.182522 0.056185
v 0.067626 -0.426255 0.056185
v 0.135289 -0.182522 -0.056469
v 0.135289 -0.426255 -0.056469
v 0.135289 -0.548107 -0.056469
v 0.135289 -0.182522 -0.170345
v 0.135289 -0.426255 -0.170345
v 0.135289 -0.548107 -0.170345
v 0.101457 -0.182522 0.056185
v 0.104021 -0.426255 0.056185
v 0.135289 -0.426255 -0.772086
v -0.135303 -0.426255 -0.772086
v -0.067642 -0.548107 0.168501
v -0.067642 -0.426255 0.056185
v 0.067626 -0.182522 -0.772086
v 0.101457 -0.182522 -0.772086
v -0.067642 -0.548107 -0.772086
v 0.101457 -0.548107 -0.772085
v 0.067626 -0.548107 -0.772085
v -0.101473 -0.548107 -0.772085
v -0.099757 -0.426255 -0.772086
v -0.100290 -0.182522 -0.772086
v -0.067642 -0.182522 -0.772086
v -0.067642 -0.426255 -0.772085
v -0.068057 -0.182522 0.056185
v -0.135303 -0.426255 -0.169330
v -0.135303 -0.548107 -0.169418
v -0.135303 -0.426255 -0.055736
v -0.135303 -0.548107 -0.055001
v 0.101457 -0.426255 -0.772086
v 0.067626 -0.426255 -0.772086
v -0.101473 -0.304374 0.056185
v -0.067852 -0.304374 0.056185
v 0.067626 -0.304374 0.056185
v 0.102722 -0.304374 0.056185
v 0.135289 -0.304374 0.056185
v 0.135289 -0.304374 -0.056469
v 0.135289 -0.304374 -0.170345
v 0.135289 -0.304374 -0.772086
v 0.101457 -0.304374 -0.772086
v 0.067626 -0.304374 -0.772086
v -0.067642 -0.304374 -0.772086
v -0.100028 -0.304374 -0.772086
v -0.135303 -0.304374 -0.772086
v -0.135303 -0.304374 -0.169239
v -0.067642 -0.304373 -0.056469
v -0.067642 -0.304373 -0.169154
v -0.101473 -0.304373 -0.169154
vt 0.749393 0.497052
vt 0.749393 0.509459
vt 0.704705 0.509458
vt 0.704706 0.496422
vt 0.704709 0.106470
vt 0.704709 0.147785
vt 0.660011 0.147785
vt 0.660011 0.106470
vt 0.749396 0.065293
vt 0.749396 0.147785
vt 0.528495 0.017087
vt 0.540901 0.017087
vt 0.540825 0.061784
vt 0.528495 0.061785
vt 0.528497 0.147785
vt 0.528497 0.189110
vt 0.516089 0.189110
vt 0.516089 0.147718
vt 0.848631 0.065123
vt 0.836224 0.065215
vt 0.836139 0.023960
vt 0.848543 0.022670
vt 0.823817 0.065228
vt 0.774210 0.065279
vt 0.774125 0.024089
vt 0.823731 0.023986
vt 0.141291 0.880906
vt 0.141291 0.836533
vt 0.153611 0.836533
vt 0.153611 0.880905
vt 0.194646 0.836533
vt 0.206966 0.836533
vt 0.206966 0.880905
vt 0.194646 0.880905
vt 0.137770 0.827906
vt 0.125450 0.827906
vt 0.125450 0.694776
vt 0.137770 0.694776
vt 0.084415 0.694776
vt 0.084415 0.827906
vt 0.072096 0.694776
vt 0.072095 0.827906
vt 0.848631 0.410239
vt 0.848631 0.189222
vt 0.893318 0.189206
vt 0.893318 0.410255
vt 0.602917 0.189110
vt 0.615324 0.189546
vt 0.615324 0.410222
vt 0.602917 0.410224
vt 0.602917 0.147785
vt 0.590510 0.147785
vt 0.590510 0.106470
vt 0.602917 0.106470
vt 0.540904 0.147785
vt 0.528497 0.147785
vt 0.528496 0.106471
vt 0.540751 0.106471
vt 0.487182 0.061785
vt 0.590508 0.017085
vt 0.603855 0.017085
vt 0.603380 0.061782
vt 0.590509 0.061783
vt 0.761803 0.065292
vt 0.760778 0.024116
vt 0.615324 0.147785
vt 0.704709 0.189546
vt 0.660011 0.189546
vt 0.749396 0.189546
vt 0.749396 0.410224
vt 0.704709 0.410223
vt 0.615324 0.106470
vt 0.615322 0.017084
vt 0.615323 0.061782
vt 0.749311 0.024140
vt 0.660011 0.410222
vt 0.660008 0.509456
vt 0.660008 0.496519
vt 0.938016 0.189173
vt 0.938016 0.410255
vt 0.516089 0.107735
vt 0.528497 0.106470
vt 0.540904 0.189110
vt 0.590510 0.189110
vt 0.590510 0.410224
vt 0.540904 0.410224
vt 0.749396 0.422632
vt 0.749395 0.435039
vt 0.704708 0.435037
vt 0.704709 0.422630
vt 0.660011 0.435035
vt 0.660011 0.422628
vt 0.704706 0.484644
vt 0.660009 0.484642
vt 0.749393 0.484645
vt 0.516089 0.410224
vt 0.528930 0.410224
vt 0.893318 0.147547
vt 0.938016 0.147750
vt 0.893318 0.107767
vt 0.848631 0.147262
vt 0.823817 0.189110
vt 0.774210 0.189110
vt 0.774210 0.147785
vt 0.823817 0.147785
vt 0.774210 0.410223
vt 0.761803 0.410223
vt 0.761803 0.189110
vt 0.248001 0.880905
vt 0.836224 0.189110
vt 0.836224 0.410223
vt 0.823817 0.410224
vt 0.836224 0.147785
vt 0.761803 0.147785
vt 0.487182 0.106471
vt 0.615324 0.422627
vt 0.615324 0.435034
vt 0.615322 0.484641
vt 0.615321 0.496614
vt 0.615321 0.509455
vt 0.982703 0.189141
vt 0.982703 0.410255
vt 0.153611 0.969663
vt 0.141291 0.969663
vt 0.194647 0.969663
vt 0.206968 0.969662
vt 0.248003 0.969662
vt 0.031061 0.694776
vt 0.031060 0.827906
vn 0.000028 -0.000004 -1.000000
vn 0.000028 -0.000004 -1.000000
vn 0.000028 -0.000004 -1.000000
vn 0.000028 -0.000004 -1.000000
vn 1.000000 0.000000 0.000000
vn 1.000000 0.000000 0.000000
vn 1.000000 0.000000 0.000000
vn 1.000000 0.000000 0.000000
vn 1.000000 0.000000 0.000000
vn 1.000000 0.000000 0.000000
vn 1.000000 0.000000 0.000000
vn 1.000000 0.000000 0.000000
vn 0.000000 0.000000 1.000000
vn 0.000000 0.000000 1.000000
vn 0.000000 0.000000 1.000000
vn 0.000000 0.000000 1.000000
vn 0.001962 0.679243 0.733910
vn 0.001962 0.679243 0.733910
vn 0.001962 0.679243 0.733910
vn 0.001962 0.679243 0.733911
vn -0.029206 0.684193 0.728716
vn -0.029206 0.684193 0.728716
vn -0.029206 0.684193 0.728716
vn -0.029206 0.684193 0.728716
vn 0.000000 0.677750 0.735292
vn 0.000000 0.677750 0.735292
vn 0.000000 0.677750 0.735292
vn 0.000000 0.677750 0.735292
vn 0.000028 0.000000 -1.000000
vn 0.000027 0.000000 -1.000000
vn 0.000027 0.000000 -1.000000
vn 0.000028 0.000000 -1.000000
vn 0.000000 0.000000 1.000000
vn 0.000000 0.000000 1.000000
vn 0.000000 0.000000 1.000000
vn 0.000000 0.000000 1.000000
vn -1.000000 0.000000 0.000000
vn -1.000000 0.000000 0.000000
vn -1.000000 0.000000 0.000000
vn -1.000000 0.000000 0.000000
vn 0.000000 0.000000 -1.000000
vn 0.000000 0.000000 -1.000000
vn 0.000000 0.000000 -1.000000
vn 0.000000 0.000000 -1.000000
vn 1.000000 0.000000 0.000000
vn 1.000000 0.000000 0.000000
vn 1.000000 0.000000 0.000000
vn 1.000000 0.000000 0.000000
vn 0.000000 0.000000 1.000000
vn 0.000000 0.000000 1.000000
vn 0.000000 0.000000 1.000000
vn 0.000000 0.000000 1.000000
vn -1.000000 0.000000 0.000000
vn -1.000000 0.000000 0.000000
vn -1.000000 0.000000 0.000000
vn -1.000000 0.000000 0.000000
vn 0.000000 1.000000 0.000000
vn 0.000000 1.000000 0.000000
vn 0.000000 1.000000 0.000000
vn 0.000000 1.000000 0.000000
vn 0.000000 1.000000 0.000000
vn 0.000000 1.000000 0.000000
vn 0.000000 1.000000 0.000000
vn 0.000000 1.000000 0.000000
vn 0.000000 1.000000 0.000000
vn 0.000000 1.000000 0.000000
vn 0.000000 1.000000 0.000000
vn 0.000000 1.000000 0.000000
vn -1.000000 0.000000 0.000000
vn -1.000000 0.000000 0.000000
vn -1.000000 0.000000 0.000000
vn 0.000000 0.000000 1.000000
vn 0.000000 0.000000 1.000000
vn 0.000000 0.000000 1.000000
vn 0.000000 0.000000 1.000000
vn 0.000000 0.677750 0.735292
vn 0.000000 0.677750 0.735292
vn 0.000000 0.677750 0.735292
vn 0.000000 0.677750 0.735292
vn 0.000000 1.000000 0.000000
vn 0.000000 1.000000 0.000000
vn 0.000000 1.000000 0.000000
vn 0.000000 1.000000 0.000000
vn 1.000000 0.000000 0.000000
vn 1.000000 0.000000 0.000000
vn 1.000000 0.000000 0.000000
vn 1.000000 0.000000 0.000000
vn 1.000000 0.000000 0.000000
vn 1.000000 0.000000 0.000000
vn 1.000000 0.000000 0.000000
vn 1.000000 0.000000 0.000000
vn 0.000000 1.000000 0.000000
vn 0.000000 1.000000 0.000000
vn 0.000000 1.000000 0.000000
vn 0.000000 1.000000 0.000000
vn 0.000000 0.000000 1.000000
vn 0.000000 0.000000 1.000000
vn 0.000000 0.000000 1.000000
vn 0.000000 0.000000 1.000000
vn 0.000000 0.677750 0.735292
vn 0.000000 0.677750 0.735292
vn 0.000000 0.677750 0.735292
vn 0.000000 0.677750 0.735292
vn 1.000000 0.000000 0.000000
vn 1.000000 0.000000 0.000000
vn 1.000000 0.000000 0.000000
vn 1.000000 0.000000 0.000000
vn 0.000000 0.000000 -1.000000
vn 0.000000 0.000000 -1.000000
vn 0.000000 0.000000 -1.000000
vn 0.000000 0.000000 -1.000000
vn -1.000000 0.000000 0.000000
vn -1.000000 0.000000 0.000000
vn -1.000000 0.000000 0.000000
vn -1.000000 0.000000 0.000000
vn -0.035675 0.672373 0.739352
vn -0.035675 0.672373 0.739352
vn -0.035675 0.672373 0.739352
vn -0.035675 0.672373 0.739352
vn 0.000000 0.677750 0.735292
vn 0.000000 0.677750 0.735292
vn 0.000000 0.677750 0.735292
vn 0.000000 0.677750 0.735292
vn 0.000000 1.000000 0.000000
vn 0.000000 1.000000 0.000000
vn 0.000000 1.000000 0.000000
vn 0.000000 1.000000 0.000000
vn 0.000000 1.000000 0.000000
vn 0.000000 1.000000 0.000000
vn 0.000000 1.000000 0.000000
vn 0.000000 1.000000 0.000000
vn -0.000014 -0.000006 -1.000000
vn 0.000000 -0.000002 -1.000000
vn 0.000000 -0.000002 -1.000000
vn -0.000014 -0.000006 -1.000000
vn 0.000000 0.000000 -1.000000
vn -0.000006 -0.000003 -1.000000
vn -0.000003 -0.000002 -1.000000
vn 0.000000 0.000000 -1.000000
vn 0.000030 -0.000004 -1.000000
vn 0.000030 -0.000004 -1.000000
vn 0.000015 -0.000002 -1.000000
vn 0.000015 -0.000002 -1.000000
vn 0.000000 0.000000 -1.000000
vn 0.000000 0.000000 -1.000000
vn 0.000000 0.000000 -1.000000
vn 0.000000 0.000000 -1.000000
vn 0.000000 1.000000 0.000000
vn 0.000000 1.000000 0.000000
vn 0.000000 1.000000 0.000000
vn 0.000000 1.000000 0.000000
vn 0.000000 1.000000 0.000000
vn 0.000000 1.000000 0.000000
vn 0.000000 1.000000 0.000000
vn 0.000000 1.000000 0.000000
vn 0.000000 1.000000 0.000000
vn 0.000000 1.000000 0.000000
vn 0.000000 1.000000 0.000000
vn 0.000000 1.000000 0.000000
vn 0.000000 1.000000 0.000000
vn 0.000000 1.000000 0.000000
vn 0.000000 1.000000 0.000000
vn 0.000000 1.000000 0.000000
vn 0.000000 0.000000 1.000000
vn 0.000000 0.000000 1.000000
vn 0.000000 0.000000 1.000000
vn 0.000000 0.000000 1.000000
vn -1.000000 0.000000 0.000000
vn -1.000000 0.000000 0.000000
vn -1.000000 0.000000 0.000000
vn -1.000000 0.000000 0.000000
vn -1.000000 0.000000 0.000000
vn -1.000000 0.000000 0.000000
vn -1.000000 0.000000 0.000000
vn -1.000000 0.000000 0.000000
vn -1.000000 0.000000 0.000000
vn -1.000000 0.000000 0.000000
vn -1.000000 0.000000 0.000000
vn -0.000029 -0.000004 -1.000000
vn -0.000029 -0.000004 -1.000000
vn -0.000014 -0.000006 -1.000000
vn -0.000014 -0.000006 -1.000000
vn 0.000000 0.000000 -1.000000
vn 0.000000 0.000000 -1.000000
vn 0.000000 0.000000 -1.000000
vn 0.000000 0.000000 -1.000000
vn -0.000006 -0.000003 -1.000000
vn -0.000007 -0.000004 -1.000000
vn -0.000004 -0.000002 -1.000000
vn -0.000003 -0.000002 -1.000000
vn 0.000000 -0.000002 -1.000000
vn 0.000000 0.000000 -1.000000
vn 0.000000 0.000000 -1.000000
vn 0.000000 -0.000002 -1.000000
vn 0.000000 -1.000000 0.000000
vn 0.000000 -1.000000 0.000000
vn 0.000000 -1.000000 0.000000
vn 0.000000 -1.000000 0.000000
vn 0.000000 -1.000000 0.000000
vn 0.000000 -1.000000 0.000000
vn 0.000000 -1.000000 0.000000
vn 0.000000 -1.000000 0.000000
vn 1.000000 0.000000 0.000000
vn 1.000000 0.000000 0.000000
vn 1.000000 0.000000 0.000000
vn 0.000000 -1.000000 0.000000
vn 0.000000 -1.000000 0.000000
vn 0.000000 -1.000000 0.000000
vn 0.000000 -1.000000 0.000000
vn 0.000000 -1.000000 0.000000
vn 0.000000 -1.000000 0.000000
vn 0.000000 -1.000000 0.000000
vn 0.000000 -1.000000 0.000000
vn 0.000000 -1.000000 0.000000
vn 0.000000 -1.000000 0.000000
vn 0.000000 -1.000000 0.000000
vn 0.000000 -1.000000 0.000000
vn 0.000000 -1.000000 0.000000
vn 0.000000 -1.000000 0.000000
vn 0.000000 -1.000000 0.000000
vn 0.000000 -1.000000 0.000000
vn 0.000000 -1.000000 0.000000
vn 0.000000 -1.000000 0.000000
vn 0.000000 -1.000000 0.000000
vn 0.000000 -1.000000 0.000000
vn 0.000000 -1.000000 0.000000
vn 0.000000 -1.000000 0.000000
vn 0.000000 -1.000000 0.000000
vn 0.000000 -1.000000 0.000000
vn 0.000000 -1.000000 0.000000
vn 0.000000 -1.000000 0.000000
vn 0.000000 -1.000000 0.000000
vn 0.000000 -1.000000 0.000000
vn 0.000000 -1.000000 0.000000
vn 0.000000 -1.000000 0.000000
vn 0.000000 -1.000000 0.000000
vn 0.000000 -1.000000 0.000000
vn 0.000000 -1.000000 0.000000
vn 0.000000 -1.000000 0.000000
vn 0.000000 -1.000000 0.000000
vn 0.000000 -1.000000 0.000000
vn 0.000000 -1.000000 0.000000
vn 0.000000 -1.000000 0.000000
vn 0.000000 -1.000000 0.000000
vn 0.000000 -1.000000 0.000000
vn 0.000000 -1.000000 0.000000
vn 0.000000 -1.000000 0.000000
vn 0.000000 -1.000000 0.000000
vn 0.000000 -1.000000 0.000000
vn -1.000000 0.000000 0.000000
vn -1.000000 0.000000 0.000000
vn -1.000000 0.000000 0.000000
vn -1.000000 0.000000 0.000000
vn 0.000000 0.000000 1.000000
vn 0.000000 0.000000 1.000000
vn 0.000000 0.000000 1.000000
vn 0.000000 0.000000 1.000000
vn 0.000000 0.000000 1.000000
vn 0.000000 0.000000 1.000000
vn 0.000000 0.000000 1.000000
vn 0.000000 0.000000 1.000000
vn 0.000000 0.000000 1.000000
vn 0.000000 0.000000 1.000000
vn 0.000000 0.000000 1.000000
vn 0.000000 0.000000 1.000000
vn 0.000000 0.000000 1.000000
vn 0.000000 0.000000 1.000000
vn 0.000000 0.000000 1.000000
vn 0.000000 0.000000 1.000000
vn 1.000000 0.000000 0.000000
vn 1.000000 0.000000 0.000000
vn 1.000000 0.000000 0.000000
vn 1.000000 0.000000 0.000000
vn 1.000000 0.000000 0.000000
vn 1.000000 0.000000 0.000000
vn 1.000000 0.000000 0.000000
vn 1.000000 0.000000 0.000000
vn 1.000000 0.000000 0.000000
vn 1.000000 0.000000 0.000000
vn 1.000000 0.000000 0.000000
vn 1.000000 0.000000 0.000000
vn 0.000000 0.000000 -1.000000
vn 0.000000 0.000000 -1.000000
vn 0.000000 0.000000 -1.000000
vn 0.000000 0.000000 -1.000000
vn -0.000003 -0.000002 -1.000000
vn 0.000000 0.000000 -1.000000
vn 0.000000 0.000000 -1.000000
vn 0.000000 0.000000 -1.000000
vn -0.000004 -0.000002 -1.000000
vn 0.000000 0.000000 -1.000000
vn 0.000000 0.000000 -1.000000
vn -0.000003 -0.000002 -1.000000
vn 0.000015 -0.000002 -1.000000
vn 0.000000 0.000000 -1.000000
vn 0.000000 0.000000 -1.000000
vn 0.000015 -0.000002 -1.000000
vn 0.000000 0.000000 -1.000000
vn 0.000000 0.000000 -1.000000
vn 0.000000 0.000000 -1.000000
vn 0.000000 0.000000 -1.000000
vn -1.000000 0.000000 0.000000
vn -1.000000 0.000000 0.000000
vn -1.000000 0.000000 0.000000
vn -1.000000 0.000000 0.000000
vn -1.000000 0.000000 0.000000
vn -1.000000 0.000000 0.000000
vn -1.000000 0.000000 0.000000
vn 0.000029 0.000000 -1.000000
vn 0.000029 0.000000 -1.000000
vn 0.000028 0.000000 -1.000000
vn 0.000028 0.000000 -1.000000
vn -1.000000 0.000000 0.000000
vn -1.000000 0.000000 0.000000
vn -1.000000 0.000000 0.000000
vn -1.000000 0.000000 0.000000
vn 0.000000 0.000000 1.000000
vn 0.000000 0.000000 1.000000
vn 0.000000 0.000000 1.000000
vn 0.000000 0.000000 1.000000
vn -1.000000 0.000000 0.000000
vn -1.000000 0.000000 0.000000
vn -1.000000 0.000000 0.000000
vn -1.000000 0.000000 0.000000
vn 1.000000 0.000000 0.000000
vn 1.000000 0.000000 0.000000
vn 1.000000 0.000000 0.000000
vn 1.000000 0.000000 0.000000
vn 1.000000 0.000000 0.000000
vn 1.000000 0.000000 0.000000
vn 1.000000 0.000000 0.000000
vn 1.000000 0.000000 0.000000
vn -1.000000 0.000000 0.000000
vn -1.000000 0.000000 0.000000
vn -1.000000 0.000000 0.000000
vn -1.000000 0.000000 0.000000
s off
g initialShadingGroup Sunmao_011_C
f 134/132/337 84/133/338 126/134/339 135/135/340
f 86/136/341 118/137/342 151/138/343 150/139/344
f 86/136/345 88/140/346 119/141/347 118/137/348
f 89/142/349 128/143/350 147/144/351 146/145/352
f 91/146/353 94/147/354 93/148/355 92/149/356
f 96/150/357 97/151/358 89/152/359 95/153/360
f 127/154/361 98/155/362 116/156/363 128/157/364
f 91/158/365 102/159/366 101/160/367 160/161/368
f 105/162/369 94/163/370 162/164/371 161/165/372
f 101/160/373 105/162/374 161/165/375 160/161/376
f 107/166/377 110/167/378 109/168/379 108/169/380
f 111/170/381 109/168/382 110/167/383 112/171/384
f 113/172/385 111/170/386 112/171/387 114/173/388
f 84/174/389 141/175/390 140/176/391 126/177/392
f 113/178/393 120/179/394 82/180/395 130/181/396
f 108/182/397 109/183/398 115/184/399 123/185/400
f 101/186/401 102/187/402 90/188/403 139/189/404
f 89/142/405 146/145/406 91/190/407
f 116/191/408 124/192/409 149/193/410 148/194/411
f 98/155/412 99/195/413 124/196/414 116/156/415
f 108/182/416 117/197/417 120/179/418 113/178/419
f 118/137/420 121/198/421 152/199/422 151/138/423
f 121/198/424 122/200/425 85/201/426 125/202/427
f 108/182/428 123/185/429 87/203/430 117/197/431
f 124/192/432 86/204/433 150/205/434 149/193/435
f 99/195/436 88/140/437 86/206/438 124/196/439
f 121/198/440 125/202/441 153/207/442 152/199/443
f 135/135/444 126/134/445 158/208/446 157/209/447
f 126/177/448 140/176/449 159/210/450 158/211/451
f 95/212/452 89/213/453 91/146/454 92/149/455
f 97/151/456 127/154/457 128/157/458 89/152/459
f 105/214/460 111/215/461 129/216/462 137/217/463
f 113/178/464 130/181/465 129/216/466 111/215/467
f 132/218/468 133/219/469 145/220/470 144/221/471
f 144/221/472 145/220/473 155/222/474 154/223/475
f 138/224/476 135/135/477 157/209/478 156/225/479
f 131/226/480 134/132/481 135/135/482 138/224/483
f 83/227/484 93/148/485 94/147/486 136/228/487
f 94/147/488 105/214/489 137/217/490 136/228/491
f 101/186/492 109/183/493 111/215/494 105/214/495
f 101/186/496 139/189/497 115/184/498 109/183/499
f 128/143/500 116/191/501 148/194/502 147/144/503
f 140/176/504 142/229/505 92/230/506 159/210/507
f 142/229/508 95/231/509 92/230/510
f 143/232/511 96/150/512 95/231/513 142/229/514
f 125/202/515 85/201/516 132/218/517 144/221/518
f 153/207/519 125/202/520 144/221/521 154/223/522
f 145/220/523 138/224/524 156/225/525 155/222/526
f 133/219/527 131/226/528 138/224/529 145/220/530
f 106/233/531 112/234/532 110/235/533 100/236/534
f 112/234/535 133/237/536 132/238/537 114/239/538
f 162/164/539 94/163/540 91/240/541
f 104/241/542 134/242/543 131/243/544 106/233/545
f 112/234/546 106/233/547 131/243/548 133/237/549
f 100/236/550 127/154/551 97/151/552 103/244/553
f 107/245/554 99/195/555 98/155/556 110/235/557
f 110/235/558 98/155/559 127/154/560 100/236/561
f 119/141/562 88/140/563 99/195/564 107/245/565
f 103/244/566 97/151/567 96/150/568 143/232/569
f 122/200/570 114/239/571 132/238/572 85/201/573
f 134/242/574 104/241/575 141/175/576 84/174/577
f 107/245/578 114/239/579 122/200/580 119/141/581
f 104/241/582 103/244/583 143/232/584 141/175/585
f 146/145/586 90/188/587 102/246/588 91/190/589
f 147/144/590 139/189/591 90/188/592 146/145/593
f 148/194/594 115/184/595 139/189/596 147/144/597
f 149/193/598 123/185/599 115/184/600 148/194/601
f 150/205/602 87/203/603 123/185/604 149/193/605
f 151/138/606 117/197/607 87/203/608 150/139/609
f 152/199/610 120/179/611 117/197/612 151/138/613
f 153/207/614 82/180/615 120/179/616 152/199/617
f 82/180/618 153/207/619 154/223/620 130/247/621
f 155/222/622 129/248/623 130/247/624 154/223/625
f 156/225/626 137/249/627 129/248/628 155/222/629
f 157/209/630 136/250/631 137/249/632 156/225/633
f 158/208/634 83/251/635 136/250/636 157/209/637
f 159/210/638 93/252/639 83/253/640 158/211/641
f 92/230/642 93/252/643 159/210/644
f 100/254/645 103/255/646 91/158/647 160/161/648
f 161/165/649 106/256/650 100/254/651 160/161/652
f 162/164/653 104/257/654 106/256/655 161/165/656
f 140/176/657 141/175/658 143/232/659 142/229/660
f 118/137/661 119/141/662 122/200/663 121/198/664
f 103/258/665 104/257/666 162/164/667 91/240/668
f 108/259/669 113/172/670 114/173/671 107/260/672
g default
v -0.135276 -0.182522 -0.168859
v 0.135289 -0.182522 -0.168859
v -0.135276 -0.548093 0.169142
v 0.135289 -0.548093 0.169142
v 0.101468 -0.548093 0.169142
v 0.101468 -0.182522 -0.168859
v 0.067647 -0.548093 0.169142
v 0.067647 -0.182522 -0.168859
v -0.067635 -0.548093 0.169142
v -0.067635 -0.182522 -0.168859
v -0.101456 -0.548093 0.169142
v -0.101456 -0.182522 -0.168859
v 0.135289 -0.182522 0.169142
v 0.101468 -0.182522 0.169142
v 0.067647 -0.182522 0.169142
v -0.067635 -0.182522 0.169142
v -0.101456 -0.182522 0.169142
v -0.135276 -0.182522 0.169142
v 0.135289 -0.182522 -0.112525
v -0.101456 -0.243451 -0.112525
v -0.135276 -0.243451 -0.112525
v -0.135276 -0.182522 -0.112525
v 0.135289 -0.182522 -0.056191
v -0.101456 -0.304379 -0.056191
v -0.135276 -0.304379 -0.056191
v -0.135276 -0.182522 -0.056191
v 0.135289 -0.182522 0.000142
v -0.101456 -0.365308 0.000142
v -0.135276 -0.365308 0.000142
v -0.135276 -0.182522 0.000142
v 0.135289 -0.182522 0.056475
v 0.135289 -0.426236 0.056475
v 0.101468 -0.426236 0.056475
v 0.067647 -0.426236 0.056475
v -0.067635 -0.426236 0.056475
v -0.101456 -0.426236 0.056475
v -0.135276 -0.426236 0.056475
v -0.135276 -0.182522 0.056475
v 0.135289 -0.182522 0.112809
v 0.135289 -0.487165 0.112809
v 0.101468 -0.487165 0.112809
v 0.067647 -0.487165 0.112809
v -0.067635 -0.487165 0.112809
v -0.101456 -0.487165 0.112809
v -0.135276 -0.487165 0.112809
v -0.135276 -0.182522 0.112809
v 0.101468 -0.182522 0.056475
v 0.101468 -0.182522 -0.112525
v 0.101468 -0.182522 -0.056191
v 0.101468 -0.182522 0.000142
v 0.067647 -0.182522 0.056475
v 0.067647 -0.182522 -0.112525
v 0.067647 -0.182522 -0.056191
v 0.067647 -0.182522 0.000142
v -0.067635 -0.182522 0.056475
v -0.067635 -0.182522 -0.112525
v -0.067635 -0.182522 -0.056191
v -0.067635 -0.182522 0.000142
v -0.101456 -0.182524 0.056475
v -0.101456 -0.182522 -0.112525
v -0.101456 -0.182522 -0.056191
v -0.101456 -0.182524 0.000142
v 0.101468 -0.548093 -0.168859
v 0.101468 -0.548093 -0.112525
v 0.067647 -0.548093 -0.168859
v 0.067647 -0.548093 -0.112525
v 0.101468 -0.548093 -0.056191
v 0.067647 -0.548093 -0.056191
v -0.067635 -0.548093 -0.168859
v -0.067635 -0.548093 -0.112525
v -0.101456 -0.548093 -0.168859
v -0.101456 -0.548093 -0.112525
v -0.067635 -0.548093 -0.056191
v -0.101456 -0.548093 -0.056191
v 0.135289 0.182530 0.169142
v -0.135276 0.182530 0.169142
v 0.135289 0.548102 -0.168859
v -0.135276 0.548102 -0.168859
v -0.101456 0.548102 -0.168859
v -0.101456 0.182530 0.169142
v -0.067635 0.548102 -0.168859
v -0.067635 0.182530 0.169142
v 0.067647 0.548102 -0.168859
v 0.067647 0.182530 0.169142
v 0.101468 0.548102 -0.168859
v 0.101468 0.182530 0.169142
v -0.135276 0.182530 -0.168859
v -0.101456 0.182530 -0.168859
v -0.067635 0.182530 -0.168859
v 0.067647 0.182530 -0.168859
v 0.101468 0.182530 -0.168859
v 0.135289 0.182530 -0.168859
v -0.135276 0.182530 0.112809
v 0.101468 0.243458 0.112809
v 0.135289 0.243458 0.112809
v 0.135289 0.182530 0.112809
v -0.135276 0.182530 0.056475
v 0.101468 0.304388 0.056475
v 0.135289 0.304388 0.056475
v 0.135289 0.182530 0.056475
v -0.135276 0.182530 0.000142
v 0.101468 0.365316 0.000142
v 0.135289 0.365316 0.000142
v 0.135289 0.182530 0.000142
v -0.135276 0.182530 -0.056191
v -0.135276 0.426244 -0.056191
v -0.101456 0.426244 -0.056191
v -0.067635 0.426244 -0.056191
v 0.067647 0.426244 -0.056191
v 0.101468 0.426244 -0.056191
v 0.135289 0.426244 -0.056191
v 0.135289 0.182530 -0.056191
v -0.135276 0.182530 -0.112525
v -0.135276 0.487172 -0.112525
v -0.101456 0.487172 -0.112525
v -0.067635 0.487172 -0.112525
v 0.067647 0.487172 -0.112525
v 0.101468 0.487172 -0.112525
v 0.135289 0.487172 -0.112525
v 0.135289 0.182530 -0.112525
v -0.101456 0.182530 -0.056191
v -0.101456 0.182530 0.112809
v -0.101456 0.182530 0.056475
v -0.101456 0.182530 0.000142
v -0.067635 0.182530 -0.056191
v -0.067635 0.182530 0.112809
v -0.067635 0.182530 0.056475
v -0.067635 0.182530 0.000142
v 0.067647 0.182530 -0.056191
v 0.067647 0.182530 0.112809
v 0.067647 0.182530 0.056475
v 0.067647 0.182530 0.000142
v 0.101468 0.182530 -0.056191
v 0.101468 0.182530 0.112809
v 0.101468 0.182530 0.056475
v 0.101468 0.182530 0.000142
v -0.101456 0.548102 0.169142
v -0.101456 0.548102 0.112809
v -0.067635 0.548102 0.169142
v -0.067635 0.548102 0.112809
v -0.101456 0.548102 0.056475
v -0.067635 0.548102 0.056475
v 0.067647 0.548102 0.169142
v 0.067647 0.548102 0.112809
v 0.101468 0.548101 0.169142
v 0.101468 0.548102 0.112809
v 0.067647 0.548102 0.056475
v 0.101468 0.548102 0.056475
vt 0.923514 0.531925
vt 0.923514 0.509458
vt 0.935985 0.509458
vt 0.935985 0.531925
vt 0.836218 0.531925
vt 0.836218 0.509458
vt 0.848688 0.509458
vt 0.848688 0.531925
vt 0.861159 0.509458
vt 0.861159 0.531925
vt 0.911043 0.509458
vt 0.911043 0.531925
vt 0.732356 0.644258
vt 0.711583 0.644258
vt 0.711583 0.509458
vt 0.732356 0.531925
vt 0.699112 0.644258
vt 0.699112 0.509458
vt 0.686641 0.644258
vt 0.686641 0.509458
vt 0.636758 0.644258
vt 0.636758 0.509458
vt 0.624287 0.644258
vt 0.624287 0.509458
vt 0.611816 0.644258
vt 0.611816 0.509458
vt 0.591043 0.531925
vt 0.591043 0.644258
vt 0.935985 0.644258
vt 0.923514 0.644258
vt 0.923514 0.621791
vt 0.935985 0.621791
vt 0.487182 0.644258
vt 0.507954 0.621791
vt 0.507954 0.644258
vt 0.923514 0.599325
vt 0.935985 0.599325
vt 0.528727 0.599325
vt 0.528727 0.644258
vt 0.923514 0.576858
vt 0.935985 0.576858
vt 0.549499 0.576858
vt 0.549499 0.644258
vt 0.923514 0.554391
vt 0.935985 0.554391
vt 0.570271 0.554391
vt 0.570271 0.644258
vt 0.753128 0.644258
vt 0.753128 0.554391
vt 0.836218 0.554391
vt 0.848688 0.554391
vt 0.861159 0.554391
vt 0.911043 0.554391
vt 0.848688 0.644258
vt 0.836217 0.644258
vt 0.815445 0.644257
vt 0.815444 0.631786
vt 0.836217 0.631785
vt 0.836217 0.644257
vt 0.794672 0.644258
vt 0.794672 0.631786
vt 0.773900 0.644258
vt 0.773900 0.631787
vt 0.753128 0.631787
vt 0.861159 0.644258
vt 0.347665 0.837483
vt 0.347665 0.825168
vt 0.368179 0.825168
vt 0.368179 0.837484
vt 0.327150 0.837483
vt 0.327150 0.825167
vt 0.773900 0.619316
vt 0.794672 0.619315
vt 0.753127 0.619316
vt 0.815444 0.619315
vt 0.815443 0.569431
vt 0.836216 0.569431
vt 0.836217 0.619315
vt 0.794671 0.569432
vt 0.773898 0.569432
vt 0.753126 0.569432
vt 0.911043 0.644258
vt 0.923514 0.644258
vt 0.283663 0.819254
vt 0.283663 0.831570
vt 0.263148 0.831570
vt 0.263148 0.819254
vt 0.304177 0.819254
vt 0.304178 0.831570
vt 0.773898 0.556961
vt 0.794670 0.556961
vt 0.753126 0.556962
vt 0.836215 0.556961
vt 0.815443 0.556961
vt 0.815443 0.534494
vt 0.794670 0.512028
vt 0.773897 0.489562
vt 0.753125 0.467095
vt 0.347665 0.970609
vt 0.368179 0.970609
vt 0.261489 0.970609
vt 0.261489 0.837483
vt 0.273805 0.837483
vt 0.273805 0.970609
vt 0.294320 0.837483
vt 0.294320 0.970609
vt 0.327150 0.970609
vt 0.314834 0.837483
vt 0.314834 0.970609
vt 0.283664 0.686129
vt 0.263149 0.686129
vt 0.369839 0.686129
vt 0.369838 0.819254
vt 0.357522 0.819254
vt 0.357523 0.686129
vt 0.337008 0.819254
vt 0.337009 0.686129
vt 0.304178 0.686129
vt 0.316493 0.819254
vt 0.316494 0.686129
vt 0.711583 0.778867
vt 0.699112 0.778866
vt 0.848688 0.644258
vt 0.848688 0.778867
vt 0.836217 0.778867
vt 0.507954 0.778867
vt 0.487182 0.778867
vt 0.699112 0.891200
vt 0.711583 0.891200
vt 0.711583 0.913666
vt 0.699112 0.913666
vt 0.935985 0.778867
vt 0.923514 0.778867
vt 0.611816 0.891200
vt 0.624287 0.891200
vt 0.624287 0.913666
vt 0.611816 0.913666
vt 0.911043 0.778867
vt 0.911043 0.644258
vt 0.636757 0.891200
vt 0.636757 0.913666
vt 0.636757 0.778867
vt 0.624287 0.778867
vt 0.861159 0.778867
vt 0.861159 0.644258
vt 0.686641 0.891200
vt 0.686641 0.913666
vt 0.686641 0.778867
vt 0.507954 0.891200
vt 0.487182 0.913666
vt 0.935985 0.913666
vt 0.923514 0.913666
vt 0.911043 0.913666
vt 0.861159 0.913666
vt 0.848688 0.913666
vt 0.836217 0.913666
vt 0.815445 0.891200
vt 0.815445 0.778867
vt 0.711583 0.801333
vt 0.699112 0.801333
vt 0.732356 0.778867
vt 0.732356 0.801333
vt 0.711583 0.823800
vt 0.699112 0.823800
vt 0.753128 0.778867
vt 0.753128 0.823800
vt 0.570271 0.778866
vt 0.549499 0.778867
vt 0.711583 0.846267
vt 0.699112 0.846267
vt 0.773900 0.778867
vt 0.773900 0.846267
vt 0.528727 0.778867
vt 0.711583 0.868733
vt 0.699112 0.868733
vt 0.794672 0.778867
vt 0.794672 0.868733
vt 0.528727 0.868733
vt 0.611816 0.868733
vt 0.624287 0.868733
vt 0.636757 0.868733
vt 0.686641 0.868733
vt 0.611816 0.778867
vt 0.624287 0.778867
vt 0.591043 0.778865
vt 0.611816 0.778864
vt 0.611817 0.791333
vt 0.591044 0.791335
vt 0.570272 0.791336
vt 0.549500 0.791338
vt 0.528728 0.791340
vt 0.636757 0.778867
vt 0.037220 0.526611
vt 0.037216 0.506096
vt 0.049532 0.506094
vt 0.049537 0.526609
vt 0.037224 0.547125
vt 0.049542 0.547122
vt 0.570273 0.803807
vt 0.549501 0.803809
vt 0.528729 0.803810
vt 0.591045 0.803805
vt 0.611818 0.803804
vt 0.611822 0.853688
vt 0.591049 0.853689
vt 0.570277 0.853691
vt 0.549505 0.853692
vt 0.528733 0.853694
vt 0.686641 0.778867
vt 0.699112 0.778867
vt 0.174401 0.596748
vt 0.174403 0.617263
vt 0.162086 0.617264
vt 0.162086 0.596750
vt 0.174398 0.576234
vt 0.162087 0.576236
vt 0.570278 0.866161
vt 0.549506 0.866163
vt 0.528734 0.866165
vt 0.611822 0.866157
vt 0.591052 0.888626
vt 0.591050 0.866159
vt 0.570282 0.911094
vt 0.549512 0.933563
vt 0.528742 0.956032
vt 0.182644 0.473218
vt 0.182651 0.493732
vt 0.049526 0.493778
vt 0.049519 0.473264
vt 0.182656 0.506048
vt 0.182663 0.526562
vt 0.182637 0.452703
vt 0.049512 0.452750
vt 0.182670 0.547076
vt 0.182674 0.559392
vt 0.049549 0.559438
vt 0.028953 0.650071
vt 0.028956 0.629557
vt 0.162082 0.629581
vt 0.162078 0.650095
vt 0.028958 0.617241
vt 0.028962 0.596726
vt 0.028949 0.670586
vt 0.162075 0.670609
vt 0.028966 0.576212
vt 0.028947 0.682902
vt 0.162073 0.682925
vn 0.000000 -0.678874 -0.734255
vn 0.000000 -0.678874 -0.734255
vn 0.000000 -0.678874 -0.734255
vn 0.000000 -0.678874 -0.734255
vn 0.000000 -0.678878 -0.734251
vn 0.000000 -0.678879 -0.734251
vn 0.000000 -0.678878 -0.734251
vn 0.000000 -0.678878 -0.734251
vn 0.000000 -0.678878 -0.734251
vn 0.000000 -0.678878 -0.734251
vn 0.000000 -0.678879 -0.734251
vn 0.000000 -0.678878 -0.734251
vn 0.000000 -0.678878 -0.734251
vn 0.000000 -0.678879 -0.734251
vn 0.000000 -0.678879 -0.734251
vn 0.000000 -0.678878 -0.734251
vn 0.000000 -0.678878 -0.734251
vn 0.000000 -0.678879 -0.734251
vn 0.000000 -0.678878 -0.734251
vn 0.000000 -0.678878 -0.734251
vn 1.000000 0.000000 0.000000
vn 1.000000 0.000000 0.000000
vn 1.000000 0.000000 0.000000
vn 1.000000 0.000000 0.000000
vn 0.000000 0.000000 1.000000
vn 0.000000 0.000000 1.000000
vn 0.000000 0.000000 1.000000
vn 0.000000 0.000000 1.000000
vn 0.000000 0.000000 1.000000
vn 0.000000 0.000000 1.000000
vn 0.000000 0.000000 1.000000
vn 0.000000 0.000000 1.000000
vn 0.000000 0.000000 1.000000
vn 0.000000 0.000000 1.000000
vn 0.000000 0.000000 1.000000
vn 0.000000 0.000000 1.000000
vn 0.000000 0.000000 1.000000
vn 0.000000 0.000000 1.000000
vn 0.000000 0.000000 1.000000
vn 0.000000 0.000000 1.000000
vn 0.000000 0.000000 1.000000
vn 0.000000 0.000000 1.000000
vn 0.000000 0.000000 1.000000
vn 0.000000 0.000000 1.000000
vn -1.000000 0.000000 0.000000
vn -1.000000 0.000000 0.000000
vn -1.000000 0.000000 0.000000
vn -1.000000 0.000000 0.000000
vn 0.000000 -0.678876 -0.734253
vn 0.000000 -0.678876 -0.734253
vn 0.000000 -0.678880 -0.734249
vn 0.000000 -0.678880 -0.734249
vn -1.000000 0.000000 0.000000
vn -1.000000 0.000000 0.000000
vn -1.000000 0.000000 0.000000
vn 0.000000 -0.678880 -0.734249
vn 0.000000 -0.678878 -0.734251
vn 0.000000 -0.678878 -0.734251
vn 0.000000 -0.678880 -0.734249
vn -1.000000 0.000000 0.000000
vn -1.000000 0.000000 0.000000
vn -1.000000 0.000000 0.000000
vn -1.000000 0.000000 0.000000
vn 0.000000 -0.678878 -0.734251
vn 0.000000 -0.678875 -0.734254
vn 0.000000 -0.678875 -0.734254
vn 0.000000 -0.678878 -0.734251
vn -1.000000 0.000000 0.000000
vn -1.000000 0.000000 0.000000
vn -1.000000 0.000000 0.000000
vn -1.000000 0.000000 0.000000
vn 0.000000 -0.678875 -0.734254
vn 0.000000 -0.678878 -0.734251
vn 0.000000 -0.678878 -0.734251
vn 0.000000 -0.678875 -0.734254
vn -1.000000 0.000000 0.000000
vn -1.000000 0.000000 0.000000
vn -1.000000 0.000000 0.000000
vn -1.000000 0.000000 0.000000
vn 1.000000 0.000000 0.000000
vn 1.000000 0.000000 0.000000
vn 1.000000 0.000000 0.000000
vn 1.000000 0.000000 0.000000
vn 0.000000 -0.678878 -0.734251
vn 0.000000 -0.678878 -0.734251
vn 0.000000 -0.678878 -0.734251
vn 0.000000 -0.678878 -0.734251
vn 0.000000 -0.678878 -0.734251
vn 0.000000 -0.678878 -0.734251
vn 0.000000 -0.678878 -0.734251
vn 0.000000 -0.678878 -0.734251
vn 0.000000 -0.678878 -0.734251
vn 0.000000 -0.678878 -0.734251
vn 0.000000 -0.678878 -0.734251
vn 0.000000 -0.678878 -0.734251
vn 0.000000 -0.678878 -0.734251
vn 0.000000 -0.678878 -0.734251
vn 0.000000 -0.678878 -0.734251
vn 0.000000 -0.678878 -0.734251
vn 0.000000 -0.678878 -0.734251
vn 0.000000 -0.678878 -0.734251
vn 0.000000 -0.678878 -0.734251
vn 0.000000 -0.678878 -0.734251
vn -1.000000 0.000000 0.000000
vn -1.000000 0.000000 0.000000
vn -1.000000 0.000000 0.000000
vn -1.000000 0.000000 0.000000
vn 0.000000 0.000000 -1.000000
vn 0.000000 0.000000 -1.000000
vn 0.000000 0.000000 -1.000000
vn 0.000000 0.000000 -1.000000
vn 0.000000 -1.000000 0.000000
vn 0.000000 -1.000000 0.000000
vn 0.000000 -1.000000 0.000000
vn 0.000000 -1.000000 0.000000
vn 0.000000 -1.000000 0.000000
vn 0.000000 -1.000000 0.000000
vn 0.000000 -1.000000 0.000000
vn 0.000000 -1.000000 0.000000
vn 0.000000 -1.000000 0.000000
vn 0.000000 -1.000000 0.000000
vn 0.000000 -1.000000 0.000000
vn 0.000000 -1.000000 0.000000
vn 0.000001 -1.000000 0.000000
vn 0.000001 -1.000000 0.000000
vn 0.000001 -1.000000 0.000000
vn 0.000001 -1.000000 0.000000
vn 0.000000 0.000000 -1.000000
vn 0.000000 0.000000 -1.000000
vn 0.000000 0.000000 -1.000000
vn 0.000000 0.000000 -1.000000
vn 0.000000 -1.000000 0.000000
vn 0.000000 -1.000000 0.000000
vn 0.000000 -1.000000 0.000000
vn 0.000000 -1.000000 0.000000
vn 0.000000 -1.000000 0.000000
vn 0.000000 -1.000000 0.000000
vn 0.000000 -1.000000 0.000000
vn 0.000000 -1.000000 0.000000
vn 0.000000 -1.000000 0.000000
vn 0.000000 -1.000000 0.000000
vn 0.000000 -1.000000 0.000000
vn 0.000000 -1.000000 0.000000
vn 0.000000 -1.000000 0.000000
vn 0.000000 -1.000000 0.000000
vn 0.000000 -1.000000 0.000000
vn 0.000000 -1.000000 0.000000
vn 0.000000 -1.000000 0.000000
vn 0.000000 -1.000000 0.000000
vn 0.000000 -1.000000 0.000000
vn 0.000000 -1.000000 0.000000
vn 0.000000 -1.000000 0.000000
vn 0.000000 -1.000000 0.000000
vn 0.000000 -1.000000 0.000000
vn 0.000000 -1.000000 0.000000
vn 0.000000 -1.000000 0.000000
vn 0.000000 -1.000000 0.000000
vn 0.000000 -1.000000 0.000000
vn 0.000000 -1.000000 0.000000
vn 0.000000 -1.000000 0.000000
vn 0.000000 -1.000000 0.000000
vn 0.000000 -1.000000 0.000000
vn 0.000000 -1.000000 0.000000
vn 0.000000 0.000000 -1.000000
vn 0.000000 0.000000 -1.000000
vn 0.000000 0.000000 -1.000000
vn 0.000000 0.000000 -1.000000
vn 0.000000 0.000000 -1.000000
vn 0.000000 0.000000 -1.000000
vn 0.000000 0.000000 -1.000000
vn 0.000000 0.000000 -1.000000
vn -0.000011 -1.000000 -0.000002
vn -0.000011 -1.000000 -0.000002
vn -0.000011 -1.000000 -0.000002
vn -0.000011 -1.000000 -0.000002
vn -0.000004 -1.000000 -0.000002
vn -0.000004 -1.000000 -0.000002
vn -0.000004 -1.000000 -0.000002
vn -0.000004 -1.000000 -0.000002
vn 0.000004 -1.000000 -0.000003
vn 0.000004 -1.000000 -0.000003
vn 0.000004 -1.000000 -0.000003
vn 0.000004 -1.000000 -0.000003
vn 0.000011 -1.000000 -0.000001
vn 0.000011 -1.000000 -0.000001
vn 0.000011 -1.000000 -0.000001
vn 0.000011 -1.000000 -0.000001
vn 1.000000 0.000000 0.000000
vn 1.000000 0.000000 0.000000
vn 1.000000 0.000000 0.000000
vn 1.000000 0.000000 0.000000
vn 1.000000 0.000000 0.000000
vn 1.000000 0.000000 0.000000
vn 1.000000 0.000000 0.000000
vn 1.000000 0.000000 0.000000
vn 1.000000 0.000000 0.000000
vn 1.000000 0.000000 0.000000
vn 1.000000 0.000000 0.000000
vn 1.000000 0.000000 0.000000
vn 1.000000 0.000000 0.000000
vn 1.000000 0.000000 0.000000
vn 1.000000 0.000000 0.000000
vn 1.000000 0.000000 0.000000
vn 1.000000 0.000000 0.000000
vn 1.000000 0.000000 0.000000
vn 1.000000 0.000000 0.000000
vn 0.000000 0.000000 -1.000000
vn 0.000000 0.000000 -1.000000
vn 0.000000 0.000000 -1.000000
vn 0.000000 0.000000 -1.000000
vn -1.000000 0.000000 0.000000
vn -1.000000 0.000000 0.000000
vn -1.000000 0.000000 0.000000
vn -1.000000 0.000000 0.000000
vn 1.000000 0.000000 0.000000
vn 1.000000 0.000000 0.000000
vn 1.000000 0.000000 0.000000
vn 1.000000 0.000000 0.000000
vn -1.000000 0.000000 0.000000
vn -1.000000 0.000000 0.000000
vn -1.000000 0.000000 0.000000
vn -1.000000 0.000000 0.000000
vn 0.000000 0.000000 1.000000
vn 0.000000 0.000000 1.000000
vn 0.000000 0.000000 1.000000
vn 0.000000 0.000000 1.000000
vn 1.000000 0.000000 0.000000
vn 1.000000 0.000000 0.000000
vn 1.000000 0.000000 0.000000
vn 1.000000 0.000000 0.000000
vn 0.000008 0.000000 -1.000000
vn 0.000008 0.000000 -1.000000
vn 0.000008 0.000000 -1.000000
vn 0.000008 0.000000 -1.000000
vn -1.000000 0.000000 0.000000
vn -1.000000 0.000000 0.000000
vn -1.000000 0.000000 0.000000
vn -1.000000 0.000000 0.000000
vn 1.000000 0.000000 0.000000
vn 1.000000 0.000000 0.000000
vn 1.000000 0.000000 0.000000
vn 1.000000 0.000000 0.000000
vn -1.000000 0.000000 0.000000
vn -1.000000 0.000000 0.000000
vn -1.000000 0.000000 0.000000
vn -1.000000 0.000000 0.000000
vn 0.000000 0.000000 1.000000
vn 0.000000 0.000000 1.000000
vn 0.000000 0.000000 1.000000
vn 0.000000 0.000000 1.000000
vn 0.000000 0.000000 1.000000
vn 0.000000 0.000000 1.000000
vn 0.000000 0.000000 1.000000
vn 0.000000 0.000000 1.000000
vn 0.000000 0.000000 -1.000000
vn 0.000000 0.000000 -1.000000
vn 0.000000 0.000000 -1.000000
vn 0.000000 0.000000 -1.000000
vn -1.000000 0.000000 0.000000
vn -1.000000 0.000000 0.000000
vn -1.000000 0.000000 0.000000
vn -1.000000 0.000000 0.000000
vn 0.000000 0.678881 0.734249
vn 0.000000 0.678881 0.734248
vn 0.000000 0.678879 0.734251
vn 0.000000 0.678879 0.734250
vn 0.000008 0.000000 -1.000000
vn 0.000004 0.000000 -1.000000
vn -0.000000 0.000000 -1.000000
vn -0.000000 0.000000 -1.000000
vn 0.000000 0.678881 0.734248
vn 0.000000 0.678881 0.734248
vn 0.000000 0.678878 0.734251
vn 0.000000 0.678879 0.734251
vn -0.000000 0.000000 -1.000000
vn -0.000000 0.000000 -1.000000
vn -0.000001 0.000000 -1.000000
vn -0.000002 0.000000 -1.000000
vn 0.000000 0.678881 0.734248
vn 0.000000 0.678881 0.734248
vn 0.000000 0.678879 0.734251
vn 0.000000 0.678878 0.734251
vn 0.000000 0.000000 1.000000
vn 0.000000 0.000000 1.000000
vn 0.000000 0.000000 1.000000
vn 0.000000 0.000000 1.000000
vn -0.000002 0.000000 -1.000000
vn -0.000001 0.000000 -1.000000
vn 0.000000 0.000000 -1.000000
vn 0.000000 0.000000 -1.000000
vn 0.000000 0.678881 0.734248
vn 0.000000 0.678881 0.734248
vn 0.000000 0.678879 0.734250
vn 0.000000 0.678879 0.734251
vn 0.000000 0.000000 1.000000
vn 0.000000 0.000000 1.000000
vn 0.000000 0.000000 1.000000
vn 0.000000 0.000000 1.000000
vn 0.000000 0.000000 -1.000000
vn 0.000000 0.000000 -1.000000
vn 0.000000 0.000000 -1.000000
vn 0.000000 0.000000 -1.000000
vn 0.000000 0.678881 0.734248
vn 0.000000 0.678881 0.734249
vn 0.000000 0.678879 0.734250
vn 0.000000 0.678879 0.734250
vn 0.000000 0.000000 1.000000
vn 0.000000 0.000000 1.000000
vn 0.000000 0.000000 1.000000
vn 0.000000 0.000000 1.000000
vn -1.000000 0.000000 0.000000
vn -1.000000 0.000000 0.000000
vn -1.000000 0.000000 0.000000
vn -1.000000 0.000000 0.000000
vn 0.000000 0.000000 -1.000000
vn 0.000000 0.000000 -1.000000
vn -0.000000 0.000000 -1.000000
vn 0.000004 0.000000 -1.000000
vn -0.000001 0.000000 -1.000000
vn -0.000000 0.000000 -1.000000
vn 0.000000 0.000000 -1.000000
vn 0.000000 0.000000 -1.000000
vn 0.000000 0.000000 -1.000000
vn 0.000000 0.000000 -1.000000
vn 0.000000 0.000000 -1.000000
vn -0.000001 0.000000 -1.000000
vn 0.000000 0.000000 -1.000000
vn 0.000000 0.000000 -1.000000
vn 0.000000 0.000000 -1.000000
vn 0.000000 0.000000 -1.000000
vn 0.000000 0.000000 -1.000000
vn 0.000000 0.000000 -1.000000
vn 0.000000 0.000000 -1.000000
vn 0.000000 0.000000 -1.000000
vn 1.000000 0.000000 0.000000
vn 1.000000 0.000000 0.000000
vn 1.000000 0.000000 0.000000
vn 1.000000 0.000000 0.000000
vn -0.000005 0.678876 0.734253
vn -0.000003 0.678877 0.734252
vn -0.000003 0.678877 0.734252
vn -0.000005 0.678876 0.734253
vn 1.000000 0.000000 0.000000
vn 1.000000 0.000000 0.000000
vn 1.000000 0.000000 0.000000
vn 1.000000 0.000000 0.000000
vn 1.000000 0.000000 0.000000
vn 1.000000 0.000000 0.000000
vn 1.000000 0.000000 0.000000
vn -0.000003 0.678877 0.734252
vn -0.000003 0.678877 0.734252
vn 0.000000 0.678878 0.734251
vn 0.000000 0.678878 0.734251
vn 1.000000 0.000000 0.000000
vn 1.000000 0.000000 0.000000
vn 1.000000 0.000000 0.000000
vn 1.000000 0.000000 0.000000
vn 1.000000 0.000000 0.000000
vn 1.000000 0.000000 0.000000
vn 1.000000 0.000000 0.000000
vn 1.000000 0.000000 0.000000
vn -1.000000 0.000000 0.000000
vn -1.000000 0.000000 0.000000
vn -1.000000 0.000000 0.000000
vn -1.000000 0.000000 0.000000
vn 0.000000 0.678878 0.734251
vn 0.000000 0.678878 0.734251
vn 0.000000 0.678875 0.734254
vn 0.000000 0.678875 0.734254
vn 1.000000 0.000000 0.000000
vn 1.000000 0.000000 0.000000
vn 1.000000 0.000000 0.000000
vn 1.000000 0.000000 0.000000
vn 1.000000 0.000000 0.000000
vn 1.000000 0.000000 0.000000
vn 1.000000 0.000000 0.000000
vn 1.000000 0.000000 0.000000
vn -1.000000 0.000000 0.000000
vn -1.000000 0.000000 0.000000
vn -1.000000 0.000000 0.000000
vn -1.000000 0.000000 0.000000
vn 0.000000 0.678875 0.734254
vn 0.000000 0.678875 0.734254
vn 0.000000 0.678878 0.734251
vn 0.000000 0.678879 0.734250
vn 1.000000 0.000000 0.000000
vn 1.000000 0.000000 0.000000
vn 1.000000 0.000000 0.000000
vn 1.000000 0.000000 0.000000
vn 1.000000 0.000000 0.000000
vn 1.000000 0.000000 0.000000
vn 1.000000 0.000000 0.000000
vn 1.000000 0.000000 0.000000
vn -1.000000 0.000000 0.000000
vn -1.000000 0.000000 0.000000
vn -1.000000 0.000000 0.000000
vn -1.000000 0.000000 0.000000
vn -1.000000 0.000000 0.000000
vn -1.000000 0.000000 0.000000
vn -1.000000 0.000000 0.000000
vn -1.000000 0.000000 0.000000
vn 0.000000 0.678883 0.734246
vn 0.000000 0.678883 0.734246
vn 0.000000 0.678881 0.734248
vn 0.000000 0.678881 0.734248
vn 0.000000 0.678883 0.734246
vn 0.000000 0.678883 0.734246
vn 0.000000 0.678881 0.734248
vn 0.000000 0.678881 0.734248
vn 0.000000 0.678883 0.734246
vn 0.000000 0.678881 0.734248
vn 0.000000 0.678881 0.734248
vn 0.000000 0.678883 0.734246
vn 0.000000 0.678883 0.734246
vn 0.000000 0.678879 0.734250
vn 0.000000 0.678881 0.734249
vn 0.000000 0.678881 0.734248
vn 0.000000 0.678879 0.734250
vn 0.000000 0.678878 0.734251
vn 0.000000 0.678881 0.734248
vn 0.000000 0.678881 0.734249
vn 1.000000 0.000000 0.000000
vn 1.000000 0.000000 0.000000
vn 1.000000 0.000000 0.000000
vn 1.000000 0.000000 0.000000
vn 1.000000 0.000000 0.000000
vn 1.000000 0.000000 0.000000
vn 1.000000 0.000000 0.000000
vn 1.000000 0.000000 0.000000
vn 0.000000 0.000000 1.000000
vn 0.000000 0.000000 1.000000
vn 0.000000 0.000000 1.000000
vn 0.000000 0.000000 1.000000
vn 0.000000 1.000000 0.000000
vn 0.000000 1.000000 0.000000
vn 0.000000 1.000000 0.000000
vn 0.000000 1.000000 0.000000
vn 0.000000 1.000000 0.000000
vn 0.000000 1.000000 0.000000
vn 0.000000 1.000000 0.000000
vn 0.000000 1.000000 0.000000
vn 0.000000 1.000000 0.000000
vn 0.000000 1.000000 0.000000
vn 0.000000 1.000000 0.000000
vn 0.000000 1.000000 0.000000
vn 0.000000 1.000000 0.000000
vn 0.000000 1.000000 0.000000
vn 0.000000 1.000000 0.000000
vn 0.000000 1.000000 0.000000
vn 0.000000 0.000000 1.000000
vn 0.000000 0.000000 1.000000
vn 0.000000 0.000000 1.000000
vn 0.000000 0.000000 1.000000
vn 0.000000 1.000000 0.000000
vn 0.000000 1.000000 0.000000
vn 0.000000 1.000000 0.000000
vn 0.000000 1.000000 0.000000
vn 0.000000 1.000000 0.000000
vn 0.000000 1.000000 0.000000
vn 0.000000 1.000000 0.000000
vn 0.000000 1.000000 0.000000
vn 0.000000 1.000000 0.000000
vn 0.000000 1.000000 0.000000
vn 0.000000 1.000000 0.000000
vn 0.000000 1.000000 0.000000
vn 0.000000 1.000000 0.000000
vn 0.000000 1.000000 0.000000
vn 0.000000 1.000000 0.000000
vn 0.000000 1.000000 0.000000
vn 0.000000 1.000000 0.000000
vn 0.000000 1.000000 0.000000
vn 0.000000 1.000000 0.000000
vn 0.000000 1.000000 0.000000
vn 0.000000 1.000000 0.000000
vn 0.000000 1.000000 0.000000
vn 0.000000 1.000000 0.000000
vn 0.000000 1.000000 0.000000
vn 0.000000 1.000000 0.000000
vn 0.000000 1.000000 0.000000
vn 0.000000 1.000000 0.000000
vn 0.000000 1.000000 0.000000
vn 0.000000 1.000000 0.000000
vn 0.000000 1.000000 0.000000
vn 0.000000 1.000000 0.000000
vn 0.000000 1.000000 0.000000
vn 0.000000 0.000000 1.000000
vn 0.000000 0.000000 1.000000
vn 0.000000 0.000000 1.000000
vn 0.000000 0.000000 1.000000
vn 0.000000 0.000000 1.000000
vn 0.000000 0.000000 1.000000
vn 0.000000 0.000000 1.000000
vn 0.000000 0.000000 1.000000
vn 0.000011 1.000000 0.000002
vn 0.000011 1.000000 0.000002
vn 0.000011 1.000000 0.000002
vn 0.000011 1.000000 0.000002
vn 0.000004 1.000000 0.000002
vn 0.000004 1.000000 0.000002
vn 0.000004 1.000000 0.000002
vn 0.000004 1.000000 0.000002
vn -0.000004 1.000000 0.000002
vn -0.000004 1.000000 0.000002
vn -0.000004 1.000000 0.000002
vn -0.000004 1.000000 0.000002
vn -0.000010 1.000000 0.000001
vn -0.000010 1.000000 0.000001
vn -0.000010 1.000000 0.000001
vn -0.000010 1.000000 0.000001
vn -1.000000 0.000000 0.000000
vn -1.000000 0.000000 0.000000
vn -1.000000 0.000000 0.000000
vn -1.000000 0.000000 0.000000
vn -1.000000 0.000000 0.000000
vn -1.000000 0.000000 0.000000
vn -1.000000 0.000000 0.000000
vn -1.000000 0.000000 0.000000
vn -1.000000 0.000000 0.000000
vn -1.000000 0.000000 0.000000
vn -1.000000 0.000000 0.000000
vn -1.000000 0.000000 0.000000
vn -1.000000 0.000000 0.000000
vn -1.000000 0.000000 0.000000
vn -1.000000 0.000000 0.000000
vn -1.000000 0.000000 0.000000
vn -1.000000 0.000000 0.000000
vn -1.000000 0.000000 0.000000
vn -1.000000 0.000000 0.000000
vn 0.000000 0.000000 1.000000
vn 0.000000 0.000000 1.000000
vn 0.000000 0.000000 1.000000
vn 0.000000 0.000000 1.000000
vn 1.000000 0.000000 0.000000
vn 1.000000 0.000000 0.000000
vn 1.000000 0.000000 0.000000
vn 1.000000 0.000000 0.000000
vn -1.000000 0.000000 0.000000
vn -1.000000 0.000000 0.000000
vn -1.000000 0.000000 0.000000
vn -1.000000 0.000000 0.000000
vn 1.000000 0.000000 0.000000
vn 1.000000 0.000000 0.000000
vn 1.000000 0.000000 0.000000
vn 1.000000 0.000000 0.000000
vn 0.000000 0.000000 -1.000000
vn 0.000000 0.000000 -1.000000
vn 0.000000 0.000000 -1.000000
vn 0.000000 0.000000 -1.000000
vn -1.000000 0.000000 0.000000
vn -1.000000 0.000000 0.000000
vn -1.000000 0.000000 0.000000
vn -1.000000 0.000000 0.000000
vn 0.000000 0.000000 1.000000
vn 0.000000 0.000000 1.000000
vn 0.000000 0.000000 1.000000
vn 0.000000 0.000000 1.000000
vn 1.000000 0.000000 0.000000
vn 1.000000 0.000000 0.000000
vn 1.000000 0.000000 0.000000
vn 1.000000 0.000000 0.000000
vn -1.000000 0.000000 0.000000
vn -1.000000 0.000000 0.000000
vn -1.000000 0.000000 0.000000
vn -1.000000 0.000000 0.000000
vn 1.000000 0.000000 0.000000
vn 1.000000 0.000000 0.000000
vn 1.000000 0.000000 0.000000
vn 1.000000 0.000000 0.000000
vn 0.000000 0.000000 -1.000000
vn 0.000000 0.000000 -1.000000
vn 0.000000 0.000000 -1.000000
vn 0.000000 0.000000 -1.000000
vn 0.000000 0.000000 1.000000
vn 0.000000 0.000000 1.000000
vn 0.000000 0.000000 1.000000
vn 0.000000 0.000000 1.000000
vn -1.000000 0.000000 0.000000
vn -1.000000 0.000000 0.000000
vn -1.000000 0.000000 0.000000
vn -1.000000 0.000000 0.000000
vn -1.000000 0.000000 0.000000
vn -1.000000 0.000000 0.000000
vn -1.000000 0.000000 0.000000
vn -1.000000 0.000000 0.000000
vn 1.000000 0.000000 0.000000
vn 1.000000 0.000000 0.000000
vn 1.000000 0.000000 0.000000
vn 1.000000 0.000000 0.000000
s off
g initialShadingGroup Sunmao_011_B
f 206/261/673 173/262/674 165/263/675 207/264/676
f 202/265/677 166/266/678 167/267/679 203/268/680
f 203/268/681 167/267/682 169/269/683 204/270/684
f 204/270/685 169/269/686 171/271/687 205/272/688
f 205/272/689 171/271/690 173/262/691 206/261/692
f 201/273/693 175/274/694 166/275/695 202/276/696
f 166/275/697 175/274/698 176/277/699 167/278/700
f 177/279/701 169/280/702 167/278/703 176/277/704
f 169/280/705 177/279/706 178/281/707 171/282/708
f 179/283/709 173/284/710 171/282/711 178/281/712
f 180/285/713 165/286/714 173/284/715 179/283/716
f 207/287/717 165/286/718 180/285/719 208/288/720
f 163/289/721 174/290/722 182/291/723 183/292/724
f 163/293/725 183/294/726 184/295/727
f 182/291/728 186/296/729 187/297/730 183/292/731
f 183/294/732 187/298/733 188/299/734 184/295/735
f 186/296/736 190/300/737 191/301/738 187/297/739
f 187/298/740 191/302/741 192/303/742 188/299/743
f 190/300/744 198/304/745 199/305/746 191/301/747
f 191/302/748 199/306/749 200/307/750 192/303/751
f 193/308/752 201/273/753 202/276/754 194/309/755
f 194/310/756 202/265/757 203/268/758 195/311/759
f 195/311/760 203/268/761 204/270/762 196/312/763
f 197/313/764 196/312/765 204/270/766 205/272/767
f 197/313/768 205/272/769 206/261/770 198/304/771
f 198/304/772 206/261/773 207/264/774 199/305/775
f 199/306/776 207/287/777 208/288/778 200/307/779
f 195/311/780 209/314/781 193/315/782 194/310/783
f 181/316/784 210/317/785 168/318/786 164/319/787
f 185/320/788 211/321/789 210/317/790 181/316/791
f 189/322/792 212/323/793 211/321/794 185/320/795
f 193/308/796 209/324/797 212/323/798 189/322/799
f 195/311/800 196/312/801 213/325/802 209/314/803
f 226/326/804 228/327/805 227/328/806 225/329/807
f 229/330/808 230/331/809 228/327/810 226/326/811
f 212/323/812 216/332/813 215/333/814 211/321/815
f 209/324/816 213/334/817 216/332/818 212/323/819
f 214/335/820 218/336/821 172/337/822 170/338/823
f 215/333/824 219/339/825 218/336/826 214/335/827
f 216/332/828 220/340/829 219/339/830 215/333/831
f 213/334/832 217/341/833 220/340/834 216/332/835
f 213/325/836 196/312/837 197/313/838 217/342/839
f 197/313/840 198/304/841 221/343/842 217/342/843
f 232/344/844 234/345/845 233/346/846 231/347/847
f 235/348/848 236/349/849 234/345/850 232/344/851
f 220/340/852 224/350/853 223/351/854 219/339/855
f 217/341/856 221/352/857 224/350/858 220/340/859
f 174/353/860 222/354/861 182/355/862
f 182/355/863 222/354/864 223/351/865 186/356/866
f 186/356/867 223/351/868 224/350/869 190/357/870
f 190/357/871 224/350/872 221/352/873 198/358/874
f 210/359/875 226/326/876 225/329/877 168/360/878
f 168/361/879 225/362/880 227/363/881 170/364/882
f 170/364/883 227/363/884 228/365/885 214/366/886
f 211/367/887 229/330/888 226/326/889 210/359/890
f 214/366/891 228/365/892 230/368/893 215/369/894
f 215/369/895 230/368/896 229/330/897 211/367/898
f 218/370/899 232/344/900 231/347/901 172/371/902
f 172/372/903 231/373/904 233/374/905 174/375/906
f 174/375/907 233/374/908 234/376/909 222/377/910
f 219/378/911 235/348/912 232/344/913 218/370/914
f 222/377/915 234/376/916 236/379/917 223/380/918
f 223/380/919 236/379/920 235/348/921 219/378/922
f 175/274/923 237/381/924 248/382/925 176/277/926
f 168/383/927 253/384/928 254/385/929 164/319/930
f 184/295/931 275/386/932 249/387/933 163/293/934
f 280/388/935 281/389/936 239/390/937 247/391/938
f 163/289/939 249/392/940 250/393/941 174/290/942
f 276/394/943 277/395/944 241/396/945 240/397/946
f 174/290/947 250/393/948 251/398/949 172/399/950
f 277/395/951 278/400/952 243/401/953 241/396/954
f 178/281/955 244/402/956 242/403/957 179/283/958
f 172/399/959 251/398/960 252/404/961 170/405/962
f 278/400/963 279/406/964 245/407/965 243/401/966
f 177/279/967 246/408/968 244/402/969 178/281/970
f 170/405/971 252/404/972 253/384/973 168/383/974
f 279/406/975 280/388/976 247/391/977 245/407/978
f 176/277/979 248/382/980 246/408/981 177/279/982
f 275/386/983 276/409/984 240/410/985 249/387/986
f 240/411/987 241/412/988 250/393/989 249/392/990
f 251/398/991 250/393/992 241/412/993 243/413/994
f 243/413/995 245/414/996 252/404/997 251/398/998
f 253/384/999 252/404/1000 245/414/1001 247/415/1002
f 254/385/1003 253/384/1004 247/415/1005 239/416/1006
f 281/417/1007 282/418/1008 254/385/1009 239/416/1010
f 237/381/1011 257/419/1012 256/420/1013 248/382/1014
f 237/381/1015 258/421/1016 257/422/1017
f 201/273/1018 258/421/1019 237/381/1020 175/274/1021
f 256/420/1022 257/419/1023 261/423/1024 260/424/1025
f 257/422/1026 258/421/1027 262/425/1028 261/426/1029
f 193/308/1030 262/425/1031 258/421/1032 201/273/1033
f 200/307/1034 259/427/1035 263/428/1036 192/303/1037
f 260/424/1038 261/423/1039 265/429/1040 264/430/1041
f 261/426/1042 262/425/1043 266/431/1044 265/432/1045
f 189/322/1046 266/431/1047 262/425/1048 193/308/1049
f 192/303/1050 263/428/1051 267/433/1052 188/299/1053
f 264/430/1054 265/429/1055 273/434/1056 272/435/1057
f 265/432/1058 266/431/1059 274/436/1060 273/437/1061
f 185/320/1062 274/436/1063 266/431/1064 189/322/1065
f 188/299/1066 267/433/1067 275/386/1068 184/295/1069
f 267/433/1070 268/438/1071 276/409/1072 275/386/1073
f 268/439/1074 269/440/1075 277/395/1076 276/394/1077
f 269/440/1078 270/441/1079 278/400/1080 277/395/1081
f 271/442/1082 279/406/1083 278/400/1084 270/441/1085
f 271/442/1086 272/435/1087 280/388/1088 279/406/1089
f 272/435/1090 273/434/1091 281/389/1092 280/388/1093
f 273/437/1094 274/436/1095 282/418/1096 281/417/1097
f 181/316/1098 282/418/1099 274/436/1100 185/320/1101
f 269/440/1102 268/439/1103 267/443/1104 283/444/1105
f 255/445/1106 238/446/1107 242/447/1108 284/448/1109
f 259/427/1110 255/445/1111 284/448/1112 285/449/1113
f 263/428/1114 259/427/1115 285/449/1116 286/450/1117
f 267/433/1118 263/428/1119 286/450/1120 283/451/1121
f 269/440/1122 283/444/1123 287/452/1124 270/441/1125
f 300/453/1126 299/454/1127 301/455/1128 302/456/1129
f 303/457/1130 300/453/1131 302/456/1132 304/458/1133
f 286/450/1134 285/449/1135 289/459/1136 290/460/1137
f 283/451/1138 286/450/1139 290/460/1140 287/461/1141
f 288/462/1142 244/463/1143 246/464/1144 292/465/1145
f 289/459/1146 288/462/1147 292/465/1148 293/466/1149
f 290/460/1150 289/459/1151 293/466/1152 294/467/1153
f 287/461/1154 290/460/1155 294/467/1156 291/468/1157
f 287/452/1158 291/469/1159 271/442/1160 270/441/1161
f 271/442/1162 291/469/1163 295/470/1164 272/435/1165
f 306/471/1166 305/472/1167 307/473/1168 308/474/1169
f 309/475/1170 306/471/1171 308/474/1172 310/476/1173
f 294/467/1174 293/466/1175 297/477/1176 298/478/1177
f 291/468/1178 294/467/1179 298/478/1180 295/479/1181
f 248/480/1182 256/481/1183 296/482/1184
f 256/481/1185 260/483/1186 297/477/1187 296/482/1188
f 260/483/1189 264/484/1190 298/478/1191 297/477/1192
f 264/484/1193 272/485/1194 295/479/1195 298/478/1196
f 284/486/1197 242/487/1198 299/488/1199 300/489/1200
f 242/487/1201 244/490/1202 301/455/1203 299/488/1204
f 244/490/1205 288/491/1206 302/456/1207 301/455/1208
f 285/492/1209 284/486/1210 300/489/1211 303/493/1212
f 288/491/1213 289/494/1214 304/458/1215 302/456/1216
f 289/494/1217 285/495/1218 303/496/1219 304/458/1220
f 292/497/1221 246/498/1222 305/499/1223 306/500/1224
f 246/498/1225 248/501/1226 307/473/1227 305/499/1228
f 248/501/1229 296/502/1230 308/474/1231 307/473/1232
f 293/503/1233 292/497/1234 306/500/1235 309/504/1236
f 296/502/1237 297/505/1238 310/476/1239 308/474/1240
f 297/506/1241 293/503/1242 309/504/1243 310/507/1244
f 242/403/1245 238/446/1246 180/285/1247 179/283/1248
f 238/446/1249 255/445/1250 208/288/1251 180/285/1252
f 255/445/1253 259/427/1254 200/307/1255 208/288/1256
f 254/385/1257 282/418/1258 181/316/1259 164/319/1260
