# This file uses centimeters as units for non-parametric coordinates.

mtllib Sunmao_004.mtl
g default
v -0.398268 -1.454210 0.247406
v -0.491388 -1.454210 0.340528
v -0.738795 -1.454210 -0.000001
v -0.608725 -1.454210 0.400313
v -0.338481 -1.454210 0.130070
v -0.317880 -1.454210 -0.000001
v -0.738795 -1.454210 0.420915
v -0.338481 -1.454210 -0.130069
v -0.868865 -1.454210 0.400313
v -0.398268 -1.454210 -0.247408
v -0.986203 -1.454210 0.340528
v -0.491388 -1.454210 -0.340527
v -1.079323 -1.454210 0.247406
v -1.139108 -1.454210 0.130070
v -0.608725 -1.454210 -0.400315
v -1.159710 -1.454210 -0.000001
v -0.738795 -1.454210 -0.420915
v -1.139108 -1.454210 -0.130069
v -0.868865 -1.454210 -0.400315
v -1.079323 -1.454210 -0.247408
v -0.986203 -1.454210 -0.340527
v -0.609211 0.144772 0.094840
v -0.398268 0.144772 0.247406
v -0.338482 0.144772 0.130070
v -0.609211 0.144772 0.042105
v -0.707756 0.144772 0.095530
v -0.608725 0.144772 0.400313
v -0.491388 0.144772 0.340528
v -0.669389 0.144772 0.095530
v -0.868380 0.468951 0.095530
v -0.609211 0.468951 0.095530
v -0.609211 0.468951 -0.095530
v -0.868380 0.468951 -0.095530
v -0.317880 0.144772 -0.000001
v -0.609211 0.144772 -0.000000
v -0.738795 0.144772 0.095530
v -0.738795 0.144772 0.420915
v -0.338481 0.144772 -0.130069
v -0.609211 0.144772 -0.042104
v -0.769835 0.144772 0.095530
v -0.868865 0.144772 0.400313
v -0.398268 0.144772 -0.247408
v -0.609211 0.144772 -0.094839
v -0.808202 0.144772 0.095530
v -0.986203 0.144772 0.340528
v -0.669389 0.144772 -0.095530
v -0.491388 0.144772 -0.340527
v -0.608725 0.144772 -0.400315
v -0.707756 0.144772 -0.095530
v -0.868380 0.144772 0.042105
v -1.139108 0.144772 0.130070
v -1.079323 0.144772 0.247406
v -0.868380 0.144772 0.094840
v -0.738795 0.144772 -0.420915
v -0.738795 0.144772 -0.095530
v -0.868380 0.144772 -0.000000
v -1.159710 0.144772 -0.000001
v -0.868865 0.144772 -0.400315
v -0.769835 0.144772 -0.095530
v -0.868380 0.144772 -0.042104
v -1.139108 0.144772 -0.130069
v -0.986203 0.144772 -0.340527
v -0.808202 0.144772 -0.095530
v -0.868380 0.144772 -0.094839
v -1.079323 0.144772 -0.247408
v -0.609211 0.468951 0.000000
v -0.868380 0.468951 0.000000
v -0.738795 0.468951 0.095530
v -0.738795 0.468951 0.000000
v -0.738795 0.468951 -0.095530
v -0.669389 0.468951 -0.095530
v -0.707756 0.468951 -0.095530
v -0.769835 0.468950 -0.095530
v -0.808202 0.468950 -0.095530
v -0.609211 0.468951 -0.042104
v -0.609211 0.468951 0.042105
v -0.669389 0.468951 0.095530
v -0.707756 0.468951 0.095530
v -0.769835 0.468951 0.095530
v -0.808202 0.468950 0.095530
v -0.868380 0.468951 0.047765
v -0.868380 0.468951 -0.047765
v -0.738795 0.468951 0.044935
v -0.738795 0.468950 -0.044935
v -0.669389 0.468950 -0.043418
v -0.669389 0.468951 0.000000
v -0.669389 0.468951 0.043420
v -0.707756 0.468951 0.044257
v -0.707756 0.468951 0.000000
v -0.707756 0.468950 -0.044257
v -0.769835 0.468951 -0.045613
v -0.769835 0.468951 0.000000
v -0.769835 0.468951 0.045613
v -0.808202 0.468951 0.046451
v -0.808202 0.468951 -0.000000
v -0.808202 0.468950 -0.046451
vt 0.856579 0.331111
vt 0.835545 0.352145
vt 0.779661 0.275227
vt 0.809041 0.365649
vt 0.870083 0.304607
vt 0.874737 0.275227
vt 0.779661 0.370302
vt 0.870083 0.245847
vt 0.750281 0.365649
vt 0.856579 0.219343
vt 0.723777 0.352145
vt 0.835545 0.198309
vt 0.702743 0.331111
vt 0.689239 0.304607
vt 0.809041 0.184804
vt 0.684586 0.275227
vt 0.779661 0.180151
vt 0.689239 0.245847
vt 0.750281 0.184804
vt 0.702743 0.219343
vt 0.723777 0.198309
vt 0.932085 0.107761
vt 0.979732 0.073299
vt 0.993236 0.099803
vt 0.932085 0.119672
vt 0.909825 0.107605
vt 0.932194 0.038761
vt 0.958698 0.052265
vt 0.918492 0.107605
vt 0.719876 0.613500
vt 0.708601 0.613500
vt 0.708601 0.606489
vt 0.720029 0.606489
vt 0.997890 0.129183
vt 0.932085 0.129183
vt 0.902814 0.107605
vt 0.902814 0.034107
vt 0.993236 0.158563
vt 0.932085 0.138693
vt 0.895803 0.107605
vt 0.873434 0.038761
vt 0.979732 0.185067
vt 0.932085 0.150605
vt 0.887137 0.107605
vt 0.846930 0.052265
vt 0.918492 0.150761
vt 0.958698 0.206100
vt 0.932194 0.219605
vt 0.909825 0.150761
vt 0.873544 0.119672
vt 0.812392 0.099803
vt 0.825897 0.073299
vt 0.873544 0.107761
vt 0.902814 0.224258
vt 0.902814 0.150761
vt 0.873544 0.129183
vt 0.807739 0.129183
vt 0.873434 0.219605
vt 0.895803 0.150761
vt 0.873544 0.138693
vt 0.812392 0.158563
vt 0.846930 0.206100
vt 0.887137 0.150761
vt 0.873544 0.150605
vt 0.825897 0.185067
vt 0.140541 1.000000
vt 0.118281 1.000000
vt 0.118281 0.617777
vt 0.140541 0.617777
vt 0.090233 1.000000
vt 0.090233 0.617777
vt 0.168589 1.000000
vt 0.168589 0.617777
vt 0.199682 1.000000
vt 0.199682 0.617777
vt 0.059141 1.000000
vt 0.059141 0.617777
vt 0.230773 0.617777
vt 0.230773 1.000000
vt 0.028049 1.000000
vt 0.028049 0.617777
vt 0.258822 1.000000
vt 0.258822 0.617777
vt 0.000000 1.000000
vt 0.000000 0.617777
vt 0.281081 1.000000
vt 0.281081 0.617777
vt 0.562163 1.000000
vt 0.539903 1.000000
vt 0.539903 0.617777
vt 0.562163 0.617777
vt 0.511855 1.000000
vt 0.511855 0.617777
vt 0.309130 1.000000
vt 0.309130 0.617777
vt 0.480763 1.000000
vt 0.480763 0.617777
vt 0.340222 1.000000
vt 0.340222 0.617777
vt 0.449671 1.000000
vt 0.449671 0.617777
vt 0.371314 1.000000
vt 0.371314 0.617777
vt 0.421622 1.000000
vt 0.421622 0.617777
vt 0.399363 1.000000
vt 0.399363 0.617777
vt 0.825026 0.555794
vt 0.751801 0.555640
vt 0.751820 0.546130
vt 0.825045 0.546283
vt 0.825134 0.692194
vt 0.751910 0.692509
vt 0.751851 0.678916
vt 0.825076 0.678601
vt 0.824982 0.613498
vt 0.751757 0.613500
vt 0.751757 0.606489
vt 0.824982 0.606486
vt 0.825050 0.666690
vt 0.751828 0.668127
vt 0.751805 0.657338
vt 0.825029 0.657179
vt 0.825006 0.565304
vt 0.751781 0.565151
vt 0.740482 0.613500
vt 0.730179 0.613500
vt 0.730179 0.606489
vt 0.740329 0.606489
vt 0.751781 0.646549
vt 0.825009 0.647669
vt 0.825232 0.714883
vt 0.752007 0.715198
vt 0.751977 0.708187
vt 0.825202 0.707872
vt 0.720668 0.577219
vt 0.720372 0.590812
vt 0.708601 0.590812
vt 0.708601 0.577219
vt 0.739690 0.577219
vt 0.739986 0.590812
vt 0.730179 0.590812
vt 0.730179 0.577219
vt 0.824981 0.590809
vt 0.751757 0.590812
vt 0.751756 0.577219
vt 0.824981 0.577216
vt 0.824982 0.599475
vt 0.751757 0.599478
vt 0.824982 0.622164
vt 0.751757 0.622167
vt 0.751758 0.635760
vt 0.824983 0.635757
vt 0.751846 0.534062
vt 0.825070 0.534371
vt 0.825328 0.737142
vt 0.752103 0.737457
vt 0.752045 0.723864
vt 0.825269 0.723549
vt 0.751947 0.701175
vt 0.825172 0.700861
vt 0.740176 0.599478
vt 0.730179 0.599478
vt 0.720183 0.599478
vt 0.708601 0.599478
vt 0.740969 0.635760
vt 0.740672 0.622167
vt 0.730179 0.635760
vt 0.730179 0.622167
vt 0.719390 0.635760
vt 0.719687 0.622167
vt 0.708601 0.635760
vt 0.708601 0.622167
vn 0.000000 -1.000000 0.000000
vn 0.000000 -1.000000 0.000000
vn 0.000000 -1.000000 0.000000
vn 0.000000 -1.000000 0.000000
vn 0.000000 -1.000000 0.000000
vn 0.000000 -1.000000 0.000000
vn 0.000000 -1.000000 0.000000
vn 0.000000 -1.000000 0.000000
vn 0.000000 -1.000000 0.000000
vn 0.000000 -1.000000 0.000000
vn 0.000000 -1.000000 0.000000
vn 0.000000 -1.000000 0.000000
vn 0.000000 -1.000000 0.000000
vn 0.000000 -1.000000 0.000000
vn 0.000000 -1.000000 0.000000
vn 0.000000 -1.000000 0.000000
vn 0.000000 -1.000000 0.000000
vn 0.000000 -1.000000 0.000000
vn 0.000000 -1.000000 0.000000
vn 0.000000 -1.000000 0.000000
vn 0.000000 -1.000000 0.000000
vn 0.000000 -1.000000 0.000000
vn 0.000000 -1.000000 0.000000
vn 0.000000 -1.000000 0.000000
vn 0.000000 -1.000000 0.000000
vn 0.000000 -1.000000 0.000000
vn 0.000000 -1.000000 0.000000
vn 0.000000 -1.000000 0.000000
vn 0.000000 -1.000000 0.000000
vn 0.000000 -1.000000 0.000000
vn 0.000000 -1.000000 0.000000
vn 0.000000 -1.000000 0.000000
vn 0.000000 -1.000000 0.000000
vn 0.000000 -1.000000 0.000000
vn 0.000000 -1.000000 0.000000
vn 0.000000 -1.000000 0.000000
vn 0.000000 -1.000000 0.000000
vn 0.000000 -1.000000 0.000000
vn 0.000000 -1.000000 0.000000
vn 0.000000 -1.000000 0.000000
vn 0.000000 -1.000000 0.000000
vn 0.000000 -1.000000 0.000000
vn 0.000000 -1.000000 0.000000
vn 0.000000 -1.000000 0.000000
vn 0.000000 -1.000000 0.000000
vn 0.000000 -1.000000 0.000000
vn 0.000000 -1.000000 0.000000
vn 0.000000 -1.000000 0.000000
vn 0.000000 -1.000000 0.000000
vn 0.000000 -1.000000 0.000000
vn 0.000000 -1.000000 0.000000
vn 0.000000 -1.000000 0.000000
vn 0.000000 -1.000000 0.000000
vn 0.000000 -1.000000 0.000000
vn 0.000000 -1.000000 0.000000
vn 0.000000 -1.000000 0.000000
vn 0.000000 -1.000000 0.000000
vn 0.000000 -1.000000 0.000000
vn 0.000000 -1.000000 0.000000
vn 0.000000 -1.000000 0.000000
vn 0.000000 1.000000 0.000000
vn 0.000000 1.000000 0.000000
vn 0.000000 1.000000 0.000000
vn 0.000000 1.000000 0.000000
vn 0.000000 1.000000 0.000000
vn 0.000000 1.000000 0.000000
vn 0.000000 1.000000 0.000000
vn 0.000000 1.000000 0.000000
vn -0.000001 1.000000 0.000001
vn -0.000002 1.000000 0.000002
vn 0.000000 1.000000 0.000000
vn 0.000000 1.000000 0.000000
vn 0.000000 1.000000 0.000000
vn 0.000000 1.000000 0.000000
vn 0.000000 1.000000 0.000000
vn 0.000000 1.000000 0.000000
vn 0.000000 1.000000 0.000000
vn 0.000000 1.000000 0.000000
vn 0.000000 1.000000 0.000000
vn 0.000000 1.000000 0.000000
vn 0.000000 1.000000 0.000000
vn 0.000000 1.000000 0.000000
vn 0.000000 1.000000 0.000000
vn 0.000000 1.000000 0.000000
vn 0.000000 1.000000 0.000000
vn 0.000000 1.000000 0.000000
vn 0.000000 1.000000 0.000000
vn 0.000000 1.000000 0.000000
vn 0.000000 1.000000 0.000000
vn 0.000000 1.000000 0.000000
vn 0.000000 1.000000 0.000001
vn 0.000000 1.000000 0.000001
vn 0.000000 1.000000 0.000000
vn 0.000000 1.000000 0.000000
vn 0.000000 1.000000 0.000000
vn 0.000000 1.000000 0.000000
vn 0.000000 1.000000 0.000001
vn 0.000000 1.000000 0.000001
vn 0.000000 1.000000 0.000000
vn 0.000000 1.000000 0.000000
vn 0.000000 1.000000 0.000000
vn 0.000000 1.000000 0.000000
vn 0.000000 1.000000 0.000001
vn 0.000000 1.000000 0.000001
vn 0.000000 1.000000 0.000000
vn 0.000000 1.000000 0.000000
vn 0.000000 1.000000 0.000000
vn 0.000000 1.000000 0.000000
vn 0.000000 1.000000 -0.000001
vn 0.000000 1.000000 -0.000001
vn 0.000000 1.000000 0.000000
vn 0.000000 1.000000 0.000000
vn 0.000000 1.000000 0.000000
vn 0.000000 1.000000 0.000000
vn 0.000000 1.000000 0.000000
vn 0.000000 1.000000 0.000000
vn 0.000000 1.000000 0.000000
vn 0.000000 1.000000 0.000000
vn 0.000000 1.000000 -0.000001
vn 0.000000 1.000000 -0.000001
vn 0.000000 1.000000 0.000000
vn 0.000000 1.000000 0.000000
vn 0.000000 1.000000 0.000000
vn 0.000000 1.000000 0.000000
vn 0.000000 1.000000 -0.000001
vn 0.000000 1.000000 -0.000001
vn 0.000000 1.000000 0.000000
vn 0.000000 1.000000 0.000000
vn 0.809018 0.000000 0.587785
vn 0.587785 0.000000 0.809017
vn 0.587785 0.000000 0.809017
vn 0.809018 0.000000 0.587785
vn 0.587785 0.000000 0.809017
vn 0.309017 0.000000 0.951057
vn 0.309017 0.000000 0.951057
vn 0.587785 0.000000 0.809017
vn 0.951057 0.000000 0.309016
vn 0.809018 0.000000 0.587785
vn 0.809018 0.000000 0.587785
vn 0.951057 0.000000 0.309016
vn 1.000000 0.000000 0.000001
vn 0.951057 0.000000 0.309016
vn 0.951057 0.000000 0.309016
vn 1.000000 0.000000 0.000001
vn 0.309017 0.000000 0.951057
vn 0.000000 0.000000 1.000000
vn 0.000000 0.000000 1.000000
vn 0.309017 0.000000 0.951057
vn 0.951056 0.000000 -0.309017
vn 0.951056 0.000000 -0.309017
vn 1.000000 0.000000 0.000001
vn 1.000000 0.000000 0.000001
vn 0.000000 0.000000 1.000000
vn -0.309017 0.000000 0.951057
vn -0.309017 0.000000 0.951057
vn 0.000000 0.000000 1.000000
vn 0.809017 0.000000 -0.587785
vn 0.951056 0.000000 -0.309017
vn 0.951056 0.000000 -0.309017
vn 0.809017 0.000000 -0.587785
vn -0.309017 0.000000 0.951057
vn -0.587785 0.000000 0.809017
vn -0.587785 0.000000 0.809017
vn -0.309017 0.000000 0.951057
vn 0.587788 0.000000 -0.809015
vn 0.809017 0.000000 -0.587785
vn 0.809017 0.000000 -0.587785
vn 0.587788 0.000000 -0.809015
vn -0.587785 0.000000 0.809017
vn -0.809017 0.000000 0.587785
vn -0.809017 0.000000 0.587785
vn -0.587785 0.000000 0.809017
vn -0.809017 0.000000 0.587785
vn -0.951057 0.000000 0.309017
vn -0.951057 0.000000 0.309017
vn -0.809017 0.000000 0.587785
vn 0.309018 0.000000 -0.951056
vn 0.587788 0.000000 -0.809015
vn 0.587788 0.000000 -0.809015
vn 0.309018 0.000000 -0.951056
vn -0.951057 0.000000 0.309017
vn -1.000000 0.000000 0.000000
vn -1.000000 0.000000 0.000000
vn -0.951057 0.000000 0.309017
vn 0.000000 0.000000 -1.000000
vn 0.309018 0.000000 -0.951056
vn 0.309018 0.000000 -0.951056
vn 0.000000 0.000000 -1.000000
vn -1.000000 0.000000 0.000000
vn -0.951056 0.000000 -0.309018
vn -0.951056 0.000000 -0.309018
vn -1.000000 0.000000 0.000000
vn -0.309019 0.000000 -0.951056
vn 0.000000 0.000000 -1.000000
vn 0.000000 0.000000 -1.000000
vn -0.309019 0.000000 -0.951056
vn -0.951056 0.000000 -0.309018
vn -0.809017 0.000000 -0.587785
vn -0.809017 0.000000 -0.587785
vn -0.951056 0.000000 -0.309018
vn -0.587788 0.000000 -0.809015
vn -0.309019 0.000000 -0.951056
vn -0.309019 0.000000 -0.951056
vn -0.587788 0.000000 -0.809015
vn -0.809017 0.000000 -0.587785
vn -0.587788 0.000000 -0.809015
vn -0.587788 0.000000 -0.809015
vn -0.809017 0.000000 -0.587785
vn 0.000000 1.000000 0.000000
vn 0.000000 1.000000 0.000000
vn 0.000000 1.000000 0.000000
vn 0.000000 1.000000 0.000000
vn 0.000000 1.000000 0.000001
vn 0.000000 1.000000 0.000001
vn 0.000000 1.000000 0.000001
vn 0.000000 1.000000 0.000001
vn 0.000000 1.000000 0.000001
vn 0.000000 1.000000 0.000000
vn 0.000000 1.000000 0.000000
vn 0.000000 1.000000 0.000001
vn 0.000000 1.000000 0.000000
vn 0.000000 1.000000 -0.000001
vn 0.000000 1.000000 -0.000001
vn 0.000000 1.000000 0.000000
vn 1.000000 -0.000000 0.000000
vn 1.000000 -0.000000 0.000000
vn 1.000000 0.000000 0.000000
vn 1.000000 0.000000 0.000000
vn -0.003508 -0.000650 0.999994
vn -0.003508 -0.000650 0.999994
vn -0.005744 -0.001065 0.999983
vn -0.005744 -0.001065 0.999983
vn 0.000000 0.000000 -1.000000
vn 0.000000 0.000000 -1.000000
vn 0.000000 0.000000 -1.000000
vn 0.000000 0.000000 -1.000000
vn -1.000000 0.000000 0.000000
vn -1.000000 0.000000 0.000000
vn -1.000000 0.000000 0.000000
vn -1.000000 0.000000 0.000000
vn 1.000000 0.000000 0.000000
vn 1.000000 0.000000 0.000000
vn 1.000000 -0.000000 0.000000
vn 1.000000 -0.000000 0.000000
vn -0.000001 1.000000 -0.000002
vn 0.000000 1.000000 -0.000001
vn 0.000001 1.000000 -0.000002
vn 0.000001 1.000000 -0.000001
vn -1.000000 0.000000 0.000000
vn -1.000000 0.000000 0.000000
vn -1.000000 0.000000 0.000000
vn -1.000000 0.000000 0.000000
vn 0.000000 0.000000 1.000000
vn 0.000000 0.000000 1.000000
vn 0.000000 0.000000 1.000000
vn 0.000000 0.000000 1.000000
vn 0.000000 1.000000 -0.000001
vn 0.000000 1.000000 0.000000
vn 0.000000 1.000000 0.000000
vn 0.000000 1.000000 0.000000
vn -0.000002 1.000000 0.000000
vn -0.000001 1.000000 -0.000000
vn -0.000001 1.000000 -0.000002
vn -0.000001 1.000000 -0.000001
vn 0.003500 -0.000650 -0.999994
vn 0.003500 -0.000650 -0.999994
vn 0.005732 -0.001065 -0.999983
vn 0.005732 -0.001065 -0.999983
vn 0.000000 0.000000 -1.000000
vn 0.000000 0.000000 -1.000000
vn 0.003500 -0.000650 -0.999994
vn 0.003500 -0.000650 -0.999994
vn 0.000000 0.000000 -1.000000
vn 0.000000 0.000000 -1.000000
vn 0.000000 0.000000 -1.000000
vn 0.000000 0.000000 -1.000000
vn -0.003500 -0.000650 -0.999994
vn -0.003500 -0.000650 -0.999994
vn 0.000000 0.000000 -1.000000
vn 0.000000 0.000000 -1.000000
vn -0.005732 -0.001065 -0.999983
vn -0.003500 -0.000650 -0.999994
vn -0.003500 -0.000650 -0.999994
vn -0.005732 -0.001065 -0.999983
vn 1.000000 0.000000 0.000000
vn 1.000000 0.000000 0.000000
vn 1.000000 0.000000 0.000000
vn 1.000000 0.000000 0.000000
vn 1.000000 0.000000 0.000000
vn 1.000000 0.000000 0.000000
vn 1.000000 0.000000 0.000000
vn 1.000000 0.000000 0.000000
vn 0.005744 -0.001065 0.999983
vn 0.005744 -0.001065 0.999983
vn 0.003508 -0.000650 0.999994
vn 0.003508 -0.000650 0.999994
vn 0.003508 -0.000650 0.999994
vn 0.003508 -0.000650 0.999994
vn 0.000000 0.000000 1.000000
vn 0.000000 0.000000 1.000000
vn 0.000000 0.000000 1.000000
vn 0.000000 0.000000 1.000000
vn 0.000000 0.000000 1.000000
vn 0.000000 0.000000 1.000000
vn 0.000000 0.000000 1.000000
vn 0.000000 0.000000 1.000000
vn -0.003508 -0.000650 0.999994
vn -0.003508 -0.000650 0.999994
vn -1.000000 0.000000 0.000000
vn -1.000000 0.000000 0.000000
vn -1.000000 0.000000 0.000000
vn -1.000000 0.000000 0.000000
vn -1.000000 0.000000 0.000000
vn -1.000000 0.000000 0.000000
vn -1.000000 0.000000 0.000000
vn -1.000000 0.000000 0.000000
vn -0.000001 1.000000 -0.000002
vn 0.000000 1.000000 0.000000
vn 0.000000 1.000000 -0.000001
vn -0.000001 1.000000 -0.000001
vn 0.000000 1.000000 -0.000001
vn -0.000001 1.000000 0.000001
vn 0.000000 1.000000 0.000000
vn 0.000001 1.000000 -0.000002
vn -0.000001 1.000000 0.000003
vn -0.000001 1.000000 -0.000000
vn -0.000002 1.000000 0.000000
vn -0.000002 1.000000 0.000000
vn -0.000002 1.000000 -0.000002
vn -0.000001 1.000000 -0.000002
vn 0.000001 1.000000 -0.000001
vn 0.000000 1.000000 0.000002
vn 0.000000 1.000000 0.000002
vn 0.000001 1.000000 -0.000001
vn 0.000000 1.000000 0.000000
vn 0.000000 1.000000 0.000006
vn 0.000000 1.000000 -0.000002
vn 0.000000 1.000000 0.000000
vn 0.000001 1.000000 -0.000001
vn 0.000001 1.000000 -0.000002
vn 0.000001 1.000000 -0.000002
vn 0.000000 1.000000 0.000000
vn 0.000000 1.000000 0.000001
vn 0.000000 1.000000 -0.000002
vn 0.000000 1.000000 0.000000
vn 0.000000 1.000000 0.000001
vn 0.000000 1.000000 0.000000
vn 0.000000 1.000000 0.000000
vn 0.000000 1.000000 0.000000
vn 0.000000 1.000000 0.000000
vn 0.000000 1.000000 0.000001
vn 0.000000 1.000000 0.000000
vn 0.000000 1.000000 -0.000002
vn 0.000000 1.000000 0.000001
vn 0.000000 1.000000 0.000000
vn -0.000001 1.000000 -0.000002
vn -0.000001 1.000000 -0.000002
vn -0.000001 1.000000 -0.000000
vn 0.000000 1.000000 0.000000
vn 0.000000 1.000000 -0.000002
vn 0.000000 1.000000 0.000006
vn 0.000000 1.000000 0.000000
vn -0.000001 1.000000 -0.000000
vn -0.000001 1.000000 0.000003
vn 0.000003 1.000000 -0.000003
vn 0.000001 1.000000 -0.000002
vn 0.000001 1.000000 -0.000002
vn 0.000004 1.000000 0.000000
vn 0.000001 1.000000 -0.000003
vn 0.000000 1.000000 -0.000002
vn 0.000001 1.000000 -0.000002
vn 0.000003 1.000000 -0.000003
vn 0.000001 1.000000 0.000001
vn 0.000000 1.000000 0.000002
vn 0.000000 1.000000 -0.000002
vn 0.000001 1.000000 -0.000003
vn 0.000002 1.000000 0.000003
vn 0.000000 1.000000 0.000003
vn 0.000000 1.000000 0.000002
vn 0.000001 1.000000 0.000001
vn 0.000000 1.000000 0.000002
vn 0.000000 1.000000 0.000003
vn -0.000002 1.000000 0.000002
vn -0.000001 1.000000 0.000001
vn 0.000000 1.000000 -0.000002
vn 0.000000 1.000000 0.000002
vn -0.000001 1.000000 0.000001
vn 0.000000 1.000000 -0.000001
vn 0.000001 1.000000 -0.000002
vn 0.000000 1.000000 -0.000002
vn 0.000000 1.000000 -0.000001
vn -0.000001 1.000000 -0.000002
vn 0.000001 1.000000 -0.000002
vn 0.000001 1.000000 -0.000002
vn -0.000001 1.000000 -0.000002
vn -0.000002 1.000000 -0.000002
s off
g initialShadingGroup Sunmao_004_A
f 1/1/1 2/2/2 3/3/3
f 2/2/4 4/4/5 3/3/6
f 5/5/7 1/1/8 3/3/9
f 6/6/10 5/5/11 3/3/12
f 4/4/13 7/7/14 3/3/15
f 8/8/16 6/6/17 3/3/18
f 7/7/19 9/9/20 3/3/21
f 10/10/22 8/8/23 3/3/24
f 9/9/25 11/11/26 3/3/27
f 12/12/28 10/10/29 3/3/30
f 11/11/31 13/13/32 3/3/33
f 13/13/34 14/14/35 3/3/36
f 15/15/37 12/12/38 3/3/39
f 14/14/40 16/16/41 3/3/42
f 17/17/43 15/15/44 3/3/45
f 16/16/46 18/18/47 3/3/48
f 19/19/49 17/17/50 3/3/51
f 18/18/52 20/20/53 3/3/54
f 21/21/55 19/19/56 3/3/57
f 20/20/58 21/21/59 3/3/60
f 22/22/61 23/23/62 24/24/63 25/25/64
f 26/26/65 27/27/66 28/28/67 29/29/68
f 93/30/69 79/31/70 68/32/71 83/33/72
f 25/25/73 24/24/74 34/34/75 35/35/76
f 36/36/77 37/37/78 27/27/79 26/26/80
f 35/35/81 34/34/82 38/38/83 39/39/84
f 40/40/85 41/41/86 37/37/87 36/36/88
f 39/39/89 38/38/90 42/42/91 43/43/92
f 44/44/93 45/45/94 41/41/95 40/40/96
f 46/46/97 47/47/98 48/48/99 49/49/100
f 50/50/101 51/51/102 52/52/103 53/53/104
f 49/49/105 48/48/106 54/54/107 55/55/108
f 56/56/109 57/57/110 51/51/111 50/50/112
f 55/55/113 54/54/114 58/58/115 59/59/116
f 60/60/117 61/61/118 57/57/119 56/56/120
f 59/59/121 58/58/122 62/62/123 63/63/124
f 64/64/125 65/65/126 61/61/127 60/60/128
f 23/66/129 28/67/130 2/68/131 1/69/132
f 28/67/133 27/70/134 4/71/135 2/68/136
f 24/72/137 23/66/138 1/69/139 5/73/140
f 34/74/141 24/72/142 5/73/143 6/75/144
f 27/70/145 37/76/146 7/77/147 4/71/148
f 8/78/149 38/79/150 34/74/151 6/75/152
f 37/76/153 41/80/154 9/81/155 7/77/156
f 42/82/157 38/79/158 8/78/159 10/83/160
f 41/80/161 45/84/162 11/85/163 9/81/164
f 47/86/165 42/82/166 10/83/167 12/87/168
f 45/88/169 52/89/170 13/90/171 11/91/172
f 52/89/173 51/92/174 14/93/175 13/90/176
f 48/94/177 47/86/178 12/87/179 15/95/180
f 51/92/181 57/96/182 16/97/183 14/93/184
f 54/98/185 48/94/186 15/95/187 17/99/188
f 57/96/189 61/100/190 18/101/191 16/97/192
f 58/102/193 54/98/194 17/99/195 19/103/196
f 61/100/197 65/104/198 20/105/199 18/101/200
f 62/106/201 58/102/202 19/103/203 21/107/204
f 65/104/205 62/106/206 21/107/207 20/105/208
f 28/28/209 23/23/210 22/22/211 29/29/212
f 42/42/213 47/47/214 46/46/215 43/43/216
f 52/52/217 45/45/218 44/44/219 53/53/220
f 62/62/221 65/65/222 64/64/223 63/63/224
f 35/108/225 66/109/226 76/110/227 25/111/228
f 44/112/229 80/113/230 30/114/231 53/115/232
f 59/116/233 73/117/234 70/118/235 55/119/236
f 50/120/237 81/121/238 67/122/239 56/123/240
f 39/124/241 75/125/242 66/109/243 35/108/244
f 91/126/245 92/127/246 69/128/247 84/129/248
f 56/123/249 67/122/250 82/130/251 60/131/252
f 26/132/253 78/133/254 68/134/255 36/135/256
f 76/136/257 87/137/258 77/138/259 31/139/260
f 75/140/261 85/141/262 86/142/263 66/143/264
f 46/144/265 71/145/266 32/146/267 43/147/268
f 49/148/269 72/149/270 71/145/271 46/144/272
f 55/119/273 70/118/274 72/149/275 49/148/276
f 63/150/277 74/151/278 73/117/279 59/116/280
f 33/152/281 74/151/282 63/150/283 64/153/284
f 43/147/285 32/146/286 75/125/287 39/124/288
f 25/111/289 76/110/290 31/154/291 22/155/292
f 22/156/293 31/157/294 77/158/295 29/159/296
f 29/159/297 77/158/298 78/133/299 26/132/300
f 36/135/301 68/134/302 79/160/303 40/161/304
f 40/161/305 79/160/306 80/113/307 44/112/308
f 53/115/309 30/114/310 81/121/311 50/120/312
f 60/131/313 82/130/314 33/152/315 64/153/316
f 86/142/317 87/137/318 76/136/319 66/143/320
f 92/127/321 93/30/322 83/33/323 69/128/324
f 71/145/325 85/141/326 75/140/327 32/146/328
f 73/117/329 91/126/330 84/129/331 70/118/332
f 70/118/333 84/129/334 90/162/335 72/149/336
f 89/163/337 90/162/338 84/129/339 69/128/340
f 69/128/341 83/33/342 88/164/343 89/163/344
f 78/165/345 88/164/346 83/33/347 68/32/348
f 77/138/349 87/137/350 88/164/351 78/165/352
f 89/163/353 88/164/354 87/137/355 86/142/356
f 86/142/357 85/141/358 90/162/359 89/163/360
f 72/149/361 90/162/362 85/141/363 71/145/364
f 82/166/365 96/167/366 74/151/367 33/152/368
f 67/168/369 95/169/370 96/167/371 82/166/372
f 81/170/373 94/171/374 95/169/375 67/168/376
f 30/172/377 80/173/378 94/171/379 81/170/380
f 94/171/381 80/173/382 79/31/383 93/30/384
f 95/169/385 94/171/386 93/30/387 92/127/388
f 96/167/389 95/169/390 92/127/391 91/126/392
f 74/151/393 96/167/394 91/126/395 73/117/396
g default
v 0.020031 1.373925 0.247406
v -0.201847 1.248854 0.340528
v 0.020031 1.280925 0.340528
v -0.172436 1.135262 0.400313
v 0.020031 1.163738 0.400313
v 0.020031 1.433635 0.130070
v -0.225188 1.339001 0.247406
v -0.139834 1.009345 0.420915
v 0.020031 1.033835 0.420915
v 0.020031 1.454210 -0.000001
v -0.240174 1.396879 0.130070
v -0.107231 0.883426 0.400313
v 0.020031 0.903933 0.400313
v -0.245337 1.416822 -0.000001
v -0.240174 1.396879 -0.130069
v 0.020031 1.433635 -0.130069
v -0.077820 0.769834 0.340526
v 0.020031 0.786746 0.340528
v -0.225188 1.339001 -0.247408
v 0.020031 1.373925 -0.247408
v -0.182539 0.731051 0.340528
v -0.234214 0.836397 0.400313
v -0.054479 0.679687 0.247406
v 0.020031 0.693744 0.247406
v -0.201847 1.248854 -0.340527
v 0.020031 1.280925 -0.340527
v -0.039494 0.621809 0.130070
v 0.020031 0.634036 0.130070
v -0.172436 1.135262 -0.400315
v 0.020031 1.163738 -0.400315
v -0.034330 0.601866 -0.000001
v 0.020031 0.613461 -0.000001
v -0.139834 1.009345 -0.420915
v 0.020031 1.033834 -0.420915
v 0.020031 0.634034 -0.130069
v -0.039493 0.621809 -0.130069
v -0.107231 0.883426 -0.400315
v 0.020031 0.903933 -0.400315
v 0.020031 0.693744 -0.247408
v -0.077820 0.769834 -0.340527
v 0.020031 0.786746 -0.340527
v -0.054479 0.679687 -0.247408
v -0.488556 0.291383 0.340528
v -0.398268 0.154546 0.247406
v -0.395914 0.281963 0.247406
v -0.605292 0.303254 0.400313
v -0.491388 0.154546 0.340528
v -0.338482 0.154546 0.130070
v -0.336434 0.275915 0.130070
v 1.159710 1.280925 0.340528
v 1.159710 1.373925 0.247406
v -0.608725 0.154546 0.400313
v -0.734694 0.316413 0.420915
v 1.159710 1.163738 0.400313
v 1.159710 1.433635 0.130070
v -0.317880 0.154546 -0.000001
v -0.315939 0.273831 -0.000001
v -0.738795 0.154546 0.420915
v -0.864097 0.329572 0.400313
v -0.336434 0.275915 -0.130069
v 1.159710 1.033835 0.420915
v 1.159710 1.454210 -0.000001
v -0.669389 0.154546 0.095530
v -0.669389 0.478723 0.095530
v -0.609211 0.478723 0.095530
v -0.868865 0.154546 0.400313
v -0.338481 0.154546 -0.130069
v -0.980833 0.341444 0.340528
v -0.395914 0.281963 -0.247408
v -0.609211 0.154546 -0.094839
v -0.609211 0.478723 -0.095530
v -0.669389 0.478723 -0.095530
v -0.986203 0.154546 0.340528
v -0.868380 0.154546 0.094840
v -0.868380 0.478723 0.095530
v -0.808202 0.478723 0.095530
v -0.398268 0.154546 -0.247408
v 1.159710 0.903933 0.400313
v 1.159710 1.433635 -0.130069
v -1.073475 0.350864 0.247406
v -0.488556 0.291383 -0.340527
v -0.669389 0.154546 -0.095530
v -1.079323 0.154546 0.247406
v -0.491388 0.154546 -0.340527
v -0.868380 0.478723 -0.095530
v -0.868380 0.154546 -0.094839
v -0.808202 0.478723 -0.095530
v -1.132954 0.356912 0.130070
v -0.605292 0.303254 -0.400315
v -0.808202 0.154546 -0.095530
v 1.159710 0.786746 0.340528
v 1.159710 1.373925 -0.247408
v -1.139108 0.154546 0.130070
v -0.608725 0.154546 -0.400315
v -1.153450 0.358997 -0.000001
v -0.734694 0.316413 -0.420915
v -1.159710 0.154546 -0.000001
v -0.738795 0.154546 -0.420915
v -0.864097 0.329572 -0.400315
v -1.139108 0.154546 -0.130069
v -1.132954 0.356912 -0.130069
v -0.868865 0.154546 -0.400315
v -0.980833 0.341444 -0.340527
v -1.079323 0.154546 -0.247408
v -1.073475 0.350864 -0.247408
v 1.159710 0.693744 0.247406
v 1.159710 1.280925 -0.340527
v -0.986203 0.154546 -0.340527
v 1.159710 0.634036 0.130070
v 1.159710 1.163738 -0.400315
v 1.159710 0.613461 -0.000001
v 1.159710 1.033834 -0.420915
v -0.400453 1.175298 0.340528
v -0.348778 1.069952 0.400313
v -0.441463 1.258902 0.247406
v -0.291496 0.953175 0.420915
v -0.467792 1.312578 0.130070
v 1.159710 0.634034 -0.130069
v 1.159710 0.903933 -0.400315
v -0.476865 1.331073 -0.000001
v 1.159710 0.693744 -0.247408
v 1.159710 0.786746 -0.340527
v -0.508364 0.970481 0.400313
v -0.428747 0.867625 0.420915
v -0.580187 1.063270 0.340528
v -0.467792 1.312578 -0.130069
v -0.349131 0.764770 0.400313
v -0.637186 1.136905 0.247406
v -0.141530 0.647448 0.247406
v -0.277308 0.671982 0.340528
v -0.673782 1.184184 0.130070
v -0.441463 1.258902 -0.247408
v -0.220308 0.598345 0.247406
v -0.686392 1.200474 -0.000001
v -0.644660 0.840923 0.400313
v -0.545968 0.756198 0.420915
v -0.115200 0.593771 0.130070
v -0.447276 0.671474 0.400313
v -0.733691 0.917352 0.340528
v -0.358245 0.595045 0.340528
v -0.400453 1.175298 -0.340527
v -0.804346 0.978008 0.247406
v -0.183713 0.551068 0.130070
v -0.673782 1.184184 -0.130069
v -0.287590 0.534389 0.247406
v -0.106127 0.575275 -0.000001
v -0.849710 1.016952 0.130070
v -0.638359 0.623456 0.420915
v -0.524633 0.560333 0.400313
v -0.422039 0.503390 0.340528
v -0.348778 1.069952 -0.400315
v -0.242227 0.495445 0.130070
v -0.752085 0.686579 0.400313
v -0.171103 0.534776 -0.000001
v -0.637186 1.136906 -0.247408
v -0.340620 0.458199 0.247406
v -0.115200 0.593770 -0.130069
v -0.854679 0.743524 0.340528
v -0.865341 1.030370 -0.000001
v -0.291496 0.953175 -0.420915
v -0.288346 0.429183 0.130070
v -0.226595 0.482026 -0.000001
v -0.141530 0.647448 -0.247408
v -0.183713 0.551066 -0.130069
v -0.580187 1.063270 -0.340527
v -0.578034 0.435895 0.400313
v -0.466077 0.400768 0.340528
v -0.377228 0.372892 0.247406
v -0.702138 0.474833 0.420915
v -0.936098 0.788716 0.247406
v -0.234214 0.836397 -0.400315
v -0.182539 0.731050 -0.340527
v -0.849710 1.016952 -0.130069
v -0.270334 0.419185 -0.000001
v -0.320183 0.354995 0.130070
v -0.826243 0.513772 0.400313
v -0.242226 0.495445 -0.130069
v -0.220308 0.598345 -0.247408
v -0.508364 0.970481 -0.400315
v -0.988372 0.817729 0.130070
v -0.277308 0.671982 -0.340527
v -0.428747 0.867625 -0.420915
v -0.300527 0.348827 -0.000001
v -0.938200 0.548897 0.340528
v -0.804346 0.978008 -0.247408
v -0.288346 0.429183 -0.130069
v -0.287590 0.534389 -0.247408
v -0.349131 0.764770 -0.400315
v -1.006385 0.827728 -0.000001
v -0.733691 0.917352 -0.340527
v -0.320183 0.354995 -0.130069
v -0.358245 0.595045 -0.340527
v -1.027049 0.576775 0.247406
v -0.340620 0.458199 -0.247408
v -0.644660 0.840923 -0.400315
v -0.447276 0.671474 -0.400315
v -0.988372 0.817729 -0.130069
v -0.545968 0.756198 -0.420915
v -0.609211 0.478723 0.042105
v -0.669389 0.478723 0.043420
v -0.377228 0.372892 -0.247408
v -0.422039 0.503390 -0.340527
v -1.084094 0.594672 0.130070
v -0.669389 0.478723 0.000000
v -0.609211 0.478723 0.000000
v -0.707756 0.478723 0.095530
v -0.707756 0.478723 0.044257
v -0.738795 0.478723 0.095530
v -0.738795 0.478723 0.044935
v -0.609211 0.478723 -0.042104
v -0.669389 0.478723 -0.043418
v -0.936098 0.788716 -0.247408
v -0.707756 0.478723 0.000000
v -0.769835 0.478723 0.045613
v -0.769835 0.478723 0.095530
v -0.738795 0.478723 0.000000
v -0.524633 0.560333 -0.400315
v -0.707756 0.478723 -0.044257
v -0.808202 0.478723 0.046451
v -0.769835 0.478723 0.000000
v -0.466077 0.400768 -0.340527
v -0.738795 0.478723 -0.044935
v -0.854679 0.743525 -0.340527
v -1.103750 0.600840 -0.000001
v -0.707756 0.478723 -0.095530
v -0.808202 0.478723 -0.000000
v -0.868380 0.478723 0.047765
v -0.638359 0.623456 -0.420915
v -0.769835 0.478723 -0.045613
v -0.609211 0.154546 0.094840
v -0.669389 0.154546 0.095530
v -0.707756 0.154546 0.095530
v -0.738795 0.154546 0.095530
v -0.738795 0.478723 -0.095530
v -0.752085 0.686579 -0.400315
v -0.808202 0.478723 -0.046451
v -0.868380 0.478723 0.000000
v -0.769835 0.154546 0.095530
v -0.769835 0.478723 -0.095530
v -0.868380 0.478723 -0.047765
v -0.578033 0.435895 -0.400315
v -1.084094 0.594672 -0.130069
v -0.609211 0.154546 -0.094149
v -0.609211 0.154546 -0.042104
v -0.808202 0.154546 0.095530
v -0.808202 0.154546 0.095530
v -0.702138 0.474833 -0.420915
v -1.027049 0.576775 -0.247408
v -0.826243 0.513772 -0.400315
v -0.938200 0.548897 -0.340527
v -0.738795 0.154546 -0.095530
v -0.707756 0.154546 -0.095530
v -0.769835 0.154546 -0.095530
v -0.868380 0.154546 -0.042104
v -0.868380 0.154546 -0.094149
v -0.609211 0.154546 0.094148
v -0.609211 0.154546 0.042105
v -0.609211 0.154546 0.042104
v -0.707756 0.154546 0.095530
v -0.609211 0.154546 -0.000000
v -0.609211 0.154546 -0.000000
v -0.609211 0.154546 -0.042104
v -0.769835 0.154546 0.095530
v -0.707756 0.154546 -0.095530
v -0.669389 0.154546 -0.095530
v -0.868380 0.154546 0.094148
v -0.868380 0.154546 0.042105
v -0.868380 0.154546 0.042104
v -0.868380 0.154546 -0.000000
v -0.769835 0.154546 -0.095530
v -0.868380 0.154546 -0.000000
v -0.868380 0.154546 -0.042104
v -0.808202 0.154546 -0.095530
v 1.159710 1.033835 0.000002
vt 0.233626 0.299443
vt 0.230000 0.255462
vt 0.258575 0.249761
vt 0.261298 0.296715
vt 0.205823 0.302982
vt 0.201616 0.262841
vt 0.287308 0.246135
vt 0.288906 0.294892
vt 0.177750 0.307218
vt 0.173426 0.271601
vt 0.316120 0.244741
vt 0.316515 0.293989
vt 0.149414 0.311625
vt 0.145315 0.280907
vt 0.344916 0.245501
vt 0.344121 0.294338
vt 0.120164 0.315569
vt 0.117069 0.289787
vt 0.373605 0.248448
vt 0.371728 0.295566
vt 0.121872 0.344802
vt 0.150854 0.344573
vt 0.090782 0.318096
vt 0.088486 0.297058
vt 0.402111 0.253396
vt 0.399401 0.297627
vt 0.060987 0.318761
vt 0.059370 0.301606
vt 0.430412 0.259973
vt 0.427229 0.300380
vt 0.031010 0.317210
vt 0.029681 0.303092
vt 0.458534 0.267761
vt 0.455304 0.303638
vt 0.572519 0.293752
vt 0.602190 0.294308
vt 0.601759 0.307706
vt 0.571988 0.310545
vt 0.486603 0.276030
vt 0.483784 0.306874
vt 0.543412 0.290150
vt 0.542151 0.310978
vt 0.514796 0.283907
vt 0.512825 0.309561
vt 0.052625 0.487649
vt 0.068477 0.462584
vt 0.096614 0.483140
vt 0.079693 0.509714
vt 0.125585 0.503924
vt 0.108382 0.533097
vt 0.026208 0.468564
vt 0.040782 0.444212
vt 0.217567 0.005975
vt 0.249190 0.003137
vt 0.155859 0.523136
vt 0.139224 0.555468
vt 0.186371 0.009414
vt 0.281158 0.001052
vt 0.000000 0.452120
vt 0.013921 0.428881
vt 0.187171 0.540053
vt 0.172185 0.576033
vt 0.599770 0.432853
vt 0.626127 0.415775
vt 0.640833 0.438967
vt 0.615245 0.456651
vt 0.155657 0.013169
vt 0.313333 0.000000
vt 0.641311 0.390798
vt 0.714537 0.390487
vt 0.714595 0.404080
vt 0.641369 0.404392
vt 0.641311 0.390798
vt 0.220064 0.553538
vt 0.207224 0.592084
vt 0.572732 0.452724
vt 0.589501 0.477173
vt 0.641460 0.447237
vt 0.714687 0.447237
vt 0.714687 0.460830
vt 0.641460 0.460830
vt 0.641120 0.345850
vt 0.714346 0.345538
vt 0.714404 0.359131
vt 0.641178 0.359443
vt 0.641178 0.359443
vt 0.125416 0.017100
vt 0.345554 0.000003
vt 0.253619 0.563967
vt 0.243879 0.605671
vt 0.545340 0.474675
vt 0.563245 0.500551
vt 0.714687 0.492186
vt 0.714687 0.505779
vt 0.641460 0.505779
vt 0.641460 0.492186
vt 0.287815 0.570439
vt 0.282580 0.614514
vt 0.517144 0.496908
vt 0.535492 0.525261
vt 0.095565 0.020848
vt 0.377671 0.001006
vt 0.322409 0.572082
vt 0.322622 0.617778
vt 0.487689 0.517740
vt 0.505525 0.549368
vt 0.456805 0.535902
vt 0.473099 0.571144
vt 0.356962 0.569560
vt 0.362633 0.613487
vt 0.424665 0.551150
vt 0.438316 0.589956
vt 0.391168 0.562348
vt 0.401309 0.603707
vt 0.065937 0.024100
vt 0.409535 0.002958
vt 0.036294 0.026632
vt 0.441034 0.005642
vt 0.006373 0.028294
vt 0.472097 0.008860
vt 0.235298 0.340987
vt 0.207533 0.342120
vt 0.262835 0.340101
vt 0.179489 0.343342
vt 0.290215 0.339579
vt 0.592453 0.021221
vt 0.622312 0.022740
vt 0.502698 0.012333
vt 0.317373 0.339261
vt 0.562729 0.018815
vt 0.532877 0.015738
vt 0.207931 0.381319
vt 0.179616 0.379796
vt 0.235889 0.382493
vt 0.344516 0.339179
vt 0.150686 0.377684
vt 0.263619 0.383212
vt 0.091803 0.343884
vt 0.121219 0.374182
vt 0.291087 0.384181
vt 0.371727 0.339252
vt 0.091008 0.369478
vt 0.318608 0.384308
vt 0.206655 0.420803
vt 0.177761 0.416351
vt 0.061463 0.341371
vt 0.148477 0.410530
vt 0.235095 0.424524
vt 0.118675 0.403156
vt 0.399101 0.339456
vt 0.263306 0.427092
vt 0.060630 0.363639
vt 0.346103 0.383890
vt 0.088488 0.394544
vt 0.031393 0.337218
vt 0.291521 0.428709
vt 0.173810 0.452664
vt 0.144025 0.442919
vt 0.114075 0.431375
vt 0.426771 0.339674
vt 0.058259 0.385391
vt 0.203424 0.460510
vt 0.030657 0.357176
vt 0.373627 0.382869
vt 0.084065 0.418772
vt 0.602185 0.326656
vt 0.572540 0.332643
vt 0.232760 0.466924
vt 0.319724 0.429187
vt 0.454885 0.339918
vt 0.054329 0.406326
vt 0.028705 0.376633
vt 0.542627 0.336366
vt 0.604014 0.345689
vt 0.574756 0.354373
vt 0.401226 0.381294
vt 0.136758 0.474327
vt 0.106945 0.458301
vt 0.077505 0.441655
vt 0.166958 0.488475
vt 0.262107 0.471443
vt 0.483552 0.339645
vt 0.512856 0.338670
vt 0.347946 0.428409
vt 0.025442 0.395247
vt 0.048552 0.426070
vt 0.197430 0.500414
vt 0.607291 0.364446
vt 0.578633 0.375557
vt 0.544825 0.361598
vt 0.428998 0.379043
vt 0.291437 0.474133
vt 0.515053 0.367674
vt 0.457130 0.376206
vt 0.020605 0.412700
vt 0.228224 0.509876
vt 0.376166 0.426395
vt 0.612043 0.382554
vt 0.584053 0.395940
vt 0.549075 0.386219
vt 0.485806 0.372454
vt 0.320795 0.474870
vt 0.404409 0.423100
vt 0.618312 0.399723
vt 0.591081 0.415150
vt 0.519471 0.396249
vt 0.259274 0.516862
vt 0.554994 0.409974
vt 0.432739 0.418451
vt 0.490185 0.405058
vt 0.350135 0.473646
vt 0.461296 0.412401
vt 0.745777 0.447237
vt 0.757844 0.447237
vt 0.757844 0.460830
vt 0.746073 0.460830
vt 0.562789 0.432334
vt 0.525673 0.424040
vt 0.290488 0.521000
vt 0.736266 0.460830
vt 0.736266 0.447237
vt 0.757844 0.469497
vt 0.746263 0.469497
vt 0.757844 0.476508
vt 0.746416 0.476508
vt 0.726755 0.447237
vt 0.726458 0.460830
vt 0.379446 0.470440
vt 0.736266 0.469497
vt 0.746569 0.483519
vt 0.757844 0.483519
vt 0.736266 0.476508
vt 0.496369 0.437088
vt 0.726269 0.469497
vt 0.746758 0.492186
vt 0.757844 0.492186
vt 0.736266 0.483519
vt 0.534084 0.450455
vt 0.726116 0.476508
vt 0.408700 0.465181
vt 0.321723 0.522184
vt 0.714687 0.469497
vt 0.736266 0.492186
vt 0.757844 0.505779
vt 0.747055 0.505779
vt 0.467120 0.448365
vt 0.725963 0.483519
vt 0.641274 0.382132
vt 0.641245 0.375121
vt 0.714471 0.374809
vt 0.714500 0.381820
vt 0.714687 0.476508
vt 0.437906 0.457809
vt 0.725773 0.492186
vt 0.736266 0.505779
vt 0.641215 0.368109
vt 0.714441 0.367798
vt 0.714687 0.483519
vt 0.725476 0.505779
vt 0.505003 0.468008
vt 0.352954 0.520357
vt 0.743738 0.073813
vt 0.791388 0.039193
vt 0.804893 0.065699
vt 0.743738 0.085569
vt 0.475451 0.483728
vt 0.384046 0.515596
vt 0.445376 0.497103
vt 0.414913 0.507843
vt 0.714467 0.073501
vt 0.714467 0.000000
vt 0.743848 0.004653
vt 0.721478 0.073501
vt 0.707455 0.073501
vt 0.685085 0.004653
vt 0.685195 0.085569
vt 0.624041 0.065699
vt 0.637546 0.039193
vt 0.685195 0.073813
vt 0.791388 0.150966
vt 0.770353 0.172001
vt 0.730145 0.116659
vt 0.743738 0.116503
vt 0.743738 0.116347
vt 0.804893 0.124461
vt 0.743738 0.104591
vt 0.743738 0.104591
vt 0.641394 0.416303
vt 0.641369 0.404548
vt 0.714621 0.416148
vt 0.743848 0.185506
vt 0.721478 0.116659
vt 0.730145 0.116659
vt 0.641415 0.425814
vt 0.641394 0.416304
vt 0.714641 0.425658
vt 0.809546 0.095079
vt 0.743738 0.095080
vt 0.743738 0.095080
vt 0.641274 0.382132
vt 0.714467 0.190159
vt 0.714467 0.116659
vt 0.721478 0.116659
vt 0.641435 0.435325
vt 0.641415 0.425814
vt 0.714661 0.435169
vt 0.743738 0.085569
vt 0.685085 0.185506
vt 0.707455 0.116659
vt 0.707455 0.116659
vt 0.641215 0.368109
vt 0.658580 0.172001
vt 0.698789 0.116659
vt 0.698789 0.116659
vt 0.641460 0.469497
vt 0.641460 0.460830
vt 0.641369 0.548625
vt 0.641369 0.548468
vt 0.641394 0.536713
vt 0.714618 0.538147
vt 0.714595 0.548936
vt 0.641460 0.476508
vt 0.641460 0.469497
vt 0.641394 0.536712
vt 0.641415 0.527202
vt 0.714641 0.527358
vt 0.641460 0.483519
vt 0.641460 0.483519
vt 0.637546 0.150966
vt 0.685195 0.116347
vt 0.685195 0.116503
vt 0.641415 0.527202
vt 0.641435 0.517691
vt 0.714664 0.516569
vt 0.641460 0.492186
vt 0.770353 0.018159
vt 0.730145 0.073501
vt 0.721478 0.073501
vt 0.624041 0.124461
vt 0.685195 0.104591
vt 0.685195 0.104591
vt 0.619387 0.095079
vt 0.685195 0.095080
vt 0.685195 0.095080
vt 0.685195 0.085569
vt 0.658580 0.018159
vt 0.707455 0.073501
vt 0.698789 0.073501
vt 0.641460 0.447081
vt 0.641435 0.435325
vt 0.743738 0.073657
vt 0.730145 0.073501
vt 0.641435 0.517691
vt 0.641460 0.505935
vt 0.698789 0.073501
vt 0.685195 0.073657
vt 0.823547 0.473623
vt 0.811161 0.446599
vt 0.902716 0.421123
vt 0.807739 0.417081
vt 0.843681 0.495508
vt 0.813613 0.387958
vt 0.869595 0.510112
vt 0.828209 0.362082
vt 0.898750 0.516005
vt 0.850099 0.341985
vt 0.928294 0.512610
vt 0.877139 0.329636
vt 0.955334 0.500260
vt 0.906683 0.326241
vt 0.977224 0.480164
vt 0.935838 0.332134
vt 0.991820 0.454288
vt 0.961752 0.346738
vt 0.997695 0.425165
vt 0.981887 0.368623
vt 0.994272 0.395647
vn -0.146597 0.584100 0.798333
vn -0.014100 0.590792 0.806701
vn -0.020322 0.810576 0.585281
vn -0.197492 0.792181 0.577448
vn -0.081000 0.319719 0.944044
vn -0.007093 0.312886 0.949764
vn -0.014100 0.590792 0.806701
vn -0.146597 0.584100 0.798333
vn -0.197492 0.792181 0.577448
vn -0.020322 0.810576 0.585281
vn -0.024602 0.951264 0.307394
vn -0.229722 0.924974 0.302738
vn -0.005735 0.023768 0.999701
vn -0.000528 0.003848 0.999992
vn -0.007093 0.312886 0.949764
vn -0.081000 0.319719 0.944044
vn -0.229722 0.924974 0.302738
vn -0.024602 0.951264 0.307394
vn -0.026126 0.999659 0.000000
vn -0.240755 0.970586 0.000000
vn 0.073560 -0.275364 0.958522
vn 0.004626 -0.305931 0.952042
vn -0.000528 0.003848 0.999992
vn -0.005735 0.023768 0.999701
vn -0.026126 0.999659 0.000000
vn -0.024602 0.951264 -0.307396
vn -0.229723 0.924973 -0.302740
vn -0.240755 0.970586 0.000000
vn 0.004626 -0.305931 0.952042
vn 0.073560 -0.275364 0.958522
vn 0.150893 -0.548182 0.822635
vn 0.007925 -0.585797 0.810419
vn -0.024602 0.951264 -0.307396
vn -0.020322 0.810576 -0.585280
vn -0.197494 0.792181 -0.577447
vn -0.229723 0.924973 -0.302740
vn 0.250623 -0.510920 0.822283
vn 0.150893 -0.548182 0.822635
vn 0.073560 -0.275364 0.958522
vn 0.126004 -0.256869 0.958197
vn 0.007925 -0.585797 0.810419
vn 0.150893 -0.548182 0.822635
vn 0.219292 -0.766980 0.603037
vn 0.009538 -0.808048 0.589040
vn -0.020322 0.810576 -0.585280
vn -0.014100 0.590794 -0.806699
vn -0.146598 0.584101 -0.798333
vn -0.197494 0.792181 -0.577447
vn 0.009538 -0.808048 0.589040
vn 0.219292 -0.766980 0.603037
vn 0.268961 -0.908675 0.319327
vn 0.010065 -0.950770 0.309735
vn -0.014100 0.590794 -0.806699
vn -0.007093 0.312887 -0.949764
vn -0.081001 0.319723 -0.944042
vn -0.146598 0.584101 -0.798333
vn 0.010065 -0.950770 0.309735
vn 0.268961 -0.908675 0.319327
vn 0.287655 -0.957734 0.000000
vn 0.010149 -0.999949 0.000001
vn -0.007093 0.312887 -0.949764
vn -0.000528 0.003847 -0.999993
vn -0.005735 0.023766 -0.999701
vn -0.081001 0.319723 -0.944042
vn 0.010065 -0.950769 -0.309736
vn 0.010149 -0.999949 0.000001
vn 0.287655 -0.957734 0.000000
vn 0.268961 -0.908675 -0.319328
vn -0.000528 0.003847 -0.999993
vn 0.004626 -0.305933 -0.952042
vn 0.073561 -0.275360 -0.958523
vn -0.005735 0.023766 -0.999701
vn 0.009538 -0.808048 -0.589039
vn 0.010065 -0.950769 -0.309736
vn 0.268961 -0.908675 -0.319328
vn 0.219291 -0.766981 -0.603035
vn 0.004626 -0.305933 -0.952042
vn 0.007926 -0.585799 -0.810418
vn 0.150894 -0.548185 -0.822633
vn 0.073561 -0.275360 -0.958523
vn 0.007926 -0.585799 -0.810418
vn 0.009538 -0.808048 -0.589039
vn 0.219291 -0.766981 -0.603035
vn 0.150894 -0.548185 -0.822633
vn 0.805928 -0.014975 0.591824
vn 0.797023 -0.077161 0.599000
vn 0.570420 -0.058516 0.819266
vn 0.581996 -0.011980 0.813104
vn 0.581996 -0.011980 0.813104
vn 0.570420 -0.058516 0.819266
vn 0.289227 -0.031140 0.956754
vn 0.300978 -0.006798 0.953607
vn 0.950109 -0.016260 0.311495
vn 0.944618 -0.087081 0.316406
vn 0.797023 -0.077161 0.599000
vn 0.805928 -0.014975 0.591824
vn -0.020322 0.810576 0.585281
vn -0.014100 0.590792 0.806701
vn 0.000000 0.588279 0.808658
vn 0.000000 0.809376 0.587290
vn 0.300978 -0.006798 0.953607
vn 0.289227 -0.031140 0.956754
vn -0.018250 0.002570 0.999830
vn -0.008966 0.000391 0.999960
vn -0.014100 0.590792 0.806701
vn -0.007093 0.312886 0.949764
vn 0.000000 0.309375 0.950940
vn 0.000000 0.588279 0.808658
vn -0.024602 0.951264 0.307394
vn -0.020322 0.810576 0.585281
vn 0.000000 0.809376 0.587290
vn 0.000000 0.951173 0.308659
vn 0.999863 -0.016572 0.000001
vn 0.995940 -0.090024 0.000001
vn 0.944618 -0.087081 0.316406
vn 0.950109 -0.016260 0.311495
vn -0.008966 0.000391 0.999960
vn -0.018250 0.002570 0.999830
vn -0.322274 0.038611 0.945859
vn -0.317178 0.008758 0.948326
vn 0.944618 -0.087082 -0.316407
vn 0.995940 -0.090024 0.000001
vn 0.999863 -0.016572 0.000001
vn 0.950108 -0.016261 -0.311496
vn -0.007093 0.312886 0.949764
vn -0.000528 0.003848 0.999992
vn 0.000000 -0.000000 1.000000
vn 0.000000 0.309375 0.950940
vn -0.026126 0.999659 0.000000
vn -0.024602 0.951264 0.307394
vn 0.000000 0.951173 0.308659
vn 0.000000 1.000000 0.000000
vn -0.003508 0.000650 -0.999994
vn -0.003508 0.000650 -0.999994
vn -0.005744 0.001065 -0.999983
vn -0.005744 0.001065 -0.999983
vn -0.005744 0.001065 -0.999983
vn -0.317178 0.008758 0.948326
vn -0.322274 0.038611 0.945859
vn -0.594090 0.072476 0.801127
vn -0.593650 0.017101 0.804542
vn 0.797022 -0.077161 -0.599001
vn 0.944618 -0.087082 -0.316407
vn 0.950108 -0.016261 -0.311496
vn 0.805927 -0.014975 -0.591826
vn -0.005732 0.001065 0.999983
vn -0.005732 0.001065 0.999983
vn -0.003500 0.000650 0.999994
vn -0.003500 0.000650 0.999994
vn 0.005744 0.001065 -0.999983
vn 0.005744 0.001065 -0.999983
vn 0.003508 0.000650 -0.999994
vn 0.003508 0.000650 -0.999994
vn 0.005744 0.001065 -0.999983
vn -0.000528 0.003848 0.999992
vn 0.004626 -0.305931 0.952042
vn 0.000000 -0.309374 0.950940
vn 0.000000 -0.000000 1.000000
vn -0.024602 0.951264 -0.307396
vn -0.026126 0.999659 0.000000
vn 0.000000 1.000000 0.000000
vn 0.000000 0.951172 -0.308660
vn -0.593650 0.017101 0.804542
vn -0.594090 0.072476 0.801127
vn -0.808321 0.099997 0.580188
vn -0.811934 0.024156 0.583249
vn 0.570423 -0.058517 -0.819264
vn 0.797022 -0.077161 -0.599001
vn 0.805927 -0.014975 -0.591826
vn 0.582002 -0.011980 -0.813099
vn 0.003500 0.000650 0.999994
vn 0.005732 0.001065 0.999983
vn 0.005732 0.001065 0.999983
vn 0.003500 0.000650 0.999994
vn -0.811934 0.024156 0.583249
vn -0.808321 0.099997 0.580188
vn -0.945215 0.117894 0.304418
vn -0.951534 0.028856 0.306187
vn 0.289228 -0.031140 -0.956754
vn 0.570423 -0.058517 -0.819264
vn 0.582002 -0.011980 -0.813099
vn 0.300984 -0.006798 -0.953605
vn 0.004626 -0.305931 0.952042
vn 0.007925 -0.585797 0.810419
vn 0.000000 -0.588280 0.808657
vn 0.000000 -0.309374 0.950940
vn -0.020322 0.810576 -0.585280
vn -0.024602 0.951264 -0.307396
vn 0.000000 0.951172 -0.308660
vn 0.000000 0.809377 -0.587289
vn -0.951534 0.028856 0.306187
vn -0.945215 0.117894 0.304418
vn -0.992270 0.124096 0.000000
vn -0.999535 0.030504 0.000000
vn -0.018245 0.002570 -0.999830
vn 0.289228 -0.031140 -0.956754
vn 0.300984 -0.006798 -0.953605
vn -0.008966 0.000391 -0.999960
vn -0.322278 0.038611 -0.945857
vn -0.018245 0.002570 -0.999830
vn -0.008966 0.000391 -0.999960
vn -0.317181 0.008759 -0.948325
vn -0.992270 0.124096 0.000000
vn -0.945214 0.117894 -0.304419
vn -0.951533 0.028856 -0.306189
vn -0.999535 0.030504 0.000000
vn -0.594092 0.072476 -0.801125
vn -0.322278 0.038611 -0.945857
vn -0.317181 0.008759 -0.948325
vn -0.593651 0.017101 -0.804541
vn -0.945214 0.117894 -0.304419
vn -0.808322 0.099997 -0.580187
vn -0.811935 0.024156 -0.583248
vn -0.951533 0.028856 -0.306189
vn 0.007925 -0.585797 0.810419
vn 0.009538 -0.808048 0.589040
vn 0.000000 -0.809376 0.587290
vn 0.000000 -0.588280 0.808657
vn -0.014100 0.590794 -0.806699
vn -0.020322 0.810576 -0.585280
vn 0.000000 0.809377 -0.587289
vn 0.000000 0.588282 -0.808656
vn -0.808322 0.099997 -0.580187
vn -0.594092 0.072476 -0.801125
vn -0.593651 0.017101 -0.804541
vn -0.811935 0.024156 -0.583248
vn 0.009538 -0.808048 0.589040
vn 0.010065 -0.950770 0.309735
vn 0.000000 -0.951174 0.308656
vn 0.000000 -0.809376 0.587290
vn -0.007093 0.312887 -0.949764
vn -0.014100 0.590794 -0.806699
vn 0.000000 0.588282 -0.808656
vn 0.000000 0.309376 -0.950940
vn 0.010065 -0.950770 0.309735
vn 0.010149 -0.999949 0.000001
vn 0.000000 -1.000000 0.000001
vn 0.000000 -0.951174 0.308656
vn -0.000528 0.003847 -0.999993
vn -0.007093 0.312887 -0.949764
vn 0.000000 0.309376 -0.950940
vn 0.000000 0.000000 -1.000000
vn -0.264586 0.539394 0.799405
vn -0.144487 0.294556 0.944648
vn -0.081000 0.319719 0.944044
vn -0.146597 0.584100 0.798333
vn -0.359192 0.732261 0.578597
vn -0.264586 0.539394 0.799405
vn -0.146597 0.584100 0.798333
vn -0.197492 0.792181 0.577448
vn -0.144487 0.294556 0.944648
vn -0.010065 0.020520 0.999739
vn -0.005735 0.023768 0.999701
vn -0.081000 0.319719 0.944044
vn -0.419624 0.855463 0.303478
vn -0.359192 0.732261 0.578597
vn -0.197492 0.792181 0.577448
vn -0.229722 0.924974 0.302738
vn 0.010149 -0.999949 0.000001
vn 0.010065 -0.950769 -0.309736
vn 0.000000 -0.951173 -0.308657
vn 0.000000 -1.000000 0.000001
vn 0.004626 -0.305933 -0.952042
vn -0.000528 0.003847 -0.999993
vn 0.000000 0.000000 -1.000000
vn 0.000000 -0.309376 -0.950940
vn -0.010065 0.020520 0.999739
vn 0.126004 -0.256869 0.958197
vn 0.073560 -0.275364 0.958522
vn -0.005735 0.023768 0.999701
vn -0.440394 0.897805 0.000000
vn -0.419624 0.855463 0.303478
vn -0.229722 0.924974 0.302738
vn -0.240755 0.970586 0.000000
vn 0.010065 -0.950769 -0.309736
vn 0.009538 -0.808048 -0.589039
vn 0.000000 -0.809377 -0.587290
vn 0.000000 -0.951173 -0.308657
vn 0.007926 -0.585799 -0.810418
vn 0.004626 -0.305933 -0.952042
vn 0.000000 -0.309376 -0.950940
vn 0.000000 -0.588282 -0.808656
vn 0.009538 -0.808048 -0.589039
vn 0.007926 -0.585799 -0.810418
vn 0.000000 -0.588282 -0.808656
vn 0.000000 -0.809377 -0.587290
vn -0.200823 0.259441 0.944648
vn -0.013990 0.018074 0.999739
vn -0.010065 0.020520 0.999739
vn -0.144487 0.294556 0.944648
vn -0.367749 0.475092 0.799405
vn -0.200823 0.259441 0.944648
vn -0.144487 0.294556 0.944648
vn -0.264586 0.539394 0.799405
vn -0.419625 0.855462 -0.303479
vn -0.440394 0.897805 0.000000
vn -0.240755 0.970586 0.000000
vn -0.229723 0.924973 -0.302740
vn -0.013990 0.018074 0.999739
vn 0.175128 -0.226246 0.958198
vn 0.126004 -0.256869 0.958197
vn -0.010065 0.020520 0.999739
vn -0.499242 0.644967 0.578597
vn -0.367749 0.475092 0.799405
vn -0.264586 0.539394 0.799405
vn -0.359192 0.732261 0.578597
vn 0.250623 -0.510920 0.822283
vn 0.351363 -0.716301 0.602874
vn 0.219292 -0.766980 0.603037
vn 0.150893 -0.548182 0.822635
vn 0.175128 -0.226246 0.958198
vn 0.348337 -0.450013 0.822283
vn 0.250623 -0.510920 0.822283
vn 0.126004 -0.256869 0.958197
vn -0.583238 0.753482 0.303478
vn -0.499242 0.644967 0.578597
vn -0.359192 0.732261 0.578597
vn -0.419624 0.855463 0.303478
vn -0.359192 0.732262 -0.578596
vn -0.419625 0.855462 -0.303479
vn -0.229723 0.924973 -0.302740
vn -0.197494 0.792181 -0.577447
vn 0.348337 -0.450013 0.822283
vn 0.488361 -0.630910 0.602873
vn 0.351363 -0.716301 0.602874
vn 0.250623 -0.510920 0.822283
vn -0.612106 0.790775 0.000000
vn -0.583238 0.753482 0.303478
vn -0.419624 0.855463 0.303478
vn -0.440394 0.897805 0.000000
vn -0.248938 0.213706 0.944648
vn -0.017343 0.014888 0.999739
vn -0.013990 0.018074 0.999739
vn -0.200823 0.259441 0.944648
vn 0.351363 -0.716301 0.602874
vn 0.417337 -0.850800 0.319327
vn 0.268961 -0.908675 0.319327
vn 0.219292 -0.766980 0.603037
vn -0.017343 0.014888 0.999739
vn 0.217085 -0.186362 0.958198
vn 0.175128 -0.226246 0.958198
vn -0.013990 0.018074 0.999739
vn -0.455856 0.391340 0.799405
vn -0.248938 0.213706 0.944648
vn -0.200823 0.259441 0.944648
vn -0.367749 0.475092 0.799405
vn 0.217085 -0.186362 0.958198
vn 0.431794 -0.370682 0.822283
vn 0.348337 -0.450013 0.822283
vn 0.175128 -0.226246 0.958198
vn -0.264585 0.539396 -0.799404
vn -0.359192 0.732262 -0.578596
vn -0.197494 0.792181 -0.577447
vn -0.146598 0.584101 -0.798333
vn -0.618853 0.531268 0.578598
vn -0.455856 0.391340 0.799405
vn -0.367749 0.475092 0.799405
vn -0.499242 0.644967 0.578597
vn 0.488361 -0.630910 0.602873
vn 0.580060 -0.749373 0.319327
vn 0.417337 -0.850800 0.319327
vn 0.351363 -0.716301 0.602874
vn -0.583238 0.753481 -0.303480
vn -0.612106 0.790775 0.000000
vn -0.440394 0.897805 0.000000
vn -0.419625 0.855462 -0.303479
vn 0.431794 -0.370682 0.822283
vn 0.605367 -0.519688 0.602872
vn 0.488361 -0.630910 0.602873
vn 0.348337 -0.450013 0.822283
vn 0.417337 -0.850800 0.319327
vn 0.440395 -0.897804 0.000001
vn 0.287655 -0.957734 0.000000
vn 0.268961 -0.908675 0.319327
vn -0.722974 0.620652 0.303479
vn -0.618853 0.531268 0.578598
vn -0.499242 0.644967 0.578597
vn -0.583238 0.753482 0.303478
vn -0.019985 0.011092 0.999739
vn 0.250156 -0.138848 0.958198
vn 0.217085 -0.186362 0.958198
vn -0.017343 0.014888 0.999739
vn 0.250156 -0.138848 0.958198
vn 0.497572 -0.276175 0.822283
vn 0.431794 -0.370682 0.822283
vn 0.217085 -0.186362 0.958198
vn -0.144488 0.294560 -0.944647
vn -0.264585 0.539396 -0.799404
vn -0.146598 0.584101 -0.798333
vn -0.081001 0.319723 -0.944042
vn 0.605367 -0.519688 0.602872
vn 0.719034 -0.617268 0.319328
vn 0.580060 -0.749373 0.319327
vn 0.488361 -0.630910 0.602873
vn -0.286861 0.159220 0.944648
vn -0.019985 0.011092 0.999739
vn -0.017343 0.014888 0.999739
vn -0.248938 0.213706 0.944648
vn 0.580060 -0.749373 0.319327
vn 0.612107 -0.790775 0.000002
vn 0.440395 -0.897804 0.000001
vn 0.417337 -0.850800 0.319327
vn -0.499241 0.644969 -0.578596
vn -0.583238 0.753481 -0.303480
vn -0.419625 0.855462 -0.303479
vn -0.359192 0.732262 -0.578596
vn 0.497572 -0.276175 0.822283
vn 0.697587 -0.387192 0.602872
vn 0.605367 -0.519688 0.602872
vn 0.431794 -0.370682 0.822283
vn 0.440395 -0.897804 0.000001
vn 0.417338 -0.850799 -0.319328
vn 0.268961 -0.908675 -0.319328
vn 0.287655 -0.957734 0.000000
vn -0.525301 0.291566 0.799405
vn -0.286861 0.159220 0.944648
vn -0.248938 0.213706 0.944648
vn -0.455856 0.391340 0.799405
vn -0.758759 0.651372 0.000000
vn -0.722974 0.620652 0.303479
vn -0.583238 0.753482 0.303478
vn -0.612106 0.790775 0.000000
vn -0.010064 0.020518 -0.999739
vn -0.144488 0.294560 -0.944647
vn -0.081001 0.319723 -0.944042
vn -0.005735 0.023766 -0.999701
vn 0.697587 -0.387192 0.602872
vn 0.828570 -0.459894 0.319328
vn 0.719034 -0.617268 0.319328
vn 0.605367 -0.519688 0.602872
vn 0.719034 -0.617268 0.319328
vn 0.758758 -0.651372 0.000002
vn 0.612107 -0.790775 0.000002
vn 0.580060 -0.749373 0.319327
vn 0.417338 -0.850799 -0.319328
vn 0.351363 -0.716302 -0.602873
vn 0.219291 -0.766981 -0.603035
vn 0.268961 -0.908675 -0.319328
vn 0.612107 -0.790775 0.000002
vn 0.580061 -0.749373 -0.319327
vn 0.417338 -0.850799 -0.319328
vn 0.440395 -0.897804 0.000001
vn -0.367749 0.475094 -0.799404
vn -0.499241 0.644969 -0.578596
vn -0.359192 0.732262 -0.578596
vn -0.264585 0.539396 -0.799404
vn 0.272985 -0.085650 0.958198
vn 0.542981 -0.170361 0.822283
vn 0.497572 -0.276175 0.822283
vn 0.250156 -0.138848 0.958198
vn 0.542981 -0.170361 0.822283
vn 0.761249 -0.238843 0.602872
vn 0.697587 -0.387192 0.602872
vn 0.497572 -0.276175 0.822283
vn -0.021810 0.006842 0.999739
vn 0.272985 -0.085650 0.958198
vn 0.250156 -0.138848 0.958198
vn -0.019985 0.011092 0.999739
vn -0.713129 0.395819 0.578598
vn -0.525301 0.291566 0.799405
vn -0.455856 0.391340 0.799405
vn -0.618853 0.531268 0.578598
vn 0.126001 -0.256867 -0.958198
vn -0.010064 0.020518 -0.999739
vn -0.005735 0.023766 -0.999701
vn 0.073561 -0.275360 -0.958523
vn 0.351363 -0.716302 -0.602873
vn 0.250622 -0.510925 -0.822280
vn 0.150894 -0.548185 -0.822633
vn 0.219291 -0.766981 -0.603035
vn 0.250622 -0.510925 -0.822280
vn 0.126001 -0.256867 -0.958198
vn 0.073561 -0.275360 -0.958523
vn 0.150894 -0.548185 -0.822633
vn -0.722974 0.620652 -0.303480
vn -0.758759 0.651372 0.000000
vn -0.612106 0.790775 0.000000
vn -0.583238 0.753481 -0.303480
vn 0.828570 -0.459894 0.319328
vn 0.874346 -0.485303 0.000002
vn 0.758758 -0.651372 0.000002
vn 0.719034 -0.617268 0.319328
vn 0.761249 -0.238843 0.602872
vn 0.904185 -0.283689 0.319327
vn 0.828570 -0.459894 0.319328
vn 0.697587 -0.387192 0.602872
vn -0.313039 0.098216 0.944648
vn -0.021810 0.006842 0.999739
vn -0.019985 0.011092 0.999739
vn -0.286861 0.159220 0.944648
vn 0.758758 -0.651372 0.000002
vn 0.719033 -0.617269 -0.319328
vn 0.580061 -0.749373 -0.319327
vn 0.612107 -0.790775 0.000002
vn 0.580061 -0.749373 -0.319327
vn 0.488363 -0.630909 -0.602873
vn 0.351363 -0.716302 -0.602873
vn 0.417338 -0.850799 -0.319328
vn -0.200825 0.259445 -0.944647
vn -0.367749 0.475094 -0.799404
vn -0.264585 0.539396 -0.799404
vn -0.144488 0.294560 -0.944647
vn 0.570420 -0.058516 0.819266
vn 0.797023 -0.077161 0.599000
vn 0.761249 -0.238843 0.602872
vn 0.542981 -0.170361 0.822283
vn -0.833111 0.462414 0.303478
vn -0.713129 0.395819 0.578598
vn -0.618853 0.531268 0.578598
vn -0.722974 0.620652 0.303479
vn 0.289227 -0.031140 0.956754
vn 0.570420 -0.058516 0.819266
vn 0.542981 -0.170361 0.822283
vn 0.272985 -0.085650 0.958198
vn 0.488363 -0.630909 -0.602873
vn 0.348341 -0.450016 -0.822280
vn 0.250622 -0.510925 -0.822280
vn 0.351363 -0.716302 -0.602873
vn -0.013988 0.018072 -0.999739
vn -0.200825 0.259445 -0.944647
vn -0.144488 0.294560 -0.944647
vn -0.010064 0.020518 -0.999739
vn 0.904185 -0.283689 0.319327
vn 0.954139 -0.299363 0.000001
vn 0.874346 -0.485303 0.000002
vn 0.828570 -0.459894 0.319328
vn 0.797023 -0.077161 0.599000
vn 0.944618 -0.087081 0.316406
vn 0.904185 -0.283689 0.319327
vn 0.761249 -0.238843 0.602872
vn -0.573240 0.179855 0.799405
vn -0.313039 0.098216 0.944648
vn -0.286861 0.159220 0.944648
vn -0.525301 0.291566 0.799405
vn -0.618854 0.531269 -0.578596
vn -0.722974 0.620652 -0.303480
vn -0.583238 0.753481 -0.303480
vn -0.499241 0.644969 -0.578596
vn -0.018250 0.002570 0.999830
vn 0.289227 -0.031140 0.956754
vn 0.272985 -0.085650 0.958198
vn -0.021810 0.006842 0.999739
vn 0.874346 -0.485303 0.000002
vn 0.828570 -0.459894 -0.319328
vn 0.719033 -0.617269 -0.319328
vn 0.758758 -0.651372 0.000002
vn 0.719033 -0.617269 -0.319328
vn 0.605366 -0.519688 -0.602873
vn 0.488363 -0.630909 -0.602873
vn 0.580061 -0.749373 -0.319327
vn 0.348341 -0.450016 -0.822280
vn 0.175128 -0.226245 -0.958198
vn 0.126001 -0.256867 -0.958198
vn 0.250622 -0.510925 -0.822280
vn 0.175128 -0.226245 -0.958198
vn -0.013988 0.018072 -0.999739
vn -0.010064 0.020518 -0.999739
vn 0.126001 -0.256867 -0.958198
vn -0.874347 0.485301 0.000000
vn -0.833111 0.462414 0.303478
vn -0.722974 0.620652 0.303479
vn -0.758759 0.651372 0.000000
vn 0.944618 -0.087081 0.316406
vn 0.995940 -0.090024 0.000001
vn 0.954139 -0.299363 0.000001
vn 0.904185 -0.283689 0.319327
vn -0.455858 0.391341 -0.799403
vn -0.618854 0.531269 -0.578596
vn -0.499241 0.644969 -0.578596
vn -0.367749 0.475094 -0.799404
vn -0.322274 0.038611 0.945859
vn -0.018250 0.002570 0.999830
vn -0.021810 0.006842 0.999739
vn -0.313039 0.098216 0.944648
vn 0.954139 -0.299363 0.000001
vn 0.904185 -0.283689 -0.319327
vn 0.828570 -0.459894 -0.319328
vn 0.874346 -0.485303 0.000002
vn 0.605366 -0.519688 -0.602873
vn 0.431798 -0.370684 -0.822280
vn 0.348341 -0.450016 -0.822280
vn 0.488363 -0.630909 -0.602873
vn -0.778209 0.244164 0.578597
vn -0.573240 0.179855 0.799405
vn -0.525301 0.291566 0.799405
vn -0.713129 0.395819 0.578598
vn 0.828570 -0.459894 -0.319328
vn 0.697587 -0.387191 -0.602873
vn 0.605366 -0.519688 -0.602873
vn 0.719033 -0.617269 -0.319328
vn -0.248942 0.213708 -0.944646
vn -0.455858 0.391341 -0.799403
vn -0.367749 0.475094 -0.799404
vn -0.200825 0.259445 -0.944647
vn 0.431798 -0.370684 -0.822280
vn 0.217086 -0.186361 -0.958198
vn 0.175128 -0.226245 -0.958198
vn 0.348341 -0.450016 -0.822280
vn -0.833111 0.462414 -0.303480
vn -0.874347 0.485301 0.000000
vn -0.758759 0.651372 0.000000
vn -0.722974 0.620652 -0.303480
vn 0.995940 -0.090024 0.000001
vn 0.944618 -0.087082 -0.316407
vn 0.904185 -0.283689 -0.319327
vn 0.954139 -0.299363 0.000001
vn -0.017341 0.014886 -0.999739
vn -0.248942 0.213708 -0.944646
vn -0.200825 0.259445 -0.944647
vn -0.013988 0.018072 -0.999739
vn 0.217086 -0.186361 -0.958198
vn -0.017341 0.014886 -0.999739
vn -0.013988 0.018072 -0.999739
vn 0.175128 -0.226245 -0.958198
vn 0.000000 -1.000000 -0.000001
vn 0.000000 -1.000000 0.000000
vn 0.000000 -1.000000 0.000001
vn 0.000000 -1.000000 0.000000
vn -0.594090 0.072476 0.801127
vn -0.322274 0.038611 0.945859
vn -0.313039 0.098216 0.944648
vn -0.573240 0.179855 0.799405
vn 0.904185 -0.283689 -0.319327
vn 0.761249 -0.238842 -0.602872
vn 0.697587 -0.387191 -0.602873
vn 0.828570 -0.459894 -0.319328
vn 0.697587 -0.387191 -0.602873
vn 0.497576 -0.276177 -0.822280
vn 0.431798 -0.370684 -0.822280
vn 0.605366 -0.519688 -0.602873
vn -0.909141 0.285244 0.303478
vn -0.778209 0.244164 0.578597
vn -0.713129 0.395819 0.578598
vn -0.833111 0.462414 0.303478
vn 0.000001 -1.000000 0.000002
vn 0.000001 -1.000000 0.000002
vn 0.000000 -1.000000 -0.000001
vn 0.000000 -1.000000 0.000000
vn 0.000000 -1.000000 0.000001
vn 0.000000 -1.000000 0.000002
vn 0.000000 -1.000000 0.000001
vn 0.000000 -1.000000 0.000000
vn 0.000000 -1.000000 0.000002
vn 0.000000 -1.000000 0.000000
vn 0.000000 -1.000000 0.000000
vn 0.000000 -1.000000 0.000001
vn 0.000002 -1.000000 0.000001
vn 0.000001 -1.000000 0.000002
vn 0.000001 -1.000000 0.000002
vn 0.000001 -1.000000 0.000000
vn -0.713130 0.395819 -0.578595
vn -0.833111 0.462414 -0.303480
vn -0.722974 0.620652 -0.303480
vn -0.618854 0.531269 -0.578596
vn 0.000000 -1.000000 0.000003
vn 0.000001 -1.000000 0.000002
vn 0.000000 -1.000000 0.000000
vn 0.000000 -1.000000 0.000001
vn 0.000001 -1.000000 0.000000
vn 0.000000 -1.000000 0.000000
vn 0.000000 -1.000000 0.000000
vn 0.000002 -1.000000 0.000000
vn -0.000001 -1.000000 0.000002
vn 0.000000 -1.000000 0.000003
vn 0.000000 -1.000000 0.000001
vn 0.000000 -1.000000 0.000000
vn 0.944618 -0.087082 -0.316407
vn 0.797022 -0.077161 -0.599001
vn 0.761249 -0.238842 -0.602872
vn 0.904185 -0.283689 -0.319327
vn 0.497576 -0.276177 -0.822280
vn 0.250156 -0.138848 -0.958198
vn 0.217086 -0.186361 -0.958198
vn 0.431798 -0.370684 -0.822280
vn 0.000001 -1.000000 -0.000004
vn 0.000002 -1.000000 -0.000004
vn 0.000002 -1.000000 0.000001
vn 0.000001 -1.000000 0.000000
vn 0.000001 -1.000000 0.000002
vn 0.000000 -1.000000 0.000003
vn 0.000000 -1.000000 0.000000
vn 0.000001 -1.000000 0.000000
vn 0.000000 -1.000000 -0.000001
vn 0.000001 -1.000000 0.000000
vn 0.000002 -1.000000 0.000000
vn 0.000000 -1.000000 -0.000002
vn 0.000000 -1.000000 0.000001
vn -0.000001 -1.000000 0.000002
vn 0.000000 -1.000000 0.000000
vn 0.000001 -1.000000 0.000000
vn -0.808321 0.099997 0.580188
vn -0.594090 0.072476 0.801127
vn -0.573240 0.179855 0.799405
vn -0.778209 0.244164 0.578597
vn 0.761249 -0.238842 -0.602872
vn 0.542983 -0.170362 -0.822281
vn 0.497576 -0.276177 -0.822280
vn 0.697587 -0.387191 -0.602873
vn 0.000000 -1.000000 0.000003
vn -0.000001 -1.000000 0.000002
vn -0.000001 -1.000000 0.000001
vn 0.000000 -1.000000 0.000000
vn -0.525304 0.291566 -0.799403
vn -0.713130 0.395819 -0.578595
vn -0.618854 0.531269 -0.578596
vn -0.455858 0.391341 -0.799403
vn -0.954139 0.299363 -0.000000
vn -0.909141 0.285244 0.303478
vn -0.833111 0.462414 0.303478
vn -0.874347 0.485301 0.000000
vn 0.000000 -1.000000 -0.000005
vn 0.000001 -1.000000 -0.000004
vn 0.000001 -1.000000 0.000000
vn 0.000000 -1.000000 0.000000
vn 0.000000 -1.000000 0.000001
vn 0.000000 -1.000000 0.000001
vn 0.000001 -1.000000 0.000000
vn 0.000000 -1.000000 -0.000001
vn -0.000002 -1.000000 -0.000003
vn -0.000001 -1.000000 -0.000001
vn 0.000000 -1.000000 -0.000001
vn 0.000000 -1.000000 -0.000002
vn 0.250156 -0.138848 -0.958198
vn -0.019982 0.011091 -0.999739
vn -0.017341 0.014886 -0.999739
vn 0.217086 -0.186361 -0.958198
vn 0.000001 -1.000000 0.000003
vn -0.000001 -1.000000 0.000001
vn -0.000001 -1.000000 0.000002
vn 0.000000 -1.000000 0.000001
vn 0.000000 0.000000 -1.000000
vn 0.000000 0.000000 -1.000000
vn 0.000000 0.000000 -1.000000
vn 0.000000 0.000000 -1.000000
vn 0.000000 -1.000000 -0.000002
vn 0.000000 -1.000000 -0.000005
vn 0.000000 -1.000000 0.000000
vn -0.000001 -1.000000 0.000001
vn -0.286865 0.159222 -0.944646
vn -0.525304 0.291566 -0.799403
vn -0.455858 0.391341 -0.799403
vn -0.248942 0.213708 -0.944646
vn -0.019982 0.011091 -0.999739
vn -0.286865 0.159222 -0.944646
vn -0.248942 0.213708 -0.944646
vn -0.017341 0.014886 -0.999739
vn -0.000001 -1.000000 0.000001
vn 0.000001 -1.000000 0.000003
vn 0.000000 -1.000000 0.000001
vn 0.000000 -1.000000 0.000001
vn -0.000001 -1.000000 -0.000001
vn -0.000001 -1.000000 0.000000
vn 0.000000 -1.000000 0.000001
vn 0.000000 -1.000000 -0.000001
vn 0.000000 0.000000 -1.000000
vn 0.000000 0.000000 -1.000000
vn 0.000000 0.000000 -1.000000
vn 0.000000 0.000000 -1.000000
vn 0.000002 -1.000000 0.000003
vn 0.000000 -1.000000 -0.000002
vn -0.000001 -1.000000 0.000001
vn 0.000001 -1.000000 0.000003
vn -0.000001 -1.000000 0.000002
vn 0.000002 -1.000000 0.000003
vn 0.000001 -1.000000 0.000003
vn -0.000001 -1.000000 0.000001
vn -0.000001 -1.000000 0.000000
vn -0.000003 -1.000000 0.000000
vn -0.000001 -1.000000 0.000001
vn 0.000000 -1.000000 0.000001
vn 0.797022 -0.077161 -0.599001
vn 0.570423 -0.058517 -0.819264
vn 0.542983 -0.170362 -0.822281
vn 0.761249 -0.238842 -0.602872
vn 0.542983 -0.170362 -0.822281
vn 0.272983 -0.085649 -0.958199
vn 0.250156 -0.138848 -0.958198
vn 0.497576 -0.276177 -0.822280
vn -0.909140 0.285244 -0.303480
vn -0.954139 0.299363 -0.000000
vn -0.874347 0.485301 0.000000
vn -0.833111 0.462414 -0.303480
vn -0.945215 0.117894 0.304418
vn -0.808321 0.099997 0.580188
vn -0.778209 0.244164 0.578597
vn -0.909141 0.285244 0.303478
vn -0.000003 -1.000000 0.000000
vn -0.000004 -1.000000 0.000000
vn -0.000001 -1.000000 0.000002
vn -0.000001 -1.000000 0.000001
vn 0.000000 -1.000000 0.000000
vn 0.000000 -1.000000 0.000000
vn 0.000000 -1.000000 0.000001
vn 0.000000 -1.000000 0.000001
vn 0.272983 -0.085649 -0.958199
vn -0.021805 0.006841 -0.999739
vn -0.019982 0.011091 -0.999739
vn 0.250156 -0.138848 -0.958198
vn -0.778210 0.244165 -0.578596
vn -0.909140 0.285244 -0.303480
vn -0.833111 0.462414 -0.303480
vn -0.713130 0.395819 -0.578595
vn 0.570423 -0.058517 -0.819264
vn 0.289228 -0.031140 -0.956754
vn 0.272983 -0.085649 -0.958199
vn 0.542983 -0.170362 -0.822281
vn -0.021805 0.006841 -0.999739
vn -0.313044 0.098218 -0.944646
vn -0.286865 0.159222 -0.944646
vn -0.019982 0.011091 -0.999739
vn -0.573243 0.179855 -0.799403
vn -0.778210 0.244165 -0.578596
vn -0.713130 0.395819 -0.578595
vn -0.525304 0.291566 -0.799403
vn -0.992270 0.124096 0.000000
vn -0.945215 0.117894 0.304418
vn -0.909141 0.285244 0.303478
vn -0.954139 0.299363 -0.000000
vn -0.313044 0.098218 -0.944646
vn -0.573243 0.179855 -0.799403
vn -0.525304 0.291566 -0.799403
vn -0.286865 0.159222 -0.944646
vn 0.289228 -0.031140 -0.956754
vn -0.018245 0.002570 -0.999830
vn -0.021805 0.006841 -0.999739
vn 0.272983 -0.085649 -0.958199
vn -0.945214 0.117894 -0.304419
vn -0.992270 0.124096 0.000000
vn -0.954139 0.299363 -0.000000
vn -0.909140 0.285244 -0.303480
vn -0.018245 0.002570 -0.999830
vn -0.322278 0.038611 -0.945857
vn -0.313044 0.098218 -0.944646
vn -0.021805 0.006841 -0.999739
vn 0.000000 -1.000000 0.000000
vn 0.000000 -1.000000 0.000000
vn 0.000000 -1.000000 0.000000
vn 0.000000 -1.000000 0.000000
vn -0.808322 0.099997 -0.580187
vn -0.945214 0.117894 -0.304419
vn -0.909140 0.285244 -0.303480
vn -0.778210 0.244165 -0.578596
vn -0.322278 0.038611 -0.945857
vn -0.594092 0.072476 -0.801125
vn -0.573243 0.179855 -0.799403
vn -0.313044 0.098218 -0.944646
vn -0.594092 0.072476 -0.801125
vn -0.808322 0.099997 -0.580187
vn -0.778210 0.244165 -0.578596
vn -0.573243 0.179855 -0.799403
vn 0.000000 -1.000000 0.000000
vn 0.000000 -1.000000 0.000001
vn 0.000000 -1.000000 0.000000
vn 0.000000 -1.000000 0.000000
vn 0.000000 -1.000000 0.000000
vn 0.000000 -1.000000 0.000000
vn 0.000000 -1.000000 0.000000
vn 0.000000 -1.000000 0.000000
vn 0.000000 -1.000000 0.000000
vn 0.000000 -1.000000 -0.000001
vn 0.000000 -1.000000 -0.000001
vn 0.000000 -1.000000 0.000000
vn 0.000000 -1.000000 0.000000
vn 0.000000 -1.000000 -0.000001
vn 0.000000 -1.000000 0.000000
vn 0.000000 -1.000000 0.000000
vn 0.000000 -1.000000 0.000000
vn 0.000000 -1.000000 -0.000001
vn -1.000000 0.000000 0.000000
vn -1.000000 0.000000 0.000000
vn -1.000000 0.000000 0.000000
vn -1.000000 0.000000 0.000000
vn -1.000000 0.000000 0.000000
vn 0.000000 -1.000000 -0.000001
vn 0.000000 -1.000000 -0.000001
vn 0.000000 -1.000000 0.000000
vn 0.000000 -1.000000 -0.000001
vn 0.000000 -1.000000 -0.000001
vn -1.000000 0.000000 0.000000
vn -1.000000 0.000000 0.000000
vn -1.000000 0.000000 0.000000
vn -1.000000 0.000000 0.000000
vn -1.000000 0.000000 0.000000
vn 0.000000 -1.000000 -0.000001
vn 0.000000 -1.000000 -0.000001
vn 0.000000 -1.000000 -0.000001
vn 0.000000 0.000000 0.000000
vn 0.000000 -1.000000 0.000000
vn -0.003508 0.000650 -0.999994
vn 0.000000 0.000000 -1.000000
vn 0.000000 0.000000 -1.000000
vn 0.000000 0.000000 -1.000000
vn -0.003508 0.000650 -0.999994
vn 0.000000 -1.000000 -0.000001
vn 0.000000 -1.000000 0.000000
vn 0.000000 -1.000000 0.000000
vn 0.000000 -1.000000 0.000000
vn 0.000000 -1.000000 0.000000
vn -1.000000 0.000000 0.000000
vn 0.000000 0.000000 0.000000
vn -1.000000 0.000000 0.000000
vn -1.000000 0.000000 0.000000
vn -1.000000 0.000000 0.000000
vn 0.000000 -1.000000 0.000001
vn 0.000000 -1.000000 -0.000001
vn 0.000000 -1.000000 0.000000
vn 0.000000 -0.000000 0.000000
vn 0.000000 -1.000000 0.000001
vn 0.000000 -1.000000 0.000000
vn 0.000000 -1.000000 0.000000
vn 0.000000 -1.000000 0.000000
vn 0.000000 -1.000000 0.000000
vn 0.000000 -1.000000 0.000000
vn 0.000000 0.000000 -1.000000
vn 0.000000 0.000000 -1.000000
vn 0.003508 0.000650 -0.999994
vn 0.003508 0.000650 -0.999994
vn 0.000000 0.000000 -1.000000
vn 0.000000 -1.000000 0.000000
vn 0.000000 -1.000000 0.000000
vn 0.000000 -1.000000 0.000000
vn 0.000000 -1.000000 0.000000
vn 0.000000 -1.000000 0.000000
vn 0.000000 0.000000 1.000000
vn 0.000000 0.000000 1.000000
vn -0.003500 0.000650 0.999994
vn -0.003500 0.000650 0.999994
vn 0.000000 0.000000 1.000000
vn 1.000000 0.000000 0.000000
vn 1.000000 0.000000 0.000000
vn 1.000000 0.000000 0.000000
vn 1.000000 0.000000 0.000000
vn 1.000000 0.000000 0.000000
vn 0.000000 0.000000 1.000000
vn 0.000000 0.000000 1.000000
vn 0.000000 0.000000 1.000000
vn 0.000000 0.000000 1.000000
vn 0.000000 0.000000 1.000000
vn 1.000000 0.000000 0.000000
vn 1.000000 0.000000 0.000000
vn 1.000000 0.000000 0.000000
vn 1.000000 0.000000 0.000000
vn 1.000000 0.000000 0.000000
vn 0.000000 0.000000 1.000000
vn 0.000000 0.000000 1.000000
vn 0.000000 0.000000 1.000000
vn 0.000000 0.000000 1.000000
vn 0.000000 0.000000 1.000000
vn 0.000000 -1.000000 0.000000
vn 0.000000 -1.000000 0.000000
vn 0.000000 -1.000000 0.000000
vn 0.000000 -1.000000 0.000000
vn 0.000000 -1.000000 0.000000
vn 1.000000 0.000000 0.000000
vn 0.000000 -0.000000 0.000000
vn 1.000000 -0.000000 0.000000
vn 1.000000 -0.000000 0.000000
vn 1.000000 0.000000 0.000000
vn 0.003500 0.000650 0.999994
vn 0.000000 0.000000 1.000000
vn 0.000000 0.000000 1.000000
vn 0.000000 0.000000 1.000000
vn 0.003500 0.000650 0.999994
vn 0.000000 -1.000000 0.000000
vn 0.000000 -1.000000 -0.000001
vn 0.000000 -1.000000 0.000000
vn 0.000000 -1.000000 0.000000
vn 0.000000 -1.000000 0.000000
vn 0.000000 -1.000000 0.000000
vn 0.000000 -1.000000 0.000000
vn 0.000000 -1.000000 0.000000
vn 0.000000 -1.000000 0.000000
vn 0.000000 -1.000000 0.000000
vn 0.000000 -1.000000 0.000000
vn 0.000000 -1.000000 0.000000
vn 0.000000 -1.000000 0.000000
vn 0.000000 -0.000000 0.000000
vn 0.000000 -1.000000 0.000000
vn 0.000000 -1.000000 0.000000
vn 0.000000 -1.000000 0.000000
vn 0.000000 -1.000000 0.000000
vn 0.000000 -0.000000 0.000000
vn 0.000000 -1.000000 0.000000
vn 0.000000 -1.000000 0.000001
vn 0.000000 -1.000000 0.000001
vn 0.000000 -1.000000 0.000000
vn 0.000000 -1.000000 0.000001
vn 0.000000 -1.000000 0.000001
vn -1.000000 0.000000 0.000000
vn -1.000000 0.000000 0.000000
vn 0.000000 0.000000 0.000000
vn -1.000000 0.000000 0.000000
vn -1.000000 0.000000 0.000000
vn -1.000000 0.000000 0.000000
vn 0.000000 -1.000000 -0.000001
vn 0.000000 -1.000000 0.000000
vn 0.000000 -1.000000 0.000000
vn 0.000000 -1.000000 -0.000001
vn 0.000000 -1.000000 -0.000001
vn 0.000000 -1.000000 0.000000
vn 1.000000 -0.000000 0.000000
vn 0.000000 -0.000000 0.000000
vn 1.000000 -0.000000 0.000000
vn 1.000000 -0.000000 0.000000
vn 1.000000 -0.000000 0.000000
vn 1.000000 -0.000000 0.000000
vn 0.000000 -1.000000 0.000000
vn 0.000000 -1.000000 0.000001
vn 0.000000 -1.000000 0.000001
vn 0.000000 -1.000000 0.000000
vn 0.000000 -1.000000 0.000000
vn 0.000000 -1.000000 0.000000
vn 1.000000 0.000000 0.000000
vn 1.000000 0.000000 0.000000
vn 1.000000 0.000000 0.000000
vn 1.000000 0.000000 0.000000
vn 1.000000 0.000000 0.000000
vn 1.000000 0.000000 0.000000
vn 1.000000 0.000001 -0.000001
vn 1.000000 0.000001 -0.000001
vn 1.000000 0.000001 -0.000001
vn 1.000000 0.000000 0.000000
vn 1.000000 0.000000 0.000000
vn 1.000000 0.000000 0.000000
vn 1.000000 -0.000001 0.000001
vn 1.000000 -0.000001 0.000001
vn 1.000000 -0.000001 0.000001
vn 1.000000 0.000000 0.000000
vn 1.000000 0.000000 0.000000
vn 1.000000 0.000000 0.000000
vn 1.000000 -0.000001 -0.000001
vn 1.000000 -0.000001 -0.000001
vn 1.000000 -0.000001 -0.000001
vn 1.000000 0.000001 -0.000001
vn 1.000000 0.000001 -0.000001
vn 1.000000 0.000001 -0.000001
vn 1.000000 0.000001 0.000001
vn 1.000000 0.000001 0.000001
vn 1.000000 0.000001 0.000001
vn 1.000000 0.000001 -0.000001
vn 1.000000 0.000001 -0.000001
vn 1.000000 0.000001 -0.000001
vn 1.000000 0.000000 0.000000
vn 1.000000 0.000000 0.000000
vn 1.000000 0.000000 0.000000
vn 1.000000 0.000001 0.000000
vn 1.000000 0.000001 0.000000
vn 1.000000 0.000001 0.000000
vn 1.000000 0.000000 0.000000
vn 1.000000 0.000000 0.000000
vn 1.000000 0.000000 0.000000
vn 1.000000 0.000001 0.000000
vn 1.000000 0.000001 0.000000
vn 1.000000 0.000001 0.000000
vn 1.000000 -0.000001 0.000000
vn 1.000000 -0.000001 0.000000
vn 1.000000 -0.000001 0.000000
vn 1.000000 0.000001 0.000000
vn 1.000000 0.000001 0.000000
vn 1.000000 0.000001 0.000000
vn 1.000000 0.000001 0.000000
vn 1.000000 0.000001 0.000000
vn 1.000000 0.000001 0.000000
vn 1.000000 0.000001 0.000000
vn 1.000000 0.000001 0.000000
vn 1.000000 0.000001 0.000000
vn 1.000000 0.000000 0.000001
vn 1.000000 0.000000 0.000001
vn 1.000000 0.000000 0.000001
vn 1.000000 0.000001 0.000001
vn 1.000000 0.000001 0.000001
vn 1.000000 0.000001 0.000001
s off
g initialShadingGroup Sunmao_004_B
f 98/174/397 99/175/398 97/176/399 103/177/400
f 100/178/401 101/179/402 99/175/403 98/174/404
f 103/177/405 97/176/406 102/180/407 107/181/408
f 104/182/409 105/183/410 101/179/411 100/178/412
f 107/181/413 102/180/414 106/184/415 110/185/416
f 108/186/417 109/187/418 105/183/419 104/182/420
f 106/184/421 112/188/422 111/189/423 110/185/424
f 109/187/425 108/186/426 113/190/427 114/191/428
f 112/188/429 116/192/430 115/193/431 111/189/432
f 117/194/433 113/190/434 108/186/435 118/195/436
f 114/191/437 113/190/438 119/196/439 120/197/440
f 116/192/441 122/198/442 121/199/443 115/193/444
f 120/197/445 119/196/446 123/200/447 124/201/448
f 122/198/449 126/202/450 125/203/451 121/199/452
f 124/201/453 123/200/454 127/204/455 128/205/456
f 126/202/457 130/206/458 129/207/459 125/203/460
f 131/208/461 128/209/462 127/210/463 132/211/464
f 130/206/465 134/212/466 133/213/467 129/207/468
f 135/214/469 131/208/470 132/211/471 138/215/472
f 134/212/473 137/216/474 136/217/475 133/213/476
f 137/216/477 135/214/478 138/215/479 136/217/480
f 140/218/481 141/219/482 139/220/483 143/221/484
f 143/221/485 139/220/486 142/222/487 148/223/488
f 144/224/489 145/225/490 141/219/491 140/218/492
f 97/176/493 99/175/494 146/226/495 147/227/496
f 148/223/497 142/222/498 149/228/499 154/229/500
f 99/175/501 101/179/502 150/230/503 146/226/504
f 102/180/505 97/176/506 147/227/507 151/231/508
f 152/232/509 153/233/510 145/225/511 144/224/512
f 154/229/513 149/228/514 155/234/515 162/235/516
f 156/236/517 153/237/518 152/238/519 163/239/520
f 101/179/521 105/183/522 157/240/523 150/230/524
f 106/184/525 102/180/526 151/231/527 158/241/528
f 159/242/529 160/243/530 161/244/531 326/245/532 327/246/533
f 162/235/534 155/234/535 164/247/536 169/248/537
f 165/249/538 156/236/539 163/239/540 173/250/541
f 166/251/542 167/252/543 168/253/544 178/254/545
f 170/255/546 171/256/547 172/257/548 341/258/549 342/259/550
f 105/183/551 109/187/552 174/260/553 157/240/554
f 112/188/555 106/184/556 158/241/557 175/261/558
f 169/248/559 164/247/560 176/262/561 179/263/562
f 177/264/563 165/249/564 173/250/565 180/265/566
f 183/266/567 181/267/568 182/268/569 186/269/570
f 179/263/571 176/262/572 184/270/573 189/271/574
f 185/272/575 177/264/576 180/265/577 190/273/578
f 109/187/579 114/191/580 187/274/581 174/260/582
f 116/192/583 112/188/584 175/261/585 188/275/586
f 189/271/587 184/270/588 191/276/589 193/277/590
f 192/278/591 185/272/592 190/273/593 194/279/594
f 195/280/595 192/278/596 194/279/597 198/281/598
f 191/276/599 197/282/600 196/283/601 193/277/602
f 199/284/603 195/280/604 198/281/605 204/285/606
f 197/282/607 201/286/608 200/287/609 196/283/610
f 114/191/611 120/197/612 202/288/613 187/274/614
f 122/198/615 116/192/616 188/275/617 203/289/618
f 201/286/619 199/284/620 204/285/621 200/287/622
f 120/197/623 124/201/624 205/290/625 202/288/626
f 126/202/627 122/198/628 203/289/629 206/291/630
f 124/201/631 128/205/632 207/292/633 205/290/634
f 130/206/635 126/202/636 206/291/637 208/293/638
f 209/294/639 210/295/640 100/178/641 98/174/642
f 211/296/643 209/294/644 98/174/645 103/177/646
f 210/295/647 212/297/648 104/182/649 100/178/650
f 213/298/651 211/296/652 103/177/653 107/181/654
f 128/209/655 131/208/656 214/299/657 207/300/658
f 134/212/659 130/206/660 208/293/661 215/301/662
f 212/297/663 118/195/664 108/186/665 104/182/666
f 216/302/667 213/298/668 107/181/669 110/185/670
f 131/208/671 135/214/672 217/303/673 214/299/674
f 137/216/675 134/212/676 215/301/677 218/304/678
f 135/214/679 137/216/680 218/304/681 217/303/682
f 219/305/683 220/306/684 212/297/685 210/295/686
f 221/307/687 219/305/688 210/295/689 209/294/690
f 222/308/691 216/302/692 110/185/693 111/189/694
f 220/306/695 223/309/696 118/195/697 212/297/698
f 224/310/699 221/307/700 209/294/701 211/296/702
f 117/194/703 225/311/704 119/196/705 113/190/706
f 223/309/707 226/312/708 117/194/709 118/195/710
f 227/313/711 224/310/712 211/296/713 213/298/714
f 228/314/715 222/308/716 111/189/717 115/193/718
f 226/312/719 229/315/720 225/311/721 117/194/722
f 230/316/723 227/313/724 213/298/725 216/302/726
f 231/317/727 232/318/728 220/306/729 219/305/730
f 225/311/731 233/319/732 123/200/733 119/196/734
f 232/318/735 234/320/736 223/309/737 220/306/738
f 235/321/739 231/317/740 219/305/741 221/307/742
f 234/320/743 236/322/744 226/312/745 223/309/746
f 237/323/747 228/314/748 115/193/749 121/199/750
f 238/324/751 235/321/752 221/307/753 224/310/754
f 229/315/755 239/325/756 233/319/757 225/311/758
f 240/326/759 230/316/760 216/302/761 222/308/762
f 236/322/763 241/327/764 229/315/765 226/312/766
f 233/319/767 242/328/768 127/204/769 123/200/770
f 243/329/771 238/324/772 224/310/773 227/313/774
f 244/330/775 245/331/776 234/320/777 232/318/778
f 245/331/779 246/332/780 236/322/781 234/320/782
f 247/333/783 237/323/784 121/199/785 125/203/786
f 241/327/787 248/334/788 239/325/789 229/315/790
f 249/335/791 244/330/792 232/318/793 231/317/794
f 239/325/795 250/336/796 242/328/797 233/319/798
f 251/337/799 240/326/800 222/308/801 228/314/802
f 246/332/803 252/338/804 241/327/805 236/322/806
f 242/339/807 253/340/808 132/211/809 127/210/810
f 254/341/811 249/335/812 231/317/813 235/321/814
f 255/342/815 243/329/816 227/313/817 230/316/818
f 256/343/819 247/333/820 125/203/821 129/207/822
f 252/338/823 257/344/824 248/334/825 241/327/826
f 248/334/827 258/345/828 250/336/829 239/325/830
f 253/340/831 259/346/832 138/215/833 132/211/834
f 250/347/835 260/348/836 253/340/837 242/339/838
f 261/349/839 251/337/840 228/314/841 237/323/842
f 262/350/843 263/351/844 246/332/845 245/331/846
f 263/351/847 264/352/848 252/338/849 246/332/850
f 265/353/851 262/350/852 245/331/853 244/330/854
f 266/354/855 254/341/856 235/321/857 238/324/858
f 267/355/859 256/343/860 129/207/861 133/213/862
f 259/346/863 268/356/864 136/217/865 138/215/866
f 268/356/867 267/355/868 133/213/869 136/217/870
f 269/357/871 255/342/872 230/316/873 240/326/874
f 257/344/875 270/358/876 258/345/877 248/334/878
f 264/352/879 271/359/880 257/344/881 252/338/882
f 272/360/883 265/353/884 244/330/885 249/335/886
f 258/361/887 273/362/888 260/348/889 250/347/890
f 260/348/891 274/363/892 259/346/893 253/340/894
f 275/364/895 261/349/896 237/323/897 247/333/898
f 139/220/899 141/219/900 264/352/901 263/351/902
f 276/365/903 266/354/904 238/324/905 243/329/906
f 142/222/907 139/220/908 263/351/909 262/350/910
f 274/363/911 277/366/912 268/356/913 259/346/914
f 278/367/915 275/364/916 247/333/917 256/343/918
f 271/359/919 279/368/920 270/358/921 257/344/922
f 141/219/923 145/225/924 271/359/925 264/352/926
f 280/369/927 272/360/928 249/335/929 254/341/930
f 281/370/931 269/357/932 240/326/933 251/337/934
f 149/228/935 142/222/936 262/350/937 265/353/938
f 270/371/939 282/372/940 273/362/941 258/361/942
f 273/362/943 283/373/944 274/363/945 260/348/946
f 277/366/947 284/374/948 267/355/949 268/356/950
f 284/374/951 278/367/952 256/343/953 267/355/954
f 285/375/955 276/365/956 243/329/957 255/342/958
f 145/225/959 153/233/960 279/368/961 271/359/962
f 286/376/963 281/370/964 251/337/965 261/349/966
f 155/234/967 149/228/968 265/353/969 272/360/970
f 279/377/971 287/378/972 282/372/973 270/371/974
f 283/373/975 288/379/976 277/366/977 274/363/978
f 289/380/979 280/369/980 254/341/981 266/354/982
f 282/372/983 290/381/984 283/373/985 273/362/986
f 291/382/987 286/376/988 261/349/989 275/364/990
f 288/379/991 292/383/992 284/374/993 277/366/994
f 293/384/995 285/375/996 255/342/997 269/357/998
f 153/237/999 156/236/1000 287/378/1001 279/377/1002
f 294/385/1003 291/382/1004 275/364/1005 278/367/1006
f 292/383/1007 294/385/1008 278/367/1009 284/374/1010
f 295/386/1011 161/387/1012 160/388/1013 296/389/1014
f 164/247/1015 155/234/1016 272/360/1017 280/369/1018
f 287/378/1019 297/390/1020 290/381/1021 282/372/1022
f 290/381/1023 298/391/1024 288/379/1025 283/373/1026
f 299/392/1027 289/380/1028 266/354/1029 276/365/1030
f 300/393/1031 301/394/1032 295/386/1033 296/389/1034
f 160/388/1035 302/395/1036 303/396/1037 296/389/1038
f 302/395/1039 304/397/1040 305/398/1041 303/396/1042
f 306/399/1043 301/394/1044 300/393/1045 307/400/1046
f 308/401/1047 293/384/1048 269/357/1049 281/370/1050
f 309/402/1051 300/393/1052 296/389/1053 303/396/1054
f 310/403/1055 305/398/1056 304/397/1057 311/404/1058
f 312/405/1059 309/402/1060 303/396/1061 305/398/1062
f 156/236/1063 165/249/1064 297/390/1065 287/378/1066
f 298/391/1067 313/406/1068 292/383/1069 288/379/1070
f 168/253/1071 167/252/1072 306/399/1073 307/400/1074
f 300/393/1075 309/402/1076 314/407/1077 307/400/1078
f 315/408/1079 310/403/1080 311/404/1081 172/409/1082
f 316/410/1083 312/405/1084 305/398/1085 310/403/1086
f 176/262/1087 164/247/1088 280/369/1089 289/380/1090
f 297/390/1091 317/411/1092 298/391/1093 290/381/1094
f 309/402/1095 312/405/1096 318/412/1097 314/407/1098
f 319/413/1099 308/401/1100 281/370/1101 286/376/1102
f 320/414/1103 299/392/1104 276/365/1105 285/375/1106
f 321/415/1107 168/253/1108 307/400/1109 314/407/1110
f 322/416/1111 316/410/1112 310/403/1113 315/408/1114
f 171/417/1115 323/418/1116 315/408/1117 172/409/1118
f 313/406/1119 324/419/1120 294/385/1121 292/383/1122
f 325/420/1123 318/412/1124 312/405/1125 316/410/1126
f 328/421/1127 329/422/1128 304/423/1129 302/424/1130
f 330/425/1131 321/415/1132 314/407/1133 318/412/1134
f 331/426/1135 319/413/1136 286/376/1137 291/382/1138
f 324/419/1139 331/426/1140 291/382/1141 294/385/1142
f 332/427/1143 325/420/1144 316/410/1145 322/416/1146
f 323/418/1147 333/428/1148 322/416/1149 315/408/1150
f 329/422/1151 334/429/1152 311/430/1153 304/423/1154
f 335/431/1155 330/425/1156 318/412/1157 325/420/1158
f 183/266/1159 335/431/1160 325/420/1161 332/427/1162
f 333/428/1163 336/432/1164 332/427/1165 322/416/1166
f 165/249/1167 177/264/1168 317/411/1169 297/390/1170
f 317/411/1171 337/433/1172 313/406/1173 298/391/1174
f 338/434/1175 320/414/1176 285/375/1177 293/384/1178
f 184/270/1179 176/262/1180 289/380/1181 299/392/1182
f 336/432/1183 181/267/1184 183/266/1185 332/427/1186
f 339/435/1187 173/436/1188 163/437/1189 340/438/1190
f 337/433/1191 343/439/1192 324/419/1193 313/406/1194
f 344/440/1195 338/434/1196 293/384/1197 308/401/1198
f 177/264/1199 185/272/1200 337/433/1201 317/411/1202
f 343/439/1203 345/441/1204 331/426/1205 324/419/1206
f 346/442/1207 344/440/1208 308/401/1209 319/413/1210
f 191/276/1211 184/270/1212 299/392/1213 320/414/1214
f 345/441/1215 346/442/1216 319/413/1217 331/426/1218
f 185/272/1219 192/278/1220 343/439/1221 337/433/1222
f 197/282/1223 191/276/1224 320/414/1225 338/434/1226
f 192/278/1227 195/280/1228 345/441/1229 343/439/1230
f 347/443/1231 194/444/1232 190/445/1233 348/446/1234
f 201/286/1235 197/282/1236 338/434/1237 344/440/1238
f 195/280/1239 199/284/1240 346/442/1241 345/441/1242
f 199/284/1243 201/286/1244 344/440/1245 346/442/1246
f 349/447/1247 198/448/1248 194/444/1249 347/443/1250
f 350/449/1251 196/450/1252 200/451/1253 351/452/1254
f 140/453/1255 143/454/1256 327/455/1257 326/456/1258 352/457/1259
f 144/458/1260 140/453/1261 352/457/1262 353/459/1263 354/460/1264
f 353/461/1265 352/462/1266 326/245/1267 161/244/1268 295/463/1269
f 143/454/1270 148/464/1271 355/465/1272 159/466/1273 327/455/1274
f 356/467/1275 354/468/1276 353/461/1277 295/463/1278 301/469/1279
f 152/470/1280 144/458/1281 354/460/1282 356/471/1283 357/472/1284
f 159/242/1285 355/473/1286 328/421/1287 302/424/1288 160/243/1289
f 148/464/1290 154/474/1291 329/475/1292 328/476/1293 355/465/1294
f 358/477/1295 357/478/1296 356/467/1297 301/469/1298 306/479/1299
f 163/437/1300 152/470/1301 357/472/1302 358/480/1303 340/438/1304
f 154/474/1305 162/481/1306 359/482/1307 334/483/1308 329/475/1309
f 334/429/1310 359/484/1311 341/258/1312 172/257/1313 311/430/1314
f 162/481/1315 169/485/1316 342/486/1317 341/487/1318 359/482/1319
f 360/488/1320 361/489/1321 178/254/1322 168/253/1323 321/415/1324
f 170/490/1325 362/491/1326 363/492/1327 323/493/1328 171/494/1329
f 347/495/1330 348/496/1331 360/488/1332 321/415/1333 330/425/1334
f 363/492/1335 364/497/1336 365/498/1337 333/499/1338 323/493/1339
f 366/500/1340 349/501/1341 347/495/1342 330/425/1343 335/431/1344
f 169/485/1345 179/502/1346 362/503/1347 170/504/1348 342/486/1349
f 365/498/1350 367/505/1351 368/506/1352 336/507/1353 333/499/1354
f 186/269/1355 369/508/1356 366/500/1357 335/431/1358 183/266/1359
f 190/445/1360 180/509/1361 361/510/1362 360/511/1363 348/446/1364
f 179/502/1365 189/512/1366 364/513/1367 363/514/1368 362/503/1369
f 189/512/1370 193/515/1371 367/516/1372 365/517/1373 364/513/1374
f 193/515/1375 196/450/1376 350/449/1377 368/518/1378 367/516/1379
f 204/519/1380 198/448/1381 349/447/1382 366/520/1383 369/521/1384
f 166/251/1385 339/522/1386 340/523/1387 358/477/1388 306/479/1389 167/252/1390
f 180/509/1391 173/436/1392 339/435/1393 166/524/1394 178/525/1395 361/510/1396
f 368/506/1397 350/526/1398 351/527/1399 182/268/1400 181/267/1401 336/507/1402
f 200/451/1403 204/519/1404 369/521/1405 186/528/1406 182/529/1407 351/452/1408
f 147/530/1409 146/531/1410 370/532/1411
f 146/531/1412 150/533/1413 370/532/1414
f 151/534/1415 147/530/1416 370/532/1417
f 150/533/1418 157/535/1419 370/532/1420
f 158/536/1421 151/534/1422 370/532/1423
f 157/535/1424 174/537/1425 370/532/1426
f 175/538/1427 158/536/1428 370/532/1429
f 174/537/1430 187/539/1431 370/532/1432
f 188/540/1433 175/538/1434 370/532/1435
f 187/539/1436 202/541/1437 370/532/1438
f 203/542/1439 188/540/1440 370/532/1441
f 202/541/1442 205/543/1443 370/532/1444
f 206/544/1445 203/542/1446 370/532/1447
f 205/543/1448 207/545/1449 370/532/1450
f 208/546/1451 206/544/1452 370/532/1453
f 207/545/1454 214/547/1455 370/532/1456
f 215/548/1457 208/546/1458 370/532/1459
f 214/547/1460 217/549/1461 370/532/1462
f 218/550/1463 215/548/1464 370/532/1465
f 217/549/1466 218/550/1467 370/532/1468
