# This file uses centimeters as units for non-parametric coordinates.

mtllib Sunmao_006.mtl
g default
v 0.094452 0.263665 0.864757
v -0.094452 0.263665 0.864757
v 0.094452 0.617069 0.660720
v -0.094452 0.617069 0.660720
v -0.094452 0.593985 0.783992
v -0.094452 0.381964 0.906403
v 0.094452 0.381964 0.906403
v 0.094452 0.593985 0.783992
v -0.094452 0.815038 1.166866
v -0.094452 0.603016 1.289277
v 0.094452 0.815038 1.166866
v 0.094452 0.603016 1.289277
v 0.094452 0.002752 0.412843
v 0.094452 0.050388 0.332095
v 0.094452 0.262409 0.209685
v 0.094452 0.356156 0.208805
v -0.094452 0.356156 0.208805
v -0.094452 0.285465 0.249619
v -0.094452 0.073444 0.372029
v -0.094452 0.002752 0.412843
v -0.031484 0.002752 0.412843
v -0.031484 0.356156 0.208805
v 0.094452 0.120755 0.209153
v -0.031484 0.050388 0.332095
v -0.031484 0.120755 0.209153
v 0.094452 -0.617069 -0.660720
v -0.094452 -0.617069 -0.660720
v 0.094452 -0.263665 -0.864757
v -0.094452 -0.263665 -0.864757
v -0.094452 -0.381965 -0.906402
v -0.094452 -0.593987 -0.783992
v 0.094452 -0.593987 -0.783992
v 0.094452 -0.381965 -0.906402
v -0.094452 -0.603017 -1.289277
v -0.094452 -0.815039 -1.166866
v 0.094452 -0.603017 -1.289277
v 0.094452 -0.815039 -1.166866
v 0.094452 -0.356157 -0.208805
v 0.094452 -0.262409 -0.209685
v 0.094452 -0.050388 -0.332095
v 0.094452 -0.002753 -0.412844
v -0.094452 -0.002753 -0.412844
v -0.094452 -0.073445 -0.372030
v -0.094452 -0.285465 -0.249619
v -0.094452 -0.356157 -0.208805
v -0.031484 -0.356157 -0.208805
v -0.031484 -0.002753 -0.412844
v 0.094452 -0.120755 -0.209152
v -0.031484 -0.050388 -0.332095
v -0.031484 -0.120755 -0.209152
v -0.031484 0.263665 0.864757
v -0.031484 0.381964 0.906402
v -0.031484 0.603016 1.289277
v -0.031484 0.815038 1.166866
v -0.031484 0.593985 0.783992
v -0.031484 0.617069 0.660720
v -0.031484 -0.617069 -0.660720
v -0.031484 -0.593987 -0.783992
v -0.031484 -0.815039 -1.166866
v -0.031484 -0.603017 -1.289277
v -0.031484 -0.381965 -0.906402
v -0.031484 -0.263665 -0.864757
v 0.031483 -0.356157 -0.208805
v 0.031483 -0.262409 -0.209685
v 0.031483 -0.120755 -0.209152
v 0.031483 -0.050388 -0.332095
v 0.031483 -0.002753 -0.412844
v 0.031483 -0.263665 -0.864757
v 0.031483 -0.381965 -0.906402
v 0.031483 -0.603017 -1.289277
v 0.031483 -0.815039 -1.166866
v 0.031483 -0.593987 -0.783992
v 0.031483 -0.617069 -0.660720
v 0.031483 0.002752 0.412843
v 0.031483 0.263665 0.864757
v 0.031483 0.381964 0.906402
v 0.031483 0.603016 1.289277
v 0.031483 0.815038 1.166866
v 0.031483 0.593985 0.783992
v 0.031483 0.617069 0.660720
v 0.031483 0.356156 0.208805
v 0.031483 0.262409 0.209685
v 0.031483 0.120755 0.209153
v 0.031483 0.050388 0.332095
v 0.046424 -0.262409 -0.209685
v -0.031484 0.241505 0.012846
v 0.031483 0.241505 0.012846
v 0.031483 0.194860 0.087381
v -0.031484 0.194860 0.087381
v -0.031484 -0.235931 0.003485
v 0.031483 -0.235931 0.003485
v 0.031483 -0.193219 -0.079596
v -0.031484 -0.193219 -0.079596
v -0.094452 -0.174848 0.105230
v -0.094452 -0.104157 0.064416
v -0.094452 0.107864 -0.057995
v -0.094452 0.178555 -0.098808
vt 0.181622 0.264535
vt 0.183054 0.160364
vt 0.240631 0.161746
vt 0.238178 0.266163
vt 0.319518 0.272543
vt 0.323566 0.170311
vt 0.380187 0.172530
vt 0.376200 0.274777
vt 0.371058 0.429723
vt 0.394296 0.297649
vt 0.390491 0.419382
vt 0.313653 0.426574
vt 0.295192 0.413370
vt 0.299514 0.293324
vt 0.256329 0.289565
vt 0.252716 0.407579
vt 0.234696 0.406430
vt 0.180071 0.404927
vt 0.161861 0.404747
vt 0.162570 0.286019
vt 0.147830 0.404720
vt 0.148052 0.285929
vt 0.261824 0.044614
vt 0.261847 0.019853
vt 0.274279 0.019864
vt 0.274256 0.044626
vt 0.261743 0.131902
vt 0.274175 0.131914
vt 0.261668 0.180213
vt 0.274099 0.180253
vt 0.259266 0.265438
vt 0.272776 0.266252
vt 0.270322 0.290943
vt 0.266774 0.408918
vt 0.284925 0.292418
vt 0.280855 0.410600
vt 0.341398 0.445506
vt 0.378119 0.443018
vt 0.397575 0.432436
vt 0.404848 0.445407
vt 0.385279 0.456200
vt 0.355756 0.472807
vt 0.348384 0.459377
vt 0.234313 0.483927
vt 0.252241 0.484429
vt 0.254147 0.563638
vt 0.235331 0.563448
vt 0.180287 0.482591
vt 0.179242 0.561553
vt 0.162344 0.482036
vt 0.160796 0.560396
vt 0.148029 0.507290
vt 0.146466 0.559561
vt 0.265621 0.456955
vt 0.268638 0.563497
vt 0.124372 0.846648
vt 0.125143 0.795923
vt 0.138223 0.796196
vt 0.137372 0.846829
vt 0.127453 0.703892
vt 0.128506 0.676932
vt 0.143035 0.677770
vt 0.141389 0.704427
vt 0.136281 0.963808
vt 0.123314 0.963697
vt 0.123497 0.937850
vt 0.136478 0.937966
vt 0.176530 0.702436
vt 0.233502 0.704576
vt 0.230324 0.808072
vt 0.172958 0.806341
vt 0.038290 0.695676
vt 0.094420 0.697576
vt 0.090983 0.798919
vt 0.034863 0.797016
vt 0.099198 0.545206
vt 0.117733 0.557163
vt 0.114014 0.676448
vt 0.042469 0.542832
vt 0.023177 0.552647
vt 0.020180 0.673153
vt 0.283254 0.563593
vt 0.282082 0.684025
vt 0.267399 0.683760
vt 0.252746 0.683357
vt 0.157598 0.679067
vt 0.071350 0.527463
vt 0.333521 0.618353
vt 0.314089 0.629355
vt 0.306704 0.616295
vt 0.326113 0.605362
vt 0.362761 0.601468
vt 0.355215 0.588543
vt 0.286711 0.019876
vt 0.286688 0.044637
vt 0.286608 0.131927
vt 0.286567 0.180293
vt 0.286232 0.266862
vt 0.155250 0.705100
vt 0.151617 0.796564
vt 0.150366 0.847027
vt 0.149458 0.938084
vt 0.149256 0.963916
vt 0.133567 0.404699
vt 0.133562 0.285915
vt 0.132151 0.558575
vt 0.105245 0.535719
vt 0.107131 0.532763
vt 0.125773 0.544501
vt 0.079116 0.515036
vt 0.370219 0.614481
vt 0.340940 0.631371
vt 0.321465 0.642422
vt 0.297861 0.563699
vt 0.296770 0.684243
vt 0.110367 0.963597
vt 0.110513 0.937740
vt 0.111366 0.846485
vt 0.112077 0.795696
vt 0.113758 0.703560
vt 0.119285 0.404710
vt 0.119084 0.285947
vt 0.299143 0.019887
vt 0.299120 0.044649
vt 0.299040 0.131936
vt 0.299006 0.180275
vt 0.299741 0.267160
vt 0.305394 0.438979
vt 0.287165 0.426395
vt 0.333037 0.457970
vt 0.307461 0.499641
vt 0.300380 0.486880
vt 0.318515 0.476525
vt 0.325868 0.489577
vt 0.404272 0.558772
vt 0.412144 0.571640
vt 0.393206 0.583359
vt 0.385484 0.570520
vt 0.279100 0.457953
vt 0.283008 0.480473
vt 0.302093 0.472044
vt 0.109746 0.498337
vt 0.134162 0.506412
vt 0.128746 0.487102
vn -1.000000 0.000000 0.000000
vn -1.000000 0.000000 0.000000
vn -1.000000 0.000000 0.000000
vn -1.000000 0.000000 0.000000
vn 1.000000 0.000000 0.000000
vn 1.000000 0.000000 0.000000
vn 1.000000 0.000000 0.000000
vn 1.000000 0.000000 0.000000
vn 1.000000 -0.000000 0.000000
vn 1.000000 -0.000000 0.000000
vn 1.000000 -0.000000 0.000000
vn 1.000000 -0.000000 0.000000
vn 1.000000 0.000000 0.000000
vn 1.000000 0.000000 0.000000
vn 1.000000 0.000000 0.000000
vn 1.000000 0.000000 0.000000
vn 1.000000 -0.000000 0.000000
vn 1.000000 -0.000000 0.000000
vn 1.000000 -0.000000 0.000000
vn 1.000000 -0.000000 0.000000
vn -1.000000 0.000000 0.000000
vn -1.000000 0.000000 0.000000
vn -1.000000 0.000000 0.000000
vn -1.000000 0.000000 0.000000
vn -1.000000 0.000000 0.000000
vn -1.000000 0.000000 0.000000
vn -1.000000 0.000000 0.000000
vn -1.000000 0.000000 0.000000
vn -1.000000 0.000000 0.000000
vn -1.000000 0.000000 0.000000
vn -1.000000 0.000000 0.000000
vn -1.000000 0.000000 0.000000
vn 0.000000 -0.866025 0.500000
vn 0.000000 -0.866025 0.500000
vn 0.000000 -0.866025 0.500000
vn 0.000000 -0.866025 0.500000
vn 0.000004 -0.332059 0.943259
vn 0.000004 -0.332059 0.943259
vn 0.000004 -0.332059 0.943259
vn 0.000004 -0.332059 0.943259
vn 0.000002 -0.866026 0.499999
vn 0.000002 -0.866026 0.499999
vn 0.000002 -0.866026 0.499999
vn 0.000002 -0.866026 0.499999
vn 0.000000 0.500000 0.866025
vn 0.000000 0.500000 0.866025
vn 0.000000 0.500000 0.866025
vn 0.000000 0.500000 0.866025
vn 0.000000 0.866025 -0.500001
vn 0.000000 0.866025 -0.500001
vn 0.000000 0.866025 -0.500001
vn 0.000000 0.866025 -0.500001
vn 0.000000 0.982915 0.184063
vn 0.000000 0.982915 0.184063
vn 0.000000 0.982915 0.184063
vn 0.000000 0.982915 0.184063
vn 0.000000 0.866026 -0.500000
vn 0.000000 0.866026 -0.500000
vn 0.000000 0.866026 -0.500000
vn 0.000000 0.866026 -0.500000
vn 1.000000 0.000000 0.000000
vn 1.000000 0.000000 0.000000
vn 1.000000 0.000000 0.000000
vn 0.000000 -0.861297 -0.508102
vn 0.000000 -0.861297 -0.508102
vn 0.000000 -0.861297 -0.508102
vn 0.000000 -0.861297 -0.508102
vn 0.000000 -0.867895 -0.496748
vn 0.000000 -0.867895 -0.496748
vn 0.000000 -0.867895 -0.496748
vn 0.000000 -0.867895 -0.496748
vn -1.000000 0.000000 0.000000
vn -1.000000 0.000000 0.000000
vn -1.000000 0.000000 0.000000
vn -1.000000 0.000000 0.000000
vn -1.000000 0.000000 0.000000
vn -1.000000 0.000000 0.000000
vn -1.000000 0.000000 0.000000
vn -1.000000 0.000000 0.000000
vn -1.000000 0.000000 0.000000
vn -1.000000 0.000000 0.000000
vn -1.000000 0.000000 0.000000
vn -1.000000 0.000000 0.000000
vn -0.019241 -0.867531 0.497011
vn -0.019241 -0.867531 0.497011
vn -0.019241 -0.867531 0.497011
vn -0.019241 -0.867531 0.497011
vn 0.008843 0.866759 -0.498649
vn 0.008843 0.866759 -0.498649
vn 0.008843 0.866759 -0.498649
vn 0.008843 0.866759 -0.498649
vn 0.000000 -0.500000 -0.866026
vn 0.000000 -0.500000 -0.866026
vn 0.000000 -0.500000 -0.866026
vn 0.000000 -0.500000 -0.866026
vn 0.000000 -0.982918 -0.184045
vn 0.000000 -0.982918 -0.184045
vn 0.000000 -0.982918 -0.184045
vn 0.000000 -0.982918 -0.184045
vn 0.000000 0.332056 -0.943260
vn 0.000000 0.332056 -0.943260
vn 0.000000 0.332056 -0.943260
vn 0.000000 0.332056 -0.943260
vn -1.000000 0.000000 0.000000
vn -1.000000 0.000000 0.000000
vn -1.000000 0.000000 0.000000
vn -1.000000 0.000000 0.000000
vn 0.000000 0.866026 -0.499999
vn 0.000000 0.866026 -0.499999
vn 0.000000 0.866026 -0.499999
vn 0.000000 0.866026 -0.499999
vn 1.000000 0.000000 0.000000
vn 1.000000 0.000000 0.000000
vn 1.000000 0.000000 0.000000
vn 1.000000 0.000000 0.000000
vn 0.000000 -0.866026 0.499999
vn 0.000000 -0.866026 0.499999
vn 0.000000 -0.866026 0.499999
vn 0.000000 -0.866026 0.499999
vn 1.000000 0.000000 0.000000
vn 1.000000 0.000000 0.000000
vn 1.000000 0.000000 0.000000
vn 1.000000 0.000000 0.000000
vn 1.000000 0.000000 0.000000
vn 1.000000 0.000000 0.000000
vn 1.000000 0.000000 0.000000
vn 1.000000 0.000000 0.000000
vn 1.000000 0.000000 0.000000
vn 1.000000 0.000000 0.000000
vn 1.000000 0.000000 0.000000
vn 1.000000 0.000000 0.000000
vn 0.000000 0.866026 -0.499999
vn 0.000000 0.866026 -0.499999
vn 0.000000 0.866026 -0.499999
vn 0.000000 0.866026 -0.499999
vn -1.000000 0.000000 0.000000
vn -1.000000 0.000000 0.000000
vn -1.000000 0.000000 0.000000
vn -1.000000 0.000000 0.000000
vn -1.000000 0.000000 0.000000
vn -1.000000 0.000000 0.000000
vn -1.000000 0.000000 0.000000
vn -1.000000 0.000000 0.000000
vn -1.000000 0.000000 0.000000
vn -1.000000 0.000000 0.000000
vn -1.000000 0.000000 0.000000
vn -1.000000 0.000000 0.000000
vn 0.000000 -0.866026 0.499999
vn 0.000000 -0.866026 0.499999
vn 0.000000 -0.866026 0.499999
vn 0.000000 -0.866026 0.499999
vn 1.000000 -0.000000 0.000000
vn 1.000000 -0.000000 0.000000
vn 1.000000 -0.000000 0.000000
vn 0.000000 0.861299 0.508098
vn 0.000000 0.861300 0.508097
vn 0.000000 0.861299 0.508098
vn 0.000000 0.861300 0.508097
vn 0.000000 0.867898 0.496742
vn 0.000000 0.867898 0.496742
vn 0.000000 0.867898 0.496742
vn 0.000000 0.867898 0.496742
vn 0.000000 -0.332057 0.943259
vn 0.000000 -0.332057 0.943259
vn 0.000000 -0.332057 0.943259
vn 0.000000 -0.332057 0.943259
vn 0.000000 -0.866026 0.499999
vn 0.000000 -0.866026 0.499999
vn 0.000000 -0.866026 0.499999
vn 0.000000 -0.866026 0.499999
vn 0.000000 0.500001 0.866025
vn 0.000000 0.500001 0.866025
vn 0.000000 0.500001 0.866025
vn 0.000000 0.500001 0.866025
vn 0.000000 0.866025 -0.500000
vn 0.000000 0.866025 -0.500000
vn 0.000000 0.866025 -0.500000
vn 0.000000 0.866025 -0.500000
vn 0.000000 0.982915 0.184062
vn 0.000000 0.982915 0.184062
vn 0.000000 0.982915 0.184062
vn 0.000000 0.982915 0.184062
vn 0.000000 -0.982918 -0.184045
vn 0.000000 -0.982918 -0.184045
vn 0.000000 -0.982918 -0.184045
vn 0.000000 -0.982918 -0.184045
vn 0.000000 -0.866026 0.499999
vn 0.000000 -0.866026 0.499999
vn 0.000000 -0.866026 0.499999
vn 0.000000 -0.866026 0.499999
vn 0.000000 -0.500000 -0.866026
vn 0.000000 -0.500000 -0.866026
vn 0.000000 -0.500000 -0.866026
vn 0.000000 -0.500000 -0.866026
vn 0.000000 0.866026 -0.499999
vn 0.000000 0.866026 -0.499999
vn 0.000000 0.866026 -0.499999
vn 0.000000 0.866026 -0.499999
vn 0.000000 0.332056 -0.943260
vn 0.000000 0.332056 -0.943260
vn 0.000000 0.332056 -0.943260
vn 0.000000 0.332056 -0.943260
vn 0.000000 0.866026 -0.499999
vn 0.000000 0.866026 -0.499999
vn 0.000000 0.866026 -0.499999
vn 0.000000 0.866026 -0.499999
vn 0.000000 0.866026 -0.500000
vn 0.000000 0.866026 -0.500000
vn 0.000000 0.866026 -0.500000
vn 0.000000 0.866026 -0.500000
vn 0.000000 -0.866025 0.500000
vn 0.000000 -0.866025 0.500000
vn 0.000000 -0.866025 0.500000
vn 0.000000 -0.866025 0.500000
vn 0.000000 -0.866026 0.499999
vn 0.000000 -0.866026 0.499999
vn 0.000000 -0.866026 0.499999
vn 0.000000 -0.866026 0.499999
vn 0.000000 0.009376 0.999956
vn 0.000000 0.009376 0.999956
vn 0.000000 0.009376 0.999956
vn 0.000000 0.009376 0.999956
vn 0.000000 0.009376 0.999956
vn 0.000000 -0.003758 0.999993
vn 0.000000 -0.003758 0.999993
vn 0.000000 -0.003758 0.999993
vn 0.000000 -0.003758 0.999993
vn 0.000000 -0.003758 0.999993
vn 0.000000 0.867898 0.496742
vn 0.000000 0.867898 0.496742
vn 0.000000 0.867898 0.496742
vn 0.000000 0.867898 0.496742
vn 0.000000 0.861299 0.508098
vn 0.000000 0.861299 0.508098
vn 0.000000 0.861299 0.508098
vn 0.000000 0.861299 0.508098
vn 0.000000 0.866026 -0.499999
vn 0.000000 0.866026 -0.499999
vn 0.000000 0.866026 -0.499999
vn 0.000000 0.866026 -0.499999
vn 0.000000 0.332056 -0.943260
vn 0.000000 0.332056 -0.943260
vn 0.000000 0.332056 -0.943260
vn 0.000000 0.332056 -0.943260
vn 0.000000 0.866026 -0.499999
vn 0.000000 0.866026 -0.499999
vn 0.000000 0.866026 -0.499999
vn 0.000000 0.866026 -0.499999
vn 0.000000 -0.500000 -0.866026
vn 0.000000 -0.500000 -0.866026
vn 0.000000 -0.500000 -0.866026
vn 0.000000 -0.500000 -0.866026
vn 0.000000 -0.866026 0.499999
vn 0.000000 -0.866026 0.499999
vn 0.000000 -0.866026 0.499999
vn 0.000000 -0.866026 0.499999
vn 0.000000 -0.982918 -0.184044
vn 0.000000 -0.982918 -0.184044
vn 0.000000 -0.982918 -0.184044
vn 0.000000 -0.982918 -0.184044
vn 0.000000 -0.866026 0.499999
vn 0.000000 -0.866026 0.499999
vn 0.000000 -0.866026 0.499999
vn 0.000000 -0.866026 0.499999
vn 0.000000 -0.866025 0.500000
vn 0.000000 -0.866025 0.500000
vn 0.000000 -0.866025 0.500000
vn 0.000000 -0.866025 0.500000
vn -0.000004 -0.332059 0.943259
vn -0.000004 -0.332059 0.943259
vn -0.000004 -0.332059 0.943259
vn -0.000004 -0.332059 0.943259
vn -0.000002 -0.866026 0.499999
vn -0.000002 -0.866026 0.499999
vn -0.000002 -0.866026 0.499999
vn -0.000002 -0.866026 0.499999
vn 0.000000 0.500001 0.866025
vn 0.000000 0.500001 0.866025
vn 0.000000 0.500001 0.866025
vn 0.000000 0.500001 0.866025
vn 0.000000 0.866025 -0.500001
vn 0.000000 0.866025 -0.500001
vn 0.000000 0.866025 -0.500001
vn 0.000000 0.866025 -0.500001
vn 0.000000 0.982914 0.184063
vn 0.000000 0.982914 0.184063
vn 0.000000 0.982914 0.184063
vn 0.000000 0.982914 0.184063
vn 0.000000 0.866026 -0.500000
vn 0.000000 0.866026 -0.500000
vn 0.000000 0.866026 -0.500000
vn 0.000000 0.866026 -0.500000
vn 0.000000 -0.009387 -0.999956
vn 0.000000 -0.009387 -0.999956
vn 0.000000 -0.009387 -0.999956
vn 0.000000 -0.009387 -0.999956
vn 0.000000 0.003757 -0.999993
vn 0.000000 0.003757 -0.999993
vn 0.000000 0.003757 -0.999993
vn 0.000000 0.003757 -0.999993
vn 0.000000 -0.867895 -0.496748
vn 0.000000 -0.867895 -0.496748
vn 0.000000 -0.867895 -0.496748
vn 0.000000 -0.867895 -0.496748
vn 0.000000 -0.861297 -0.508102
vn 0.000000 -0.861297 -0.508102
vn 0.000000 -0.861297 -0.508102
vn 0.000000 -0.861297 -0.508102
vn -0.000003 -0.847690 -0.530492
vn -0.000003 -0.847690 -0.530492
vn -0.000003 -0.847690 -0.530492
vn -0.000003 -0.847690 -0.530492
vn 0.000000 0.889355 0.457218
vn 0.000000 0.889355 0.457218
vn 0.000000 0.889355 0.457218
vn 0.000000 0.889355 0.457218
vn 0.000000 0.863125 -0.504991
vn 0.000000 0.863125 -0.504991
vn 0.000000 0.863125 -0.504991
vn 0.000000 0.863125 -0.504991
vn 0.000000 -0.854248 -0.519865
vn 0.000000 -0.854248 -0.519865
vn 0.000000 -0.854248 -0.519865
vn 0.000000 -0.854248 -0.519865
vn 1.000000 0.000000 0.000000
vn 1.000000 0.000000 0.000000
vn 1.000000 0.000000 0.000000
vn 1.000000 0.000000 0.000000
vn 1.000000 0.000000 0.000000
vn 1.000000 0.000000 0.000000
vn 1.000000 0.000000 0.000000
vn 0.000000 0.872755 0.488159
vn 0.000000 0.872755 0.488159
vn 0.000000 0.872755 0.488159
vn 0.000000 0.872755 0.488159
vn 1.000000 0.000000 0.000000
vn 1.000000 0.000000 0.000000
vn 1.000000 0.000000 0.000000
vn 0.000002 -0.870150 0.492787
vn 0.000002 -0.870150 0.492787
vn 0.000002 -0.870150 0.492788
vn 0.000002 -0.870150 0.492787
vn 1.000000 -0.000000 0.000000
vn 1.000000 -0.000000 0.000000
vn 1.000000 -0.000000 0.000000
vn 1.000000 -0.000000 0.000000
vn 1.000000 0.000000 0.000000
vn 1.000000 0.000000 0.000000
vn 1.000000 0.000000 0.000000
vn 1.000000 0.000000 0.000000
vn 1.000000 -0.000000 0.000000
vn 1.000000 -0.000000 0.000000
vn 1.000000 -0.000000 0.000000
vn 1.000000 -0.000000 0.000000
vn 1.000000 0.000000 0.000000
vn 1.000000 0.000000 0.000000
vn 1.000000 0.000000 0.000000
vn 1.000000 0.000000 0.000000
vn 1.000000 0.000000 0.000000
vn 1.000000 0.000000 0.000000
vn 1.000000 0.000000 0.000000
vn 1.000000 0.000000 0.000000
vn -0.013787 -0.864718 0.502069
vn -0.013787 -0.864718 0.502069
vn -0.013787 -0.864718 0.502069
vn -0.013787 -0.864718 0.502069
vn -1.000000 0.000000 0.000000
vn -1.000000 0.000000 0.000000
vn -1.000000 0.000000 0.000000
vn -1.000000 0.000000 0.000000
vn -1.000000 0.000000 0.000000
vn -1.000000 0.000000 0.000000
vn -1.000000 0.000000 0.000000
vn -1.000000 0.000000 0.000000
vn -1.000000 0.000000 0.000000
vn -1.000000 0.000000 0.000000
vn -1.000000 0.000000 0.000000
vn -1.000000 0.000000 0.000000
vn 0.012696 0.864828 -0.501908
vn 0.012696 0.864828 -0.501908
vn 0.012696 0.864828 -0.501908
vn 0.012696 0.864828 -0.501908
s off
g initialShadingGroup Sunmao_006_B
f 6/1/1 10/2/2 9/3/3 5/4/4
f 8/5/5 11/6/6 12/7/7 7/8/8
f 14/9/9 7/8/10 1/10/11 13/11/12
f 7/8/13 14/9/14 15/12/15 8/5/16
f 16/13/17 3/14/18 8/5/19 15/12/20
f 5/4/21 4/15/22 17/16/23 18/17/24
f 5/4/25 18/17/26 19/18/27 6/1/28
f 20/19/29 2/20/30 6/1/31 19/18/32
f 2/20/33 20/19/34 21/21/35 51/22/36
f 6/23/37 2/24/38 51/25/39 52/26/40
f 10/27/41 6/23/42 52/26/43 53/28/44
f 9/29/45 10/27/46 53/28/47 54/30/48
f 5/31/49 9/29/50 54/30/51 55/32/52
f 4/15/53 5/31/54 55/32/55 56/33/56
f 22/34/57 56/33/58 80/35/59 81/36/60
f 14/9/61 23/37/62 15/12/63
f 84/38/64 74/39/65 21/40/66 24/41/67
f 84/38/68 24/41/69 25/42/70 83/43/71
f 96/44/72 97/45/73 42/46/74 43/47/75
f 95/48/76 96/44/77 43/47/78 44/49/79
f 94/50/80 95/48/81 44/49/82 45/51/83
f 90/52/84 94/50/85 45/51/86 46/53/87
f 97/45/88 86/54/89 47/55/90 42/46/91
f 70/56/92 71/57/93 59/58/94 60/59/95
f 72/60/96 73/61/97 57/62/98 58/63/99
f 62/64/100 68/65/101 69/66/102 61/67/103
f 31/68/104 30/69/105 34/70/106 35/71/107
f 69/66/108 70/56/109 60/59/110 61/67/111
f 33/72/112 32/73/113 37/74/114 36/75/115
f 71/57/116 72/60/117 58/63/118 59/58/119
f 39/76/120 38/77/121 26/78/122 32/73/123
f 32/73/124 33/72/125 40/79/126 39/76/127
f 41/80/128 40/79/129 33/72/130 28/81/131
f 47/55/132 67/82/133 68/83/134 62/84/135
f 30/69/136 43/47/137 42/46/138 29/85/139
f 30/69/140 31/68/141 44/49/142 43/47/143
f 45/51/144 44/49/145 31/68/146 27/86/147
f 57/62/148 46/53/149 45/51/150 27/86/151
f 39/76/152 40/79/153 48/87/154
f 66/88/155 67/89/156 47/90/157 49/91/158
f 65/92/159 66/88/160 49/91/161 50/93/162
f 52/26/163 51/25/164 75/94/165 76/95/166
f 53/28/167 52/26/168 76/95/169 77/96/170
f 78/97/171 54/30/172 53/28/173 77/96/174
f 79/98/175 55/32/176 54/30/177 78/97/178
f 80/35/179 56/33/180 55/32/181 79/98/182
f 58/63/183 57/62/184 27/86/185 31/99/186
f 59/58/187 58/63/188 31/99/189 35/100/190
f 60/59/191 59/58/192 35/100/193 34/101/194
f 61/67/195 60/59/196 34/101/197 30/102/198
f 62/64/199 61/67/200 30/102/201 29/103/202
f 47/55/203 62/84/204 29/85/205 42/46/206
f 22/34/207 17/16/208 4/15/209 56/33/210
f 51/22/211 21/21/212 74/104/213 75/105/214
f 73/61/215 63/106/216 46/53/217 57/62/218
f 38/77/219 39/76/220 85/107/221 64/108/222 63/109/223
f 39/76/224 48/87/225 65/110/226 64/108/227 85/107/228
f 48/111/229 40/112/230 66/88/231 65/92/232
f 40/112/233 41/113/234 67/89/235 66/88/236
f 68/83/237 67/82/238 41/114/239 28/115/240
f 69/66/241 68/65/242 28/116/243 33/117/244
f 33/117/245 36/118/246 70/56/247 69/66/248
f 36/118/249 37/119/250 71/57/251 70/56/252
f 37/119/253 32/120/254 72/60/255 71/57/256
f 32/120/257 26/78/258 73/61/259 72/60/260
f 26/78/261 38/77/262 63/106/263 73/61/264
f 75/105/265 74/104/266 13/121/267 1/122/268
f 76/95/269 75/94/270 1/123/271 7/124/272
f 77/96/273 76/95/274 7/124/275 12/125/276
f 11/126/277 78/97/278 77/96/279 12/125/280
f 8/127/281 79/98/282 78/97/283 11/126/284
f 3/14/285 80/35/286 79/98/287 8/127/288
f 81/36/289 80/35/290 3/14/291 16/13/292
f 15/12/293 82/128/294 81/129/295 16/13/296
f 23/37/297 83/130/298 82/128/299 15/12/300
f 14/9/301 84/38/302 83/43/303 23/37/304
f 13/11/305 74/39/306 84/38/307 14/9/308
f 86/131/309 87/132/310 88/133/311 89/134/312
f 90/135/313 91/136/314 92/137/315 93/138/316
f 22/34/317 81/36/318 87/139/319 86/54/320
f 83/43/321 25/42/322 89/134/323 88/133/324
f 87/140/325 81/129/326 82/128/327 88/141/328
f 88/141/329 82/128/330 83/130/331
f 65/92/332 50/93/333 93/138/334 92/137/335
f 92/142/336 64/108/337 65/110/338
f 46/53/339 63/106/340 91/143/341 90/52/342
f 91/144/343 63/109/344 64/108/345 92/142/346
f 25/42/347 24/41/348 93/138/349 50/93/350
f 24/41/351 21/40/352 90/135/353 93/138/354
f 50/93/355 49/91/356 89/134/357 25/42/358
f 49/91/359 47/90/360 86/131/361 89/134/362
f 21/21/363 20/19/364 94/50/365 90/52/366
f 20/19/367 19/18/368 95/48/369 94/50/370
f 19/18/371 18/17/372 96/44/373 95/48/374
f 18/17/375 17/16/376 97/45/377 96/44/378
f 17/16/379 22/34/380 86/54/381 97/45/382
g default
v -0.094453 -0.880735 0.204038
v 0.094453 -0.880735 0.204038
v -0.094453 -0.880735 -0.204038
v 0.094453 -0.880735 -0.204038
v 0.094453 -0.975950 -0.122410
v 0.094453 -0.975950 0.122410
v -0.094453 -0.975950 0.122410
v -0.094453 -0.975950 -0.122410
v 0.094453 -1.418055 -0.122410
v 0.094453 -1.418055 0.122410
v -0.094453 -1.418055 -0.122410
v -0.094453 -1.418055 0.122410
v -0.094453 -0.358909 0.204038
v -0.094453 -0.312797 0.122410
v -0.094453 -0.312797 -0.122410
v -0.094453 -0.358909 -0.204038
v 0.094453 -0.358909 -0.204038
v 0.094453 -0.358909 -0.122410
v 0.094453 -0.358909 0.122410
v 0.094453 -0.358909 0.204038
v 0.031484 -0.358909 0.204038
v 0.031484 -0.358909 -0.204038
v -0.094453 -0.241509 0.000000
v 0.031484 -0.312797 0.122410
v 0.031484 -0.312797 -0.122410
v 0.031484 -0.241509 0.000000
v -0.094453 0.880734 0.204038
v 0.094453 0.880734 0.204038
v -0.094453 0.880734 -0.204038
v 0.094453 0.880734 -0.204038
v 0.094453 0.975950 -0.122410
v 0.094453 0.975950 0.122410
v -0.094453 0.975950 0.122410
v -0.094453 0.975950 -0.122410
v 0.094453 1.418055 -0.122410
v 0.094453 1.418055 0.122410
v -0.094453 1.418055 -0.122410
v -0.094453 1.418055 0.122410
v -0.094453 0.358909 0.204038
v -0.094453 0.312796 0.122410
v -0.094453 0.312796 -0.122410
v -0.094453 0.358909 -0.204038
v 0.094453 0.358909 -0.204038
v 0.094453 0.358909 -0.122410
v 0.094453 0.358909 0.122410
v 0.094453 0.358909 0.204038
v 0.031484 0.358909 0.204038
v 0.031484 0.358909 -0.204038
v -0.094453 0.241508 0.000000
v 0.031484 0.312796 0.122410
v 0.031484 0.312796 -0.122410
v 0.031484 0.241508 0.000000
v 0.031484 -0.880735 0.204038
v 0.031484 -0.975950 0.122410
v 0.031484 -1.418055 0.122410
v 0.031484 -1.418055 -0.122410
v 0.031484 -0.975950 -0.122410
v 0.031484 -0.880735 -0.204038
v 0.031484 0.880734 0.204038
v 0.031484 0.975950 0.122410
v 0.031484 1.418055 0.122410
v 0.031484 1.418055 -0.122410
v 0.031484 0.975950 -0.122410
v 0.031484 0.880734 -0.204038
vt 0.961493 0.599744
vt 0.961493 0.699002
vt 0.906529 0.699002
vt 0.906529 0.599744
vt 0.827465 0.599744
vt 0.827465 0.699002
vt 0.772500 0.699002
vt 0.772500 0.599744
vt 0.772500 0.464290
vt 0.754174 0.578367
vt 0.754174 0.469466
vt 0.827465 0.464290
vt 0.845791 0.469466
vt 0.845791 0.578367
vt 0.888202 0.578367
vt 0.888202 0.461212
vt 0.906528 0.461212
vt 0.961493 0.461212
vt 0.979820 0.461212
vt 0.979820 0.578367
vt 0.711762 0.578367
vt 0.711762 0.461212
vt 0.740037 0.458270
vt 0.725900 0.578367
vt 0.711762 0.599744
vt 0.725900 0.599744
vt 0.711763 0.699002
vt 0.725900 0.699002
vt 0.827465 0.741413
vt 0.772500 0.741413
vt 0.772500 0.727276
vt 0.827465 0.727276
vt 0.888202 0.599744
vt 0.888202 0.699002
vt 0.874065 0.699002
vt 0.874065 0.599744
vt 0.874065 0.578367
vt 0.859928 0.458270
vt 0.799982 0.456287
vt 0.772500 0.450153
vt 0.827465 0.450153
vt 0.799982 0.442150
vt 0.888202 0.300054
vt 0.906529 0.300054
vt 0.961494 0.300054
vt 0.979820 0.300054
vt 0.711762 0.300054
vt 0.740036 0.302995
vt 0.859928 0.302995
vt 0.772500 0.311113
vt 0.827465 0.311113
vt 0.799982 0.319116
vt 0.827464 0.062264
vt 0.772500 0.062264
vt 0.772500 0.033990
vt 0.827465 0.033990
vt 0.754173 0.161522
vt 0.754173 0.182898
vt 0.725899 0.182898
vt 0.725899 0.161522
vt 0.874065 0.182898
vt 0.845791 0.182898
vt 0.845791 0.161521
vt 0.874065 0.161521
vt 0.961494 0.161521
vt 0.906529 0.161521
vt 0.906529 0.062264
vt 0.961494 0.062264
vt 0.845791 0.062264
vt 0.874065 0.062264
vt 0.827465 0.161521
vt 0.772500 0.161522
vt 0.754173 0.062264
vt 0.725899 0.062264
vt 0.772500 0.296976
vt 0.754174 0.291800
vt 0.827465 0.296976
vt 0.845791 0.291800
vt 0.888202 0.182898
vt 0.979820 0.182898
vt 0.711762 0.182898
vt 0.799982 0.304979
vt 0.754174 0.599744
vt 0.754174 0.699002
vt 0.845791 0.599744
vt 0.845791 0.699002
vt 0.711762 0.161522
vt 0.711762 0.062264
vt 0.772500 0.019853
vt 0.827465 0.019853
vt 0.888202 0.062264
vt 0.888202 0.161521
vn 1.000000 0.000000 0.000000
vn 1.000000 0.000000 0.000000
vn 1.000000 0.000000 0.000000
vn 1.000000 0.000000 0.000000
vn -1.000000 0.000000 0.000000
vn -1.000000 0.000000 0.000000
vn -1.000000 0.000000 0.000000
vn -1.000000 0.000000 0.000000
vn -1.000000 0.000000 0.000000
vn -1.000000 0.000000 0.000000
vn -1.000000 0.000000 0.000000
vn -1.000000 0.000000 0.000000
vn -1.000000 0.000000 0.000000
vn -1.000000 0.000000 0.000000
vn -1.000000 0.000000 0.000000
vn -1.000000 0.000000 0.000000
vn -1.000000 0.000000 0.000000
vn -1.000000 0.000000 0.000000
vn -1.000000 0.000000 0.000000
vn -1.000000 0.000000 0.000000
vn 1.000000 0.000000 0.000000
vn 1.000000 0.000000 0.000000
vn 1.000000 0.000000 0.000000
vn 1.000000 0.000000 0.000000
vn 1.000000 0.000000 0.000000
vn 1.000000 0.000000 0.000000
vn 1.000000 0.000000 0.000000
vn 1.000000 0.000000 0.000000
vn 1.000000 0.000000 0.000000
vn 1.000000 0.000000 0.000000
vn 1.000000 0.000000 0.000000
vn 1.000000 0.000000 0.000000
vn 0.000000 0.000000 1.000000
vn 0.000000 0.000000 1.000000
vn 0.000000 0.000000 1.000000
vn 0.000000 0.000000 1.000000
vn 0.000001 -0.650857 0.759200
vn 0.000001 -0.650857 0.759200
vn 0.000000 -0.650857 0.759200
vn 0.000000 -0.650857 0.759200
vn 0.000000 0.000000 1.000000
vn 0.000000 0.000000 1.000000
vn 0.000000 0.000000 1.000000
vn 0.000000 0.000000 1.000000
vn 0.000000 -1.000000 0.000000
vn 0.000000 -1.000000 0.000000
vn 0.000000 -1.000000 0.000000
vn 0.000000 -1.000000 0.000000
vn 0.000000 0.000000 -1.000000
vn 0.000000 0.000000 -1.000000
vn 0.000000 0.000000 -1.000000
vn 0.000000 0.000000 -1.000000
vn 0.000000 -0.650857 -0.759200
vn 0.000000 -0.650857 -0.759200
vn 0.000000 -0.650857 -0.759200
vn 0.000000 -0.650857 -0.759200
vn 0.000000 0.000000 -1.000000
vn 0.000000 0.000000 -1.000000
vn 0.000000 0.000000 -1.000000
vn 0.000000 0.000000 -1.000000
vn -1.000000 0.000000 0.000000
vn -1.000000 0.000000 0.000000
vn -1.000000 0.000000 0.000000
vn 0.000000 0.870679 0.491851
vn 0.000000 0.870679 0.491851
vn 0.000000 0.870679 0.491851
vn 0.000000 0.870679 0.491851
vn 0.000000 0.870679 -0.491851
vn 0.000000 0.870679 -0.491851
vn 0.000000 0.870679 -0.491851
vn 0.000000 0.870679 -0.491851
vn 0.000000 0.864140 0.503252
vn 0.000000 0.864140 0.503252
vn 0.000000 0.864140 0.503252
vn 0.000000 0.864140 0.503252
vn 0.000000 0.864141 -0.503250
vn 0.000000 0.864141 -0.503250
vn 0.000000 0.864141 -0.503250
vn 0.000000 0.864141 -0.503250
vn 1.000000 0.000000 0.000000
vn 1.000000 0.000000 0.000000
vn 1.000000 0.000000 0.000000
vn 1.000000 0.000000 0.000000
vn 1.000000 0.000000 0.000000
vn 1.000000 0.000000 0.000000
vn 1.000000 0.000000 0.000000
vn 1.000000 0.000000 0.000000
vn 1.000000 0.000000 0.000000
vn 1.000000 0.000000 0.000000
vn 1.000000 0.000000 0.000000
vn 1.000000 0.000000 0.000000
vn 0.000000 0.000000 1.000000
vn 0.000000 0.000000 1.000000
vn 0.000000 0.000000 1.000000
vn 0.000000 0.000000 1.000000
vn 0.000000 0.000000 -1.000000
vn 0.000000 0.000000 -1.000000
vn 0.000000 0.000000 -1.000000
vn 0.000000 0.000000 -1.000000
vn -1.000000 0.000000 0.000000
vn -1.000000 0.000000 0.000000
vn -1.000000 0.000000 0.000000
vn -1.000000 0.000000 0.000000
vn -1.000000 0.000000 0.000000
vn -1.000000 0.000000 0.000000
vn -1.000000 0.000000 0.000000
vn -1.000000 0.000000 0.000000
vn -1.000000 0.000000 0.000000
vn -1.000000 0.000000 0.000000
vn -1.000000 0.000000 0.000000
vn -1.000000 0.000000 0.000000
vn 0.000000 1.000000 0.000000
vn 0.000000 1.000000 0.000000
vn 0.000000 1.000000 0.000000
vn 0.000000 1.000000 0.000000
vn 0.000000 0.650857 0.759201
vn 0.000000 0.650857 0.759201
vn 0.000000 0.650857 0.759201
vn 0.000000 0.650857 0.759201
vn 0.000000 0.650857 -0.759201
vn 0.000000 0.650857 -0.759201
vn 0.000000 0.650857 -0.759201
vn 0.000000 0.650857 -0.759201
vn 1.000000 0.000000 0.000000
vn 1.000000 0.000000 0.000000
vn 1.000000 0.000000 0.000000
vn 1.000000 0.000000 0.000000
vn 0.000000 0.000000 -1.000000
vn 0.000000 0.000000 -1.000000
vn 0.000000 0.000000 -1.000000
vn 0.000000 0.000000 -1.000000
vn -1.000000 0.000000 0.000000
vn -1.000000 0.000000 0.000000
vn -1.000000 0.000000 0.000000
vn -1.000000 0.000000 0.000000
vn 0.000000 0.000000 1.000000
vn 0.000000 0.000000 1.000000
vn 0.000000 0.000000 1.000000
vn 0.000000 0.000000 1.000000
vn -1.000000 0.000000 0.000000
vn -1.000000 0.000000 0.000000
vn -1.000000 0.000000 0.000000
vn -1.000000 0.000000 0.000000
vn -1.000000 0.000000 0.000000
vn -1.000000 0.000000 0.000000
vn -1.000000 0.000000 0.000000
vn -1.000000 0.000000 0.000000
vn -1.000000 0.000000 0.000000
vn -1.000000 0.000000 0.000000
vn -1.000000 0.000000 0.000000
vn -1.000000 0.000000 0.000000
vn 0.000000 0.000000 -1.000000
vn 0.000000 0.000000 -1.000000
vn 0.000000 0.000000 -1.000000
vn 0.000000 0.000000 -1.000000
vn 1.000000 0.000000 0.000000
vn 1.000000 0.000000 0.000000
vn 1.000000 0.000000 0.000000
vn 1.000000 0.000000 0.000000
vn 1.000000 0.000000 0.000000
vn 1.000000 0.000000 0.000000
vn 1.000000 0.000000 0.000000
vn 1.000000 0.000000 0.000000
vn 1.000000 0.000000 0.000000
vn 1.000000 0.000000 0.000000
vn 1.000000 0.000000 0.000000
vn 1.000000 0.000000 0.000000
vn 0.000000 0.000000 1.000000
vn 0.000000 0.000000 1.000000
vn 0.000000 0.000000 1.000000
vn 0.000000 0.000000 1.000000
vn -1.000000 0.000000 0.000000
vn -1.000000 0.000000 0.000000
vn -1.000000 0.000000 0.000000
vn 0.000000 -0.870677 0.491855
vn 0.000000 -0.870677 0.491855
vn 0.000000 -0.870677 0.491855
vn 0.000000 -0.870677 0.491855
vn 0.000000 -0.870677 -0.491855
vn 0.000000 -0.870677 -0.491855
vn 0.000000 -0.870677 -0.491855
vn 0.000000 -0.870677 -0.491855
vn 0.000000 -0.864140 0.503251
vn 0.000000 -0.864140 0.503251
vn 0.000000 -0.864140 0.503251
vn 0.000000 -0.864140 0.503251
vn 0.000000 -0.864141 -0.503249
vn 0.000000 -0.864141 -0.503249
vn 0.000000 -0.864141 -0.503249
vn 0.000000 -0.864141 -0.503249
vn -1.000000 0.000000 0.000000
vn -1.000000 0.000000 0.000000
vn -1.000000 0.000000 0.000000
vn -1.000000 0.000000 0.000000
vn 0.000000 -0.650857 0.759200
vn 0.000000 -0.650857 0.759200
vn -0.000001 -0.650857 0.759200
vn -0.000001 -0.650857 0.759200
vn 0.000000 0.000000 1.000000
vn 0.000000 0.000000 1.000000
vn 0.000000 0.000000 1.000000
vn 0.000000 0.000000 1.000000
vn 0.000000 -1.000000 0.000000
vn 0.000000 -1.000000 0.000000
vn 0.000000 -1.000000 0.000000
vn 0.000000 -1.000000 0.000000
vn 0.000000 0.000000 -1.000000
vn 0.000000 0.000000 -1.000000
vn 0.000000 0.000000 -1.000000
vn 0.000000 0.000000 -1.000000
vn 0.000000 -0.650857 -0.759200
vn 0.000000 -0.650857 -0.759200
vn 0.000000 -0.650857 -0.759200
vn 0.000000 -0.650857 -0.759200
vn 0.000000 0.650857 0.759201
vn 0.000000 0.650857 0.759201
vn 0.000000 0.650857 0.759201
vn 0.000000 0.650857 0.759201
vn 0.000000 0.000000 1.000000
vn 0.000000 0.000000 1.000000
vn 0.000000 0.000000 1.000000
vn 0.000000 0.000000 1.000000
vn 0.000000 1.000000 0.000000
vn 0.000000 1.000000 0.000000
vn 0.000000 1.000000 0.000000
vn 0.000000 1.000000 0.000000
vn 0.000000 0.000000 -1.000000
vn 0.000000 0.000000 -1.000000
vn 0.000000 0.000000 -1.000000
vn 0.000000 0.000000 -1.000000
vn 0.000000 0.650857 -0.759201
vn 0.000000 0.650857 -0.759201
vn 0.000000 0.650857 -0.759201
vn 0.000000 0.650857 -0.759201
vn 0.000000 0.000000 -1.000000
vn 0.000000 0.000000 -1.000000
vn 0.000000 0.000000 -1.000000
vn 0.000000 0.000000 -1.000000
vn 0.000000 0.000000 -1.000000
vn 0.000000 0.000000 -1.000000
vn 0.000000 0.000000 -1.000000
vn 0.000000 0.000000 -1.000000
vn 0.000000 0.000000 1.000000
vn 0.000000 0.000000 1.000000
vn 0.000000 0.000000 1.000000
vn 0.000000 0.000000 1.000000
vn 0.000000 0.000000 1.000000
vn 0.000000 0.000000 1.000000
vn 0.000000 0.000000 1.000000
vn 0.000000 0.000000 1.000000
s off
g initialShadingGroup Sunmao_006_A
f 103/145/383 107/146/384 106/147/385 102/148/386
f 105/149/387 108/150/388 109/151/389 104/152/390
f 111/153/391 104/152/392 98/154/393 110/155/394
f 104/152/395 111/153/396 112/156/397 105/149/398
f 113/157/399 100/158/400 105/149/401 112/156/402
f 102/148/403 101/159/404 114/160/405 115/161/406
f 102/148/407 115/161/408 116/162/409 103/145/410
f 117/163/411 99/164/412 103/145/413 116/162/414
f 99/165/415 117/166/416 118/167/417 150/168/418
f 103/169/419 99/165/420 150/168/421 151/170/422
f 107/171/423 103/169/424 151/170/425 152/172/426
f 106/173/427 107/174/428 152/175/429 153/176/430
f 102/177/431 106/178/432 153/179/433 154/180/434
f 101/159/435 102/177/436 154/180/437 155/181/438
f 119/182/439 155/181/440 100/158/441 113/157/442
f 111/153/443 120/183/444 112/156/445
f 110/155/446 118/167/447 121/184/448 111/153/449
f 112/156/450 122/185/451 119/182/452 113/157/453
f 111/153/454 121/184/455 123/186/456 120/183/457
f 120/183/458 123/186/459 122/185/460 112/156/461
f 115/161/462 114/160/463 140/187/464 141/188/465
f 116/162/466 115/161/467 141/188/468 142/189/469
f 117/163/470 116/162/471 142/189/472 143/190/473
f 118/167/474 117/166/475 143/191/476 144/192/477
f 114/160/478 119/182/479 145/193/480 140/187/481
f 121/184/482 118/167/483 144/192/484 147/194/485
f 119/182/486 122/185/487 148/195/488 145/193/489
f 123/186/490 121/184/491 147/194/492 149/196/493
f 134/197/494 135/198/495 158/199/496 159/200/497
f 130/201/498 124/202/499 156/203/500 157/204/501
f 161/205/502 126/206/503 131/207/504 160/208/505
f 129/209/506 128/210/507 132/211/508 133/212/509
f 131/207/510 134/213/511 159/214/512 160/208/513
f 131/215/514 130/216/515 135/198/516 134/197/517
f 135/217/518 130/201/519 157/204/520 158/218/521
f 137/219/522 136/220/523 124/202/524 130/216/525
f 130/216/526 131/215/527 138/221/528 137/219/529
f 139/222/530 138/221/531 131/215/532 126/206/533
f 145/193/534 139/222/535 126/206/536 161/205/537
f 128/210/538 141/188/539 140/187/540 127/223/541
f 128/210/542 129/209/543 142/189/544 141/188/545
f 143/190/546 142/189/547 129/209/548 125/224/549
f 156/203/550 144/192/551 143/191/552 125/225/553
f 137/219/554 138/221/555 146/226/556
f 136/220/557 137/219/558 147/194/559 144/192/560
f 138/221/561 139/222/562 145/193/563 148/195/564
f 137/219/565 146/226/566 149/196/567 147/194/568
f 146/226/569 138/221/570 148/195/571 149/196/572
f 123/186/573 149/196/574 148/195/575 122/185/576
f 151/170/577 150/168/578 98/154/579 104/227/580
f 152/172/581 151/170/582 104/227/583 109/228/584
f 108/150/585 153/176/586 152/175/587 109/151/588
f 105/229/589 154/180/590 153/179/591 108/230/592
f 100/158/593 155/181/594 154/180/595 105/229/596
f 157/204/597 156/203/598 125/225/599 129/231/600
f 158/218/601 157/204/602 129/231/603 133/232/604
f 159/200/605 158/199/606 133/233/607 132/234/608
f 160/208/609 159/214/610 132/235/611 128/236/612
f 161/205/613 160/208/614 128/236/615 127/223/616
f 145/193/617 161/205/618 127/223/619 140/187/620
f 119/182/621 114/160/622 101/159/623 155/181/624
f 150/168/625 118/167/626 110/155/627 98/154/628
f 124/202/629 136/220/630 144/192/631 156/203/632
g default
v 0.094452 -0.603017 1.289277
v 0.094452 -0.381965 0.906402
v 0.031484 -0.381965 0.906402
v 0.031484 -0.603017 1.289277
v 0.094452 -0.263666 0.864757
v 0.031484 -0.263666 0.864757
v -0.031485 -0.381965 0.906402
v -0.031485 -0.603017 1.289277
v 0.094452 -0.815038 1.166866
v 0.031484 -0.815038 1.166866
v -0.031485 -0.263666 0.864757
v -0.094452 -0.381965 0.906402
v -0.094452 -0.603017 1.289277
v 0.094452 -0.593986 0.783992
v 0.094452 0.117801 0.204038
v 0.031484 0.117801 0.204038
v -0.031485 -0.815038 1.166866
v -0.094452 -0.263666 0.864757
v -0.094452 -0.815038 1.166866
v -0.094452 0.000000 0.408076
v -0.094452 -0.593986 0.783992
v 0.031484 -0.593986 0.783992
v -0.031485 -0.593986 0.783992
v 0.031326 0.354149 -0.205328
v 0.031484 0.011535 0.204038
v 0.094452 -0.617069 0.660719
v 0.031484 -0.617069 0.660719
v -0.031485 -0.617069 0.660719
v 0.094452 0.617069 -0.660720
v 0.031484 0.617069 -0.660720
v 0.094452 0.353404 -0.204038
v 0.094452 -0.353404 0.204038
v 0.094452 0.593985 -0.783992
v -0.094452 0.235602 0.000000
v -0.094452 -0.617069 0.660719
v 0.031484 -0.040726 -0.204038
v 0.031484 -0.353404 0.204038
v 0.031484 0.593985 -0.783992
v -0.094452 0.617069 -0.660720
v -0.094452 0.593985 -0.783992
v -0.031485 -0.000009 -0.408061
v -0.031485 0.234866 0.001275
v -0.031485 0.593985 -0.783992
v -0.031485 0.617069 -0.660720
v -0.094452 -0.235603 0.000000
v 0.094452 0.381964 -0.906403
v 0.031484 0.815038 -1.166866
v 0.094452 0.815038 -1.166866
v 0.031484 -0.236591 0.002684
v -0.031485 -0.236765 0.002012
v -0.031485 0.815038 -1.166866
v 0.094452 -0.117801 -0.204038
v 0.094452 0.263665 -0.864757
v -0.094452 0.000000 -0.408076
v -0.094452 0.815038 -1.166866
v 0.094452 0.603017 -1.289277
v 0.031484 0.263665 -0.864757
v 0.031484 -0.117802 -0.204038
v 0.031484 0.603017 -1.289277
v 0.031484 0.381964 -0.906403
v -0.031485 0.603017 -1.289277
v -0.094452 0.381964 -0.906403
v -0.094452 0.603017 -1.289277
v -0.094452 0.263665 -0.864757
v -0.031485 0.263665 -0.864757
v -0.031485 0.381964 -0.906403
v -0.031485 -0.000014 0.408099
v 0.031484 0.235602 0.000000
v -0.031485 0.362793 -0.220302
v -0.094452 0.370732 -0.234052
v 0.031484 -0.000679 0.409251
v 0.094452 -0.001344 0.410403
v -0.031485 -0.357803 0.211656
v -0.094452 -0.362202 0.219276
v 0.031484 -0.002652 -0.403483
v 0.094452 -0.005295 -0.398905
v -0.031485 0.121567 0.197515
v -0.031485 -0.116127 -0.205502
v -0.094452 -0.072452 0.370310
v -0.094452 -0.047128 0.326449
v -0.031485 -0.061183 0.303189
v -0.031485 0.028874 0.147206
v -0.031485 0.144024 -0.052242
v -0.031485 0.174184 -0.104480
v -0.094452 0.188475 -0.081628
v -0.094452 0.296575 -0.268862
v -0.094452 0.074157 -0.373266
v -0.094452 0.047127 -0.326449
v -0.031485 0.029413 -0.356785
v -0.031485 -0.072701 -0.179919
v -0.031485 -0.192270 0.027182
v -0.031485 -0.207119 0.052900
v -0.094452 -0.188475 0.081627
v -0.094452 -0.289751 0.257042
v 0.094452 0.066455 -0.359926
v 0.094452 -0.023546 -0.204038
v 0.031484 -0.018535 -0.204038
v 0.031484 -0.025168 -0.192550
v 0.031484 -0.169453 0.057361
v 0.031484 -0.254138 0.204038
v 0.094452 -0.259149 0.204038
v 0.094452 -0.282982 0.245317
v 0.094452 -0.071767 0.369124
v 0.094452 0.023546 0.204038
v 0.031484 0.034414 0.204038
v 0.031484 0.177139 -0.043169
v 0.031484 0.270016 -0.204038
v 0.094452 0.259148 -0.204038
v 0.094452 0.281653 -0.243018
vt 0.458925 0.049619
vt 0.458896 0.139291
vt 0.444148 0.139287
vt 0.444177 0.049614
vt 0.458889 0.162882
vt 0.444140 0.166993
vt 0.429401 0.139282
vt 0.429429 0.049610
vt 0.554496 0.048522
vt 0.554504 0.019853
vt 0.569252 0.019857
vt 0.569244 0.048526
vt 0.429392 0.166989
vt 0.414653 0.139278
vt 0.414682 0.049605
vt 0.478014 0.136471
vt 0.478043 0.032927
vt 0.535383 0.032942
vt 0.535354 0.136487
vt 0.444110 0.273677
vt 0.458857 0.277527
vt 0.458845 0.321744
vt 0.444097 0.321740
vt 0.584000 0.019861
vt 0.583991 0.048531
vt 0.554432 0.278162
vt 0.535310 0.293331
vt 0.535313 0.282167
vt 0.414645 0.166985
vt 0.598747 0.019865
vt 0.598739 0.048535
vt 0.617832 0.136786
vt 0.617861 0.033242
vt 0.675200 0.033258
vt 0.675171 0.136802
vt 0.554471 0.138195
vt 0.569219 0.138199
vt 0.583966 0.138203
vt 0.546135 0.414455
vt 0.541633 0.417052
vt 0.541634 0.413945
vt 0.598714 0.138207
vt 0.554464 0.162930
vt 0.569211 0.167070
vt 0.621001 0.341885
vt 0.619700 0.325627
vt 0.673207 0.294754
vt 0.675783 0.310293
vt 0.561801 0.295073
vt 0.541663 0.306691
vt 0.583958 0.167075
vt 0.458788 0.524278
vt 0.444040 0.524274
vt 0.444033 0.417617
vt 0.458818 0.417319
vt 0.569126 0.470907
vt 0.550008 0.471398
vt 0.550020 0.429240
vt 0.569141 0.418207
vt 0.635086 0.461718
vt 0.621325 0.452687
vt 0.676213 0.420537
vt 0.688390 0.430496
vt 0.598707 0.163080
vt 0.561672 0.349593
vt 0.541652 0.346359
vt 0.569181 0.274029
vt 0.618863 0.350071
vt 0.677778 0.351412
vt 0.561770 0.405433
vt 0.444032 0.553145
vt 0.458780 0.553149
vt 0.429284 0.553141
vt 0.429292 0.524269
vt 0.675131 0.281784
vt 0.617792 0.279296
vt 0.414536 0.553137
vt 0.414544 0.524265
vt 0.444007 0.642818
vt 0.458754 0.642822
vt 0.570218 0.370010
vt 0.584970 0.370055
vt 0.585927 0.417486
vt 0.571161 0.416712
vt 0.429259 0.642813
vt 0.414511 0.642809
vt 0.492627 0.619172
vt 0.549967 0.619188
vt 0.549938 0.722733
vt 0.492598 0.722717
vt 0.556394 0.415938
vt 0.555474 0.370307
vt 0.443998 0.671487
vt 0.458746 0.671491
vt 0.573341 0.524725
vt 0.573902 0.552426
vt 0.559157 0.552725
vt 0.558596 0.525023
vt 0.429251 0.671483
vt 0.634155 0.619679
vt 0.691493 0.619320
vt 0.692141 0.722863
vt 0.634803 0.723222
vt 0.574950 0.604188
vt 0.560206 0.604486
vt 0.633252 0.475500
vt 0.690620 0.480010
vt 0.588086 0.524427
vt 0.588647 0.552128
vt 0.414503 0.671479
vt 0.589695 0.603890
vt 0.602830 0.524129
vt 0.603391 0.551829
vt 0.604440 0.603591
vt 0.429362 0.273943
vt 0.414615 0.273944
vt 0.429336 0.369225
vt 0.429321 0.421120
vt 0.414573 0.424336
vt 0.414588 0.369519
vt 0.583929 0.272249
vt 0.598676 0.274467
vt 0.598663 0.321825
vt 0.583898 0.321336
vt 0.600672 0.417192
vt 0.569203 0.321417
vt 0.444083 0.369527
vt 0.429349 0.323263
vt 0.569091 0.596893
vt 0.677972 0.405350
vt 0.619064 0.406079
vt 0.694283 0.159108
vt 0.691047 0.284461
vt 0.698745 0.297051
vt 0.702473 0.351974
vt 0.699220 0.407062
vt 0.706162 0.420086
vt 0.709748 0.481514
vt 0.710471 0.596900
vt 0.614898 0.597499
vt 0.617313 0.472128
vt 0.610170 0.459220
vt 0.607260 0.406225
vt 0.609950 0.348331
vt 0.601860 0.335920
vt 0.473516 0.596866
vt 0.473550 0.473361
vt 0.492668 0.472870
vt 0.492671 0.462328
vt 0.483096 0.450826
vt 0.466180 0.460587
vt 0.483108 0.407321
vt 0.466195 0.405406
vt 0.483127 0.340466
vt 0.466211 0.350226
vt 0.487768 0.337788
vt 0.477961 0.326420
vt 0.458840 0.337452
vt 0.477974 0.281774
vn 0.000000 0.866027 0.499998
vn 0.000000 0.866027 0.499998
vn 0.000000 0.866027 0.499998
vn 0.000000 0.866027 0.499998
vn 0.000000 0.332058 0.943259
vn 0.000000 0.332058 0.943259
vn 0.000000 0.332058 0.943259
vn 0.000000 0.332058 0.943259
vn 0.000000 0.866026 0.500000
vn 0.000000 0.866026 0.500000
vn 0.000000 0.866026 0.500000
vn 0.000000 0.866026 0.500000
vn 0.000000 -0.500001 0.866025
vn 0.000000 -0.500001 0.866025
vn 0.000000 -0.500001 0.866025
vn 0.000000 -0.500001 0.866025
vn 0.000000 0.332058 0.943259
vn 0.000000 0.332058 0.943259
vn 0.000000 0.332059 0.943259
vn 0.000000 0.332059 0.943259
vn 0.000000 0.866026 0.500000
vn 0.000000 0.866026 0.500000
vn 0.000000 0.866026 0.500000
vn 0.000000 0.866026 0.500000
vn 1.000000 0.000000 0.000000
vn 1.000000 0.000000 0.000000
vn 1.000000 0.000000 0.000000
vn 1.000000 0.000000 0.000000
vn 0.000001 0.866025 0.500000
vn 0.000001 0.866025 0.500000
vn 0.000000 0.866025 0.500000
vn 0.000000 0.866025 0.500000
vn 0.000000 -0.500001 0.866025
vn 0.000000 -0.500001 0.866025
vn 0.000000 -0.500001 0.866025
vn 0.000000 -0.500001 0.866025
vn 1.000000 0.000000 0.000000
vn 1.000000 -0.000000 0.000000
vn 1.000000 0.000000 0.000000
vn 0.000000 0.332059 0.943259
vn 0.000000 0.332059 0.943259
vn 0.000000 0.332059 0.943259
vn 0.000000 0.332059 0.943259
vn 0.000000 -0.500001 0.866025
vn 0.000000 -0.500001 0.866025
vn 0.000000 -0.500001 0.866025
vn 0.000000 -0.500001 0.866025
vn -1.000000 0.000000 0.000000
vn -1.000000 0.000000 0.000000
vn -1.000000 0.000000 0.000000
vn -1.000000 0.000000 0.000000
vn 0.000000 -0.866025 -0.500000
vn 0.000000 -0.866025 -0.500000
vn 0.000000 -0.866025 -0.500000
vn 0.000000 -0.866025 -0.500000
vn 0.000000 -0.866025 -0.500000
vn 0.000000 -0.866025 -0.500000
vn 0.000000 -0.866025 -0.500000
vn 0.000000 -0.866025 -0.500000
vn 1.000000 0.000000 0.000000
vn 1.000000 0.000000 0.000000
vn 1.000000 0.000000 0.000000
vn 0.000000 -0.866025 -0.500000
vn 0.000000 -0.866025 -0.500000
vn 0.000000 -0.866025 -0.500000
vn 0.000000 -0.866025 -0.500000
vn 0.000000 -0.982915 0.184058
vn 0.000000 -0.982915 0.184058
vn 0.000000 -0.982915 0.184058
vn 0.000000 -0.982915 0.184058
vn 0.021597 0.864852 -0.501562
vn 0.018908 0.864827 -0.501714
vn 0.012163 0.864829 -0.501919
vn 0.014970 0.864822 -0.501856
vn 0.000000 0.000000 -1.000000
vn 0.000000 0.000000 -1.000000
vn 0.000003 0.000000 -1.000000
vn 0.000002 0.000000 -1.000000
vn 0.000000 -0.982915 0.184058
vn 0.000000 -0.982915 0.184058
vn 0.000000 -0.982915 0.184058
vn 0.000000 -0.982915 0.184058
vn 0.000002 0.866026 0.500000
vn 0.000002 0.866026 0.500000
vn 0.000002 0.866026 0.500000
vn 0.000002 0.866026 0.500000
vn 1.000000 0.000000 0.000000
vn 1.000000 -0.000000 0.000000
vn 1.000000 -0.000000 0.000000
vn 1.000000 0.000000 0.000000
vn -0.008644 -0.866650 0.498842
vn -0.006899 -0.866625 0.498912
vn -0.011110 -0.866662 0.498772
vn -0.012851 -0.866659 0.498735
vn 0.000000 -0.982915 0.184058
vn 0.000000 -0.982915 0.184058
vn 0.000001 -0.982915 0.184058
vn 0.000001 -0.982915 0.184058
vn 1.000000 0.000000 0.000000
vn 1.000000 0.000000 0.000000
vn 1.000000 0.000000 0.000000
vn 1.000000 0.000000 0.000000
vn 0.000000 -0.866026 -0.499999
vn 0.000000 -0.866026 -0.500000
vn 0.000000 -0.866026 -0.499999
vn 0.000000 -0.866026 -0.500000
vn -1.000000 0.000000 0.000000
vn -1.000000 0.000000 0.000000
vn -1.000000 0.000000 0.000000
vn -1.000000 0.000000 0.000000
vn 0.000002 -0.000002 1.000000
vn 0.000002 -0.000002 1.000000
vn 0.000002 -0.000002 1.000000
vn 0.000003 -0.000000 1.000000
vn 0.000003 0.000000 1.000000
vn -0.000000 0.982915 -0.184060
vn -0.000000 0.982915 -0.184060
vn -0.000001 0.982915 -0.184061
vn -0.000001 0.982915 -0.184061
vn 0.000000 0.982915 -0.184060
vn 0.000000 0.982915 -0.184060
vn -0.000000 0.982915 -0.184060
vn -0.000000 0.982915 -0.184060
vn -1.000000 0.000000 0.000000
vn -1.000000 0.000000 0.000000
vn -1.000000 0.000000 -0.000000
vn -1.000000 0.000000 0.000000
vn 0.000001 0.982915 -0.184060
vn 0.000001 0.982915 -0.184060
vn 0.000000 0.982915 -0.184060
vn 0.000000 0.982915 -0.184060
vn 0.000000 0.866025 0.500001
vn 0.000000 0.866025 0.500001
vn 0.000000 0.866025 0.500001
vn 0.000000 0.866025 0.500001
vn -0.003735 -0.866267 -0.499568
vn -0.003819 -0.866288 -0.499531
vn -0.000974 -0.866155 -0.499774
vn -0.001896 -0.866277 -0.499560
vn 0.000000 0.866025 0.500001
vn 0.000000 0.866025 0.500001
vn 0.000000 0.866025 0.500001
vn 0.000000 0.866025 0.500001
vn 0.000000 0.866025 0.500001
vn 0.000000 0.866025 0.500001
vn 0.000000 0.866025 0.500001
vn 0.000000 0.866025 0.500001
vn 1.000000 -0.000000 0.000000
vn 1.000000 -0.000000 0.000000
vn 1.000000 -0.000000 0.000000
vn 1.000000 -0.000000 0.000000
vn 0.000000 -0.866025 -0.500000
vn 0.000000 -0.866025 -0.500000
vn 0.000000 -0.866025 -0.500001
vn 0.000000 -0.866025 -0.500001
vn 0.000000 0.500001 -0.866025
vn 0.000000 0.500001 -0.866025
vn 0.000000 0.500001 -0.866025
vn 0.000000 0.500001 -0.866025
vn 0.000000 -0.332061 -0.943258
vn 0.000000 -0.332061 -0.943258
vn 0.000000 -0.332062 -0.943258
vn 0.000000 -0.332062 -0.943258
vn 0.000000 0.500001 -0.866025
vn 0.000000 0.500001 -0.866025
vn 0.000000 0.500001 -0.866025
vn 0.000000 0.500001 -0.866025
vn -1.000000 0.000000 0.000000
vn -1.000000 0.000000 0.000000
vn -1.000000 0.000000 0.000000
vn -1.000000 0.000000 0.000000
vn 0.000000 -0.866025 -0.500000
vn 0.000000 -0.866025 -0.500000
vn 0.000000 -0.866025 -0.500000
vn 0.000000 -0.866025 -0.500000
vn -1.000000 0.000000 0.000000
vn -1.000000 0.000000 -0.000000
vn -1.000000 0.000000 -0.000000
vn -1.000000 0.000000 -0.000000
vn 0.000000 -0.332061 -0.943258
vn 0.000000 -0.332061 -0.943258
vn 0.000000 -0.332061 -0.943258
vn 0.000000 -0.332061 -0.943258
vn 0.000000 0.500001 -0.866025
vn 0.000000 0.500001 -0.866025
vn 0.000000 0.500001 -0.866025
vn 0.000000 0.500001 -0.866025
vn 0.000000 -0.866025 -0.500001
vn 0.000000 -0.866025 -0.500001
vn 0.000000 -0.866025 -0.500000
vn 0.000000 -0.866025 -0.500000
vn 0.000000 -0.332061 -0.943258
vn 0.000000 -0.332061 -0.943258
vn 0.000000 -0.332061 -0.943258
vn 0.000000 -0.332061 -0.943258
vn 0.000000 -0.866025 -0.500001
vn 0.000000 -0.866025 -0.500001
vn 0.000000 -0.866025 -0.500001
vn 0.000000 -0.866025 -0.500001
vn 0.000004 0.866025 0.500001
vn 0.000001 0.866025 0.500001
vn 0.000001 0.866025 0.500000
vn 0.000004 0.866025 0.500001
vn -0.000001 0.866025 0.500000
vn 0.000000 0.866026 0.500000
vn 0.000004 0.866026 0.500000
vn 0.000006 0.866025 0.500000
vn 0.000537 -0.865953 -0.500126
vn -0.000003 -0.866025 -0.500000
vn -0.000008 -0.866025 -0.500000
vn 0.001826 -0.865777 -0.500427
vn -0.000001 -0.866025 -0.500000
vn -0.000974 -0.866155 -0.499774
vn 0.000000 -0.866025 -0.500000
vn 0.000000 -0.866025 -0.500000
vn 0.001333 -0.865845 -0.500311
vn 0.000537 -0.865953 -0.500126
vn 0.001826 -0.865777 -0.500427
vn 0.003793 -0.865507 -0.500883
vn -0.000005 0.866025 0.500000
vn 0.000000 0.866026 0.500000
vn -0.000001 0.866025 0.500000
vn -0.000005 0.866025 0.500000
vn -0.000001 0.866026 0.500000
vn -0.000001 0.866026 0.500000
vn 0.000001 0.866025 0.500000
vn -0.000001 0.866025 0.500000
vn 1.000000 0.000000 0.000000
vn 1.000000 0.000000 0.000000
vn 1.000000 0.000000 0.000000
vn 1.000000 0.000000 0.000000
vn 1.000000 0.000000 0.000000
vn 0.000000 0.866026 0.500000
vn 0.000000 0.866026 0.500000
vn -0.000005 0.866025 0.500000
vn -0.000004 0.866026 0.500000
vn 0.000004 0.866026 0.500000
vn 0.000000 0.866026 0.500000
vn 0.000000 0.866026 0.500000
vn 0.000004 0.866026 0.500000
vn -1.000000 0.000000 0.000000
vn -1.000000 0.000000 0.000000
vn -1.000000 0.000000 0.000000
vn -1.000000 0.000000 -0.000000
vn -0.000001 0.866025 0.500000
vn 0.000001 0.866025 0.500000
vn 0.000001 0.866025 0.500001
vn -0.000002 0.866025 0.500001
vn 0.000002 0.866025 0.500000
vn 0.000002 0.866025 0.500000
vn 0.000001 0.866025 0.500000
vn 0.000001 0.866025 0.500000
vn 1.000000 0.000000 0.000000
vn 1.000000 0.000000 0.000000
vn 1.000000 0.000000 0.000000
vn 1.000000 0.000000 0.000000
vn -0.000001 -0.866026 -0.500000
vn 0.000537 -0.865953 -0.500126
vn 0.001333 -0.865845 -0.500311
vn 0.000000 -0.866026 -0.499999
vn -0.000002 -0.866026 -0.500000
vn -0.000003 -0.866025 -0.500000
vn 0.000537 -0.865953 -0.500126
vn -0.000001 -0.866026 -0.500000
vn -1.000000 0.000000 0.000000
vn -1.000000 0.000000 0.000000
vn -1.000000 0.000000 0.000000
vn -1.000000 0.000000 0.000000
vn -0.001896 -0.866277 -0.499560
vn -0.000974 -0.866155 -0.499774
vn -0.000001 -0.866025 -0.500000
vn -0.000002 -0.866025 -0.500000
vn 0.000000 -0.866025 -0.500000
vn 0.000000 -0.866025 -0.500000
vn 0.000000 -0.866025 -0.500000
vn 0.000000 -0.866025 -0.500000
vn 1.000000 0.000000 0.000000
vn 1.000000 -0.000000 0.000000
vn 1.000000 0.000000 0.000000
vn 1.000000 0.000000 0.000000
vn -0.000005 0.866025 0.500000
vn -0.000001 0.866025 0.500000
vn -0.000001 0.866026 0.500000
vn -0.000001 0.866026 0.500000
vn -1.000000 0.000000 0.000000
vn -1.000000 0.000000 0.000000
vn -1.000000 0.000000 0.000000
vn -1.000000 0.000000 0.000000
vn -0.001828 -0.865782 -0.500418
vn -0.001828 -0.865782 -0.500418
vn -0.003819 -0.866288 -0.499531
vn -0.003735 -0.866267 -0.499568
vn -1.000000 0.000000 0.000000
vn -1.000000 0.000000 0.000000
vn -1.000000 0.000000 0.000000
vn -1.000000 0.000000 0.000000
vn -1.000000 0.000000 0.000000
vn -1.000000 0.000000 0.000000
vn -1.000000 0.000000 0.000000
vn -1.000000 0.000000 0.000000
vn -1.000000 0.000000 0.000000
vn -1.000000 0.000000 0.000000
vn -1.000000 0.000000 0.000000
vn 0.014970 0.864822 -0.501856
vn 0.012163 0.864829 -0.501919
vn 0.003978 0.864811 -0.502082
vn 0.003978 0.864811 -0.502082
vn -1.000000 0.000000 0.000000
vn -1.000000 0.000000 0.000000
vn -1.000000 0.000000 0.000000
vn -1.000000 0.000000 0.000000
vn -1.000000 0.000000 0.000000
vn -1.000000 0.000000 0.000000
vn -1.000000 0.000000 0.000000
vn -1.000000 0.000000 0.000000
vn -1.000000 0.000000 0.000000
vn -1.000000 0.000000 0.000000
vn -1.000000 0.000000 0.000000
vn -0.012851 -0.866659 0.498735
vn -0.011110 -0.866662 0.498772
vn -0.017976 -0.866637 0.498616
vn -0.017976 -0.866637 0.498616
vn -1.000000 0.000000 -0.000000
vn -1.000000 0.000000 -0.000000
vn -1.000000 0.000000 0.000000
vn -1.000000 0.000000 0.000000
vn -1.000000 0.000000 0.000000
vn -1.000000 0.000000 -0.000000
vn -1.000000 0.000000 0.000000
vn -1.000000 0.000000 0.000000
vn -1.000000 0.000000 0.000000
vn -1.000000 0.000000 0.000000
vn -1.000000 0.000000 -0.000000
vn -1.000000 0.000000 -0.000000
vn -1.000000 0.000000 -0.000000
vn -1.000000 0.000000 -0.000000
vn -1.000000 0.000000 0.000000
vn -0.001777 -0.866537 0.499110
vn -0.001777 -0.866537 0.499110
vn -0.006899 -0.866625 0.498912
vn -0.008644 -0.866650 0.498842
vn -1.000000 0.000000 0.000000
vn -1.000000 0.000000 0.000000
vn -1.000000 0.000000 0.000000
vn -1.000000 0.000000 0.000000
vn -1.000000 0.000000 0.000000
vn -1.000000 0.000000 0.000000
vn -1.000000 0.000000 0.000000
vn -1.000000 0.000000 0.000000
vn -1.000000 0.000000 0.000000
vn -1.000000 0.000000 0.000000
vn -1.000000 0.000000 0.000000
vn 0.029725 0.864890 -0.501080
vn 0.029725 0.864890 -0.501080
vn 0.018908 0.864827 -0.501714
vn 0.021597 0.864852 -0.501562
vn -1.000000 0.000000 0.000000
vn -1.000000 0.000000 -0.000000
vn -1.000000 0.000000 0.000000
vn -1.000000 0.000000 -0.000000
vn -1.000000 0.000000 0.000000
vn -1.000000 0.000000 0.000000
vn -1.000000 0.000000 -0.000000
vn -1.000000 0.000000 -0.000000
vn 1.000000 0.000000 0.000000
vn 1.000000 0.000000 0.000000
vn 1.000000 0.000000 0.000000
vn 1.000000 0.000000 0.000000
vn 1.000000 -0.000000 0.000000
vn 1.000000 0.000000 0.000000
vn 1.000000 0.000000 0.000000
vn -0.002679 0.002025 0.999994
vn -0.001919 0.001452 0.999997
vn -0.009566 0.007224 0.999928
vn -0.009566 0.007224 0.999928
vn 1.000000 0.000127 0.000021
vn 1.000000 0.000582 0.000098
vn 0.999999 0.001052 0.000177
vn 1.000000 0.000434 0.000073
vn 1.000000 0.000000 0.000000
vn 1.000000 0.000127 0.000021
vn 1.000000 0.000434 0.000073
vn 1.000000 0.000000 0.000000
vn 1.000000 0.000000 0.000000
vn 1.000000 0.000000 0.000000
vn 1.000000 0.000000 0.000000
vn 0.000003 0.000000 -1.000000
vn 0.000002 0.000000 -1.000000
vn 0.000000 0.000000 -1.000000
vn 0.000000 0.000000 -1.000000
vn 1.000000 0.000000 0.000000
vn 1.000000 0.000000 0.000000
vn 1.000000 0.000000 0.000000
vn 1.000000 0.000000 0.000000
vn 1.000000 0.000000 0.000000
vn 1.000000 0.000000 0.000000
vn 1.000000 0.000000 0.000000
vn 1.000000 0.000000 0.000000
vn 1.000000 0.000000 0.000000
vn 1.000000 0.000000 0.000000
vn 1.000000 0.000000 0.000000
vn 1.000000 0.000000 0.000000
vn 1.000000 0.000000 0.000000
vn 1.000000 -0.000000 0.000000
vn 1.000000 0.000000 0.000000
vn 1.000000 0.000000 0.000000
vn 0.000002 0.000000 -1.000000
vn 0.000003 0.000000 -1.000000
vn 0.000003 0.000000 -1.000000
vn 0.000002 0.000000 -1.000000
vn 0.000003 0.000000 -1.000000
vn 1.000000 0.000000 0.000000
vn 1.000000 0.000000 0.000000
vn 1.000000 0.000127 0.000021
vn 1.000000 0.000000 0.000000
vn 1.000000 0.000000 0.000000
vn 1.000000 0.000000 0.000000
vn 1.000000 0.000000 0.000000
vn 1.000000 0.000582 0.000098
vn 1.000000 0.000127 0.000021
vn 0.000003 0.000000 1.000000
vn 0.000003 -0.000000 1.000000
vn -0.001919 0.001452 0.999997
vn -0.002679 0.002025 0.999994
vn 1.000000 -0.000000 0.000000
vn 1.000000 -0.000000 0.000000
vn 1.000000 0.000000 0.000000
vn 1.000000 -0.000000 0.000000
vn 1.000000 0.000000 0.000000
vn 1.000000 0.000000 0.000000
vn 1.000000 -0.000000 0.000000
vn 1.000000 0.000000 0.000000
s off
g initialShadingGroup Sunmao_006_C
f 162/237/633 163/238/634 164/239/635 165/240/636
f 163/238/637 166/241/638 167/242/639 164/239/640
f 165/240/641 164/239/642 168/243/643 169/244/644
f 170/245/645 162/246/646 165/247/647 171/248/648
f 164/239/649 167/242/650 172/249/651 168/243/652
f 169/244/653 168/243/654 173/250/655 174/251/656
f 163/252/657 162/253/658 170/254/659 175/255/660
f 232/256/661 233/257/662 176/258/663 177/259/664
f 171/248/665 165/247/666 169/260/667 178/261/668
f 193/262/669 262/263/670 263/264/671
f 168/243/672 172/249/673 179/265/674 173/250/675
f 178/261/676 169/260/677 174/266/678 180/267/679
f 182/268/680 180/269/681 174/270/682 173/271/683
f 175/272/684 170/245/685 171/248/686 183/273/687
f 183/273/688 171/248/689 178/261/690 184/274/691
f 197/275/692 258/276/693 259/277/694
f 184/274/695 178/261/696 180/267/697 182/278/698
f 187/279/699 175/272/700 183/273/701 188/280/702
f 253/281/703 254/282/704 241/283/705 242/284/706
f 193/262/707 198/285/708 261/286/709 262/263/710
f 188/280/711 183/273/712 184/274/713 189/287/714
f 190/288/715 191/289/716 185/290/717 192/291/718
f 237/292/719 256/293/720 257/294/721 213/295/722
f 249/296/723 250/297/724 245/298/725 246/299/726
f 189/287/727 184/274/728 182/278/729 196/300/730
f 210/301/731 260/302/732 261/286/733 198/285/734
f 187/279/735 188/280/736 198/303/737 193/262/738
f 252/304/739 253/281/740 242/284/741 243/305/742
f 197/275/743 219/306/744 213/295/745 257/294/746 258/276/747
f 199/307/748 191/289/749 190/288/750 194/308/751
f 204/309/752 205/310/753 191/289/754 199/307/755
f 240/311/756 241/283/757 254/282/758 255/312/759
f 201/313/760 200/314/761 205/310/762 204/309/763
f 208/315/764 199/307/765 194/308/766 209/316/767
f 219/317/768 239/318/769 202/319/770 236/320/771
f 212/321/772 204/309/773 199/307/774 208/315/775
f 216/322/776 201/313/777 204/309/778 212/321/779
f 194/323/780 207/324/781 217/325/782 209/326/783
f 236/320/784 237/327/785 213/328/786 219/317/787
f 220/329/788 208/315/789 209/316/790 217/330/791
f 218/331/792 221/332/793 207/333/794 214/334/795
f 222/335/796 212/321/797 208/315/798 220/329/799
f 223/336/800 201/337/801 216/338/802 224/339/803
f 221/332/804 220/340/805 217/341/806 207/333/807
f 248/342/808 249/296/809 246/299/810 247/343/811
f 226/344/812 227/345/813 221/332/814 218/331/815
f 224/346/816 216/322/817 212/321/818 222/335/819
f 227/345/820 222/347/821 220/340/822 221/332/823
f 225/348/824 223/349/825 227/345/826 226/344/827
f 223/349/828 224/350/829 222/347/830 227/345/831
f 179/265/832 172/249/833 228/351/834 181/352/835
f 203/353/836 230/354/837 231/355/838 195/356/839
f 234/357/840 235/358/841 206/359/842 211/360/843
f 226/344/844 202/319/845 215/361/846 225/348/847
f 198/303/848 234/357/849 211/360/850 210/362/851
f 185/290/852 230/354/853 203/353/854 229/363/855
f 177/259/856 238/364/857 228/351/858 232/256/859
f 197/275/860 259/277/861 260/302/862 210/301/863 219/306/864
f 205/310/865 230/354/866 185/290/867 191/289/868
f 231/355/869 230/354/870 205/310/871 200/314/872
f 201/337/873 223/336/874 248/342/875 247/343/876
f 232/256/877 228/351/878 172/249/879 167/242/880
f 167/242/881 166/241/882 233/257/883 232/256/884
f 263/264/885 175/255/886 187/279/887 193/262/888
f 189/287/889 234/357/890 198/303/891 188/280/892
f 196/300/893 235/358/894 234/357/895 189/287/896
f 182/268/897 173/271/898 240/311/899 255/312/900
f 236/320/901 202/319/902 226/344/903 218/331/904
f 218/331/905 214/334/906 237/327/907 236/320/908
f 207/324/909 256/293/910 237/292/911 214/365/912
f 229/363/913 203/353/914 238/364/915 177/259/916
f 244/366/917 245/298/918 250/297/919 251/367/920
f 210/362/921 211/360/922 239/318/923 219/317/924
f 251/367/925 252/304/926 243/305/927 244/366/928
f 240/311/929 173/271/930 179/368/931 181/369/932
f 181/369/933 241/283/934 240/311/935
f 242/284/936 241/283/937 181/369/938 228/370/939
f 243/305/940 242/284/941 228/370/942 238/371/943
f 244/366/944 243/305/945 238/371/946 203/372/947
f 203/372/948 245/298/949 244/366/950
f 246/299/951 245/298/952 203/372/953 195/373/954
f 247/343/955 246/299/956 195/373/957 231/374/958
f 201/337/959 247/343/960 231/374/961 200/375/962
f 248/342/963 223/336/964 225/376/965 215/377/966
f 215/377/967 249/296/968 248/342/969
f 215/377/970 202/378/971 250/297/972 249/296/973
f 251/367/974 250/297/975 202/378/976 239/379/977
f 211/380/978 252/304/979 251/367/980 239/379/981
f 211/380/982 253/281/983 252/304/984
f 211/380/985 206/381/986 254/282/987 253/281/988
f 255/312/989 254/282/990 206/381/991 235/358/992
f 182/268/993 255/312/994 235/358/995 196/300/996
f 194/323/997 190/382/998 192/383/999 270/384/1000
f 269/385/1001 270/384/1002 192/383/1003
f 268/386/1004 269/385/1005 192/383/1006 185/387/1007
f 267/388/1008 268/386/1009 185/387/1010 229/389/1011
f 266/390/1012 267/388/1013 229/389/1014 177/391/1015
f 261/286/1016 260/302/1017 186/392/1018
f 265/393/1019 266/390/1020 177/391/1021 176/394/1022
f 264/395/1023 265/393/1024 176/394/1025 233/257/1026
f 233/257/1027 166/241/1028 163/252/1029 264/395/1030
f 264/395/1031 163/252/1032 175/255/1033 263/264/1034
f 263/264/1035 262/263/1036 265/393/1037 264/395/1038
f 262/263/1039 261/286/1040 186/392/1041 266/390/1042 265/393/1043
f 260/302/1044 259/277/1045 267/388/1046 266/390/1047 186/392/1048
f 259/277/1049 258/276/1050 268/386/1051 267/388/1052
f 258/276/1053 257/294/1054 269/385/1055 268/386/1056
f 257/294/1057 256/293/1058 270/384/1059 269/385/1060
f 194/323/1061 270/384/1062 256/293/1063 207/324/1064
